<svg width="260" height="207" viewBox="0 0 260 207" xmlns="http://www.w3.org/2000/svg" xmlns:xlink="http://www.w3.org/1999/xlink"><svg viewBox="-1 239 65 65" width="65" height="65" id="branding" x="97" xmlns="http://www.w3.org/2000/svg"><defs><style>.acls-1{clip-path:url(#aclip-brading)}.acls-2,.acls-3,.cls-6{fill:none}.acls-2{opacity:.32}.acls-3,.cls-4,.cls-6{stroke:#000;stroke-miterlimit:10}.acls-3,.cls-6{stroke-width:.75px}.acls-3{opacity:.5}.acls-5{fill:#ddc2c2}.acls-7{fill:#74843d}.acls-8{fill:#f4bbb5}.acls-9{fill:#f9cdc7}.acls-10{fill:#fcd7aa}.acls-11{fill:#fac380}.acls-12{fill:#ffdfdc}.acls-13{fill:#fdf5f2}</style><clipPath id="aclip-brading"><path d="M0 240h63v63H0z"/></clipPath></defs><g id="abrading" class="acls-1"><g id="aGroup_29" data-name="Group 29" transform="translate(0 240)"><circle id="aEllipse_1" data-name="Ellipse 1" class="acls-2" cx="31.5" cy="31.5" r="31.5"/><g id="aGroup_1" data-name="Group 1" transform="translate(-667.067 -1477)"><g id="aGroup_3" data-name="Group 3" transform="translate(684 1495.659)"><path id="aPath_12" data-name="Path 12" class="acls-3" d="M32.171 6.074a1.566 1.566 0 0 1 1.556 1.556v19.123a1.566 1.566 0 0 1-1.556 1.556H1.856A1.566 1.566 0 0 1 .3 26.753V7.556A1.566 1.566 0 0 1 1.856 6h19.938" transform="translate(-.3 -1.924)"/><path id="aPath_19" data-name="Path 19" class="acls-5" d="M0 0h4v22H0z" transform="rotate(43.079 16.18 38.547)"/><path id="aPath_15" data-name="Path 15" class="acls-3" d="M19.133 15.941l7.6-8.136L33.553.5l1.779 1.7-14.6 15.337-2.6 1z" transform="translate(-5.166 -.5)"/><path id="aLine_4" data-name="Line 4" class="acls-3" transform="translate(5.633 4.521)" d="M0 0v21.494"/></g></g><g id="aGroup_28" data-name="Group 28" transform="rotate(-42.01 49.261 -.508)"><path id="aPath_20" data-name="Path 20" class="acls-7" d="M.132 83.84a31.653 31.653 0 0 1 4.383-7.206 28.262 28.262 0 0 1 6.563-5.664c.033-.019.009-.07-.023-.051A25.7 25.7 0 0 0-.021 83.784c-.038.102.112.149.153.056z" transform="translate(.027 -67.61)"/><path id="aPath_21" data-name="Path 21" class="acls-7" d="M45.648 77.81c1.691-2.8 1.7-6.838 4.751-8.687.056-.033.014-.13-.047-.093-3.093 1.84-3.154 5.869-4.8 8.715-.03.065.059.126.096.065z" transform="translate(-43.425 -65.805)"/><path id="aPath_22" data-name="Path 22" class="acls-7" d="M82.568 144.037c.028-.033-.028-.084-.056-.051-1.952 2.073-4.924 2.105-7.374 3.247a.077.077 0 0 0 .065.14c2.423-1.142 5.516-1.173 7.365-3.336z" transform="translate(-71.597 -137.269)"/><g id="aGroup_5" data-name="Group 5" transform="translate(9.627 5.968)"><path id="aPath_23" data-name="Path 23" class="acls-8" d="M209.775 129.786a.086.086 0 0 0 .084.093c.149.009.307.014.466.009a1.372 1.372 0 0 0 1.244-.368.828.828 0 1 0-1.109-1.23 2.154 2.154 0 0 0-.685 1.496z" transform="translate(-209.628 -128.1)"/><path id="aPath_24" data-name="Path 24" class="acls-8" d="M210.525 144.193a.069.069 0 0 0 .028.1c.121.061.256.116.391.172a1.437 1.437 0 0 0 1.225.154.8.8 0 0 0 .6-.894.823.823 0 0 0-.955-.433 2.312 2.312 0 0 0-1.289.901z" transform="translate(-210.33 -142.572)"/><path id="aPath_25" data-name="Path 25" class="acls-9" d="M207.611 138.651a.05.05 0 0 0 .042.079c.135.019.275.033.424.042a1.762 1.762 0 0 0 1.276-.191c.4-.233.661-.643.5-.927s-.634-.284-1.034-.121a2.819 2.819 0 0 0-1.208 1.118z" transform="translate(-207.557 -136.992)"/><path id="aPath_26" data-name="Path 26" class="acls-7" d="M213.083 153.061a.005.005 0 1 1-.009 0s.005-.005.009 0z" transform="translate(-212.773 -151.896)"/><path id="aPath_27" data-name="Path 27" class="acls-7" d="M207.544 163.539a.9.9 0 0 1 .135.1 1.032 1.032 0 0 0 .158.084 1.826 1.826 0 0 0 .345.075.025.025 0 0 1 0 .047.638.638 0 0 1-.4.009.585.585 0 0 1-.349-.2.08.08 0 0 1 .111-.115z" transform="translate(-207.392 -161.881)"/><path id="aPath_28" data-name="Path 28" class="acls-7" d="M206.994 150.487a.039.039 0 0 1 .042.065.586.586 0 0 0-.2.3 2.329 2.329 0 0 0-.023.307.082.082 0 0 1-.144.028c-.122-.253.111-.587.325-.7z" transform="translate(-206.633 -149.439)"/><path id="aPath_29" data-name="Path 29" class="acls-7" d="M206.869 160.913a.429.429 0 0 0 .5-.051.04.04 0 0 1 .061.051.488.488 0 0 1-.633.144.08.08 0 0 1 .072-.144z" transform="translate(-206.75 -159.324)"/></g><g id="aGroup_10" data-name="Group 10" transform="translate(4.074 .648)"><path id="aPath_30" data-name="Path 30" class="acls-8" d="M107.882 19.644c-.587.126-.736.764-.792 1.276a6.575 6.575 0 0 0 .089 2.026c.037.261.079.517.116.778a.043.043 0 0 0 .075.019c.429-.582 1.006-1.039 1.407-1.644a1.957 1.957 0 0 0 .326-1.728 1.087 1.087 0 0 0-1.221-.727z" transform="translate(-106.137 -19.355)"/><g id="aGroup_6" data-name="Group 6" transform="translate(1.366 .822)"><path id="aPath_31" data-name="Path 31" class="acls-10" d="M117.016 35.97a2.434 2.434 0 0 1-.019-.824c.037-.238.116-.466.163-.7 0-.009 0-.009-.009 0a2.292 2.292 0 0 0-.377 1.672c.037.206.284.066.242-.148z" transform="translate(-116.748 -34.3)"/><path id="aPath_32" data-name="Path 32" class="acls-10" d="M121.609 38.854a3.127 3.127 0 0 1-.4.689c-.158.2-.335.326-.5.508-.14.158-.023.377.126.284a2.6 2.6 0 0 0 .829-1.458c.02-.051-.031-.07-.055-.023z" transform="translate(-120.47 -38.488)"/><path id="aPath_33" data-name="Path 33" class="acls-10" d="M124.05 35.146a3.483 3.483 0 0 1-.279.578 5.423 5.423 0 0 0-.331.475c-.061.121.009.261.112.182a2.33 2.33 0 0 0 .573-1.22c.013-.066-.052-.066-.075-.015z" transform="translate(-123.106 -34.944)"/><path id="aPath_34" data-name="Path 34" class="acls-10" d="M118.773 35.327a4.66 4.66 0 0 1 .247-.824c0-.019-.009-.033-.019-.019a2.441 2.441 0 0 0-.47 1.668c.023.112.163.042.177-.07.033-.252.014-.494.065-.755z" transform="translate(-118.426 -34.342)"/><path id="aPath_35" data-name="Path 35" class="acls-10" d="M123.117 36.252a2.088 2.088 0 0 0-.377 1.36c.028.084.13.065.168-.037a3.6 3.6 0 0 0 .084-.6 4.042 4.042 0 0 1 .177-.7c.013-.041-.029-.065-.052-.023z" transform="translate(-122.434 -36.013)"/><path id="aPath_36" data-name="Path 36" class="acls-11" d="M121.859 32.843a3.55 3.55 0 0 1 .019-.666c.033-.2.1-.4.14-.6 0-.019-.014-.028-.023-.014a1.983 1.983 0 0 0-.256 1.356c.018.081.125.008.12-.076z" transform="translate(-121.479 -31.556)"/><path id="aPath_37" data-name="Path 37" class="acls-11" d="M123.7 33.959c0-.051-.047-.047-.061 0a4.044 4.044 0 0 1-.517 1.248c-.042.075.023.154.075.089a2.611 2.611 0 0 0 .503-1.337z" transform="translate(-122.816 -33.813)"/><path id="aPath_38" data-name="Path 38" class="acls-11" d="M124.851 39.828c.014-.056-.037-.075-.061-.019a3.256 3.256 0 0 1-.7 1.057c-.056.061-.009.158.051.112a2.2 2.2 0 0 0 .71-1.15z" transform="translate(-123.721 -39.393)"/><path id="aPath_39" data-name="Path 39" class="acls-11" d="M119.684 42.614a5.61 5.61 0 0 1-.047-.568 3.51 3.51 0 0 1 .112-.68s0-.009 0 0a2.174 2.174 0 0 0-.186 1.318c.024.079.126.016.121-.07z" transform="translate(-119.389 -40.902)"/><path id="aPath_40" data-name="Path 40" class="acls-11" d="M117.9 41.924a2.985 2.985 0 0 1-.037-.741 4.526 4.526 0 0 1 .177-.773c0-.014-.009-.019-.014-.009a2.517 2.517 0 0 0-.27 1.6c.022.099.157.025.144-.077z" transform="translate(-117.674 -39.984)"/><path id="aPath_41" data-name="Path 41" class="acls-11" d="M121.766 47.7c-.126.172-.238.359-.373.517a1.988 1.988 0 0 1-.219.224.643.643 0 0 0-.186.2c-.028.061-.019.144.037.135.158-.023.326-.279.438-.443a2.336 2.336 0 0 0 .331-.61c.006-.023-.01-.044-.028-.023z" transform="translate(-120.776 -46.941)"/><path id="aPath_42" data-name="Path 42" class="acls-11" d="M121.782 60.214c0-.056-.037-.075-.051-.121a1.028 1.028 0 0 0-.023-.116c0-.019-.023-.028-.037-.014a.264.264 0 0 0-.07.186c0 .075.014.172.075.186s.11-.047.106-.121z" transform="translate(-121.374 -58.633)"/></g><g id="aGroup_7" data-name="Group 7"><path id="aPath_43" data-name="Path 43" class="acls-9" d="M103.233 33.683a1.917 1.917 0 0 0 .149-1.444.692.692 0 0 0-.913-.391c-.484.256-.475.936-.48 1.4a7.528 7.528 0 0 0 .079 1.165v.014c.014.075.028.149.047.224a.1.1 0 0 0 .009.051c.042.2.084.415.13.62a.028.028 0 0 0 .051.009 6.481 6.481 0 0 0 .928-1.648z" transform="translate(-101.311 -30.949)"/><path id="aPath_44" data-name="Path 44" class="acls-12" d="M89.168 16.1a2.327 2.327 0 0 0-.158-1.761.894.894 0 0 0-1.216-.289c-.531.405-.359 1.216-.256 1.77a8.654 8.654 0 0 0 .377 1.379v.019c.037.089.075.172.107.261a.324.324 0 0 1 .023.061l.307.713a.035.035 0 0 0 .065 0 7.432 7.432 0 0 0 .751-2.153z" transform="translate(-87.427 -13.906)"/><path id="aPath_45" data-name="Path 45" class="acls-13" d="M100.812 51.641a9.575 9.575 0 0 1-.321-2.469.01.01 0 0 0-.019 0 8.57 8.57 0 0 0 .307 2.478c.001.023.038.014.033-.009z" transform="translate(-99.863 -47.518)"/><path id="aPath_46" data-name="Path 46" class="acls-13" d="M108.4 64.2a4.288 4.288 0 0 1 .168-1.8c0-.019-.023-.028-.028-.009a4.033 4.033 0 0 0-.177 1.821c.009.02.037.015.037-.012z" transform="translate(-107.358 -60.124)"/></g><g id="aGroup_8" data-name="Group 8" transform="translate(.882 1.077)"><path id="aPath_47" data-name="Path 47" class="acls-13" d="M111.585 39.373a1.952 1.952 0 0 0 .927-1.118.69.69 0 0 0-.54-.834c-.545-.056-.918.512-1.179.9a7.489 7.489 0 0 0-.582 1.011.01.01 0 0 0-.009.009c-.028.07-.061.14-.089.214 0 .019-.014.033-.019.051l-.238.587a.029.029 0 0 0 .037.037 6.72 6.72 0 0 0 1.692-.857z" transform="translate(-109.692 -37.4)"/><path id="aPath_48" data-name="Path 48" class="acls-12" d="M109.544 37.248a.915.915 0 0 0-.694-.214 2.249 2.249 0 0 0-1.439 1.1 5.76 5.76 0 0 0-.741 1.374.036.036 0 0 0-.019.019c-.107.238-.2.484-.289.731a.045.045 0 0 0 .051.056 10.1 10.1 0 0 0 2.068-.974c.512-.317 1.169-.7 1.286-1.346a.836.836 0 0 0-.223-.746z" transform="translate(-106.361 -37.031)"/><path id="aPath_49" data-name="Path 49" class="acls-13" d="M109.33 64.723a6.582 6.582 0 0 1-1.57 1.887c-.019.014 0 .042.023.028a5.654 5.654 0 0 0 1.56-1.9c.015-.015-.004-.024-.013-.015z" transform="translate(-107.688 -63.43)"/><path id="aPath_50" data-name="Path 50" class="acls-13" d="M114.149 67.261a6.867 6.867 0 0 1-1.789 1.9c-.019.014 0 .042.023.033a5.662 5.662 0 0 0 1.775-1.924s-.005-.014-.009-.009z" transform="translate(-112.074 -65.851)"/></g><g id="aGroup_9" data-name="Group 9" transform="translate(.278 3.051)"><path id="aPath_51" data-name="Path 51" class="acls-7" d="M94.125 80.525a1.39 1.39 0 0 1-.089.186 2.38 2.38 0 0 1-.647-1.276.031.031 0 0 1 .047-.033 1.356 1.356 0 0 1 .689 1.123z" transform="translate(-93.389 -79.398)"/><path id="aPath_52" data-name="Path 52" class="acls-7" d="M106.009 90.893a4.029 4.029 0 0 0-1.314.526.03.03 0 0 0-.051-.028.3.3 0 0 0-.037.042.477.477 0 0 0-.084-.135.022.022 0 0 0-.033 0 .348.348 0 0 0 .219.457.614.614 0 0 0 .461-.144 2.022 2.022 0 0 0 .871-.671.034.034 0 0 0-.032-.047z" transform="translate(-103.944 -90.357)"/><path id="aPath_53" data-name="Path 53" class="acls-7" d="M107.081 81.665a.987.987 0 0 0 .186.065.29.29 0 0 0 .084-.135c.177-.349.354-.7.526-1.048a.03.03 0 0 0-.023-.042.946.946 0 0 0-.755 1.039.3.3 0 0 0-.018.121z" transform="translate(-106.443 -80.449)"/></g></g><g id="aGroup_15" data-name="Group 15" transform="translate(8.899)"><path id="aPath_54" data-name="Path 54" class="acls-8" d="M202.4 45.279c-.554-.5-1.3-.191-1.859.126a8.089 8.089 0 0 0-1.975 1.56c-.233.224-.466.456-.7.68a.051.051 0 0 0 .033.089c.9.009 1.775.256 2.674.228a2.42 2.42 0 0 0 1.975-.922 1.353 1.353 0 0 0-.148-1.761z" transform="translate(-197.53 -42.917)"/><g id="aGroup_11" data-name="Group 11" transform="translate(.83 3.117)"><path id="aPath_55" data-name="Path 55" class="acls-10" d="M211.839 68.114a2.643 2.643 0 0 1 .773-.769c.261-.158.55-.238.815-.382a.01.01 0 0 0 0-.019 2.1 2.1 0 0 0-1.928.927.212.212 0 1 0 .34.243z" transform="translate(-211.323 -66.913)"/><path id="aPath_56" data-name="Path 56" class="acls-10" d="M217.832 90.089a2.919 2.919 0 0 1-1.006.023c-.321-.061-.606-.214-.918-.289-.275-.07-.377.3-.163.443a2.437 2.437 0 0 0 2.119-.061c.056-.028.028-.126-.032-.116z" transform="translate(-215.313 -88.748)"/><path id="aPath_57" data-name="Path 57" class="acls-10" d="M227.618 86.272a3.272 3.272 0 0 1-.8.1 4.982 4.982 0 0 0-.741-.07.177.177 0 0 0-.075.331 2.121 2.121 0 0 0 1.663-.233c.079-.044.023-.142-.047-.128z" transform="translate(-225.118 -85.369)"/><path id="aPath_58" data-name="Path 58" class="acls-10" d="M214.364 73.446a3.852 3.852 0 0 1 1-.363.024.024 0 0 0 0-.047 2.2 2.2 0 0 0-2 .787c-.084.13.1.279.219.2.269-.176.488-.423.781-.577z" transform="translate(-213.131 -72.739)"/><path id="aPath_59" data-name="Path 59" class="acls-10" d="M223.192 78.492c-.517-.009-1.365.14-1.63.652a.152.152 0 0 0 .177.214 3.234 3.234 0 0 0 .643-.405 4.071 4.071 0 0 1 .824-.363.049.049 0 0 0-.014-.098z" transform="translate(-220.953 -77.952)"/><path id="aPath_60" data-name="Path 60" class="acls-11" d="M225.958 69.528a3.645 3.645 0 0 1 .657-.568c.224-.135.47-.21.7-.331.019-.009.014-.047-.009-.047a1.815 1.815 0 0 0-1.519.829c-.067.103.091.196.171.117z" transform="translate(-224.981 -68.499)"/><path id="aPath_61" data-name="Path 61" class="acls-11" d="M226.048 81.558a.049.049 0 0 0-.051-.084 3.47 3.47 0 0 1-1.644.34.1.1 0 0 0-.019.191 2.314 2.314 0 0 0 1.714-.447z" transform="translate(-223.543 -80.79)"/><path id="aPath_62" data-name="Path 62" class="acls-11" d="M224.952 92.225a.056.056 0 0 0-.033-.107 3.115 3.115 0 0 1-1.626-.107c-.1-.033-.158.126-.065.177a2.116 2.116 0 0 0 1.724.037z" transform="translate(-222.513 -90.837)"/><path id="aPath_63" data-name="Path 63" class="acls-11" d="M215.716 73.5a5.9 5.9 0 0 1 .5-.573 2.929 2.929 0 0 1 .745-.438v-.009a2.041 2.041 0 0 0-1.421.9.107.107 0 0 0 .176.12z" transform="translate(-215.219 -72.22)"/><path id="aPath_64" data-name="Path 64" class="acls-11" d="M209.048 72.765a3.38 3.38 0 0 1 .675-.713 3.577 3.577 0 0 1 .894-.424.014.014 0 0 0 0-.028 2.313 2.313 0 0 0-1.765 1.029c-.079.112.108.247.196.136z" transform="translate(-208.831 -71.382)"/><path id="aPath_65" data-name="Path 65" class="acls-11" d="M217.219 91.95a6.908 6.908 0 0 1-.82-.1 3.112 3.112 0 0 1-.405-.121.657.657 0 0 0-.354-.1.118.118 0 0 0-.093.182c.163.219.554.233.806.261a2.114 2.114 0 0 0 .871-.056c.028-.01.032-.061-.005-.066z" transform="translate(-215.213 -90.479)"/><path id="aPath_66" data-name="Path 66" class="acls-11" d="M219.68 87.213c.047-.056.037-.121.07-.182a1.385 1.385 0 0 0 .093-.135.054.054 0 0 0-.023-.07.229.229 0 0 0-.238.065c-.07.065-.154.177-.112.275a.123.123 0 0 0 .21.047z" transform="translate(-218.964 -85.886)"/></g><g id="aGroup_12" data-name="Group 12" transform="translate(.35)"><path id="aPath_67" data-name="Path 67" class="acls-9" d="M200.7 30.851a2.4 2.4 0 0 0 1.19-1.351.861.861 0 0 0-.643-1.053c-.675-.089-1.155.606-1.491 1.071a9.5 9.5 0 0 0-.756 1.23s-.009 0-.014.014a5.952 5.952 0 0 0-.116.261l-.028.061c-.107.238-.21.48-.312.717a.036.036 0 0 0 .047.047 7.91 7.91 0 0 0 2.123-.997z" transform="translate(-198.528 -27.11)"/><path id="aPath_68" data-name="Path 68" class="acls-12" d="M201.235 3.047a2.857 2.857 0 0 0 1.1-1.891 1.109 1.109 0 0 0-1.02-1.165c-.829.023-1.239.974-1.528 1.612a10.724 10.724 0 0 0-.606 1.663.065.065 0 0 0-.014.019c-.028.112-.051.228-.075.34 0 .028-.014.051-.019.079-.07.312-.135.629-.2.941-.009.042.033.065.07.047a9.261 9.261 0 0 0 2.292-1.645z" transform="translate(-198.856 .009)"/><path id="aPath_69" data-name="Path 69" class="acls-13" d="M201.714 39.142a11.576 11.576 0 0 1 1.444-2.725c.009-.014-.009-.033-.019-.019a10.649 10.649 0 0 0-1.467 2.73c-.009.024.033.038.042.014z" transform="translate(-201.525 -34.698)"/><path id="aPath_70" data-name="Path 70" class="acls-13" d="M204.574 60.368a5.375 5.375 0 0 1 1.467-1.7c.019-.014 0-.047-.019-.033a5.014 5.014 0 0 0-1.486 1.714.022.022 0 0 0 .038.019z" transform="translate(-204.254 -55.895)"/></g><g id="aGroup_13" data-name="Group 13" transform="translate(.343 4.388)"><path id="aPath_71" data-name="Path 71" class="acls-12" d="M203.29 96.618a1.14 1.14 0 0 0-.047-.9 2.805 2.805 0 0 0-1.9-1.206 7.018 7.018 0 0 0-1.915-.275.033.033 0 0 0-.028-.014c-.321-.023-.647-.019-.974-.023-.037 0-.07.051-.042.079a12.345 12.345 0 0 0 2.017 1.989 2.884 2.884 0 0 0 2.115.918 1 1 0 0 0 .774-.568z" transform="translate(-198.375 -94.2)"/><path id="aPath_72" data-name="Path 72" class="acls-13" d="M203.572 96.457a8.275 8.275 0 0 1-2.865-1.02c-.028-.014-.047.023-.023.042a7.074 7.074 0 0 0 2.879 1.006c.018.005.023-.023.009-.028z" transform="translate(-200.566 -95.377)"/><path id="aPath_73" data-name="Path 73" class="acls-13" d="M202.325 103.209a8.574 8.574 0 0 1-2.977-1.272c-.023-.014-.051.023-.028.037a6.994 6.994 0 0 0 3 1.244c.01 0 .015-.009.005-.009z" transform="translate(-199.268 -101.574)"/></g><g id="aGroup_14" data-name="Group 14" transform="translate(0 2.928)"><path id="aPath_74" data-name="Path 74" class="acls-7" d="M194.4 64.773a2.837 2.837 0 0 0 .382-1.887.042.042 0 0 0-.07-.023 1.677 1.677 0 0 0-.335 1.784s0 .009.009.014c-.014.028-.023.056-.037.084s.034.055.051.028z" transform="translate(-194.105 -62.852)"/><path id="aPath_75" data-name="Path 75" class="acls-7" d="M196.921 98.946a5.079 5.079 0 0 0-1.132-1.346.039.039 0 0 0 .014-.075 7.06 7.06 0 0 1-.252-.116l-.023-.014a.05.05 0 0 0-.023 0l-.186-.084c-.037-.019-.065.023-.056.056a2.506 2.506 0 0 0 1.6 1.635c.037.009.082-.024.058-.056z" transform="translate(-195.064 -95.697)"/><path id="aPath_76" data-name="Path 76" class="acls-7" d="M192.412 87.194a.032.032 0 0 0-.042-.037c-.382.154-.764.312-1.146.466h-.009c-.121.019-.247.135-.172.261.051.084.13.07.214.051a.925.925 0 0 0 1.155-.741z" transform="translate(-191.02 -86.023)"/></g></g></g></g></g></svg><svg viewBox="912 2582 97 207" width="97" height="207" id="ds" xmlns="http://www.w3.org/2000/svg"><defs><style>.bcls-1{fill:#f4c3c3;font-size:158px;font-family:PhilosophyScript,Philosophy Script;opacity:.26}</style></defs><text id="bds" class="bcls-1" transform="translate(922 2730)"><tspan x="0" y="0">ds</tspan></text></svg><svg viewBox="1313 2640 49 49" width="49" height="49" id="fb" x="162" y="49" xmlns="http://www.w3.org/2000/svg"><defs><style>.ccls-1{fill:none}.ccls-2{fill:#f4c3c3}</style></defs><g id="cGroup_42" data-name="Group 42" transform="translate(7 -73)"><circle id="cEllipse_3" data-name="Ellipse 3" class="ccls-1" cx="23.5" cy="23.5" r="23.5" transform="translate(1307 2714)"/><path id="cfacebook" class="ccls-2" d="M59.661 50.811V38.153h-3.617v-4.475h3.617v-3.707c0-3.913 2.191-6.661 6.81-6.661h3.261v4.711h-2.164a2.389 2.389 0 0 0-2.481 2.6v3.059h4.644L68.7 38.153h-3.613v12.658z" transform="translate(1267.956 2700.69)"/></g></svg><svg viewBox="1313 2713 49 49" width="49" height="49" id="fb-" x="97" y="130" xmlns="http://www.w3.org/2000/svg"><defs><style>.dcls-1{fill:#fff}.dcls-2{fill:#f4c3c3}</style></defs><g id="dGroup_42" data-name="Group 42" transform="translate(7)"><circle id="dEllipse_3" data-name="Ellipse 3" class="dcls-1" cx="23.5" cy="23.5" r="23.5" transform="translate(1307 2714)"/><path id="dfacebook" class="dcls-2" d="M59.661 50.811V38.153h-3.617v-4.475h3.617v-3.707c0-3.913 2.191-6.661 6.81-6.661h3.261v4.711h-2.164a2.389 2.389 0 0 0-2.481 2.6v3.059h4.644L68.7 38.153h-3.613v12.658z" transform="translate(1267.956 2700.69)"/></g></svg><svg viewBox="1376 2640.5 49 49" width="49" height="49" id="instagram" x="162" xmlns="http://www.w3.org/2000/svg"><defs><style>.ecls-1{fill:none}.ecls-2{fill:#f4c3c3}</style></defs><g id="eGroup_43" data-name="Group 43" transform="translate(0 -73)"><path id="ePath_18" data-name="Path 18" class="ecls-1" d="M23.5 0A23.5 23.5 0 1 1 0 23.5 23.5 23.5 0 0 1 23.5 0z" transform="translate(1377 2714.5)"/><path id="einstagram" class="ecls-2" d="M22.389 1.6H4.2a2.606 2.606 0 0 0-2.6 2.6v18.19a2.605 2.605 0 0 0 2.6 2.6h18.19a2.605 2.605 0 0 0 2.6-2.6V4.2a2.606 2.606 0 0 0-2.6-2.6zm-9.117 18.87a7.2 7.2 0 0 0 7.2-7.2 6.9 6.9 0 0 0-.138-1.27h2.055v9.376a.9.9 0 0 1-.9.9H5.1a.9.9 0 0 1-.9-.9V12h2.011a6.769 6.769 0 0 0-.135 1.278 7.2 7.2 0 0 0 7.196 7.192zm-4.5-7.2a4.5 4.5 0 1 1 4.5 4.5 4.5 4.5 0 0 1-4.5-4.5zM21.488 8.1h-2.1a.9.9 0 0 1-.9-.9V5.1a.9.9 0 0 1 .9-.9h2.1a.9.9 0 0 1 .9.9v2.1a.9.9 0 0 1-.9.9z" transform="translate(1387.4 2724.4)"/></g></svg><svg id="instagram-" data-name="Group 43" viewBox="1376 2713.5 49 49" width="49" height="49" x="211" y="98" xmlns="http://www.w3.org/2000/svg"><defs><style>.fcls-1{fill:#fff}.fcls-2{fill:#f4c3c3}</style></defs><path id="fPath_18" data-name="Path 18" class="fcls-1" d="M23.5 0A23.5 23.5 0 1 1 0 23.5 23.5 23.5 0 0 1 23.5 0z" transform="translate(1377 2714.5)"/><path id="finstagram" class="fcls-2" d="M22.389 1.6H4.2a2.606 2.606 0 0 0-2.6 2.6v18.19a2.605 2.605 0 0 0 2.6 2.6h18.19a2.605 2.605 0 0 0 2.6-2.6V4.2a2.606 2.606 0 0 0-2.6-2.6zm-9.117 18.87a7.2 7.2 0 0 0 7.2-7.2 6.9 6.9 0 0 0-.138-1.27h2.055v9.376a.9.9 0 0 1-.9.9H5.1a.9.9 0 0 1-.9-.9V12h2.011a6.769 6.769 0 0 0-.135 1.278 7.2 7.2 0 0 0 7.196 7.192zm-4.5-7.2a4.5 4.5 0 1 1 4.5 4.5 4.5 4.5 0 0 1-4.5-4.5zM21.488 8.1h-2.1a.9.9 0 0 1-.9-.9V5.1a.9.9 0 0 1 .9-.9h2.1a.9.9 0 0 1 .9.9v2.1a.9.9 0 0 1-.9.9z" transform="translate(1387.4 2724.4)"/></svg><svg viewBox="1250 2640 49 49" width="49" height="49" id="tumbler" x="162" y="98" xmlns="http://www.w3.org/2000/svg"><defs><style>.gcls-1{fill:none}.gcls-2{fill:#f4c3c3}</style></defs><g id="gGroup_41" data-name="Group 41" transform="translate(11 -73)"><circle id="gEllipse_3" data-name="Ellipse 3" class="gcls-1" cx="23.5" cy="23.5" r="23.5" transform="translate(1240 2714)"/><path id="gtumblr" class="gcls-2" d="M20.431 22.08a12.888 12.888 0 0 1-2.521.934 10.66 10.66 0 0 1-2.443.267 8.39 8.39 0 0 1-2.636-.38 5.694 5.694 0 0 1-1.955-1.086 3.954 3.954 0 0 1-1.122-1.5 6.6 6.6 0 0 1-.312-2.3v-7.72H7.04V7.181a6.313 6.313 0 0 0 2.194-1.207A6.023 6.023 0 0 0 10.7 4.085a8.655 8.655 0 0 0 .761-2.8h3.091v5.558h5.158v3.452h-5.158v5.642a9.069 9.069 0 0 0 .2 2.457 1.66 1.66 0 0 0 .744.867 3.128 3.128 0 0 0 1.651.439 5.891 5.891 0 0 0 3.284-1.086v3.466z" transform="translate(1249.96 2725.719)"/></g></svg><svg viewBox="1250 2713 49 49" width="49" height="49" id="tumbler-" x="162" y="147" xmlns="http://www.w3.org/2000/svg"><defs><style>.hcls-1{fill:#fff}.hcls-2{fill:#f4c3c3}</style></defs><g id="hGroup_41" data-name="Group 41" transform="translate(11)"><circle id="hEllipse_3" data-name="Ellipse 3" class="hcls-1" cx="23.5" cy="23.5" r="23.5" transform="translate(1240 2714)"/><path id="htumblr" class="hcls-2" d="M20.431 22.08a12.888 12.888 0 0 1-2.521.934 10.66 10.66 0 0 1-2.443.267 8.39 8.39 0 0 1-2.636-.38 5.694 5.694 0 0 1-1.955-1.086 3.954 3.954 0 0 1-1.122-1.5 6.6 6.6 0 0 1-.312-2.3v-7.72H7.04V7.181a6.313 6.313 0 0 0 2.194-1.207A6.023 6.023 0 0 0 10.7 4.085a8.655 8.655 0 0 0 .761-2.8h3.091v5.558h5.158v3.452h-5.158v5.642a9.069 9.069 0 0 0 .2 2.457 1.66 1.66 0 0 0 .744.867 3.128 3.128 0 0 0 1.651.439 5.891 5.891 0 0 0 3.284-1.086v3.466z" transform="translate(1249.96 2725.719)"/></g></svg><svg viewBox="1187 2640 49 49" width="49" height="49" id="twitter" x="211" xmlns="http://www.w3.org/2000/svg"><defs><style>.icls-1{fill:none}.icls-2{fill:#f4c3c3}</style></defs><g id="iGroup_40" data-name="Group 40" transform="translate(15 -73)"><circle id="iEllipse_3" data-name="Ellipse 3" class="icls-1" cx="23.5" cy="23.5" r="23.5" transform="translate(1173 2714)"/><path id="itwitter" class="icls-2" d="M24.3 5.247A10.285 10.285 0 0 1 21.436 6a4.854 4.854 0 0 0 2.192-2.654 10.228 10.228 0 0 1-3.166 1.164A5.072 5.072 0 0 0 16.823 3a4.893 4.893 0 0 0-4.985 4.8 4.633 4.633 0 0 0 .129 1.093A14.346 14.346 0 0 1 1.692 3.875a4.638 4.638 0 0 0-.675 2.412 4.75 4.75 0 0 0 2.218 3.993 5.115 5.115 0 0 1-2.258-.6v.061a4.85 4.85 0 0 0 4 4.7 5.187 5.187 0 0 1-2.251.082 4.97 4.97 0 0 0 4.654 3.334 10.255 10.255 0 0 1-6.192 2.053A10.474 10.474 0 0 1 0 19.843 14.513 14.513 0 0 0 7.641 22 13.81 13.81 0 0 0 21.825 8.35q0-.312-.014-.62A9.932 9.932 0 0 0 24.3 5.247z" transform="translate(1184.001 2725.002)"/></g></svg><svg viewBox="1187 2713 49 49" width="49" height="49" id="twitter-" x="211" y="49" xmlns="http://www.w3.org/2000/svg"><defs><style>.jcls-1{fill:#fff}.jcls-2{fill:#f4c3c3}</style></defs><g id="jGroup_40" data-name="Group 40" transform="translate(15)"><circle id="jEllipse_3" data-name="Ellipse 3" class="jcls-1" cx="23.5" cy="23.5" r="23.5" transform="translate(1173 2714)"/><path id="jtwitter" class="jcls-2" d="M24.3 5.247A10.285 10.285 0 0 1 21.436 6a4.854 4.854 0 0 0 2.192-2.654 10.228 10.228 0 0 1-3.166 1.164A5.072 5.072 0 0 0 16.823 3a4.893 4.893 0 0 0-4.985 4.8 4.633 4.633 0 0 0 .129 1.093A14.346 14.346 0 0 1 1.692 3.875a4.638 4.638 0 0 0-.675 2.412 4.75 4.75 0 0 0 2.218 3.993 5.115 5.115 0 0 1-2.258-.6v.061a4.85 4.85 0 0 0 4 4.7 5.187 5.187 0 0 1-2.251.082 4.97 4.97 0 0 0 4.654 3.334 10.255 10.255 0 0 1-6.192 2.053A10.474 10.474 0 0 1 0 19.843 14.513 14.513 0 0 0 7.641 22 13.81 13.81 0 0 0 21.825 8.35q0-.312-.014-.62A9.932 9.932 0 0 0 24.3 5.247z" transform="translate(1184.001 2725.002)"/></g></svg><svg viewBox="132 239 65 65" width="65" height="65" id="webdesign" x="97" y="65" xmlns="http://www.w3.org/2000/svg"><defs><style>.kcls-1{clip-path:url(#kclip-webdesign)}.kcls-2,.kcls-4{fill:none}.kcls-2{opacity:.32}.kcls-3{fill:#c6a1a1;opacity:.55}.cls-5,.kcls-4{stroke:#000;stroke-miterlimit:10}.kcls-4{stroke-width:.75px}.kcls-4,.kcls-6{opacity:.5}.kcls-7{fill:#f4bbb5}.kcls-8{fill:#f9cdc7}.kcls-9{fill:#74843d}</style><clipPath id="kclip-webdesign"><path d="M133 240h63v63h-63z"/></clipPath></defs><g id="kwebdesign" class="kcls-1"><g id="kGroup_26" data-name="Group 26" transform="translate(89 197)"><g id="kGroup_18" data-name="Group 18" transform="translate(-1139 -1431)"><circle id="kEllipse_4" data-name="Ellipse 4" class="kcls-2" cx="31.5" cy="31.5" r="31.5" transform="translate(1183 1474)"/><g id="kGroup_2" data-name="Group 2" transform="translate(1197.823 1493.271)"><path id="kPath_6" data-name="Path 6" class="kcls-3" d="M34.571 24.609H4.256A1.566 1.566 0 0 1 2.7 23.053V3.856A1.566 1.566 0 0 1 4.256 2.3h30.315a1.566 1.566 0 0 1 1.556 1.556v19.2a1.566 1.566 0 0 1-1.556 1.553z" transform="translate(.079 .182)"/><path id="kPath_7" data-name="Path 7" class="kcls-4" d="M32.171 22.609H1.856A1.566 1.566 0 0 1 .3 21.053V1.856A1.566 1.566 0 0 1 1.856.3h30.315a1.566 1.566 0 0 1 1.556 1.556v19.2a1.52 1.52 0 0 1-1.556 1.553z" transform="translate(-.3 -.3)"/><path id="kPath_11" data-name="Path 11" class="kcls-6" d="M26.658 34.718h-2.076V29.9h-5.188v4.818h-2.075a.507.507 0 0 0-.519.519V36.5a.507.507 0 0 0 .519.519h9.413a.507.507 0 0 0 .519-.519v-1.338a.646.646 0 0 0-.593-.444z" transform="translate(-4.571 -6.961)"/></g></g><g id="kNew_Symbol_42_copy" transform="rotate(-6 743.73 -763.752)"><g id="kGroup_21" data-name="Group 21" transform="translate(-.025 .043)"><g id="kGroup_19" data-name="Group 19" transform="translate(5.2 9.401)"><path id="kPath_77" data-name="Path 77" class="kcls-7" d="M109.916 201.752a1.422 1.422 0 0 0 2.368-1.574 2.342 2.342 0 0 0-1.905-1.14 10.07 10.07 0 0 0-.78-.185.158.158 0 0 0-.18.122 3.663 3.663 0 0 0 .497 2.777z" transform="translate(-109.234 -198.564)"/><path id="kPath_78" data-name="Path 78" class="kcls-7" d="M116.255 201.243a1.409 1.409 0 0 0 1.788.146 1.369 1.369 0 0 0-.161-1.837 2.485 2.485 0 0 0-1.969-.789 9.846 9.846 0 0 0-.731-.068.113.113 0 0 0-.122.132 3.936 3.936 0 0 0 1.195 2.416z" transform="translate(-114.651 -198.415)"/><path id="kPath_79" data-name="Path 79" class="kcls-8" d="M115.136 196.2a1.5 1.5 0 0 0 1.817.56 1.453 1.453 0 0 0 .214-1.944 2.67 2.67 0 0 0-1.871-1.267 9.338 9.338 0 0 0-.741-.239.119.119 0 0 0-.156.107 4.25 4.25 0 0 0 .737 2.783z" transform="translate(-114.024 -193.29)"/><path id="kPath_80" data-name="Path 80" class="kcls-9" d="M107.531 212.8c.01 0 0-.02-.01-.015s0 .015.01.015z" transform="translate(-107.477 -211.815)"/><path id="kPath_81" data-name="Path 81" class="kcls-9" d="M111.934 193.29a1.358 1.358 0 0 0 .283-.029 1.249 1.249 0 0 1 .3.01 2.951 2.951 0 0 1 .58.175c.039.015.063-.034.044-.068a1.128 1.128 0 0 0-.58-.346 1.038 1.038 0 0 0-.687 0 .139.139 0 0 0 .06.258z" transform="translate(-111.558 -192.972)"/><path id="kPath_82" data-name="Path 82" class="kcls-9" d="M106.873 195.644a.067.067 0 0 0 .117-.063 1.018 1.018 0 0 1-.058-.614 4.855 4.855 0 0 1 .224-.482c.034-.1-.093-.229-.19-.161-.395.276-.317.964-.093 1.32z" transform="translate(-106.687 -194.239)"/><path id="kPath_83" data-name="Path 83" class="kcls-9" d="M109.8 195.482a.736.736 0 0 1 .711.492.067.067 0 0 0 .132-.029.846.846 0 0 0-.828-.745c-.182 0-.197.282-.015.282z" transform="translate(-109.525 -195.09)"/></g><path id="kPath_84" data-name="Path 84" class="kcls-9" d="M27.78 184.148a3.094 3.094 0 0 0-4.415 1.2.1.1 0 0 0 .18.1 3.166 3.166 0 0 1 4.166-1.2c.079.037.137-.056.069-.1z" transform="translate(-22.215 -174.712)"/><path id="kPath_85" data-name="Path 85" class="kcls-9" d="M6.51 62.833C1.648 66.941-1.276 73.636.5 80a.056.056 0 0 0 .1-.03c-1.1-6.13.862-13.1 6.149-16.825a.2.2 0 1 0-.239-.312z" transform="translate(.025 -59.722)"/><g id="kGroup_20" data-name="Group 20" transform="translate(4.659)"><path id="kPath_86" data-name="Path 86" class="kcls-7" d="M109.03 8.595a2.169 2.169 0 0 0 .283-2.792 2.167 2.167 0 0 0-2.9-.292 3.331 3.331 0 0 0-1.3 2.88c-.063.385-.1.77-.132 1.135a.221.221 0 0 0 .2.234c1.36-.025 2.86-.127 3.849-1.165z" transform="translate(-104.528 -4.845)"/><path id="kPath_87" data-name="Path 87" class="kcls-8" d="M100.445 3.237a2.136 2.136 0 0 0 .492-2.665 2.075 2.075 0 0 0-2.787.014 3.818 3.818 0 0 0-1.486 2.855c-.088.37-.161.736-.219 1.087a.167.167 0 0 0 .175.2 6.085 6.085 0 0 0 3.825-1.491z" transform="translate(-96.4 -.043)"/><path id="kPath_88" data-name="Path 88" class="kcls-9" d="M125.668 102.582c-.01-.015-.029 0-.019.015a.012.012 0 1 0 .019-.015z" transform="translate(-124.181 -97.58)"/><path id="kPath_89" data-name="Path 89" class="kcls-9" d="M96.081 61.488a2.251 2.251 0 0 0-.088-.4 2.143 2.143 0 0 1-.039-.434 3.922 3.922 0 0 1 .156-.853c.015-.058-.063-.088-.1-.049a1.57 1.57 0 0 0-.39.877 1.439 1.439 0 0 0 .117.97.188.188 0 0 0 .344-.111z" transform="translate(-95.588 -56.827)"/><path id="kPath_90" data-name="Path 90" class="kcls-9" d="M100.536 93.241a.1.1 0 0 0-.107-.156 1.4 1.4 0 0 1-.862.18 6.5 6.5 0 0 1-.716-.239c-.151-.034-.307.171-.195.3.452.509 1.417.29 1.88-.085z" transform="translate(-98.469 -88.492)"/><path id="kPath_91" data-name="Path 91" class="kcls-9" d="M100.291 73.522a1.043 1.043 0 0 1 .58-1.087.1.1 0 0 0-.063-.185 1.2 1.2 0 0 0-.911 1.3c.033.25.423.23.394-.028z" transform="translate(-99.676 -68.729)"/></g></g></g></g></g></svg></svg>