<svg xmlns="http://www.w3.org/2000/svg" viewBox="1099 6389.608 226.316 58.152"><defs><style>.cls-1{fill:#f4c3c3;font-size:36px;font-family:PhilosophyScript,Philosophy Script}.cls-2{opacity:.67}.cls-3{fill:#4f4a2c}.cls-4{fill:#eac4a9}.cls-5{fill:#efd9c7}.cls-6{fill:#eaa459}.cls-7{fill:#fac380}.cls-8{fill:#f8eadb}.cls-9{fill:#fff}</style></defs><g id="Group_92" data-name="Group 92" transform="translate(0 6100)"><text id="Hello_I_m_Donna_" data-name="Hello, I’m Donna" class="cls-1" transform="translate(1105 323)"><tspan x="0" y="0">Hello, I’m Donna</tspan></text><g id="New_Symbol_43_copy" class="cls-2" transform="rotate(28 85.344 2745.332)"><g id="Group_61" data-name="Group 61" transform="translate(.076 -.04)"><path id="Path_30" data-name="Path 30" class="cls-3" d="M61.224 123.73c-.222-9.062.163-17.857 2.325-26.711a89.649 89.649 0 0 1 10.705-25.394c.059-.1-.074-.207-.148-.118-9.8 14.925-15.443 34.366-13.4 52.268a.26.26 0 0 0 .518-.045z" transform="translate(-51.374 -60.884)"/><path id="Path_31" data-name="Path 31" class="cls-3" d="M54.777 140.951c.874-10.365-4.812-21.87 1.288-31.435.118-.178-.148-.385-.267-.207-6.219 9.595-.7 21.159-1.377 31.6-.014.22.341.279.356.042z" transform="translate(-45.001 -93.06)"/><path id="Path_32" data-name="Path 32" class="cls-3" d="M88.271 138.627c.03-.133-.192-.192-.237-.059-2.634 8.662-11.061 12.941-16.434 19.648a.248.248 0 0 0 .385.311c5.315-6.678 14.079-11.12 16.286-19.9z" transform="translate(-60.963 -117.98)"/><g id="Group_50" data-name="Group 50" transform="translate(24.457 17.973)"><path id="Path_33" data-name="Path 33" class="cls-4" d="M166.337 128.223a.277.277 0 0 0 .37.148c.444-.192.9-.4 1.347-.637a4.319 4.319 0 0 0 3.021-2.8 2.635 2.635 0 0 0-4.9-1.94c-.875 1.661-.375 3.556.162 5.229z" transform="translate(-165.634 -121.345)"/><path id="Path_34" data-name="Path 34" class="cls-4" d="M170.174 137.141a.218.218 0 0 0 .222.252c.429 0 .888-.03 1.362-.059a4.611 4.611 0 0 0 3.717-1.288c.962-.977 1.288-2.5.459-3.391-.785-.844-2.3-.637-3.332.118a7.3 7.3 0 0 0-2.428 4.368z" transform="translate(-169.44 -130.515)"/><path id="Path_35" data-name="Path 35" class="cls-5" d="M167.893 132.5a.168.168 0 0 0 .222.178c.415-.133.829-.3 1.273-.474a5.6 5.6 0 0 0 3.376-2.354c.814-1.214.977-2.754.118-3.346-.814-.563-2.206.089-3.124 1.111a8.77 8.77 0 0 0-1.865 4.885z" transform="translate(-167.5 -125.565)"/><path id="Path_36" data-name="Path 36" class="cls-3" d="M167.922 156.177c.015.015 0 .044-.015.03s-.015-.045.015-.03z" transform="translate(-167.5 -151.016)"/><path id="Path_37" data-name="Path 37" class="cls-3" d="M168.292 166.063a3.12 3.12 0 0 1 .518.074 2.388 2.388 0 0 0 .563.015 5.409 5.409 0 0 0 1.1-.281c.074-.03.118.074.074.133a2.09 2.09 0 0 1-1.111.592 1.878 1.878 0 0 1-1.273-.059.261.261 0 0 1 .129-.474z" transform="translate(-167.633 -159.273)"/><path id="Path_38" data-name="Path 38" class="cls-3" d="M165.655 153.164a.119.119 0 0 1 .207.118 1.881 1.881 0 0 0-.163 1.14 9.9 9.9 0 0 0 .37.918c.059.193-.192.415-.37.281-.699-.547-.488-1.821-.044-2.457z" transform="translate(-165.248 -148.403)"/><path id="Path_39" data-name="Path 39" class="cls-3" d="M167.041 160.825a1.357 1.357 0 0 0 1.362-.844.13.13 0 0 1 .252.059 1.556 1.556 0 0 1-1.6 1.3c-.355-.011-.355-.53-.014-.515z" transform="translate(-166.559 -154.183)"/></g><g id="Group_55" data-name="Group 55" transform="translate(0 10.622)"><path id="Path_40" data-name="Path 40" class="cls-4" d="M24.139 72.364c-1.5 1.185-1.022 3.213-.459 4.753a20.589 20.589 0 0 0 3.109 5.641c.474.681.962 1.362 1.436 2.043a.135.135 0 0 0 .237-.044c.4-2.265 1.392-4.383 1.688-6.663a6.16 6.16 0 0 0-1.51-5.375 3.487 3.487 0 0 0-4.501-.355z" transform="translate(-19.723 -71.697)"/><g id="Group_51" data-name="Group 51" transform="translate(5.308 1.792)"><path id="Path_41" data-name="Path 41" class="cls-6" d="M37.819 93.347a7.7 7.7 0 0 1-1.219-2.324c-.237-.726-.326-1.5-.518-2.221 0-.03-.03-.015-.03 0-.459 1.673.385 4.042 1.273 5.3.405.563.908-.177.494-.755z" transform="translate(-35.927 -88.046)"/><path id="Path_42" data-name="Path 42" class="cls-6" d="M48.07 85.583a10.272 10.272 0 0 1-.148 2.532c-.178.785-.5 1.407-.7 2.147-.178.651.474 1.1.755.637.755-1.244.711-3.746.311-5.33-.055-.164-.233-.134-.218.014z" transform="translate(-45.527 -85.212)"/><path id="Path_43" data-name="Path 43" class="cls-6" d="M46.267 83.99a11.622 11.622 0 0 1 .015 2.029c-.059.607-.267 1.2-.281 1.821 0 .429.4.726.577.355.518-1.036.237-3.095-.089-4.279-.06-.208-.237-.116-.222.074z" transform="translate(-44.509 -83.797)"/><path id="Path_44" data-name="Path 44" class="cls-6" d="M40.065 89.993a15.078 15.078 0 0 1-.459-2.695c0-.059-.074-.074-.074-.015a7.781 7.781 0 0 0 1.022 5.417c.222.281.518-.1.4-.444-.282-.783-.667-1.449-.889-2.263z" transform="translate(-38.914 -86.735)"/><path id="Path_45" data-name="Path 45" class="cls-6" d="M42.768 87.561c-.118 1.288-.015 3.494.844 4.412.192.207.474 0 .415-.341a13.743 13.743 0 0 0-.592-1.821 14.147 14.147 0 0 1-.489-2.251c-.015-.147-.163-.147-.178.001z" transform="translate(-41.721 -86.909)"/><path id="Path_46" data-name="Path 46" class="cls-7" d="M38.679 88.879a11.429 11.429 0 0 1-.888-1.925c-.192-.622-.281-1.288-.459-1.91-.015-.059-.074-.059-.089 0a6.22 6.22 0 0 0 1.185 4.22c.172.208.384-.133.251-.385z" transform="translate(-37.009 -84.822)"/><path id="Path_47" data-name="Path 47" class="cls-7" d="M45.116 84.04c-.059-.148-.207-.074-.163.089a12.75 12.75 0 0 1 .281 4.294c-.015.267.281.4.341.148a8.333 8.333 0 0 0-.459-4.531z" transform="translate(-43.61 -83.936)"/><path id="Path_48" data-name="Path 48" class="cls-7" d="M49.437 87.084c-.03-.178-.207-.163-.192.03a10.507 10.507 0 0 1-.518 4.013c-.074.237.192.459.3.252a7.192 7.192 0 0 0 .41-4.295z" transform="translate(-46.82 -86.491)"/><path id="Path_49" data-name="Path 49" class="cls-7" d="M40.484 99.179a17.99 17.99 0 0 1-.933-1.555 9.759 9.759 0 0 1-.637-2.088c0-.015-.015-.015-.015 0a6.824 6.824 0 0 0 1.333 4.013c.193.207.4-.119.252-.37z" transform="translate(-38.46 -93.788)"/><path id="Path_50" data-name="Path 50" class="cls-7" d="M40.215 99.124a9.829 9.829 0 0 1-1.14-2.058 12.379 12.379 0 0 1-.577-2.458c0-.044-.044-.044-.059 0a7.935 7.935 0 0 0 1.5 4.945c.187.252.453-.162.276-.429z" transform="translate(-38.057 -92.979)"/><path id="Path_51" data-name="Path 51" class="cls-7" d="M48.888 95.085c-.1.666-.178 1.347-.341 2a8.864 8.864 0 0 1-.3.948 1.941 1.941 0 0 0-.252.829c0 .207.148.429.3.326.415-.3.533-1.259.622-1.88a7.326 7.326 0 0 0 .074-2.206c.001-.076-.091-.102-.103-.017z" transform="translate(-46.212 -93.367)"/><path id="Path_52" data-name="Path 52" class="cls-7" d="M46.436 113.28c-.089-.148-.207-.163-.311-.267a2.207 2.207 0 0 0-.222-.3.077.077 0 0 0-.133.015.815.815 0 0 0 .074.637c.1.207.281.474.474.429a.361.361 0 0 0 .118-.514z" transform="translate(-44.278 -108.409)"/></g><g id="Group_52" data-name="Group 52" transform="translate(0 .936)"><path id="Path_53" data-name="Path 53" class="cls-5" d="M26.635 93.4c-.133-1.5-.385-3.332-1.614-4.324a2.2 2.2 0 0 0-3.154.178c-1.022 1.421-.03 3.346.607 4.664a21.787 21.787 0 0 0 1.88 3.2.054.054 0 0 0 .015.044l.444.577c.03.044.074.089.1.133.415.533.829 1.051 1.244 1.584a.09.09 0 0 0 .163-.044 21.572 21.572 0 0 0 .315-6.012z" transform="translate(-18.266 -86.947)"/><path id="Path_54" data-name="Path 54" class="cls-8" d="M7.157 83.181c-.5-1.747-1.214-3.879-2.932-4.783-1.273-.666-3.169-.518-3.865.888-.948 1.9.681 3.968 1.777 5.4a27.185 27.185 0 0 0 3.021 3.391c0 .015.015.03.03.059l.681.592c.059.044.1.089.163.133.622.533 1.259 1.066 1.88 1.6a.116.116 0 0 0 .192-.089 25.162 25.162 0 0 0-.947-7.191z" transform="translate(-.076 -78.016)"/><path id="Path_55" data-name="Path 55" class="cls-9" d="M25.317 119.748a30.177 30.177 0 0 1-4.4-6.574c-.015-.044-.089-.015-.059.03a27.818 27.818 0 0 0 4.368 6.633c.047.029.135-.045.091-.089z" transform="translate(-17.777 -107.949)"/><path id="Path_56" data-name="Path 56" class="cls-9" d="M40.137 124.719a13.4 13.4 0 0 1-2.058-5.375c-.015-.059-.1-.059-.089 0a12.8 12.8 0 0 0 2.058 5.434c.045.06.134 0 .089-.059z" transform="translate(-32.375 -113.187)"/></g><g id="Group_53" data-name="Group 53" transform="translate(7.259 .173)"><path id="Path_57" data-name="Path 57" class="cls-9" d="M53.083 83.826c.726-1.318 1.54-2.991 1.066-4.486a2.2 2.2 0 0 0-2.724-1.614c-1.629.607-1.9 2.754-2.088 4.22a23.784 23.784 0 0 0-.222 3.7.054.054 0 0 0-.015.044l.044.726a.555.555 0 0 0 .015.163c.044.666.1 1.333.148 2 0 .089.1.1.163.044a20.41 20.41 0 0 0 3.613-4.797z" transform="translate(-49.1 -76.906)"/><path id="Path_58" data-name="Path 58" class="cls-8" d="M54.874 72.961a2.914 2.914 0 0 0-2.265.37c-1.718 1.036-2.236 3.346-2.547 5.168a18.56 18.56 0 0 0-.178 4.96.113.113 0 0 0-.03.074c.03.829.133 1.658.207 2.488.015.089.148.163.222.089a32.169 32.169 0 0 0 4.517-5.686c1.007-1.614 2.354-3.642 1.762-5.641a2.61 2.61 0 0 0-1.688-1.822z" transform="translate(-49.692 -72.867)"/><path id="Path_59" data-name="Path 59" class="cls-9" d="M54.276 108.746a20.983 20.983 0 0 1-1.806 7.581c-.03.074.074.1.1.044a17.823 17.823 0 0 0 1.777-7.611c.003-.044-.071-.06-.071-.014z" transform="translate(-51.966 -103.41)"/><path id="Path_60" data-name="Path 60" class="cls-9" d="M60.1 106.907a21.987 21.987 0 0 1-2.428 7.936c-.03.059.074.118.1.059a18.01 18.01 0 0 0 2.339-7.981c.017-.029-.011-.043-.011-.014z" transform="translate(-56.396 -101.853)"/></g><g id="Group_54" data-name="Group 54" transform="translate(4.155 8.74)"><path id="Path_61" data-name="Path 61" class="cls-3" d="M31.805 145.321a2.507 2.507 0 0 1 0 .666 7.523 7.523 0 0 1-3.642-2.724.1.1 0 0 1 .089-.163 4.288 4.288 0 0 1 3.553 2.221z" transform="translate(-28.139 -141.267)"/><path id="Path_62" data-name="Path 62" class="cls-3" d="M51.065 133.9a12.771 12.771 0 0 0-3.006 3.361.1.1 0 0 0-.192 0 .835.835 0 0 1-.059.178 1.7 1.7 0 0 0-.429-.267.073.073 0 0 0-.089.059 1.1 1.1 0 0 0 1.259.992 1.867 1.867 0 0 0 1.111-1.066 6.4 6.4 0 0 0 1.54-3.139c.043-.075-.061-.178-.135-.118z" transform="translate(-44.452 -133.414)"/><path id="Path_63" data-name="Path 63" class="cls-3" d="M48.33 135.162a2.1 2.1 0 0 0 .622-.089.965.965 0 0 0 .044-.5v-.03c.015-1.244.015-2.488.03-3.731a.087.087 0 0 0-.133-.074 3.005 3.005 0 0 0-.681 4.027.846.846 0 0 0 .118.397z" transform="translate(-44.826 -130.723)"/></g></g><g id="Group_60" data-name="Group 60" transform="translate(17.504)"><path id="Path_64" data-name="Path 64" class="cls-4" d="M141.215 27.157c-2.28-.651-3.968 1.288-5.123 2.976a25.491 25.491 0 0 0-3.42 7.226c-.355.977-.681 1.954-1.022 2.932a.167.167 0 0 0 .222.207c2.562-1.244 5.419-1.777 7.936-3.124 2.1-1.125 3.983-2.961 4.324-5.419a4.318 4.318 0 0 0-2.917-4.798z" transform="translate(-129.664 -23.02)"/><g id="Group_56" data-name="Group 56" transform="translate(2.916 8.943)"><path id="Path_65" data-name="Path 65" class="cls-6" d="M139.539 67.23a8.06 8.06 0 0 1 1.125-3.272c.518-.814 1.229-1.451 1.792-2.236a.033.033 0 0 0-.044-.044c-2.251.489-3.835 3.257-4.19 5.36a.668.668 0 1 0 1.317.192z" transform="translate(-138.175 -61.479)"/><path id="Path_66" data-name="Path 66" class="cls-6" d="M150.093 82.615a9.075 9.075 0 0 1-2.828 1.481c-1.007.281-2.029.252-3.021.459a.753.753 0 0 0 .163 1.481c2.132.237 4.723-1.555 5.952-3.169.119-.134-.103-.367-.266-.252z" transform="translate(-142.836 -79.292)"/><path id="Path_67" data-name="Path 67" class="cls-6" d="M156.061 74.247a10.161 10.161 0 0 1-2.132 1.392 15.109 15.109 0 0 0-2.206.844.565.565 0 0 0 .252 1.051c1.644.015 3.524-1.762 4.412-3.021.148-.207-.149-.4-.326-.266z" transform="translate(-149.455 -72.153)"/><path id="Path_68" data-name="Path 68" class="cls-6" d="M142.905 68.031a12.2 12.2 0 0 1 2.339-2.443c.059-.044 0-.148-.074-.118-2.088.77-4.309 2.739-4.59 5.079-.059.489.681.666.9.267.537-.916.803-1.911 1.425-2.785z" transform="translate(-140.194 -64.709)"/><path id="Path_69" data-name="Path 69" class="cls-6" d="M152.716 69.911c-1.481.7-3.7 2.325-3.716 4.161a.486.486 0 0 0 .814.355 11.6 11.6 0 0 0 1.259-2.058 12.987 12.987 0 0 1 1.836-2.191c.148-.134-.03-.341-.193-.267z" transform="translate(-147.369 -68.483)"/><path id="Path_70" data-name="Path 70" class="cls-7" d="M150.56 64.956a11.307 11.307 0 0 1 1.066-2.547c.444-.7 1.051-1.259 1.51-1.925.044-.059-.03-.148-.089-.118-1.7.622-2.947 2.769-3.154 4.5-.029.386.563.446.667.09z" transform="translate(-148.13 -60.36)"/><path id="Path_71" data-name="Path 71" class="cls-7" d="M154.77 70.459a.156.156 0 0 0-.267-.163 11 11 0 0 1-4.205 3.287.305.305 0 0 0 .222.563 7.338 7.338 0 0 0 4.25-3.687z" transform="translate(-148.342 -68.765)"/><path id="Path_72" data-name="Path 72" class="cls-7" d="M155.809 82.733a.179.179 0 0 0-.237-.267 9.872 9.872 0 0 1-4.783 1.984.3.3 0 0 0 .059.592 6.7 6.7 0 0 0 4.961-2.309z" transform="translate(-148.7 -79.158)"/><path id="Path_73" data-name="Path 73" class="cls-7" d="M143.765 74.041a18.143 18.143 0 0 1 .622-2.339 9.476 9.476 0 0 1 1.51-2.3c.015-.015 0-.044-.015-.03a6.551 6.551 0 0 0-2.784 4.575.341.341 0 0 0 .667.094z" transform="translate(-142.341 -68.038)"/><path id="Path_74" data-name="Path 74" class="cls-7" d="M138.759 73.592a10.761 10.761 0 0 1 .918-2.991 12.083 12.083 0 0 1 1.954-2.473c.03-.044 0-.1-.059-.074a7.383 7.383 0 0 0-3.583 5.419.394.394 0 0 0 .77.119z" transform="translate(-137.987 -66.908)"/><path id="Path_75" data-name="Path 75" class="cls-7" d="M148.937 90.078a24.5 24.5 0 0 1-2.473.874 9.792 9.792 0 0 1-1.318.222 2.054 2.054 0 0 0-1.155.222.381.381 0 0 0-.015.651c.77.385 1.91-.118 2.665-.385a6.909 6.909 0 0 0 2.4-1.377c.074-.085 0-.237-.104-.207z" transform="translate(-142.938 -85.674)"/><path id="Path_76" data-name="Path 76" class="cls-7" d="M147.359 92.2c.059-.222-.059-.4-.059-.622a3.085 3.085 0 0 0 .059-.518.155.155 0 0 0-.163-.163.715.715 0 0 0-.592.518.905.905 0 0 0 .059.948.423.423 0 0 0 .696-.163z" transform="translate(-145.239 -86.378)"/></g><g id="Group_57" data-name="Group 57" transform="translate(.233)"><path id="Path_77" data-name="Path 77" class="cls-5" d="M135.69 32.223c.933-1.614 2-3.657 1.481-5.538a2.726 2.726 0 0 0-3.317-2.088c-2.043.7-2.428 3.361-2.739 5.168a27.839 27.839 0 0 0-.4 4.59c-.015.015-.015.03-.015.059l.044.9a.978.978 0 0 0 .015.207c.044.829.074 1.658.118 2.488 0 .1.133.133.207.059a26.323 26.323 0 0 0 4.606-5.845z" transform="translate(-129.096 -20.846)"/><path id="Path_78" data-name="Path 78" class="cls-8" d="M126.076 9.1c.755-2.132 1.555-4.783.459-6.944-.8-1.584-2.828-2.8-4.546-1.88-2.325 1.244-2.162 4.516-2.088 6.737a34.263 34.263 0 0 0 .622 5.6.111.111 0 0 0-.015.074c.089.355.178.726.267 1.081.015.089.044.163.059.252l.755 2.976a.15.15 0 0 0 .267.044 29.845 29.845 0 0 0 4.22-7.94z" transform="translate(-119.867 .04)"/><path id="Path_79" data-name="Path 79" class="cls-9" d="M130.856 52.583a37.46 37.46 0 0 1 .267-9.8c.015-.059-.074-.074-.074-.03a34.288 34.288 0 0 0-.341 9.846c.015.073.163.058.148-.016z" transform="translate(-128.926 -36.393)"/><path id="Path_80" data-name="Path 80" class="cls-9" d="M134.933 68.3a16.734 16.734 0 0 1 1.777-6.915c.03-.059-.059-.133-.1-.059a15.75 15.75 0 0 0-1.81 6.974c0 .069.133.084.133 0z" transform="translate(-132.589 -52.209)"/></g><g id="Group_58" data-name="Group 58" transform="translate(1.574 12.639)"><path id="Path_81" data-name="Path 81" class="cls-8" d="M146.287 88.927a3.52 3.52 0 0 0-1.407-2.488c-1.94-1.555-4.842-1.17-7.107-.755a23.138 23.138 0 0 0-5.849 1.91.125.125 0 0 0-.1 0c-.948.4-1.88.859-2.813 1.3a.18.18 0 0 0-.015.3 40.292 40.292 0 0 0 8.558 2.828c2.31.489 5.256 1.17 7.315-.37a3.188 3.188 0 0 0 1.418-2.725z" transform="translate(-128.922 -85.317)"/><path id="Path_82" data-name="Path 82" class="cls-9" d="M141.111 102.289a26.331 26.331 0 0 1-9.595 1.14c-.089 0-.089.133 0 .148a22.61 22.61 0 0 0 9.624-1.2c.045-.029.016-.103-.029-.088z" transform="translate(-131.076 -99.774)"/><path id="Path_83" data-name="Path 83" class="cls-9" d="M143.532 112.377a27.546 27.546 0 0 1-10.261.577c-.089-.015-.1.133-.015.148a22.288 22.288 0 0 0 10.305-.681c.001-.029-.014-.058-.029-.044z" transform="translate(-132.564 -108.367)"/></g><g id="Group_59" data-name="Group 59" transform="translate(0 11.704)"><path id="Path_84" data-name="Path 84" class="cls-3" d="M120.335 84.972a8.952 8.952 0 0 0-1.584-5.908.122.122 0 0 0-.222.03 5.328 5.328 0 0 0 1.555 5.553.054.054 0 0 0 .044.015c0 .089.015.192.015.281 0 .118.177.148.192.029z" transform="translate(-118.291 -79.006)"/><path id="Path_85" data-name="Path 85" class="cls-3" d="M134.589 115.858a16.306 16.306 0 0 0-5.123-2.236.118.118 0 0 0-.059-.222c-.3.015-.592.015-.874.03-.03 0-.059-.015-.089-.015a.111.111 0 0 0-.074.015c-.222 0-.429.015-.651.015-.133 0-.148.163-.074.237a7.95 7.95 0 0 0 6.87 2.4.124.124 0 0 0 .074-.224z" transform="translate(-126.222 -108.307)"/><path id="Path_86" data-name="Path 86" class="cls-3" d="M128.033 94.084c-.015-.059-.118-.1-.163-.044-.874.977-1.732 1.969-2.606 2.947a.052.052 0 0 0-.015.03c-.311.237-.518.74-.118.977.267.163.474.015.681-.163a2.928 2.928 0 0 0 2.221-3.747z" transform="translate(-123.93 -91.789)"/></g></g></g></g></g></svg>