<svg xmlns="http://www.w3.org/2000/svg" xmlns:xlink="http://www.w3.org/1999/xlink" viewBox="0 240 63 63">
  <defs>
    <style>
      .cls-1 {
        clip-path: url(#clip-brading);
      }

      .cls-2, .cls-3, .cls-6 {
        fill: none;
      }

      .cls-2 {
        opacity: 0.32;
      }

      .cls-3, .cls-4, .cls-6 {
        stroke: #000;
        stroke-miterlimit: 10;
      }

      .cls-3, .cls-6 {
        stroke-width: 0.75px;
      }

      .cls-3 {
        opacity: 0.5;
      }

      .cls-5 {
        fill: #ddc2c2;
      }

      .cls-7 {
        fill: #74843d;
      }

      .cls-8 {
        fill: #f4bbb5;
      }

      .cls-9 {
        fill: #f9cdc7;
      }

      .cls-10 {
        fill: #fcd7aa;
      }

      .cls-11 {
        fill: #fac380;
      }

      .cls-12 {
        fill: #ffdfdc;
      }

      .cls-13 {
        fill: #fdf5f2;
      }
    </style>
    <clipPath id="clip-brading">
      <rect y="240" width="63" height="63"/>
    </clipPath>
  </defs>
  <g id="brading" class="cls-1">
    <g id="Group_29" data-name="Group 29" transform="translate(0 240)">
      <circle id="Ellipse_1" data-name="Ellipse 1" class="cls-2" cx="31.5" cy="31.5" r="31.5"/>
      <g id="Group_1" data-name="Group 1" transform="translate(-667.067 -1477)">
        <g id="Group_3" data-name="Group 3" transform="translate(684 1495.659)">
          <path id="Path_12" data-name="Path 12" class="cls-3" d="M32.171,6.074a1.566,1.566,0,0,1,1.556,1.556V26.753a1.566,1.566,0,0,1-1.556,1.556H1.856A1.566,1.566,0,0,1,.3,26.753V7.556A1.566,1.566,0,0,1,1.856,6H21.794" transform="translate(-0.3 -1.924)"/>
          <path id="Path_13" data-name="Path 13" class="cls-4" d="M18.7,35.6" transform="translate(-5.062 -9.585)"/>
          <path id="Path_14" data-name="Path 14" class="cls-4" d="M22.5,35.6" transform="translate(-6.046 -9.585)"/>
          <path id="Path_19" data-name="Path 19" class="cls-5" d="M0,0H4V22H0Z" transform="translate(30.69 -0.659) rotate(43.079)"/>
          <path id="Path_15" data-name="Path 15" class="cls-3" d="M19.133,15.941l7.6-8.136L33.553.5l1.779,1.7-14.6,15.337-2.6,1Z" transform="translate(-5.166 -0.5)"/>
          <path id="Path_16" data-name="Path 16" class="cls-6" d="M20.5,22.7" transform="translate(-5.528 -6.246)"/>
          <line id="Line_4" data-name="Line 4" class="cls-3" y2="21.494" transform="translate(5.633 4.521)"/>
        </g>
      </g>
      <g id="Group_28" data-name="Group 28" transform="matrix(0.743, -0.669, 0.669, 0.743, 13, 32.825)">
        <path id="Path_20" data-name="Path 20" class="cls-7" d="M.132,83.84a31.653,31.653,0,0,1,4.383-7.206,28.262,28.262,0,0,1,6.563-5.664c.033-.019.009-.07-.023-.051A25.7,25.7,0,0,0-.021,83.784C-.059,83.886.091,83.933.132,83.84Z" transform="translate(0.027 -67.61)"/>
        <path id="Path_21" data-name="Path 21" class="cls-7" d="M45.648,77.81c1.691-2.8,1.7-6.838,4.751-8.687.056-.033.014-.13-.047-.093-3.093,1.84-3.154,5.869-4.8,8.715C45.522,77.81,45.611,77.871,45.648,77.81Z" transform="translate(-43.425 -65.805)"/>
        <path id="Path_22" data-name="Path 22" class="cls-7" d="M82.568,144.037c.028-.033-.028-.084-.056-.051-1.952,2.073-4.924,2.105-7.374,3.247a.077.077,0,0,0,.065.14C77.626,146.231,80.719,146.2,82.568,144.037Z" transform="translate(-71.597 -137.269)"/>
        <g id="Group_5" data-name="Group 5" transform="translate(9.627 5.968)">
          <path id="Path_23" data-name="Path 23" class="cls-8" d="M209.775,129.786a.086.086,0,0,0,.084.093c.149.009.307.014.466.009a1.372,1.372,0,0,0,1.244-.368.828.828,0,1,0-1.109-1.23A2.154,2.154,0,0,0,209.775,129.786Z" transform="translate(-209.628 -128.1)"/>
          <path id="Path_24" data-name="Path 24" class="cls-8" d="M210.525,144.193a.069.069,0,0,0,.028.1c.121.061.256.116.391.172a1.437,1.437,0,0,0,1.225.154.8.8,0,0,0,.6-.894.823.823,0,0,0-.955-.433A2.312,2.312,0,0,0,210.525,144.193Z" transform="translate(-210.33 -142.572)"/>
          <path id="Path_25" data-name="Path 25" class="cls-9" d="M207.611,138.651a.05.05,0,0,0,.042.079c.135.019.275.033.424.042a1.762,1.762,0,0,0,1.276-.191c.4-.233.661-.643.5-.927s-.634-.284-1.034-.121A2.819,2.819,0,0,0,207.611,138.651Z" transform="translate(-207.557 -136.992)"/>
          <path id="Path_26" data-name="Path 26" class="cls-7" d="M213.083,153.061a.005.005,0,1,1-.009,0S213.079,153.056,213.083,153.061Z" transform="translate(-212.773 -151.896)"/>
          <path id="Path_27" data-name="Path 27" class="cls-7" d="M207.544,163.539a.9.9,0,0,1,.135.1,1.032,1.032,0,0,0,.158.084,1.826,1.826,0,0,0,.345.075.025.025,0,0,1,0,.047.638.638,0,0,1-.4.009.585.585,0,0,1-.349-.2A.08.08,0,0,1,207.544,163.539Z" transform="translate(-207.392 -161.881)"/>
          <path id="Path_28" data-name="Path 28" class="cls-7" d="M206.994,150.487a.039.039,0,0,1,.042.065.586.586,0,0,0-.2.3,2.329,2.329,0,0,0-.023.307.082.082,0,0,1-.144.028C206.547,150.934,206.78,150.6,206.994,150.487Z" transform="translate(-206.633 -149.439)"/>
          <path id="Path_29" data-name="Path 29" class="cls-7" d="M206.869,160.913a.429.429,0,0,0,.5-.051.04.04,0,0,1,.061.051.488.488,0,0,1-.633.144A.08.08,0,0,1,206.869,160.913Z" transform="translate(-206.75 -159.324)"/>
        </g>
        <g id="Group_10" data-name="Group 10" transform="translate(4.074 0.648)">
          <path id="Path_30" data-name="Path 30" class="cls-8" d="M107.882,19.644c-.587.126-.736.764-.792,1.276a6.575,6.575,0,0,0,.089,2.026c.037.261.079.517.116.778a.043.043,0,0,0,.075.019c.429-.582,1.006-1.039,1.407-1.644a1.957,1.957,0,0,0,.326-1.728A1.087,1.087,0,0,0,107.882,19.644Z" transform="translate(-106.137 -19.355)"/>
          <g id="Group_6" data-name="Group 6" transform="translate(1.366 0.822)">
            <path id="Path_31" data-name="Path 31" class="cls-10" d="M117.016,35.97a2.434,2.434,0,0,1-.019-.824c.037-.238.116-.466.163-.7,0-.009,0-.009-.009,0a2.292,2.292,0,0,0-.377,1.672C116.811,36.324,117.058,36.184,117.016,35.97Z" transform="translate(-116.748 -34.3)"/>
            <path id="Path_32" data-name="Path 32" class="cls-10" d="M121.609,38.854a3.127,3.127,0,0,1-.4.689c-.158.2-.335.326-.5.508-.14.158-.023.377.126.284a2.6,2.6,0,0,0,.829-1.458C121.684,38.826,121.633,38.807,121.609,38.854Z" transform="translate(-120.47 -38.488)"/>
            <path id="Path_33" data-name="Path 33" class="cls-10" d="M124.05,35.146a3.483,3.483,0,0,1-.279.578,5.423,5.423,0,0,0-.331.475c-.061.121.009.261.112.182a2.33,2.33,0,0,0,.573-1.22C124.138,35.095,124.073,35.095,124.05,35.146Z" transform="translate(-123.106 -34.944)"/>
            <path id="Path_34" data-name="Path 34" class="cls-10" d="M118.773,35.327a4.66,4.66,0,0,1,.247-.824c0-.019-.009-.033-.019-.019a2.441,2.441,0,0,0-.47,1.668c.023.112.163.042.177-.07C118.741,35.83,118.722,35.588,118.773,35.327Z" transform="translate(-118.426 -34.342)"/>
            <path id="Path_35" data-name="Path 35" class="cls-10" d="M123.117,36.252a2.088,2.088,0,0,0-.377,1.36c.028.084.13.065.168-.037a3.6,3.6,0,0,0,.084-.6,4.042,4.042,0,0,1,.177-.7C123.182,36.234,123.14,36.21,123.117,36.252Z" transform="translate(-122.434 -36.013)"/>
            <path id="Path_36" data-name="Path 36" class="cls-11" d="M121.859,32.843a3.55,3.55,0,0,1,.019-.666c.033-.2.1-.4.14-.6,0-.019-.014-.028-.023-.014a1.983,1.983,0,0,0-.256,1.356C121.757,33,121.864,32.927,121.859,32.843Z" transform="translate(-121.479 -31.556)"/>
            <path id="Path_37" data-name="Path 37" class="cls-11" d="M123.7,33.959c0-.051-.047-.047-.061,0a4.044,4.044,0,0,1-.517,1.248c-.042.075.023.154.075.089A2.611,2.611,0,0,0,123.7,33.959Z" transform="translate(-122.816 -33.813)"/>
            <path id="Path_38" data-name="Path 38" class="cls-11" d="M124.851,39.828c.014-.056-.037-.075-.061-.019a3.256,3.256,0,0,1-.7,1.057c-.056.061-.009.158.051.112A2.2,2.2,0,0,0,124.851,39.828Z" transform="translate(-123.721 -39.393)"/>
            <path id="Path_39" data-name="Path 39" class="cls-11" d="M119.684,42.614a5.61,5.61,0,0,1-.047-.568,3.51,3.51,0,0,1,.112-.68s0-.009,0,0a2.174,2.174,0,0,0-.186,1.318C119.587,42.763,119.689,42.7,119.684,42.614Z" transform="translate(-119.389 -40.902)"/>
            <path id="Path_40" data-name="Path 40" class="cls-11" d="M117.9,41.924a2.985,2.985,0,0,1-.037-.741,4.526,4.526,0,0,1,.177-.773c0-.014-.009-.019-.014-.009a2.517,2.517,0,0,0-.27,1.6C117.778,42.1,117.913,42.026,117.9,41.924Z" transform="translate(-117.674 -39.984)"/>
            <path id="Path_41" data-name="Path 41" class="cls-11" d="M121.766,47.7c-.126.172-.238.359-.373.517a1.988,1.988,0,0,1-.219.224.643.643,0,0,0-.186.2c-.028.061-.019.144.037.135.158-.023.326-.279.438-.443a2.336,2.336,0,0,0,.331-.61C121.8,47.7,121.784,47.679,121.766,47.7Z" transform="translate(-120.776 -46.941)"/>
            <path id="Path_42" data-name="Path 42" class="cls-11" d="M121.782,60.214c0-.056-.037-.075-.051-.121a1.028,1.028,0,0,0-.023-.116c0-.019-.023-.028-.037-.014a.264.264,0,0,0-.07.186c0,.075.014.172.075.186S121.786,60.288,121.782,60.214Z" transform="translate(-121.374 -58.633)"/>
          </g>
          <g id="Group_7" data-name="Group 7">
            <path id="Path_43" data-name="Path 43" class="cls-9" d="M103.233,33.683a1.917,1.917,0,0,0,.149-1.444.692.692,0,0,0-.913-.391c-.484.256-.475.936-.48,1.4a7.528,7.528,0,0,0,.079,1.165s0,.009,0,.014c.014.075.028.149.047.224,0,.019,0,.033.009.051.042.2.084.415.13.62a.028.028,0,0,0,.051.009A6.481,6.481,0,0,0,103.233,33.683Z" transform="translate(-101.311 -30.949)"/>
            <path id="Path_44" data-name="Path 44" class="cls-12" d="M89.168,16.1a2.327,2.327,0,0,0-.158-1.761.894.894,0,0,0-1.216-.289c-.531.405-.359,1.216-.256,1.77a8.654,8.654,0,0,0,.377,1.379v.019c.037.089.075.172.107.261a.324.324,0,0,1,.023.061l.307.713a.035.035,0,0,0,.065,0A7.432,7.432,0,0,0,89.168,16.1Z" transform="translate(-87.427 -13.906)"/>
            <path id="Path_45" data-name="Path 45" class="cls-13" d="M100.812,51.641a9.575,9.575,0,0,1-.321-2.469c0-.014-.019-.014-.019,0a8.57,8.57,0,0,0,.307,2.478C100.78,51.673,100.817,51.664,100.812,51.641Z" transform="translate(-99.863 -47.518)"/>
            <path id="Path_46" data-name="Path 46" class="cls-13" d="M108.4,64.2a4.288,4.288,0,0,1,.168-1.8c0-.019-.023-.028-.028-.009a4.033,4.033,0,0,0-.177,1.821C108.372,64.232,108.4,64.227,108.4,64.2Z" transform="translate(-107.358 -60.124)"/>
          </g>
          <g id="Group_8" data-name="Group 8" transform="translate(0.882 1.077)">
            <path id="Path_47" data-name="Path 47" class="cls-13" d="M111.585,39.373a1.952,1.952,0,0,0,.927-1.118.69.69,0,0,0-.54-.834c-.545-.056-.918.512-1.179.9a7.489,7.489,0,0,0-.582,1.011.01.01,0,0,0-.009.009c-.028.07-.061.14-.089.214,0,.019-.014.033-.019.051l-.238.587a.029.029,0,0,0,.037.037A6.72,6.72,0,0,0,111.585,39.373Z" transform="translate(-109.692 -37.4)"/>
            <path id="Path_48" data-name="Path 48" class="cls-12" d="M109.544,37.248a.915.915,0,0,0-.694-.214,2.249,2.249,0,0,0-1.439,1.1,5.76,5.76,0,0,0-.741,1.374.036.036,0,0,0-.019.019c-.107.238-.2.484-.289.731a.045.045,0,0,0,.051.056,10.1,10.1,0,0,0,2.068-.974c.512-.317,1.169-.7,1.286-1.346A.836.836,0,0,0,109.544,37.248Z" transform="translate(-106.361 -37.031)"/>
            <path id="Path_49" data-name="Path 49" class="cls-13" d="M109.33,64.723a6.582,6.582,0,0,1-1.57,1.887c-.019.014,0,.042.023.028a5.654,5.654,0,0,0,1.56-1.9C109.358,64.723,109.339,64.714,109.33,64.723Z" transform="translate(-107.688 -63.43)"/>
            <path id="Path_50" data-name="Path 50" class="cls-13" d="M114.149,67.261a6.867,6.867,0,0,1-1.789,1.9c-.019.014,0,.042.023.033a5.662,5.662,0,0,0,1.775-1.924S114.153,67.256,114.149,67.261Z" transform="translate(-112.074 -65.851)"/>
          </g>
          <g id="Group_9" data-name="Group 9" transform="translate(0.278 3.051)">
            <path id="Path_51" data-name="Path 51" class="cls-7" d="M94.125,80.525a1.39,1.39,0,0,1-.089.186,2.38,2.38,0,0,1-.647-1.276.031.031,0,0,1,.047-.033A1.356,1.356,0,0,1,94.125,80.525Z" transform="translate(-93.389 -79.398)"/>
            <path id="Path_52" data-name="Path 52" class="cls-7" d="M106.009,90.893a4.029,4.029,0,0,0-1.314.526.03.03,0,0,0-.051-.028.3.3,0,0,0-.037.042.477.477,0,0,0-.084-.135.022.022,0,0,0-.033,0,.348.348,0,0,0,.219.457.614.614,0,0,0,.461-.144,2.022,2.022,0,0,0,.871-.671A.034.034,0,0,0,106.009,90.893Z" transform="translate(-103.944 -90.357)"/>
            <path id="Path_53" data-name="Path 53" class="cls-7" d="M107.081,81.665a.987.987,0,0,0,.186.065.29.29,0,0,0,.084-.135l0,0c.177-.349.354-.7.526-1.048a.03.03,0,0,0-.023-.042.946.946,0,0,0-.755,1.039A.3.3,0,0,0,107.081,81.665Z" transform="translate(-106.443 -80.449)"/>
          </g>
        </g>
        <g id="Group_15" data-name="Group 15" transform="translate(8.899)">
          <path id="Path_54" data-name="Path 54" class="cls-8" d="M202.4,45.279c-.554-.5-1.3-.191-1.859.126a8.089,8.089,0,0,0-1.975,1.56c-.233.224-.466.456-.7.68a.051.051,0,0,0,.033.089c.9.009,1.775.256,2.674.228a2.42,2.42,0,0,0,1.975-.922A1.353,1.353,0,0,0,202.4,45.279Z" transform="translate(-197.53 -42.917)"/>
          <g id="Group_11" data-name="Group 11" transform="translate(0.83 3.117)">
            <path id="Path_55" data-name="Path 55" class="cls-10" d="M211.839,68.114a2.643,2.643,0,0,1,.773-.769c.261-.158.55-.238.815-.382a.01.01,0,0,0,0-.019,2.1,2.1,0,0,0-1.928.927A.212.212,0,1,0,211.839,68.114Z" transform="translate(-211.323 -66.913)"/>
            <path id="Path_56" data-name="Path 56" class="cls-10" d="M217.832,90.089a2.919,2.919,0,0,1-1.006.023c-.321-.061-.606-.214-.918-.289-.275-.07-.377.3-.163.443a2.437,2.437,0,0,0,2.119-.061C217.92,90.177,217.892,90.079,217.832,90.089Z" transform="translate(-215.313 -88.748)"/>
            <path id="Path_57" data-name="Path 57" class="cls-10" d="M227.618,86.272a3.272,3.272,0,0,1-.8.1,4.982,4.982,0,0,0-.741-.07.177.177,0,0,0-.075.331,2.121,2.121,0,0,0,1.663-.233C227.744,86.356,227.688,86.258,227.618,86.272Z" transform="translate(-225.118 -85.369)"/>
            <path id="Path_58" data-name="Path 58" class="cls-10" d="M214.364,73.446a3.852,3.852,0,0,1,1-.363.024.024,0,0,0,0-.047,2.2,2.2,0,0,0-2,.787c-.084.13.1.279.219.2C213.852,73.847,214.071,73.6,214.364,73.446Z" transform="translate(-213.131 -72.739)"/>
            <path id="Path_59" data-name="Path 59" class="cls-10" d="M223.192,78.492c-.517-.009-1.365.14-1.63.652a.152.152,0,0,0,.177.214,3.234,3.234,0,0,0,.643-.405,4.071,4.071,0,0,1,.824-.363A.049.049,0,0,0,223.192,78.492Z" transform="translate(-220.953 -77.952)"/>
            <path id="Path_60" data-name="Path 60" class="cls-11" d="M225.958,69.528a3.645,3.645,0,0,1,.657-.568c.224-.135.47-.21.7-.331.019-.009.014-.047-.009-.047a1.815,1.815,0,0,0-1.519.829C225.72,69.514,225.878,69.607,225.958,69.528Z" transform="translate(-224.981 -68.499)"/>
            <path id="Path_61" data-name="Path 61" class="cls-11" d="M226.048,81.558a.049.049,0,0,0-.051-.084,3.47,3.47,0,0,1-1.644.34.1.1,0,0,0-.019.191A2.314,2.314,0,0,0,226.048,81.558Z" transform="translate(-223.543 -80.79)"/>
            <path id="Path_62" data-name="Path 62" class="cls-11" d="M224.952,92.225a.056.056,0,0,0-.033-.107,3.115,3.115,0,0,1-1.626-.107c-.1-.033-.158.126-.065.177A2.116,2.116,0,0,0,224.952,92.225Z" transform="translate(-222.513 -90.837)"/>
            <path id="Path_63" data-name="Path 63" class="cls-11" d="M215.716,73.5a5.9,5.9,0,0,1,.5-.573,2.929,2.929,0,0,1,.745-.438s0-.014,0-.009a2.041,2.041,0,0,0-1.421.9A.107.107,0,0,0,215.716,73.5Z" transform="translate(-215.219 -72.22)"/>
            <path id="Path_64" data-name="Path 64" class="cls-11" d="M209.048,72.765a3.38,3.38,0,0,1,.675-.713,3.577,3.577,0,0,1,.894-.424.014.014,0,0,0,0-.028,2.313,2.313,0,0,0-1.765,1.029C208.773,72.741,208.96,72.876,209.048,72.765Z" transform="translate(-208.831 -71.382)"/>
            <path id="Path_65" data-name="Path 65" class="cls-11" d="M217.219,91.95a6.908,6.908,0,0,1-.82-.1,3.112,3.112,0,0,1-.405-.121.657.657,0,0,0-.354-.1.118.118,0,0,0-.093.182c.163.219.554.233.806.261a2.114,2.114,0,0,0,.871-.056C217.252,92.006,217.256,91.955,217.219,91.95Z" transform="translate(-215.213 -90.479)"/>
            <path id="Path_66" data-name="Path 66" class="cls-11" d="M219.68,87.213c.047-.056.037-.121.07-.182a1.385,1.385,0,0,0,.093-.135.054.054,0,0,0-.023-.07.229.229,0,0,0-.238.065c-.07.065-.154.177-.112.275A.123.123,0,0,0,219.68,87.213Z" transform="translate(-218.964 -85.886)"/>
          </g>
          <g id="Group_12" data-name="Group 12" transform="translate(0.35)">
            <path id="Path_67" data-name="Path 67" class="cls-9" d="M200.7,30.851A2.4,2.4,0,0,0,201.89,29.5a.861.861,0,0,0-.643-1.053c-.675-.089-1.155.606-1.491,1.071A9.5,9.5,0,0,0,199,30.748s-.009,0-.014.014c-.042.089-.079.172-.116.261-.009.019-.019.042-.028.061-.107.238-.21.48-.312.717a.036.036,0,0,0,.047.047A7.91,7.91,0,0,0,200.7,30.851Z" transform="translate(-198.528 -27.11)"/>
            <path id="Path_68" data-name="Path 68" class="cls-12" d="M201.235,3.047a2.857,2.857,0,0,0,1.1-1.891,1.109,1.109,0,0,0-1.02-1.165c-.829.023-1.239.974-1.528,1.612a10.724,10.724,0,0,0-.606,1.663.065.065,0,0,0-.014.019c-.028.112-.051.228-.075.34,0,.028-.014.051-.019.079-.07.312-.135.629-.2.941-.009.042.033.065.07.047A9.261,9.261,0,0,0,201.235,3.047Z" transform="translate(-198.856 0.009)"/>
            <path id="Path_69" data-name="Path 69" class="cls-13" d="M201.714,39.142a11.576,11.576,0,0,1,1.444-2.725c.009-.014-.009-.033-.019-.019a10.649,10.649,0,0,0-1.467,2.73C201.663,39.152,201.705,39.166,201.714,39.142Z" transform="translate(-201.525 -34.698)"/>
            <path id="Path_70" data-name="Path 70" class="cls-13" d="M204.574,60.368a5.375,5.375,0,0,1,1.467-1.7c.019-.014,0-.047-.019-.033a5.014,5.014,0,0,0-1.486,1.714A.022.022,0,0,0,204.574,60.368Z" transform="translate(-204.254 -55.895)"/>
          </g>
          <g id="Group_13" data-name="Group 13" transform="translate(0.343 4.388)">
            <path id="Path_71" data-name="Path 71" class="cls-12" d="M203.29,96.618a1.14,1.14,0,0,0-.047-.9,2.805,2.805,0,0,0-1.9-1.206,7.018,7.018,0,0,0-1.915-.275.033.033,0,0,0-.028-.014c-.321-.023-.647-.019-.974-.023-.037,0-.07.051-.042.079a12.345,12.345,0,0,0,2.017,1.989,2.884,2.884,0,0,0,2.115.918A1,1,0,0,0,203.29,96.618Z" transform="translate(-198.375 -94.2)"/>
            <path id="Path_72" data-name="Path 72" class="cls-13" d="M203.572,96.457a8.275,8.275,0,0,1-2.865-1.02c-.028-.014-.047.023-.023.042a7.074,7.074,0,0,0,2.879,1.006C203.581,96.49,203.586,96.462,203.572,96.457Z" transform="translate(-200.566 -95.377)"/>
            <path id="Path_73" data-name="Path 73" class="cls-13" d="M202.325,103.209a8.574,8.574,0,0,1-2.977-1.272c-.023-.014-.051.023-.028.037a6.994,6.994,0,0,0,3,1.244C202.33,103.218,202.335,103.209,202.325,103.209Z" transform="translate(-199.268 -101.574)"/>
          </g>
          <g id="Group_14" data-name="Group 14" transform="translate(0 2.928)">
            <path id="Path_74" data-name="Path 74" class="cls-7" d="M194.4,64.773a2.837,2.837,0,0,0,.382-1.887.042.042,0,0,0-.07-.023,1.677,1.677,0,0,0-.335,1.784s0,.009.009.014c-.014.028-.023.056-.037.084S194.383,64.8,194.4,64.773Z" transform="translate(-194.105 -62.852)"/>
            <path id="Path_75" data-name="Path 75" class="cls-7" d="M196.921,98.946a5.079,5.079,0,0,0-1.132-1.346.039.039,0,0,0,.014-.075c-.084-.037-.168-.075-.252-.116l-.023-.014a.05.05,0,0,0-.023,0l-.186-.084c-.037-.019-.065.023-.056.056a2.506,2.506,0,0,0,1.6,1.635C196.9,99.011,196.945,98.978,196.921,98.946Z" transform="translate(-195.064 -95.697)"/>
            <path id="Path_76" data-name="Path 76" class="cls-7" d="M192.412,87.194a.032.032,0,0,0-.042-.037c-.382.154-.764.312-1.146.466,0,0,0,0-.009,0-.121.019-.247.135-.172.261.051.084.13.07.214.051A.925.925,0,0,0,192.412,87.194Z" transform="translate(-191.02 -86.023)"/>
          </g>
        </g>
      </g>
    </g>
  </g>
</svg>
