<svg xmlns="http://www.w3.org/2000/svg" viewBox="1377 2641.5 47 47">
  <defs>
    <style>
      .cls-1 {
        fill: none;
      }

      .cls-2 {
        fill: #f4c3c3;
      }
    </style>
  </defs>
  <g id="Group_43" data-name="Group 43" transform="translate(0 -73)">
    <path id="Path_18" data-name="Path 18" class="cls-1" d="M23.5,0A23.5,23.5,0,1,1,0,23.5,23.5,23.5,0,0,1,23.5,0Z" transform="translate(1377 2714.5)"/>
    <path id="instagram" class="cls-2" d="M22.389,1.6H4.2A2.606,2.606,0,0,0,1.6,4.2v18.19a2.605,2.605,0,0,0,2.6,2.6h18.19a2.605,2.605,0,0,0,2.6-2.6V4.2a2.606,2.606,0,0,0-2.6-2.6ZM13.272,20.47a7.2,7.2,0,0,0,7.2-7.2A6.9,6.9,0,0,0,20.334,12h2.055v9.376a.9.9,0,0,1-.9.9H5.1a.9.9,0,0,1-.9-.9V12H6.211a6.769,6.769,0,0,0-.135,1.278A7.2,7.2,0,0,0,13.272,20.47Zm-4.5-7.2a4.5,4.5,0,1,1,4.5,4.5,4.5,4.5,0,0,1-4.5-4.5ZM21.488,8.1h-2.1a.9.9,0,0,1-.9-.9V5.1a.9.9,0,0,1,.9-.9h2.1a.9.9,0,0,1,.9.9V7.2a.9.9,0,0,1-.9.9Z" transform="translate(1387.4 2724.4)"/>
  </g>
</svg>
