<svg xmlns="http://www.w3.org/2000/svg" xmlns:xlink="http://www.w3.org/1999/xlink" viewBox="9527.639 1482 357.85 186.531">
  <defs>
    <style>
      .cls-1, .cls-3, .cls-6 {
        fill: none;
      }

      .cls-1 {
        stroke: #95989a;
        opacity: 0.75;
      }

      .cls-2 {
        clip-path: url(#clip-path);
      }

      .cls-3, .cls-6 {
        stroke: #fff;
        stroke-miterlimit: 10;
      }

      .cls-4 {
        opacity: 0.34;
      }

      .cls-5 {
        opacity: 0.37;
      }

      .cls-6 {
        stroke-width: 3px;
      }
    </style>
    <clipPath id="clip-path">
      <path id="mask1" class="cls-1" d="M0,0H357.849V186.531H0Z" transform="translate(836.639 1482)"/>
    </clipPath>
  </defs>
  <g id="Mask_Group_101" data-name="Mask Group 101" class="cls-2" transform="translate(8691)">
    <g id="Group_193" data-name="Group 193" transform="translate(1208.319 1529.506) rotate(81)">
      <g id="Group_189" data-name="Group 189" transform="translate(0 0)">
        <g id="Group_183" data-name="Group 183">
          <g id="Group_180" data-name="Group 180">
            <g id="Group_179" data-name="Group 179">
              <path id="Path_199" data-name="Path 199" class="cls-3" d="M35.388,0a5.134,5.134,0,0,1-.712.287c-2.339.955-4.068,1.91-6.712,2.1a36.25,36.25,0,0,0-7.83,1.337c-2.746.955-5.39,2.1-8.034,3.247a51.509,51.509,0,0,0-8.034,4.775A41.193,41.193,0,0,1,0,13.848a31.214,31.214,0,0,1,4.169.191,30.994,30.994,0,0,0,11.8-1.337c3.763-1.146,6.2-3.534,9.559-5.348,2.339-1.242,4.678-2.1,6.712-3.629A12.62,12.62,0,0,0,35.388,0Z" transform="translate(48.303 104.326)"/>
              <path id="Path_200" data-name="Path 200" class="cls-3" d="M9.355,20.056a7.717,7.717,0,0,1,1.22-.669c4.576-2.388,10.067-4.871,15.152-5.73,2.644-.478,5.084-.1,7.627-1.051A34.208,34.208,0,0,0,41.286,8.5c3.051-2.2,3.457-5.635,4.779-8.5a8.276,8.276,0,0,1-2.847.573,25.9,25.9,0,0,0-6.712,1.146c-2.949.86-5.288,1.051-7.627,3.247-2.034,1.815-3.457,4.107-5.695,5.826-1.932,1.624-4.474,2.483-6.406,4.107-1.424,1.337-2.746,1.528-4.678,1.624-2.135.191-1.83,1.433-3.966.478C5.8,15.949,2.542,17.286,0,17.955c2.441,1.719,6.406,2.961,9.355,2.1Z" transform="translate(46.472 92.197)"/>
              <path id="Path_201" data-name="Path 201" class="cls-3" d="M24.344,38.063a9.155,9.155,0,0,1,3.763-1.91c1.932-.478,3.966-1.051,5.9-1.528,2.644-.669,5.491.478,7.728-1.433a.642.642,0,0,1,.407-.1c.1-.1.2-.191.2-.287v-.1a6.325,6.325,0,0,1,1.525-2.1c1.322-1.433,1.017-3.056.712-4.775a18.146,18.146,0,0,1,.1-6.208c.814-4.966,3.661-8.786,5.8-13.18.508-1.146,1.627-3.725,3.051-4.871-2.949-2.1-6.712-1.91-9.966-.573C39.5,2.63,37.869,5.782,38.683,9.7a10.734,10.734,0,0,1,.305,4.011c-.2,1.528.814,1.91.2,3.438-.915,2.006-4.373,2.1-6.3,2.292-9.152.955-10.779,12.034-18.3,15.663-1.424.669-2.339,1.815-3.763,2.674A21.367,21.367,0,0,1,6.65,39.209c-2.542.669-4.779.382-6.508-1.337C-.57,39.113,1.566,41.023,2.684,41.5a6.423,6.423,0,0,0,1.932.573c.305,0,.508-.1.814-.1a.5.5,0,0,1,.61.287,36.687,36.687,0,0,0,4.678-.191c4.678-.573,9.254-2.388,13.626-4.011Z" transform="translate(51.618 57.095)"/>
              <path id="Path_202" data-name="Path 202" class="cls-3" d="M19.423,22.448c-.2-1.815-1.322-3.534-1.83-5.348-.508-2.1-.407-4.011-1.424-6.017a11.768,11.768,0,0,1-1.424-4.393h0A10.225,10.225,0,0,0,12.3,1.532C11.9,1.054,7.83-1.142,8.033.768a2.59,2.59,0,0,1,.1,1.242C7.932,4.4,6.1,4.4,4.474,5.448,9.355,8.122,12,12.515,14.745,17.1a.569.569,0,0,1-.2.669c-2.135,1.624-3.864-1.146-5.8,1.242a22.525,22.525,0,0,0-2.237,4.011c-.915,1.815-2.237,3.438-3.051,5.348A22.659,22.659,0,0,0,.915,40.4a26.819,26.819,0,0,1,.407,4.011A5.589,5.589,0,0,1,0,47.088c1.83-.573,3.763-.955,5.39-2.2a65.058,65.058,0,0,0,5.593-4.775,26.357,26.357,0,0,0,5.39-7.449c.814-1.528,2.339-3.056,3.051-4.584a.707.707,0,0,1-.2-.478A43.742,43.742,0,0,0,19.423,22.448Z" transform="translate(96.199 41.575)"/>
              <path id="Path_203" data-name="Path 203" class="cls-3" d="M3.254,13.848a8.187,8.187,0,0,1-1.525-.1c-.61-.1-1.119-.1-1.729-.191.61.573,1.22,1.242,1.83,1.91.508.573,1.017,1.051,1.525,1.624a9.54,9.54,0,0,0,1.932,1.528,17.754,17.754,0,0,0,4.983,2.2h.508a.54.54,0,0,1,.407.191,1.834,1.834,0,0,0,.712.1,14.1,14.1,0,0,0,4.474.191h0a47.414,47.414,0,0,1,4.474-2.292,30.715,30.715,0,0,0,3.763-2.388,14.809,14.809,0,0,1-9.254-3.534.288.288,0,0,1-.1-.191c0-.191,0-.382.1-.478a1.4,1.4,0,0,1,.407-.287c2.135-.382,4.169-1.051,6.3-1.433,1.424-.287,4.678.955,5.593.191a2.86,2.86,0,0,1,1.525-.478c1.627-.191,2.847-.287,4.169-1.433a71.392,71.392,0,0,1,6.406-4.107A25.861,25.861,0,0,0,44.744,0,46.184,46.184,0,0,1,30.1,3.152q0,.143-.305.287c-1.322.573-2.339,2.77-3.152,3.82a11.487,11.487,0,0,1-3.966,2.865,16.951,16.951,0,0,1-5.8,1.242,4.577,4.577,0,0,0-1.119.191q-3.356.573-6.712,1.433A14.807,14.807,0,0,1,3.254,13.848Z" transform="translate(29.388 96.877)"/>
              <path id="Path_204" data-name="Path 204" class="cls-3" d="M2.847,24.871c1.22,1.146,2.949,1.337,4.474,2.1,2.034.955,2.949,3.247,5.186,3.916,4.068-.191,7.525-2.1,11.389-3.247.1,0,.305-.1.407-.1.508-.191,1.017-.382,1.424-.573,2.441-1.051,4.169-2.483,7.22-1.719,1.729.382,3.356,1.051,4.983,1.528a14.5,14.5,0,0,0,6.712.478,2.1,2.1,0,0,0,.712-.1c2.746-.191,5.288.478,7.932.573-2.339-1.337-4.373-3.82-1.932-5.635a.683.683,0,0,1,.915.1c2.542,3.343,8.44,1.337,11.084-.955a41.425,41.425,0,0,1,4.373-2.77c1.932-1.242,3.051-3.725,4.373-5.539A13.745,13.745,0,0,1,73.217,11.5c-2.949,1.242-6.2,1.433-9.05,3.152-3.051,1.815-5.288,3.534-9.05,3.247a20.911,20.911,0,0,1-4.068-.955,13.32,13.32,0,0,0-6.712-.1,5.517,5.517,0,0,1-2.135.1c-1.932-.191-3.254-1.146-5.186-2.483a42.842,42.842,0,0,0-3.864-2.388,54.674,54.674,0,0,1-7.423-4.966c-2.034-.955-4.271-1.719-6.406-2.674-1.932-.86-3.559-2.2-5.593-2.961a20.979,20.979,0,0,0-6-1.337A31.893,31.893,0,0,0,3.457.04a9.305,9.305,0,0,0-1.627.1H1.424c-.508,0-.915.1-1.424.1C0,.517,0,.8,0,1.186q0,.143,0,.287C0,3.1,1.017,4.146,1.83,5.483A18.71,18.71,0,0,1,3.559,9.972c.407,2.006,0,3.82-2.034,4.489a3.385,3.385,0,0,1-.1,2.006.708.708,0,0,1-.2.382C0,18.95-.1,20.191,1.932,21.815h0C3.254,22.865,3.763,23.916,2.847,24.871Z" transform="translate(0 71.433)"/>
              <path id="Path_205" data-name="Path 205" class="cls-3" d="M23.8,13.753A29.29,29.29,0,0,0,18.508,6.4,18.829,18.829,0,0,0,8.034,1.051,43.962,43.962,0,0,0,3.051.573C2.034.478,1.017.191,0,0,1.017,2.006.61,4.2,1.525,6.4h0A5.489,5.489,0,0,1,3.051,8.5c.915,2.579,3.356,4.393,5.39,6.3,4.068,3.82,7.932,8.118,14.135,8.213,1.017,0,2.034,0,3.051-.1C25.117,19.674,25.219,16.809,23.8,13.753Z" transform="translate(21.863 47.023)"/>
              <path id="Path_206" data-name="Path 206" class="cls-3" d="M16.536,1.709C14.3-1.443,10.13.276,8.4,2.759a1.229,1.229,0,0,0-.305.669c-.305,1.051.2,2.006-.712,2.961A1.584,1.584,0,0,1,4.638,6.2c-1.119.955-1.525,3.247-1.83,4.393S1.486,14.506,2.3,15.652a1.27,1.27,0,0,1-.2,1.815,1.941,1.941,0,0,1-1.22.478c-2.135.191.2,2.2,1.017,2.674,3.356.478,6.813.86,10.067,1.528h.1a8.767,8.767,0,0,1,.2-3.247,1.671,1.671,0,0,1,1.119-1.433,1.243,1.243,0,0,1,1.017.191,36.56,36.56,0,0,1-.915-4.584,2.646,2.646,0,0,1-.2-.86c0-.1-.1-.191-.1-.287,0-2.292-.305-4.584.2-6.781.1-.191.1-.382.2-.573A7.507,7.507,0,0,1,16.536,1.709Z" transform="translate(19.157 24.972)"/>
              <path id="Path_207" data-name="Path 207" class="cls-3" d="M7.728,2.674A14.735,14.735,0,0,0,1.22,7.736,6.224,6.224,0,0,0,0,11.461a8.647,8.647,0,0,0,1.424,4.107,8.728,8.728,0,0,1,1.322,5.444,26.871,26.871,0,0,1,5.39,1.051c2.135.573,3.763,1.815,5.695,2.865,1.424.764,2.949,1.337,4.474,2.006a12.352,12.352,0,0,1-2.339-4.2,24.9,24.9,0,0,0-1.83-5.253,11.219,11.219,0,0,1-1.729-5.062c-.407-3.629.915-7.258,2.441-10.6.2-.382.814-.573,1.017-.191.1.191.305.382.407.573-.1-.764-.2-1.433-.305-2.2A68.22,68.22,0,0,0,7.728,2.674Z" transform="translate(5.288 49.602)"/>
              <path id="Path_208" data-name="Path 208" class="cls-3" d="M4.787,13.476C5.193,8.7,9.057,5.835,12.413,2.684q-.153,0-.305-.287c-.407-.669-3.152-.669-3.864-.764A1.794,1.794,0,0,1,6.922.773C5.905.582,4.888.2,3.871.009,2.244-.182,1.837,2.588,1.532,3.543.922,5.74-.095,8.223.007,10.419v.287h0c.305,3.534,4.068,6.4,6.508,9.264C6.108,18.06,4.685,15.672,4.787,13.476Z" transform="translate(47.584 29.441)"/>
              <path id="Path_209" data-name="Path 209" class="cls-3" d="M2.746,11.556c.814-.478,1.119-1.91,1.322-2.674a6.976,6.976,0,0,0,.1-3.247A14.911,14.911,0,0,0,1.017,0c.1,1.051.1,2.2.1,3.247,0,.955-.1,2.77-1.119,3.438A5.231,5.231,0,0,1,.1,10.6,7.839,7.839,0,0,1,2.746,11.556Z" transform="translate(105.452 29.832)"/>
              <path id="Path_210" data-name="Path 210" class="cls-3" d="M26.752,50.731c.712-.382,2.644-.478,4.576-.764,1.83-2.865-2.644-4.966-4.576-6.685a9.475,9.475,0,0,1-2.847-7.64,11.144,11.144,0,0,1,1.017-3.247c.712-1.91.305-4.011.508-6.017.305-3.438,2.237-6.685,2.644-10.124a.666.666,0,0,1,.712-.573,9.31,9.31,0,0,1,4.271,2.1c0-.86.1-1.719.1-2.674,0-1.719.1-3.438,2.135-4.011,1.322-.382.407-2.006.407-2.77V7.849a6.975,6.975,0,0,0-4.779-4.584,17.874,17.874,0,0,1-3.457-2.006c-2.237-1.337-4.271-1.91-6.508-.191-2.339,1.815-2.034,3.82-1.322,6.4.407,1.433-.508,3.247-2.034,2.2C16.278,8.8,15.77,6.7,14.041,6.416A8.643,8.643,0,0,0,5.906,8.709C2.449,12.433-1.416,14.916.516,20.456c1.525,4.3,1.525,8.977,4.576,12.7C6.414,34.781,6.72,36.883,8.042,38.6c1.22,1.624,3.763,2.674,5.491,3.82,4.474,2.961,4.068,9.169,9.152,11.461A15.018,15.018,0,0,1,26.752,50.731Z" transform="translate(53.786 25.421)"/>
              <path id="Path_211" data-name="Path 211" class="cls-3" d="M11.42,4.571c.61-.573,1.22-1.146,1.729-1.719.814-.764,2.542-2.388.407-2.388-1.729,0-3.559,0-5.288-.1A1.2,1.2,0,0,1,7.454.083C6.743-.49,5.827,2.088,5.624,2.47A5.623,5.623,0,0,1,3.082,4.953,7.763,7.763,0,0,0,.845,7.15c-1.017,1.91-.915,4.2-.712,6.59,0,.1.1.1.1.191,0,.478.1.955.1,1.433.712,2.006,3.356,3.247,5.084,4.3a5.559,5.559,0,0,1,.915.669,9.153,9.153,0,0,1,0-4.966c.61-2.2,3.152-3.534,3.254-5.921a.539.539,0,0,1,.712-.478,11.75,11.75,0,0,1,0-2.674A3.632,3.632,0,0,1,11.42,4.571Z" transform="translate(33.425 22.395)"/>
              <path id="Path_212" data-name="Path 212" class="cls-3" d="M22.985,34.477c.1,0,.2.1.407.1a10.423,10.423,0,0,0,3.457-.478,15.452,15.452,0,0,1,7.525.86,10.567,10.567,0,0,0,6.2.1c1.932-.669,3.356-2.2,5.186-3.152,3.457-1.719,7.525-1.528,10.576-4.107a.389.389,0,0,1,.305-.1l.305-.287a10.055,10.055,0,0,1-4.169-4.2.389.389,0,0,1-.305-.1C47.7,19.865,42.408,19.865,36.815,19.1a50.59,50.59,0,0,0-8.44-.86,22.735,22.735,0,0,1-5.695-.1C17.9,17.1,14.748,13.657,11.392,10.6,9.46,8.882,7.02,6.972,5.494,4.871c-.712-.955-.407-1.719-1.322-2.865-.2-.191-.305-.382-.508-.573q-.153,0-.305-.287C2.952.764,2.444.382,2.037,0A21.342,21.342,0,0,0,0,8.309c-.1,3.534,2.441,6.208,3.254,9.551a13.772,13.772,0,0,0,4.881,7.354h.1l.2.191a70.109,70.109,0,0,0,7.932,5.253c.814.478,1.729,1.051,2.542,1.624C20.341,33.045,21.46,34.1,22.985,34.477Z" transform="translate(18.708 52.849)"/>
              <path id="Path_213" data-name="Path 213" class="cls-3" d="M25.728,2.378A46.011,46.011,0,0,1,20.541.85c-2.949-.86-4.779-1.528-7.627.382A11.372,11.372,0,0,1,11.389,2a8.315,8.315,0,0,1-1.424.478l-1.83.573C5.288,4,2.847,5.148,0,5.626c2.339.955,4.373,2.388,6.712,3.438.1.1.2.1.407.191.407.191.915.382,1.322.573l2.441.86a1.834,1.834,0,0,1,.712.1.875.875,0,0,1,.508.287c.1,0,.1.1.2.1a.389.389,0,0,1,.305.1h0a24.974,24.974,0,0,0,3.864.669,8.187,8.187,0,0,0,1.525.1,23.261,23.261,0,0,0,4.373-.382c2.339-.478,4.576-1.146,6.813-1.528a6.309,6.309,0,0,1,1.322-.191,27.416,27.416,0,0,0,6.2-1.242,10.463,10.463,0,0,0,4.779-4.2,8.137,8.137,0,0,1,1.424-1.815,2.105,2.105,0,0,1-.712-.1c-3.864.669-7.423-.478-11.186-.382h-.61A19.211,19.211,0,0,1,25.728,2.378Z" transform="translate(14.542 97.65)"/>
              <path id="Path_214" data-name="Path 214" class="cls-3" d="M2.671,12.8c1.525-.669,3.966,1.91,4.881,2.674,2.237,1.624,4.576,2.579,6.712,4.2-.1-.382-.1-.764-.2-1.146-.1-.1-.2-.1-.305-.191-2.441-4.2-7.118-6.972-7.932-11.461C3.586,5.062,3.79,2.388,3.078,0A17.971,17.971,0,0,1,1.146,2.865C-.685,5.348.129,7.64.536,10.41h0A10.386,10.386,0,0,1,2.671,12.8Z" transform="translate(40.751 33.748)"/>
              <path id="Path_215" data-name="Path 215" class="cls-3" d="M17.853,16.3a20.072,20.072,0,0,1-1.525-3.343c-.61-1.337-1.83-2.2-2.542-3.438a14.22,14.22,0,0,1-.814-1.815C10.328,4.937,6.769,3.7,3.82,1.5,3.311,1.116,2.9.734,2.4.352.667-.985.566,1.88.566,2.358c-.1,1.624-1.22,2.865,0,4.489a.547.547,0,0,1,.1.382,29.569,29.569,0,0,1,3.152,4.68c1.932,3.343,1.83,6.685,2.237,10.315H8.091c2.644.1,5.39.955,8.135,1.242,4.271.478,8.034.86,11.593,2.865-1.119-2.1-2.237-4.2-4.474-5.635C21.514,19.167,19.378,18.212,17.853,16.3Z" transform="translate(42.449 47.817)"/>
              <path id="Path_216" data-name="Path 216" class="cls-3" d="M2.746,9.169a19.566,19.566,0,0,1,3.661,2.674l.407.382a2.727,2.727,0,0,1,.508-1.433c.814-1.146.2-2.674.915-3.725C6.3,4.2,3.763,2.77,1.017.86A9,9,0,0,1,0,0,14.065,14.065,0,0,0,.508,2.2C1.017,4.2,1.525,6.876,2.644,8.5A.574.574,0,0,1,2.746,9.169Z" transform="translate(34.168 40.242)"/>
              <path id="Path_217" data-name="Path 217" class="cls-3" d="M17.287,35.294c6.915-2.292,12-5.444,15.66-11.556h0c.2-.382.508-.86.712-1.242v-.191h0c0-.1,0-.1.1-.1v-.1a4.1,4.1,0,0,1,.407-.669c.305-.573.508-1.146.814-1.719l.61-1.433c1.119-2.865,2.034-5.73,3.152-8.6.814-2.292,1.627-5.253-.2-7.258A13.689,13.689,0,0,0,36.3.53c-.915-.764-2.441-.478-3.661-.478-.1.1-.1.287-.2.382a26.794,26.794,0,0,1-4.576,6.4c-1.932,2.006-4.169,3.725-6.3,5.539s-4.779,1.815-7.22,2.961c-1.525,1.624-1.932,3.629-2.542,5.635A11.865,11.865,0,0,1,8.44,25.935a12.957,12.957,0,0,1-3.254,2.292c0,.1-.1.1-.1.191-1.322,1.528-2.237,3.247-3.559,4.775A9.9,9.9,0,0,1,0,34.53v.1C.915,37.2,4.881,38.35,7.423,38.255,10.677,37.873,14.237,36.249,17.287,35.294Z" transform="translate(80.945 75.049)"/>
              <path id="Path_218" data-name="Path 218" class="cls-3" d="M1.185,20.343c-.1.382-.2.669-.305,1.051A30.768,30.768,0,0,0,.168,24.64a13.208,13.208,0,0,0-.1,3.438,3.248,3.248,0,0,0,.2,1.051C1.185,33.14,4.338,36.2,7.49,39.444c.305.382.712.764,1.017,1.146V39.348a19.821,19.821,0,0,1,.61-3.534c.1-.287.2-.669.305-.955a16.381,16.381,0,0,1,1.729-3.534,5.808,5.808,0,0,1,.712-.955,2.631,2.631,0,0,1,.712-.764l.61-.573a8.6,8.6,0,0,1,1.424-1.242,51.787,51.787,0,0,1,7.525-4.775c.1-.1.305-.191.407-.287a5.743,5.743,0,0,0,.814-.478l1.22-.573c.61-.287,1.119-.478,1.729-.764,2.135-.86,4.373-1.624,6.508-2.483l.508-.478a.658.658,0,0,1,.712-.1,25.758,25.758,0,0,0,3.559-2.006c.407-.287.712-.573,1.119-.86A22.891,22.891,0,0,0,45.624,4.011a9.659,9.659,0,0,1-4.373,0C39.116,3.438,36.472,2.1,35.557,0a9.409,9.409,0,0,1-1.322.764C32.1,2.006,29.862,2.77,27.828,4.3a25.923,25.923,0,0,1-4.474,2.674A36.142,36.142,0,0,1,12.371,9.646a23.447,23.447,0,0,1-3.661-.1c-.1,0-.305.1-.407,0-1.119-.287-2.746,2.292-3.763,3.916l-.305.573c-.2.287-.305.573-.407.669a3.81,3.81,0,0,0-.508.86A19.721,19.721,0,0,0,1.185,20.343Z" transform="translate(44.27 110.152)"/>
              <path id="Path_219" data-name="Path 219" class="cls-3" d="M6.094,2.006A48.552,48.552,0,0,1,.7,1.146a3.567,3.567,0,0,0,2.644,5.73H4.67A10.877,10.877,0,0,0,6.4,6.59a34.666,34.666,0,0,0,3.763-1.051c.407-.1.712-.287,1.119-.382a53.086,53.086,0,0,0,5.39-2.292c.814-.382,1.627-.764,2.339-1.146C20.127,1.146,21.144.573,22.262,0a34.109,34.109,0,0,1-8.745,2.006,40.588,40.588,0,0,1-5.9.191A8.329,8.329,0,0,0,6.094,2.006Z" transform="translate(23.295 123.427)"/>
              <path id="Path_220" data-name="Path 220" class="cls-3" d="M16.881.04H15.457A50.249,50.249,0,0,0,7.932.8,24.708,24.708,0,0,1,0,1.09,33.324,33.324,0,0,0,14.44,5.483c.508,0,1.017.1,1.525.1a37.136,37.136,0,0,0,6.508-.287A34.863,34.863,0,0,0,34.066,1.568a.389.389,0,0,1,.305-.1c.305-.287.508-.669.814-.955A10.849,10.849,0,0,0,30,1.186a.554.554,0,0,1-.814-.478A17.681,17.681,0,0,1,25.321.326,3.818,3.818,0,0,0,24.3.135C21.762.04,19.321-.056,16.881.04Z" transform="translate(15.355 118.803)"/>
              <path id="Path_221" data-name="Path 221" class="cls-3" d="M9.559,42.169c1.119.1,2.135.287,3.254.382a30.4,30.4,0,0,0,4.169.1h.2a21.22,21.22,0,0,1,3.457.1,7.954,7.954,0,0,1,2.542.86,9.014,9.014,0,0,0,1.729.478c.2,0,.407.1.61.1A37.322,37.322,0,0,0,30.2,42.838c2.847-.955,4.271-2.865,5.39-5.444A14.825,14.825,0,0,1,38.134,33c1.627-1.815,2.034-3.438,2.644-5.635q.763-2.722,1.525-6.017c.1-.382.2-.86.305-1.337a14.028,14.028,0,0,1,.407-2.006,11.015,11.015,0,0,0,.2-1.815A19.736,19.736,0,0,0,42.4,7.31a11.445,11.445,0,0,0-4.678-5.635c-.1,0-.1-.1-.2-.1C34.575-.235,31.219-.235,27.965.338c-2.136.382-4.271.955-6.3,1.528a19.644,19.644,0,0,1-5.8.669,29.184,29.184,0,0,0-7.627.86H7.932c-.61,2.1-1.22,4.2-1.729,6.4a14.1,14.1,0,0,1-3.254,6.59v.191a3.006,3.006,0,0,1-1.017,1.815A11.133,11.133,0,0,0,0,21.254c2.034.1,3.051,0,4.881,1.528,1.83,1.624,2.847,2.961,2.847,5.348,0,2.579-1.322,5.157-2.237,7.545l-1.83,4.871a13.4,13.4,0,0,1-.712,1.815C4.678,41.6,7.627,41.978,9.559,42.169Z" transform="translate(114.401 52.702)"/>
              <path id="Path_222" data-name="Path 222" class="cls-3" d="M0,2.448c1.83,0,3.763,0,5.593.1a.654.654,0,0,1,.61.669,7.157,7.157,0,0,1-2.237,3.82A9.372,9.372,0,0,0,1.83,9.42a2.768,2.768,0,0,0-.305,1.624,15.887,15.887,0,0,1,.1,2.2.487.487,0,0,1-.2.382c.61,1.91.508,4.2,1.729,5.921a7.877,7.877,0,0,1,.2-1.528c.61-2.483,1.119-5.444,2.441-7.64C6.813,8.656,8.847,9.325,10.576,9.8c-.508-1.91-.305-4.011-.814-6.017a.675.675,0,0,1,.2-.573c1.22-.955,3.051-.955,4.881-1.051C13.525,1.589,12.3.92,11.084.538A9.343,9.343,0,0,0,7.017.061C5.695.156.2.634,0,2.448Z" transform="translate(43.422 19.17)"/>
              <path id="Path_223" data-name="Path 223" class="cls-3" d="M14.51,5C12.171,2.323,10.544.795,6.781.222,4.951-.065,3.121-.447,3.222,1.75c.1,1.433.2,2.961.2,4.393v.764a16.967,16.967,0,0,1-.915,3.916.984.984,0,0,1-.2.573,25.555,25.555,0,0,0-.915,2.961c-.508,2.1-.915,4.3-1.322,6.494a23.982,23.982,0,0,0,.1,3.82c2.339-1.051,6.3-1.146,8.034,0A5.264,5.264,0,0,1,9.629,26.2c1.322,1.433,1.424.86,1.119-.287-.1,0-.2-.1-.305-.191a4.009,4.009,0,0,1-.915-4.966c.508-1.242,1.119-2.388,1.525-3.629a9.981,9.981,0,0,1,2.034-4.3c1.525-1.624,4.169-2.2,2.441-4.966,0-.1-.1-.1-.1-.191A5.616,5.616,0,0,1,14.51,5Z" transform="translate(61.249 6.689)"/>
              <path id="Path_224" data-name="Path 224" class="cls-3" d="M4.881.287A7.3,7.3,0,0,1,4.068,0a10.309,10.309,0,0,1,.1,1.815c-.2,1.528,1.017,2.77,1.322,4.3.305,1.242-.305,2.77-.407,4.011a3.688,3.688,0,0,0,.1,1.051c.305,1.337,1.424,2.483,1.83,3.82a2.552,2.552,0,0,1-.712,2.2c-1.525,1.528-3.457,2.2-4.169,4.393C1.627,23.4.2,25.6,0,27.7a7.618,7.618,0,0,1,1.017-1.719c2.237-3.056,5.491-3.247,8.644-1.528a30.987,30.987,0,0,0,5.695,2.77c1.627.478,2.542,2.292,3.152,3.82a1.748,1.748,0,0,0,.407-1.433c-.1-.86-.407-2.1.814-2.388,1.83-.478,3.966.382,5.8.669s2.847.478,4.169,1.815a18.781,18.781,0,0,1,3.356,4.775c.508-.669.305-2.388.407-2.865a24.186,24.186,0,0,0-.305-3.82h0a5.951,5.951,0,0,0-2.237-1.051.554.554,0,0,1-.305-.86v-.191c.407-.86.61-1.91,1.729-1.91-.814-6.208-5.593-12.7-10.474-16.809l-.2-.191C18.609,4.2,14.745,3.152,10.881,2.2a24.952,24.952,0,0,1-2.542-.669c-.2-.1-.407-.1-.61-.191A12.336,12.336,0,0,0,4.881.287Z" transform="translate(71.793 0.989)"/>
              <path id="Path_225" data-name="Path 225" class="cls-3" d="M3.976,5.956c2.339-.764,4.881-.191,7.118.287a9.156,9.156,0,0,1,5.084,3.629,7.167,7.167,0,0,0-.61-4.775c-.1-.191-.2-.478-.305-.669h0C14.247,3,13.84,1.849,11.908,1.18,10.688.8,9.467.607,8.247.225,6.01-.443,4.078.607,1.841.416-1.312.13.519,7.1.62,8.63c0,1.146-.1,2.2-.2,3.247A2.894,2.894,0,0,0,.62,13.5a8.062,8.062,0,0,0,2.746,3.056,9.587,9.587,0,0,0,.508-1.815c.1-.382.1-.86.2-1.242.2-2.292-.305-4.775-.407-6.972C3.671,6.338,3.671,6.051,3.976,5.956Z" transform="translate(59.478 0)"/>
              <path id="Path_226" data-name="Path 226" class="cls-3" d="M3.457,7.927A19.232,19.232,0,0,1,5.695,8.5c0-1.146-.2-2.2-.1-3.343A18.554,18.554,0,0,1,6.61,0,16.226,16.226,0,0,1,2.847.573C2.135.669.508.573,0,1.051.305.86.407,3.056.508,3.247A13.722,13.722,0,0,0,.814,6.112C1.017,7.736,2.135,7.64,3.457,7.927Z" transform="translate(54.404 22.192)"/>
              <path id="Path_227" data-name="Path 227" class="cls-3" d="M24,23.829a21.218,21.218,0,0,0,1.424-5.539c.1-.669.1-1.433.2-2.1a22.877,22.877,0,0,0-.2-3.725h0c-.508-2.388-.61-4.871-1.322-7.258a9.193,9.193,0,0,0-1.932-3.82c-2.237-2.77-6.915-1.051-6.915,2.2,0,.764-.407,1.91-1.322,2.1h-.1c-1.932.191-2.746-.764-4.169-1.91-1.22-.955-3.254-.287-4.474,0A7.658,7.658,0,0,0,0,6.925c3.763,4.2,7.017,9.264,7.627,14.517a9.737,9.737,0,0,1,3.457,2.1c1.83,1.528,3.356,3.343,5.288,4.68,1.322.86,2.441,1.624,3.559,2.388.2-.191.407-.478.61-.669a37.791,37.791,0,0,0,2.746-4.2A8.809,8.809,0,0,1,24,23.829Z" transform="translate(98.029 3.329)"/>
              <path id="Path_228" data-name="Path 228" class="cls-3" d="M6.3,7.648c1.424,3.247,2.644,7.545,2.339,11.079-.2,2.77-.407,4.871,1.017,7.449a14.336,14.336,0,0,1,1.322,5.444c.305,2.1,1.322,4.107,1.932,6.208a11.44,11.44,0,0,1,0,3.725c2.644-3.343,2.949-8.022,4.068-11.938.712-2.483,1.627-4.584,1.22-7.163-.305-2.2-.508-4.393-.915-6.59A11.462,11.462,0,0,0,13.118,8.6c-1.729-1.337-3.864-2.1-5.39-3.629C6.406,3.636,1.627-1.9,0,.676,3.152,1.822,5.084,4.687,6.3,7.648Z" transform="translate(103.825 26.1)"/>
              <path id="Path_229" data-name="Path 229" class="cls-3" d="M5.8,0A26.282,26.282,0,0,1,3.661,7.927c-.305.573-.508,1.051-.814,1.624A26.125,26.125,0,0,1,.2,13.371c-.1.1-.2.191-.2.287a10.671,10.671,0,0,1,2.237,2.77A18.44,18.44,0,0,1,3.254,18.91c.2-.478.305-1.051.508-1.528l1.22-3.725a12.1,12.1,0,0,0,.508-1.815A26.641,26.641,0,0,0,6.61,3.725C6.3,2.483,6.1,1.242,5.8,0Z" transform="translate(118.977 21.046)"/>
              <path id="Path_230" data-name="Path 230" class="cls-3" d="M20.948,26.932c7.728-6.781,12.813-16.9,12.2-26.932-.1.1-.2.287-.305.382a.663.663,0,0,1-.814.191c-1.525-.86-2.339-.478-3.763.1A8.869,8.869,0,0,1,24.711.86C20.846.573,17.9,4.393,15.457,6.781c-3.254,3.247-5.695,7.067-8.44,10.7a50.357,50.357,0,0,1-5.695,6.494.389.389,0,0,1-.305.1,7.886,7.886,0,0,1-.2,3.438C.508,28.461.305,29.32,0,30.275c5.186-1.051,10.271-.669,15.355-2.006.915-.191,1.83-.478,2.746-.669a27.53,27.53,0,0,1,2.746-.478A.328.328,0,0,1,20.948,26.932Z" transform="translate(122.435 24.675)"/>
              <path id="Path_231" data-name="Path 231" class="cls-3" d="M9.509,14.88a.65.65,0,0,1-.915.764c-1.017-.669-3.966-3.725-4.474-1.528a33.555,33.555,0,0,1-1.627,5.157,19.209,19.209,0,0,0-.915,6.781c0,2.006-1.017,3.725-1.424,5.73-1.017,4.775,3.254,7.163,6.3,9.933C7.881,43.054,8.39,44.3,7.78,45.824c2.034-.478,3.661-1.146,2.847-2.77-.508-1.051-.1-2.483-.2-3.534-.1-1.719-.712-3.343-.61-5.157.1-2.1,1.729-3.916,3.457-5.253,3.763-2.865,9.864-3.534,13.83-.573a.487.487,0,0,1,.2.382,1.191,1.191,0,0,1,.814,0s2.746.86,2.339.191c-.814-1.433-1.729-2.77-2.644-4.2a20.831,20.831,0,0,0-7.423-6.59c-.407-.191-.305-.669,0-.955a4.761,4.761,0,0,1,2.034-1.242c1.83-.669,1.627-2.1,1.729-3.534a1.566,1.566,0,0,1,1.22-1.528C26.9,8.195,22.627,1.318,19.678.841,18.559.65,17.542.65,16.423.363c-1.83-.382-3.457-.955-3.254,1.242a2.977,2.977,0,0,1-.814,2.006c-.915,1.337.305,2.292-.2,3.629-.407,1.051-2.034.86-2.542,1.815A14,14,0,0,0,9.509,14.88Z" transform="translate(79.063 30.042)"/>
            </g>
          </g>
          <g id="Group_182" data-name="Group 182" class="cls-4">
            <g id="Group_181" data-name="Group 181">
              <path id="Path_232" data-name="Path 232" class="cls-3" d="M35.388,0a5.134,5.134,0,0,1-.712.287c-2.339.955-4.068,1.91-6.712,2.1a36.25,36.25,0,0,0-7.83,1.337c-2.746.955-5.39,2.1-8.034,3.247a51.509,51.509,0,0,0-8.034,4.775A41.193,41.193,0,0,1,0,13.848a31.214,31.214,0,0,1,4.169.191,30.994,30.994,0,0,0,11.8-1.337c3.763-1.146,6.2-3.534,9.559-5.348,2.339-1.242,4.678-2.1,6.712-3.629A12.62,12.62,0,0,0,35.388,0Z" transform="translate(48.303 104.326)"/>
              <path id="Path_233" data-name="Path 233" class="cls-3" d="M9.355,20.056a7.717,7.717,0,0,1,1.22-.669c4.576-2.388,10.067-4.871,15.152-5.73,2.644-.478,5.084-.1,7.627-1.051A34.208,34.208,0,0,0,41.286,8.5c3.051-2.2,3.457-5.635,4.779-8.5a8.276,8.276,0,0,1-2.847.573,25.9,25.9,0,0,0-6.712,1.146c-2.949.86-5.288,1.051-7.627,3.247-2.034,1.815-3.457,4.107-5.695,5.826-1.932,1.624-4.474,2.483-6.406,4.107-1.424,1.337-2.746,1.528-4.678,1.624-2.135.191-1.83,1.433-3.966.478C5.8,15.949,2.542,17.286,0,17.955c2.441,1.719,6.406,2.961,9.355,2.1Z" transform="translate(46.472 92.197)"/>
              <path id="Path_234" data-name="Path 234" class="cls-3" d="M24.344,38.063a9.155,9.155,0,0,1,3.763-1.91c1.932-.478,3.966-1.051,5.9-1.528,2.644-.669,5.491.478,7.728-1.433a.642.642,0,0,1,.407-.1c.1-.1.2-.191.2-.287v-.1a6.325,6.325,0,0,1,1.525-2.1c1.322-1.433,1.017-3.056.712-4.775a18.146,18.146,0,0,1,.1-6.208c.814-4.966,3.661-8.786,5.8-13.18.508-1.146,1.627-3.725,3.051-4.871-2.949-2.1-6.712-1.91-9.966-.573C39.5,2.63,37.869,5.782,38.683,9.7a10.734,10.734,0,0,1,.305,4.011c-.2,1.528.814,1.91.2,3.438-.915,2.006-4.373,2.1-6.3,2.292-9.152.955-10.779,12.034-18.3,15.663-1.424.669-2.339,1.815-3.763,2.674A21.367,21.367,0,0,1,6.65,39.209c-2.542.669-4.779.382-6.508-1.337C-.57,39.113,1.566,41.023,2.684,41.5a6.423,6.423,0,0,0,1.932.573c.305,0,.508-.1.814-.1a.5.5,0,0,1,.61.287,36.687,36.687,0,0,0,4.678-.191c4.678-.573,9.254-2.388,13.626-4.011Z" transform="translate(51.618 57.095)"/>
              <path id="Path_235" data-name="Path 235" class="cls-3" d="M19.423,22.448c-.2-1.815-1.322-3.534-1.83-5.348-.508-2.1-.407-4.011-1.424-6.017a11.768,11.768,0,0,1-1.424-4.393h0A10.225,10.225,0,0,0,12.3,1.532C11.9,1.054,7.83-1.142,8.033.768a2.59,2.59,0,0,1,.1,1.242C7.932,4.4,6.1,4.4,4.474,5.448,9.355,8.122,12,12.515,14.745,17.1a.569.569,0,0,1-.2.669c-2.135,1.624-3.864-1.146-5.8,1.242a22.525,22.525,0,0,0-2.237,4.011c-.915,1.815-2.237,3.438-3.051,5.348A22.659,22.659,0,0,0,.915,40.4a26.819,26.819,0,0,1,.407,4.011A5.589,5.589,0,0,1,0,47.088c1.83-.573,3.763-.955,5.39-2.2a65.058,65.058,0,0,0,5.593-4.775,26.357,26.357,0,0,0,5.39-7.449c.814-1.528,2.339-3.056,3.051-4.584a.707.707,0,0,1-.2-.478A43.742,43.742,0,0,0,19.423,22.448Z" transform="translate(96.199 41.575)"/>
              <path id="Path_236" data-name="Path 236" class="cls-3" d="M3.254,13.848a8.187,8.187,0,0,1-1.525-.1c-.61-.1-1.119-.1-1.729-.191.61.573,1.22,1.242,1.83,1.91.508.573,1.017,1.051,1.525,1.624a9.54,9.54,0,0,0,1.932,1.528,17.754,17.754,0,0,0,4.983,2.2h.508a.54.54,0,0,1,.407.191,1.834,1.834,0,0,0,.712.1,14.1,14.1,0,0,0,4.474.191h0a47.414,47.414,0,0,1,4.474-2.292,30.715,30.715,0,0,0,3.763-2.388,14.809,14.809,0,0,1-9.254-3.534.288.288,0,0,1-.1-.191c0-.191,0-.382.1-.478a1.4,1.4,0,0,1,.407-.287c2.135-.382,4.169-1.051,6.3-1.433,1.424-.287,4.678.955,5.593.191a2.86,2.86,0,0,1,1.525-.478c1.627-.191,2.847-.287,4.169-1.433a71.392,71.392,0,0,1,6.406-4.107A25.861,25.861,0,0,0,44.744,0,46.184,46.184,0,0,1,30.1,3.152q0,.143-.305.287c-1.322.573-2.339,2.77-3.152,3.82a11.487,11.487,0,0,1-3.966,2.865,16.951,16.951,0,0,1-5.8,1.242,4.577,4.577,0,0,0-1.119.191q-3.356.573-6.712,1.433A14.807,14.807,0,0,1,3.254,13.848Z" transform="translate(29.388 96.877)"/>
              <path id="Path_237" data-name="Path 237" class="cls-3" d="M2.847,24.871c1.22,1.146,2.949,1.337,4.474,2.1,2.034.955,2.949,3.247,5.186,3.916,4.068-.191,7.525-2.1,11.389-3.247.1,0,.305-.1.407-.1.508-.191,1.017-.382,1.424-.573,2.441-1.051,4.169-2.483,7.22-1.719,1.729.382,3.356,1.051,4.983,1.528a14.5,14.5,0,0,0,6.712.478,2.1,2.1,0,0,0,.712-.1c2.746-.191,5.288.478,7.932.573-2.339-1.337-4.373-3.82-1.932-5.635a.683.683,0,0,1,.915.1c2.542,3.343,8.44,1.337,11.084-.955a41.425,41.425,0,0,1,4.373-2.77c1.932-1.242,3.051-3.725,4.373-5.539A13.745,13.745,0,0,1,73.217,11.5c-2.949,1.242-6.2,1.433-9.05,3.152-3.051,1.815-5.288,3.534-9.05,3.247a20.911,20.911,0,0,1-4.068-.955,13.32,13.32,0,0,0-6.712-.1,5.517,5.517,0,0,1-2.135.1c-1.932-.191-3.254-1.146-5.186-2.483a42.842,42.842,0,0,0-3.864-2.388,54.674,54.674,0,0,1-7.423-4.966c-2.034-.955-4.271-1.719-6.406-2.674-1.932-.86-3.559-2.2-5.593-2.961a20.979,20.979,0,0,0-6-1.337A31.893,31.893,0,0,0,3.457.04a9.305,9.305,0,0,0-1.627.1H1.424c-.508,0-.915.1-1.424.1C0,.517,0,.8,0,1.186q0,.143,0,.287C0,3.1,1.017,4.146,1.83,5.483A18.71,18.71,0,0,1,3.559,9.972c.407,2.006,0,3.82-2.034,4.489a3.385,3.385,0,0,1-.1,2.006.708.708,0,0,1-.2.382C0,18.95-.1,20.191,1.932,21.815h0C3.254,22.865,3.763,23.916,2.847,24.871Z" transform="translate(0 71.433)"/>
              <path id="Path_238" data-name="Path 238" class="cls-3" d="M23.8,13.753A29.29,29.29,0,0,0,18.508,6.4,18.829,18.829,0,0,0,8.034,1.051,43.962,43.962,0,0,0,3.051.573C2.034.478,1.017.191,0,0,1.017,2.006.61,4.2,1.525,6.4h0A5.489,5.489,0,0,1,3.051,8.5c.915,2.579,3.356,4.393,5.39,6.3,4.068,3.82,7.932,8.118,14.135,8.213,1.017,0,2.034,0,3.051-.1C25.117,19.674,25.219,16.809,23.8,13.753Z" transform="translate(21.863 47.023)"/>
              <path id="Path_239" data-name="Path 239" class="cls-3" d="M16.536,1.709C14.3-1.443,10.13.276,8.4,2.759a1.229,1.229,0,0,0-.305.669c-.305,1.051.2,2.006-.712,2.961A1.584,1.584,0,0,1,4.638,6.2c-1.119.955-1.525,3.247-1.83,4.393S1.486,14.506,2.3,15.652a1.27,1.27,0,0,1-.2,1.815,1.941,1.941,0,0,1-1.22.478c-2.135.191.2,2.2,1.017,2.674,3.356.478,6.813.86,10.067,1.528h.1a8.767,8.767,0,0,1,.2-3.247,1.671,1.671,0,0,1,1.119-1.433,1.243,1.243,0,0,1,1.017.191,36.56,36.56,0,0,1-.915-4.584,2.646,2.646,0,0,1-.2-.86c0-.1-.1-.191-.1-.287,0-2.292-.305-4.584.2-6.781.1-.191.1-.382.2-.573A7.507,7.507,0,0,1,16.536,1.709Z" transform="translate(19.157 24.972)"/>
              <path id="Path_240" data-name="Path 240" class="cls-3" d="M7.728,2.674A14.735,14.735,0,0,0,1.22,7.736,6.224,6.224,0,0,0,0,11.461a8.647,8.647,0,0,0,1.424,4.107,8.728,8.728,0,0,1,1.322,5.444,26.871,26.871,0,0,1,5.39,1.051c2.135.573,3.763,1.815,5.695,2.865,1.424.764,2.949,1.337,4.474,2.006a12.352,12.352,0,0,1-2.339-4.2,24.9,24.9,0,0,0-1.83-5.253,11.219,11.219,0,0,1-1.729-5.062c-.407-3.629.915-7.258,2.441-10.6.2-.382.814-.573,1.017-.191.1.191.305.382.407.573-.1-.764-.2-1.433-.305-2.2A68.22,68.22,0,0,0,7.728,2.674Z" transform="translate(5.288 49.602)"/>
              <path id="Path_241" data-name="Path 241" class="cls-3" d="M4.787,13.476C5.193,8.7,9.057,5.835,12.413,2.684q-.153,0-.305-.287c-.407-.669-3.152-.669-3.864-.764A1.794,1.794,0,0,1,6.922.773C5.905.582,4.888.2,3.871.009,2.244-.182,1.837,2.588,1.532,3.543.922,5.74-.095,8.223.007,10.419v.287h0c.305,3.534,4.068,6.4,6.508,9.264C6.108,18.06,4.685,15.672,4.787,13.476Z" transform="translate(47.584 29.441)"/>
              <path id="Path_242" data-name="Path 242" class="cls-3" d="M2.746,11.556c.814-.478,1.119-1.91,1.322-2.674a6.976,6.976,0,0,0,.1-3.247A14.911,14.911,0,0,0,1.017,0c.1,1.051.1,2.2.1,3.247,0,.955-.1,2.77-1.119,3.438A5.231,5.231,0,0,1,.1,10.6,7.839,7.839,0,0,1,2.746,11.556Z" transform="translate(105.452 29.832)"/>
              <path id="Path_243" data-name="Path 243" class="cls-3" d="M26.752,50.731c.712-.382,2.644-.478,4.576-.764,1.83-2.865-2.644-4.966-4.576-6.685a9.475,9.475,0,0,1-2.847-7.64,11.144,11.144,0,0,1,1.017-3.247c.712-1.91.305-4.011.508-6.017.305-3.438,2.237-6.685,2.644-10.124a.666.666,0,0,1,.712-.573,9.31,9.31,0,0,1,4.271,2.1c0-.86.1-1.719.1-2.674,0-1.719.1-3.438,2.135-4.011,1.322-.382.407-2.006.407-2.77V7.849a6.975,6.975,0,0,0-4.779-4.584,17.874,17.874,0,0,1-3.457-2.006c-2.237-1.337-4.271-1.91-6.508-.191-2.339,1.815-2.034,3.82-1.322,6.4.407,1.433-.508,3.247-2.034,2.2C16.278,8.8,15.77,6.7,14.041,6.416A8.643,8.643,0,0,0,5.906,8.709C2.449,12.433-1.416,14.916.516,20.456c1.525,4.3,1.525,8.977,4.576,12.7C6.414,34.781,6.72,36.883,8.042,38.6c1.22,1.624,3.763,2.674,5.491,3.82,4.474,2.961,4.068,9.169,9.152,11.461A15.018,15.018,0,0,1,26.752,50.731Z" transform="translate(53.786 25.421)"/>
              <path id="Path_244" data-name="Path 244" class="cls-3" d="M11.42,4.571c.61-.573,1.22-1.146,1.729-1.719.814-.764,2.542-2.388.407-2.388-1.729,0-3.559,0-5.288-.1A1.2,1.2,0,0,1,7.454.083C6.743-.49,5.827,2.088,5.624,2.47A5.623,5.623,0,0,1,3.082,4.953,7.763,7.763,0,0,0,.845,7.15c-1.017,1.91-.915,4.2-.712,6.59,0,.1.1.1.1.191,0,.478.1.955.1,1.433.712,2.006,3.356,3.247,5.084,4.3a5.559,5.559,0,0,1,.915.669,9.153,9.153,0,0,1,0-4.966c.61-2.2,3.152-3.534,3.254-5.921a.539.539,0,0,1,.712-.478,11.75,11.75,0,0,1,0-2.674A3.632,3.632,0,0,1,11.42,4.571Z" transform="translate(33.425 22.395)"/>
              <path id="Path_245" data-name="Path 245" class="cls-3" d="M22.985,34.477c.1,0,.2.1.407.1a10.423,10.423,0,0,0,3.457-.478,15.452,15.452,0,0,1,7.525.86,10.567,10.567,0,0,0,6.2.1c1.932-.669,3.356-2.2,5.186-3.152,3.457-1.719,7.525-1.528,10.576-4.107a.389.389,0,0,1,.305-.1l.305-.287a10.055,10.055,0,0,1-4.169-4.2.389.389,0,0,1-.305-.1C47.7,19.865,42.408,19.865,36.815,19.1a50.59,50.59,0,0,0-8.44-.86,22.735,22.735,0,0,1-5.695-.1C17.9,17.1,14.748,13.657,11.392,10.6,9.46,8.882,7.02,6.972,5.494,4.871c-.712-.955-.407-1.719-1.322-2.865-.2-.191-.305-.382-.508-.573q-.153,0-.305-.287C2.952.764,2.444.382,2.037,0A21.342,21.342,0,0,0,0,8.309c-.1,3.534,2.441,6.208,3.254,9.551a13.772,13.772,0,0,0,4.881,7.354h.1l.2.191a70.109,70.109,0,0,0,7.932,5.253c.814.478,1.729,1.051,2.542,1.624C20.341,33.045,21.46,34.1,22.985,34.477Z" transform="translate(18.708 52.849)"/>
              <path id="Path_246" data-name="Path 246" class="cls-3" d="M25.728,2.378A46.011,46.011,0,0,1,20.541.85c-2.949-.86-4.779-1.528-7.627.382A11.372,11.372,0,0,1,11.389,2a8.315,8.315,0,0,1-1.424.478l-1.83.573C5.288,4,2.847,5.148,0,5.626c2.339.955,4.373,2.388,6.712,3.438.1.1.2.1.407.191.407.191.915.382,1.322.573l2.441.86a1.834,1.834,0,0,1,.712.1.875.875,0,0,1,.508.287c.1,0,.1.1.2.1a.389.389,0,0,1,.305.1h0a24.974,24.974,0,0,0,3.864.669,8.187,8.187,0,0,0,1.525.1,23.261,23.261,0,0,0,4.373-.382c2.339-.478,4.576-1.146,6.813-1.528a6.309,6.309,0,0,1,1.322-.191,27.416,27.416,0,0,0,6.2-1.242,10.463,10.463,0,0,0,4.779-4.2,8.137,8.137,0,0,1,1.424-1.815,2.105,2.105,0,0,1-.712-.1c-3.864.669-7.423-.478-11.186-.382h-.61A19.211,19.211,0,0,1,25.728,2.378Z" transform="translate(14.542 97.65)"/>
              <path id="Path_247" data-name="Path 247" class="cls-3" d="M2.671,12.8c1.525-.669,3.966,1.91,4.881,2.674,2.237,1.624,4.576,2.579,6.712,4.2-.1-.382-.1-.764-.2-1.146-.1-.1-.2-.1-.305-.191-2.441-4.2-7.118-6.972-7.932-11.461C3.586,5.062,3.79,2.388,3.078,0A17.971,17.971,0,0,1,1.146,2.865C-.685,5.348.129,7.64.536,10.41h0A10.386,10.386,0,0,1,2.671,12.8Z" transform="translate(40.751 33.748)"/>
              <path id="Path_248" data-name="Path 248" class="cls-3" d="M17.853,16.3a20.072,20.072,0,0,1-1.525-3.343c-.61-1.337-1.83-2.2-2.542-3.438a14.22,14.22,0,0,1-.814-1.815C10.328,4.937,6.769,3.7,3.82,1.5,3.311,1.116,2.9.734,2.4.352.667-.985.566,1.88.566,2.358c-.1,1.624-1.22,2.865,0,4.489a.547.547,0,0,1,.1.382,29.569,29.569,0,0,1,3.152,4.68c1.932,3.343,1.83,6.685,2.237,10.315H8.091c2.644.1,5.39.955,8.135,1.242,4.271.478,8.034.86,11.593,2.865-1.119-2.1-2.237-4.2-4.474-5.635C21.514,19.167,19.378,18.212,17.853,16.3Z" transform="translate(42.449 47.817)"/>
              <path id="Path_249" data-name="Path 249" class="cls-3" d="M2.746,9.169a19.566,19.566,0,0,1,3.661,2.674l.407.382a2.727,2.727,0,0,1,.508-1.433c.814-1.146.2-2.674.915-3.725C6.3,4.2,3.763,2.77,1.017.86A9,9,0,0,1,0,0,14.065,14.065,0,0,0,.508,2.2C1.017,4.2,1.525,6.876,2.644,8.5A.574.574,0,0,1,2.746,9.169Z" transform="translate(34.168 40.242)"/>
              <path id="Path_250" data-name="Path 250" class="cls-3" d="M17.287,35.294c6.915-2.292,12-5.444,15.66-11.556h0c.2-.382.508-.86.712-1.242v-.191h0c0-.1,0-.1.1-.1v-.1a4.1,4.1,0,0,1,.407-.669c.305-.573.508-1.146.814-1.719l.61-1.433c1.119-2.865,2.034-5.73,3.152-8.6.814-2.292,1.627-5.253-.2-7.258A13.689,13.689,0,0,0,36.3.53c-.915-.764-2.441-.478-3.661-.478-.1.1-.1.287-.2.382a26.794,26.794,0,0,1-4.576,6.4c-1.932,2.006-4.169,3.725-6.3,5.539s-4.779,1.815-7.22,2.961c-1.525,1.624-1.932,3.629-2.542,5.635A11.865,11.865,0,0,1,8.44,25.935a12.957,12.957,0,0,1-3.254,2.292c0,.1-.1.1-.1.191-1.322,1.528-2.237,3.247-3.559,4.775A9.9,9.9,0,0,1,0,34.53v.1C.915,37.2,4.881,38.35,7.423,38.255,10.677,37.873,14.237,36.249,17.287,35.294Z" transform="translate(80.945 75.049)"/>
              <path id="Path_251" data-name="Path 251" class="cls-3" d="M1.185,20.343c-.1.382-.2.669-.305,1.051A30.768,30.768,0,0,0,.168,24.64a13.208,13.208,0,0,0-.1,3.438,3.248,3.248,0,0,0,.2,1.051C1.185,33.14,4.338,36.2,7.49,39.444c.305.382.712.764,1.017,1.146V39.348a19.821,19.821,0,0,1,.61-3.534c.1-.287.2-.669.305-.955a16.381,16.381,0,0,1,1.729-3.534,5.808,5.808,0,0,1,.712-.955,2.631,2.631,0,0,1,.712-.764l.61-.573a8.6,8.6,0,0,1,1.424-1.242,51.787,51.787,0,0,1,7.525-4.775c.1-.1.305-.191.407-.287a5.743,5.743,0,0,0,.814-.478l1.22-.573c.61-.287,1.119-.478,1.729-.764,2.135-.86,4.373-1.624,6.508-2.483l.508-.478a.658.658,0,0,1,.712-.1,25.758,25.758,0,0,0,3.559-2.006c.407-.287.712-.573,1.119-.86A22.891,22.891,0,0,0,45.624,4.011a9.659,9.659,0,0,1-4.373,0C39.116,3.438,36.472,2.1,35.557,0a9.409,9.409,0,0,1-1.322.764C32.1,2.006,29.862,2.77,27.828,4.3a25.923,25.923,0,0,1-4.474,2.674A36.142,36.142,0,0,1,12.371,9.646a23.447,23.447,0,0,1-3.661-.1c-.1,0-.305.1-.407,0-1.119-.287-2.746,2.292-3.763,3.916l-.305.573c-.2.287-.305.573-.407.669a3.81,3.81,0,0,0-.508.86A19.721,19.721,0,0,0,1.185,20.343Z" transform="translate(44.27 110.152)"/>
              <path id="Path_252" data-name="Path 252" class="cls-3" d="M6.094,2.006A48.552,48.552,0,0,1,.7,1.146a3.567,3.567,0,0,0,2.644,5.73H4.67A10.877,10.877,0,0,0,6.4,6.59a34.666,34.666,0,0,0,3.763-1.051c.407-.1.712-.287,1.119-.382a53.086,53.086,0,0,0,5.39-2.292c.814-.382,1.627-.764,2.339-1.146C20.127,1.146,21.144.573,22.262,0a34.109,34.109,0,0,1-8.745,2.006,40.588,40.588,0,0,1-5.9.191A8.329,8.329,0,0,0,6.094,2.006Z" transform="translate(23.295 123.427)"/>
              <path id="Path_253" data-name="Path 253" class="cls-3" d="M16.881.04H15.457A50.249,50.249,0,0,0,7.932.8,24.708,24.708,0,0,1,0,1.09,33.324,33.324,0,0,0,14.44,5.483c.508,0,1.017.1,1.525.1a37.136,37.136,0,0,0,6.508-.287A34.863,34.863,0,0,0,34.066,1.568a.389.389,0,0,1,.305-.1c.305-.287.508-.669.814-.955A10.849,10.849,0,0,0,30,1.186a.554.554,0,0,1-.814-.478A17.681,17.681,0,0,1,25.321.326,3.818,3.818,0,0,0,24.3.135C21.762.04,19.321-.056,16.881.04Z" transform="translate(15.355 118.803)"/>
              <path id="Path_254" data-name="Path 254" class="cls-3" d="M9.559,42.169c1.119.1,2.135.287,3.254.382a30.4,30.4,0,0,0,4.169.1h.2a21.22,21.22,0,0,1,3.457.1,7.954,7.954,0,0,1,2.542.86,9.014,9.014,0,0,0,1.729.478c.2,0,.407.1.61.1A37.322,37.322,0,0,0,30.2,42.838c2.847-.955,4.271-2.865,5.39-5.444A14.825,14.825,0,0,1,38.134,33c1.627-1.815,2.034-3.438,2.644-5.635q.763-2.722,1.525-6.017c.1-.382.2-.86.305-1.337a14.028,14.028,0,0,1,.407-2.006,11.015,11.015,0,0,0,.2-1.815A19.736,19.736,0,0,0,42.4,7.31a11.445,11.445,0,0,0-4.678-5.635c-.1,0-.1-.1-.2-.1C34.575-.235,31.219-.235,27.965.338c-2.136.382-4.271.955-6.3,1.528a19.644,19.644,0,0,1-5.8.669,29.184,29.184,0,0,0-7.627.86H7.932c-.61,2.1-1.22,4.2-1.729,6.4a14.1,14.1,0,0,1-3.254,6.59v.191a3.006,3.006,0,0,1-1.017,1.815A11.133,11.133,0,0,0,0,21.254c2.034.1,3.051,0,4.881,1.528,1.83,1.624,2.847,2.961,2.847,5.348,0,2.579-1.322,5.157-2.237,7.545l-1.83,4.871a13.4,13.4,0,0,1-.712,1.815C4.678,41.6,7.627,41.978,9.559,42.169Z" transform="translate(114.401 52.702)"/>
              <path id="Path_255" data-name="Path 255" class="cls-3" d="M0,2.448c1.83,0,3.763,0,5.593.1a.654.654,0,0,1,.61.669,7.157,7.157,0,0,1-2.237,3.82A9.372,9.372,0,0,0,1.83,9.42a2.768,2.768,0,0,0-.305,1.624,15.887,15.887,0,0,1,.1,2.2.487.487,0,0,1-.2.382c.61,1.91.508,4.2,1.729,5.921a7.877,7.877,0,0,1,.2-1.528c.61-2.483,1.119-5.444,2.441-7.64C6.813,8.656,8.847,9.325,10.576,9.8c-.508-1.91-.305-4.011-.814-6.017a.675.675,0,0,1,.2-.573c1.22-.955,3.051-.955,4.881-1.051C13.525,1.589,12.3.92,11.084.538A9.343,9.343,0,0,0,7.017.061C5.695.156.2.634,0,2.448Z" transform="translate(43.422 19.17)"/>
              <path id="Path_256" data-name="Path 256" class="cls-3" d="M14.51,5C12.171,2.323,10.544.795,6.781.222,4.951-.065,3.121-.447,3.222,1.75c.1,1.433.2,2.961.2,4.393v.764a16.967,16.967,0,0,1-.915,3.916.984.984,0,0,1-.2.573,25.555,25.555,0,0,0-.915,2.961c-.508,2.1-.915,4.3-1.322,6.494a23.982,23.982,0,0,0,.1,3.82c2.339-1.051,6.3-1.146,8.034,0A5.264,5.264,0,0,1,9.629,26.2c1.322,1.433,1.424.86,1.119-.287-.1,0-.2-.1-.305-.191a4.009,4.009,0,0,1-.915-4.966c.508-1.242,1.119-2.388,1.525-3.629a9.981,9.981,0,0,1,2.034-4.3c1.525-1.624,4.169-2.2,2.441-4.966,0-.1-.1-.1-.1-.191A5.616,5.616,0,0,1,14.51,5Z" transform="translate(61.249 6.689)"/>
              <path id="Path_257" data-name="Path 257" class="cls-3" d="M4.881.287A7.3,7.3,0,0,1,4.068,0a10.309,10.309,0,0,1,.1,1.815c-.2,1.528,1.017,2.77,1.322,4.3.305,1.242-.305,2.77-.407,4.011a3.688,3.688,0,0,0,.1,1.051c.305,1.337,1.424,2.483,1.83,3.82a2.552,2.552,0,0,1-.712,2.2c-1.525,1.528-3.457,2.2-4.169,4.393C1.627,23.4.2,25.6,0,27.7a7.618,7.618,0,0,1,1.017-1.719c2.237-3.056,5.491-3.247,8.644-1.528a30.987,30.987,0,0,0,5.695,2.77c1.627.478,2.542,2.292,3.152,3.82a1.748,1.748,0,0,0,.407-1.433c-.1-.86-.407-2.1.814-2.388,1.83-.478,3.966.382,5.8.669s2.847.478,4.169,1.815a18.781,18.781,0,0,1,3.356,4.775c.508-.669.305-2.388.407-2.865a24.186,24.186,0,0,0-.305-3.82h0a5.951,5.951,0,0,0-2.237-1.051.554.554,0,0,1-.305-.86v-.191c.407-.86.61-1.91,1.729-1.91-.814-6.208-5.593-12.7-10.474-16.809l-.2-.191C18.609,4.2,14.745,3.152,10.881,2.2a24.952,24.952,0,0,1-2.542-.669c-.2-.1-.407-.1-.61-.191A12.336,12.336,0,0,0,4.881.287Z" transform="translate(71.793 0.989)"/>
              <path id="Path_258" data-name="Path 258" class="cls-3" d="M3.976,5.956c2.339-.764,4.881-.191,7.118.287a9.156,9.156,0,0,1,5.084,3.629,7.167,7.167,0,0,0-.61-4.775c-.1-.191-.2-.478-.305-.669h0C14.247,3,13.84,1.849,11.908,1.18,10.688.8,9.467.607,8.247.225,6.01-.443,4.078.607,1.841.416-1.312.13.519,7.1.62,8.63c0,1.146-.1,2.2-.2,3.247A2.894,2.894,0,0,0,.62,13.5a8.062,8.062,0,0,0,2.746,3.056,9.587,9.587,0,0,0,.508-1.815c.1-.382.1-.86.2-1.242.2-2.292-.305-4.775-.407-6.972C3.671,6.338,3.671,6.051,3.976,5.956Z" transform="translate(59.478 0)"/>
              <path id="Path_259" data-name="Path 259" class="cls-3" d="M3.457,7.927A19.232,19.232,0,0,1,5.695,8.5c0-1.146-.2-2.2-.1-3.343A18.554,18.554,0,0,1,6.61,0,16.226,16.226,0,0,1,2.847.573C2.135.669.508.573,0,1.051.305.86.407,3.056.508,3.247A13.722,13.722,0,0,0,.814,6.112C1.017,7.736,2.135,7.64,3.457,7.927Z" transform="translate(54.404 22.192)"/>
              <path id="Path_260" data-name="Path 260" class="cls-3" d="M24,23.829a21.218,21.218,0,0,0,1.424-5.539c.1-.669.1-1.433.2-2.1a22.877,22.877,0,0,0-.2-3.725h0c-.508-2.388-.61-4.871-1.322-7.258a9.193,9.193,0,0,0-1.932-3.82c-2.237-2.77-6.915-1.051-6.915,2.2,0,.764-.407,1.91-1.322,2.1h-.1c-1.932.191-2.746-.764-4.169-1.91-1.22-.955-3.254-.287-4.474,0A7.658,7.658,0,0,0,0,6.925c3.763,4.2,7.017,9.264,7.627,14.517a9.737,9.737,0,0,1,3.457,2.1c1.83,1.528,3.356,3.343,5.288,4.68,1.322.86,2.441,1.624,3.559,2.388.2-.191.407-.478.61-.669a37.791,37.791,0,0,0,2.746-4.2A8.809,8.809,0,0,1,24,23.829Z" transform="translate(98.029 3.329)"/>
              <path id="Path_261" data-name="Path 261" class="cls-3" d="M6.3,7.648c1.424,3.247,2.644,7.545,2.339,11.079-.2,2.77-.407,4.871,1.017,7.449a14.336,14.336,0,0,1,1.322,5.444c.305,2.1,1.322,4.107,1.932,6.208a11.44,11.44,0,0,1,0,3.725c2.644-3.343,2.949-8.022,4.068-11.938.712-2.483,1.627-4.584,1.22-7.163-.305-2.2-.508-4.393-.915-6.59A11.462,11.462,0,0,0,13.118,8.6c-1.729-1.337-3.864-2.1-5.39-3.629C6.406,3.636,1.627-1.9,0,.676,3.152,1.822,5.084,4.687,6.3,7.648Z" transform="translate(103.825 26.1)"/>
              <path id="Path_262" data-name="Path 262" class="cls-3" d="M5.8,0A26.282,26.282,0,0,1,3.661,7.927c-.305.573-.508,1.051-.814,1.624A26.125,26.125,0,0,1,.2,13.371c-.1.1-.2.191-.2.287a10.671,10.671,0,0,1,2.237,2.77A18.44,18.44,0,0,1,3.254,18.91c.2-.478.305-1.051.508-1.528l1.22-3.725a12.1,12.1,0,0,0,.508-1.815A26.641,26.641,0,0,0,6.61,3.725C6.3,2.483,6.1,1.242,5.8,0Z" transform="translate(118.977 21.046)"/>
              <path id="Path_263" data-name="Path 263" class="cls-3" d="M20.948,26.932c7.728-6.781,12.813-16.9,12.2-26.932-.1.1-.2.287-.305.382a.663.663,0,0,1-.814.191c-1.525-.86-2.339-.478-3.763.1A8.869,8.869,0,0,1,24.711.86C20.846.573,17.9,4.393,15.457,6.781c-3.254,3.247-5.695,7.067-8.44,10.7a50.357,50.357,0,0,1-5.695,6.494.389.389,0,0,1-.305.1,7.886,7.886,0,0,1-.2,3.438C.508,28.461.305,29.32,0,30.275c5.186-1.051,10.271-.669,15.355-2.006.915-.191,1.83-.478,2.746-.669a27.53,27.53,0,0,1,2.746-.478A.328.328,0,0,1,20.948,26.932Z" transform="translate(122.435 24.675)"/>
              <path id="Path_264" data-name="Path 264" class="cls-3" d="M9.509,14.88a.65.65,0,0,1-.915.764c-1.017-.669-3.966-3.725-4.474-1.528a33.555,33.555,0,0,1-1.627,5.157,19.209,19.209,0,0,0-.915,6.781c0,2.006-1.017,3.725-1.424,5.73-1.017,4.775,3.254,7.163,6.3,9.933C7.881,43.054,8.39,44.3,7.78,45.824c2.034-.478,3.661-1.146,2.847-2.77-.508-1.051-.1-2.483-.2-3.534-.1-1.719-.712-3.343-.61-5.157.1-2.1,1.729-3.916,3.457-5.253,3.763-2.865,9.864-3.534,13.83-.573a.487.487,0,0,1,.2.382,1.191,1.191,0,0,1,.814,0s2.746.86,2.339.191c-.814-1.433-1.729-2.77-2.644-4.2a20.831,20.831,0,0,0-7.423-6.59c-.407-.191-.305-.669,0-.955a4.761,4.761,0,0,1,2.034-1.242c1.83-.669,1.627-2.1,1.729-3.534a1.566,1.566,0,0,1,1.22-1.528C26.9,8.195,22.627,1.318,19.678.841,18.559.65,17.542.65,16.423.363c-1.83-.382-3.457-.955-3.254,1.242a2.977,2.977,0,0,1-.814,2.006c-.915,1.337.305,2.292-.2,3.629-.407,1.051-2.034.86-2.542,1.815A14,14,0,0,0,9.509,14.88Z" transform="translate(79.063 30.042)"/>
            </g>
          </g>
        </g>
        <g id="Group_188" data-name="Group 188" class="cls-5">
          <g id="Group_185" data-name="Group 185">
            <g id="Group_184" data-name="Group 184">
              <path id="Path_265" data-name="Path 265" class="cls-3" d="M35.388,0a5.134,5.134,0,0,1-.712.287c-2.339.955-4.068,1.91-6.712,2.1a36.25,36.25,0,0,0-7.83,1.337c-2.746.955-5.39,2.1-8.034,3.247a51.509,51.509,0,0,0-8.034,4.775A41.193,41.193,0,0,1,0,13.848a31.214,31.214,0,0,1,4.169.191,30.994,30.994,0,0,0,11.8-1.337c3.763-1.146,6.2-3.534,9.559-5.348,2.339-1.242,4.678-2.1,6.712-3.629A12.62,12.62,0,0,0,35.388,0Z" transform="translate(48.303 104.326)"/>
              <path id="Path_266" data-name="Path 266" class="cls-3" d="M9.355,20.056a7.717,7.717,0,0,1,1.22-.669c4.576-2.388,10.067-4.871,15.152-5.73,2.644-.478,5.084-.1,7.627-1.051A34.208,34.208,0,0,0,41.286,8.5c3.051-2.2,3.457-5.635,4.779-8.5a8.276,8.276,0,0,1-2.847.573,25.9,25.9,0,0,0-6.712,1.146c-2.949.86-5.288,1.051-7.627,3.247-2.034,1.815-3.457,4.107-5.695,5.826-1.932,1.624-4.474,2.483-6.406,4.107-1.424,1.337-2.746,1.528-4.678,1.624-2.135.191-1.83,1.433-3.966.478C5.8,15.949,2.542,17.286,0,17.955c2.441,1.719,6.406,2.961,9.355,2.1Z" transform="translate(46.472 92.197)"/>
              <path id="Path_267" data-name="Path 267" class="cls-3" d="M24.344,38.063a9.155,9.155,0,0,1,3.763-1.91c1.932-.478,3.966-1.051,5.9-1.528,2.644-.669,5.491.478,7.728-1.433a.642.642,0,0,1,.407-.1c.1-.1.2-.191.2-.287v-.1a6.325,6.325,0,0,1,1.525-2.1c1.322-1.433,1.017-3.056.712-4.775a18.146,18.146,0,0,1,.1-6.208c.814-4.966,3.661-8.786,5.8-13.18.508-1.146,1.627-3.725,3.051-4.871-2.949-2.1-6.712-1.91-9.966-.573C39.5,2.63,37.869,5.782,38.683,9.7a10.734,10.734,0,0,1,.305,4.011c-.2,1.528.814,1.91.2,3.438-.915,2.006-4.373,2.1-6.3,2.292-9.152.955-10.779,12.034-18.3,15.663-1.424.669-2.339,1.815-3.763,2.674A21.367,21.367,0,0,1,6.65,39.209c-2.542.669-4.779.382-6.508-1.337C-.57,39.113,1.566,41.023,2.684,41.5a6.423,6.423,0,0,0,1.932.573c.305,0,.508-.1.814-.1a.5.5,0,0,1,.61.287,36.687,36.687,0,0,0,4.678-.191c4.678-.573,9.254-2.388,13.626-4.011Z" transform="translate(51.618 57.095)"/>
              <path id="Path_268" data-name="Path 268" class="cls-3" d="M19.423,22.448c-.2-1.815-1.322-3.534-1.83-5.348-.508-2.1-.407-4.011-1.424-6.017a11.768,11.768,0,0,1-1.424-4.393h0A10.225,10.225,0,0,0,12.3,1.532C11.9,1.054,7.83-1.142,8.033.768a2.59,2.59,0,0,1,.1,1.242C7.932,4.4,6.1,4.4,4.474,5.448,9.355,8.122,12,12.515,14.745,17.1a.569.569,0,0,1-.2.669c-2.135,1.624-3.864-1.146-5.8,1.242a22.525,22.525,0,0,0-2.237,4.011c-.915,1.815-2.237,3.438-3.051,5.348A22.659,22.659,0,0,0,.915,40.4a26.819,26.819,0,0,1,.407,4.011A5.589,5.589,0,0,1,0,47.088c1.83-.573,3.763-.955,5.39-2.2a65.058,65.058,0,0,0,5.593-4.775,26.357,26.357,0,0,0,5.39-7.449c.814-1.528,2.339-3.056,3.051-4.584a.707.707,0,0,1-.2-.478A43.742,43.742,0,0,0,19.423,22.448Z" transform="translate(96.199 41.575)"/>
              <path id="Path_269" data-name="Path 269" class="cls-3" d="M3.254,13.848a8.187,8.187,0,0,1-1.525-.1c-.61-.1-1.119-.1-1.729-.191.61.573,1.22,1.242,1.83,1.91.508.573,1.017,1.051,1.525,1.624a9.54,9.54,0,0,0,1.932,1.528,17.754,17.754,0,0,0,4.983,2.2h.508a.54.54,0,0,1,.407.191,1.834,1.834,0,0,0,.712.1,14.1,14.1,0,0,0,4.474.191h0a47.414,47.414,0,0,1,4.474-2.292,30.715,30.715,0,0,0,3.763-2.388,14.809,14.809,0,0,1-9.254-3.534.288.288,0,0,1-.1-.191c0-.191,0-.382.1-.478a1.4,1.4,0,0,1,.407-.287c2.135-.382,4.169-1.051,6.3-1.433,1.424-.287,4.678.955,5.593.191a2.86,2.86,0,0,1,1.525-.478c1.627-.191,2.847-.287,4.169-1.433a71.392,71.392,0,0,1,6.406-4.107A25.861,25.861,0,0,0,44.744,0,46.184,46.184,0,0,1,30.1,3.152q0,.143-.305.287c-1.322.573-2.339,2.77-3.152,3.82a11.487,11.487,0,0,1-3.966,2.865,16.951,16.951,0,0,1-5.8,1.242,4.577,4.577,0,0,0-1.119.191q-3.356.573-6.712,1.433A14.807,14.807,0,0,1,3.254,13.848Z" transform="translate(29.388 96.877)"/>
              <path id="Path_270" data-name="Path 270" class="cls-3" d="M2.847,24.871c1.22,1.146,2.949,1.337,4.474,2.1,2.034.955,2.949,3.247,5.186,3.916,4.068-.191,7.525-2.1,11.389-3.247.1,0,.305-.1.407-.1.508-.191,1.017-.382,1.424-.573,2.441-1.051,4.169-2.483,7.22-1.719,1.729.382,3.356,1.051,4.983,1.528a14.5,14.5,0,0,0,6.712.478,2.1,2.1,0,0,0,.712-.1c2.746-.191,5.288.478,7.932.573-2.339-1.337-4.373-3.82-1.932-5.635a.683.683,0,0,1,.915.1c2.542,3.343,8.44,1.337,11.084-.955a41.425,41.425,0,0,1,4.373-2.77c1.932-1.242,3.051-3.725,4.373-5.539A13.745,13.745,0,0,1,73.217,11.5c-2.949,1.242-6.2,1.433-9.05,3.152-3.051,1.815-5.288,3.534-9.05,3.247a20.911,20.911,0,0,1-4.068-.955,13.32,13.32,0,0,0-6.712-.1,5.517,5.517,0,0,1-2.135.1c-1.932-.191-3.254-1.146-5.186-2.483a42.842,42.842,0,0,0-3.864-2.388,54.674,54.674,0,0,1-7.423-4.966c-2.034-.955-4.271-1.719-6.406-2.674-1.932-.86-3.559-2.2-5.593-2.961a20.979,20.979,0,0,0-6-1.337A31.893,31.893,0,0,0,3.457.04a9.305,9.305,0,0,0-1.627.1H1.424c-.508,0-.915.1-1.424.1C0,.517,0,.8,0,1.186q0,.143,0,.287C0,3.1,1.017,4.146,1.83,5.483A18.71,18.71,0,0,1,3.559,9.972c.407,2.006,0,3.82-2.034,4.489a3.385,3.385,0,0,1-.1,2.006.708.708,0,0,1-.2.382C0,18.95-.1,20.191,1.932,21.815h0C3.254,22.865,3.763,23.916,2.847,24.871Z" transform="translate(0 71.433)"/>
              <path id="Path_271" data-name="Path 271" class="cls-3" d="M23.8,13.753A29.29,29.29,0,0,0,18.508,6.4,18.829,18.829,0,0,0,8.034,1.051,43.962,43.962,0,0,0,3.051.573C2.034.478,1.017.191,0,0,1.017,2.006.61,4.2,1.525,6.4h0A5.489,5.489,0,0,1,3.051,8.5c.915,2.579,3.356,4.393,5.39,6.3,4.068,3.82,7.932,8.118,14.135,8.213,1.017,0,2.034,0,3.051-.1C25.117,19.674,25.219,16.809,23.8,13.753Z" transform="translate(21.863 47.023)"/>
              <path id="Path_272" data-name="Path 272" class="cls-3" d="M16.536,1.709C14.3-1.443,10.13.276,8.4,2.759a1.229,1.229,0,0,0-.305.669c-.305,1.051.2,2.006-.712,2.961A1.584,1.584,0,0,1,4.638,6.2c-1.119.955-1.525,3.247-1.83,4.393S1.486,14.506,2.3,15.652a1.27,1.27,0,0,1-.2,1.815,1.941,1.941,0,0,1-1.22.478c-2.135.191.2,2.2,1.017,2.674,3.356.478,6.813.86,10.067,1.528h.1a8.767,8.767,0,0,1,.2-3.247,1.671,1.671,0,0,1,1.119-1.433,1.243,1.243,0,0,1,1.017.191,36.56,36.56,0,0,1-.915-4.584,2.646,2.646,0,0,1-.2-.86c0-.1-.1-.191-.1-.287,0-2.292-.305-4.584.2-6.781.1-.191.1-.382.2-.573A7.507,7.507,0,0,1,16.536,1.709Z" transform="translate(19.157 24.972)"/>
              <path id="Path_273" data-name="Path 273" class="cls-3" d="M7.728,2.674A14.735,14.735,0,0,0,1.22,7.736,6.224,6.224,0,0,0,0,11.461a8.647,8.647,0,0,0,1.424,4.107,8.728,8.728,0,0,1,1.322,5.444,26.871,26.871,0,0,1,5.39,1.051c2.135.573,3.763,1.815,5.695,2.865,1.424.764,2.949,1.337,4.474,2.006a12.352,12.352,0,0,1-2.339-4.2,24.9,24.9,0,0,0-1.83-5.253,11.219,11.219,0,0,1-1.729-5.062c-.407-3.629.915-7.258,2.441-10.6.2-.382.814-.573,1.017-.191.1.191.305.382.407.573-.1-.764-.2-1.433-.305-2.2A68.22,68.22,0,0,0,7.728,2.674Z" transform="translate(5.288 49.602)"/>
              <path id="Path_274" data-name="Path 274" class="cls-3" d="M4.787,13.476C5.193,8.7,9.057,5.835,12.413,2.684q-.153,0-.305-.287c-.407-.669-3.152-.669-3.864-.764A1.794,1.794,0,0,1,6.922.773C5.905.582,4.888.2,3.871.009,2.244-.182,1.837,2.588,1.532,3.543.922,5.74-.095,8.223.007,10.419v.287h0c.305,3.534,4.068,6.4,6.508,9.264C6.108,18.06,4.685,15.672,4.787,13.476Z" transform="translate(47.584 29.441)"/>
              <path id="Path_275" data-name="Path 275" class="cls-3" d="M2.746,11.556c.814-.478,1.119-1.91,1.322-2.674a6.976,6.976,0,0,0,.1-3.247A14.911,14.911,0,0,0,1.017,0c.1,1.051.1,2.2.1,3.247,0,.955-.1,2.77-1.119,3.438A5.231,5.231,0,0,1,.1,10.6,7.839,7.839,0,0,1,2.746,11.556Z" transform="translate(105.452 29.832)"/>
              <path id="Path_276" data-name="Path 276" class="cls-3" d="M26.752,50.731c.712-.382,2.644-.478,4.576-.764,1.83-2.865-2.644-4.966-4.576-6.685a9.475,9.475,0,0,1-2.847-7.64,11.144,11.144,0,0,1,1.017-3.247c.712-1.91.305-4.011.508-6.017.305-3.438,2.237-6.685,2.644-10.124a.666.666,0,0,1,.712-.573,9.31,9.31,0,0,1,4.271,2.1c0-.86.1-1.719.1-2.674,0-1.719.1-3.438,2.135-4.011,1.322-.382.407-2.006.407-2.77V7.849a6.975,6.975,0,0,0-4.779-4.584,17.874,17.874,0,0,1-3.457-2.006c-2.237-1.337-4.271-1.91-6.508-.191-2.339,1.815-2.034,3.82-1.322,6.4.407,1.433-.508,3.247-2.034,2.2C16.278,8.8,15.77,6.7,14.041,6.416A8.643,8.643,0,0,0,5.906,8.709C2.449,12.433-1.416,14.916.516,20.456c1.525,4.3,1.525,8.977,4.576,12.7C6.414,34.781,6.72,36.883,8.042,38.6c1.22,1.624,3.763,2.674,5.491,3.82,4.474,2.961,4.068,9.169,9.152,11.461A15.018,15.018,0,0,1,26.752,50.731Z" transform="translate(53.786 25.421)"/>
              <path id="Path_277" data-name="Path 277" class="cls-3" d="M11.42,4.571c.61-.573,1.22-1.146,1.729-1.719.814-.764,2.542-2.388.407-2.388-1.729,0-3.559,0-5.288-.1A1.2,1.2,0,0,1,7.454.083C6.743-.49,5.827,2.088,5.624,2.47A5.623,5.623,0,0,1,3.082,4.953,7.763,7.763,0,0,0,.845,7.15c-1.017,1.91-.915,4.2-.712,6.59,0,.1.1.1.1.191,0,.478.1.955.1,1.433.712,2.006,3.356,3.247,5.084,4.3a5.559,5.559,0,0,1,.915.669,9.153,9.153,0,0,1,0-4.966c.61-2.2,3.152-3.534,3.254-5.921a.539.539,0,0,1,.712-.478,11.75,11.75,0,0,1,0-2.674A3.632,3.632,0,0,1,11.42,4.571Z" transform="translate(33.425 22.395)"/>
              <path id="Path_278" data-name="Path 278" class="cls-3" d="M22.985,34.477c.1,0,.2.1.407.1a10.423,10.423,0,0,0,3.457-.478,15.452,15.452,0,0,1,7.525.86,10.567,10.567,0,0,0,6.2.1c1.932-.669,3.356-2.2,5.186-3.152,3.457-1.719,7.525-1.528,10.576-4.107a.389.389,0,0,1,.305-.1l.305-.287a10.055,10.055,0,0,1-4.169-4.2.389.389,0,0,1-.305-.1C47.7,19.865,42.408,19.865,36.815,19.1a50.59,50.59,0,0,0-8.44-.86,22.735,22.735,0,0,1-5.695-.1C17.9,17.1,14.748,13.657,11.392,10.6,9.46,8.882,7.02,6.972,5.494,4.871c-.712-.955-.407-1.719-1.322-2.865-.2-.191-.305-.382-.508-.573q-.153,0-.305-.287C2.952.764,2.444.382,2.037,0A21.342,21.342,0,0,0,0,8.309c-.1,3.534,2.441,6.208,3.254,9.551a13.772,13.772,0,0,0,4.881,7.354h.1l.2.191a70.109,70.109,0,0,0,7.932,5.253c.814.478,1.729,1.051,2.542,1.624C20.341,33.045,21.46,34.1,22.985,34.477Z" transform="translate(18.708 52.849)"/>
              <path id="Path_279" data-name="Path 279" class="cls-3" d="M25.728,2.378A46.011,46.011,0,0,1,20.541.85c-2.949-.86-4.779-1.528-7.627.382A11.372,11.372,0,0,1,11.389,2a8.315,8.315,0,0,1-1.424.478l-1.83.573C5.288,4,2.847,5.148,0,5.626c2.339.955,4.373,2.388,6.712,3.438.1.1.2.1.407.191.407.191.915.382,1.322.573l2.441.86a1.834,1.834,0,0,1,.712.1.875.875,0,0,1,.508.287c.1,0,.1.1.2.1a.389.389,0,0,1,.305.1h0a24.974,24.974,0,0,0,3.864.669,8.187,8.187,0,0,0,1.525.1,23.261,23.261,0,0,0,4.373-.382c2.339-.478,4.576-1.146,6.813-1.528a6.309,6.309,0,0,1,1.322-.191,27.416,27.416,0,0,0,6.2-1.242,10.463,10.463,0,0,0,4.779-4.2,8.137,8.137,0,0,1,1.424-1.815,2.105,2.105,0,0,1-.712-.1c-3.864.669-7.423-.478-11.186-.382h-.61A19.211,19.211,0,0,1,25.728,2.378Z" transform="translate(14.542 97.65)"/>
              <path id="Path_280" data-name="Path 280" class="cls-3" d="M2.671,12.8c1.525-.669,3.966,1.91,4.881,2.674,2.237,1.624,4.576,2.579,6.712,4.2-.1-.382-.1-.764-.2-1.146-.1-.1-.2-.1-.305-.191-2.441-4.2-7.118-6.972-7.932-11.461C3.586,5.062,3.79,2.388,3.078,0A17.971,17.971,0,0,1,1.146,2.865C-.685,5.348.129,7.64.536,10.41h0A10.386,10.386,0,0,1,2.671,12.8Z" transform="translate(40.751 33.748)"/>
              <path id="Path_281" data-name="Path 281" class="cls-3" d="M17.853,16.3a20.072,20.072,0,0,1-1.525-3.343c-.61-1.337-1.83-2.2-2.542-3.438a14.22,14.22,0,0,1-.814-1.815C10.328,4.937,6.769,3.7,3.82,1.5,3.311,1.116,2.9.734,2.4.352.667-.985.566,1.88.566,2.358c-.1,1.624-1.22,2.865,0,4.489a.547.547,0,0,1,.1.382,29.569,29.569,0,0,1,3.152,4.68c1.932,3.343,1.83,6.685,2.237,10.315H8.091c2.644.1,5.39.955,8.135,1.242,4.271.478,8.034.86,11.593,2.865-1.119-2.1-2.237-4.2-4.474-5.635C21.514,19.167,19.378,18.212,17.853,16.3Z" transform="translate(42.449 47.817)"/>
              <path id="Path_282" data-name="Path 282" class="cls-3" d="M2.746,9.169a19.566,19.566,0,0,1,3.661,2.674l.407.382a2.727,2.727,0,0,1,.508-1.433c.814-1.146.2-2.674.915-3.725C6.3,4.2,3.763,2.77,1.017.86A9,9,0,0,1,0,0,14.065,14.065,0,0,0,.508,2.2C1.017,4.2,1.525,6.876,2.644,8.5A.574.574,0,0,1,2.746,9.169Z" transform="translate(34.168 40.242)"/>
              <path id="Path_283" data-name="Path 283" class="cls-3" d="M17.287,35.294c6.915-2.292,12-5.444,15.66-11.556h0c.2-.382.508-.86.712-1.242v-.191h0c0-.1,0-.1.1-.1v-.1a4.1,4.1,0,0,1,.407-.669c.305-.573.508-1.146.814-1.719l.61-1.433c1.119-2.865,2.034-5.73,3.152-8.6.814-2.292,1.627-5.253-.2-7.258A13.689,13.689,0,0,0,36.3.53c-.915-.764-2.441-.478-3.661-.478-.1.1-.1.287-.2.382a26.794,26.794,0,0,1-4.576,6.4c-1.932,2.006-4.169,3.725-6.3,5.539s-4.779,1.815-7.22,2.961c-1.525,1.624-1.932,3.629-2.542,5.635A11.865,11.865,0,0,1,8.44,25.935a12.957,12.957,0,0,1-3.254,2.292c0,.1-.1.1-.1.191-1.322,1.528-2.237,3.247-3.559,4.775A9.9,9.9,0,0,1,0,34.53v.1C.915,37.2,4.881,38.35,7.423,38.255,10.677,37.873,14.237,36.249,17.287,35.294Z" transform="translate(80.945 75.049)"/>
              <path id="Path_284" data-name="Path 284" class="cls-3" d="M1.185,20.343c-.1.382-.2.669-.305,1.051A30.768,30.768,0,0,0,.168,24.64a13.208,13.208,0,0,0-.1,3.438,3.248,3.248,0,0,0,.2,1.051C1.185,33.14,4.338,36.2,7.49,39.444c.305.382.712.764,1.017,1.146V39.348a19.821,19.821,0,0,1,.61-3.534c.1-.287.2-.669.305-.955a16.381,16.381,0,0,1,1.729-3.534,5.808,5.808,0,0,1,.712-.955,2.631,2.631,0,0,1,.712-.764l.61-.573a8.6,8.6,0,0,1,1.424-1.242,51.787,51.787,0,0,1,7.525-4.775c.1-.1.305-.191.407-.287a5.743,5.743,0,0,0,.814-.478l1.22-.573c.61-.287,1.119-.478,1.729-.764,2.135-.86,4.373-1.624,6.508-2.483l.508-.478a.658.658,0,0,1,.712-.1,25.758,25.758,0,0,0,3.559-2.006c.407-.287.712-.573,1.119-.86A22.891,22.891,0,0,0,45.624,4.011a9.659,9.659,0,0,1-4.373,0C39.116,3.438,36.472,2.1,35.557,0a9.409,9.409,0,0,1-1.322.764C32.1,2.006,29.862,2.77,27.828,4.3a25.923,25.923,0,0,1-4.474,2.674A36.142,36.142,0,0,1,12.371,9.646a23.447,23.447,0,0,1-3.661-.1c-.1,0-.305.1-.407,0-1.119-.287-2.746,2.292-3.763,3.916l-.305.573c-.2.287-.305.573-.407.669a3.81,3.81,0,0,0-.508.86A19.721,19.721,0,0,0,1.185,20.343Z" transform="translate(44.27 110.152)"/>
              <path id="Path_285" data-name="Path 285" class="cls-3" d="M6.094,2.006A48.552,48.552,0,0,1,.7,1.146a3.567,3.567,0,0,0,2.644,5.73H4.67A10.877,10.877,0,0,0,6.4,6.59a34.666,34.666,0,0,0,3.763-1.051c.407-.1.712-.287,1.119-.382a53.086,53.086,0,0,0,5.39-2.292c.814-.382,1.627-.764,2.339-1.146C20.127,1.146,21.144.573,22.262,0a34.109,34.109,0,0,1-8.745,2.006,40.588,40.588,0,0,1-5.9.191A8.329,8.329,0,0,0,6.094,2.006Z" transform="translate(23.295 123.427)"/>
              <path id="Path_286" data-name="Path 286" class="cls-3" d="M16.881.04H15.457A50.249,50.249,0,0,0,7.932.8,24.708,24.708,0,0,1,0,1.09,33.324,33.324,0,0,0,14.44,5.483c.508,0,1.017.1,1.525.1a37.136,37.136,0,0,0,6.508-.287A34.863,34.863,0,0,0,34.066,1.568a.389.389,0,0,1,.305-.1c.305-.287.508-.669.814-.955A10.849,10.849,0,0,0,30,1.186a.554.554,0,0,1-.814-.478A17.681,17.681,0,0,1,25.321.326,3.818,3.818,0,0,0,24.3.135C21.762.04,19.321-.056,16.881.04Z" transform="translate(15.355 118.803)"/>
              <path id="Path_287" data-name="Path 287" class="cls-3" d="M9.559,42.169c1.119.1,2.135.287,3.254.382a30.4,30.4,0,0,0,4.169.1h.2a21.22,21.22,0,0,1,3.457.1,7.954,7.954,0,0,1,2.542.86,9.014,9.014,0,0,0,1.729.478c.2,0,.407.1.61.1A37.322,37.322,0,0,0,30.2,42.838c2.847-.955,4.271-2.865,5.39-5.444A14.825,14.825,0,0,1,38.134,33c1.627-1.815,2.034-3.438,2.644-5.635q.763-2.722,1.525-6.017c.1-.382.2-.86.305-1.337a14.028,14.028,0,0,1,.407-2.006,11.015,11.015,0,0,0,.2-1.815A19.736,19.736,0,0,0,42.4,7.31a11.445,11.445,0,0,0-4.678-5.635c-.1,0-.1-.1-.2-.1C34.575-.235,31.219-.235,27.965.338c-2.136.382-4.271.955-6.3,1.528a19.644,19.644,0,0,1-5.8.669,29.184,29.184,0,0,0-7.627.86H7.932c-.61,2.1-1.22,4.2-1.729,6.4a14.1,14.1,0,0,1-3.254,6.59v.191a3.006,3.006,0,0,1-1.017,1.815A11.133,11.133,0,0,0,0,21.254c2.034.1,3.051,0,4.881,1.528,1.83,1.624,2.847,2.961,2.847,5.348,0,2.579-1.322,5.157-2.237,7.545l-1.83,4.871a13.4,13.4,0,0,1-.712,1.815C4.678,41.6,7.627,41.978,9.559,42.169Z" transform="translate(114.401 52.702)"/>
              <path id="Path_288" data-name="Path 288" class="cls-3" d="M0,2.448c1.83,0,3.763,0,5.593.1a.654.654,0,0,1,.61.669,7.157,7.157,0,0,1-2.237,3.82A9.372,9.372,0,0,0,1.83,9.42a2.768,2.768,0,0,0-.305,1.624,15.887,15.887,0,0,1,.1,2.2.487.487,0,0,1-.2.382c.61,1.91.508,4.2,1.729,5.921a7.877,7.877,0,0,1,.2-1.528c.61-2.483,1.119-5.444,2.441-7.64C6.813,8.656,8.847,9.325,10.576,9.8c-.508-1.91-.305-4.011-.814-6.017a.675.675,0,0,1,.2-.573c1.22-.955,3.051-.955,4.881-1.051C13.525,1.589,12.3.92,11.084.538A9.343,9.343,0,0,0,7.017.061C5.695.156.2.634,0,2.448Z" transform="translate(43.422 19.17)"/>
              <path id="Path_289" data-name="Path 289" class="cls-3" d="M14.51,5C12.171,2.323,10.544.795,6.781.222,4.951-.065,3.121-.447,3.222,1.75c.1,1.433.2,2.961.2,4.393v.764a16.967,16.967,0,0,1-.915,3.916.984.984,0,0,1-.2.573,25.555,25.555,0,0,0-.915,2.961c-.508,2.1-.915,4.3-1.322,6.494a23.982,23.982,0,0,0,.1,3.82c2.339-1.051,6.3-1.146,8.034,0A5.264,5.264,0,0,1,9.629,26.2c1.322,1.433,1.424.86,1.119-.287-.1,0-.2-.1-.305-.191a4.009,4.009,0,0,1-.915-4.966c.508-1.242,1.119-2.388,1.525-3.629a9.981,9.981,0,0,1,2.034-4.3c1.525-1.624,4.169-2.2,2.441-4.966,0-.1-.1-.1-.1-.191A5.616,5.616,0,0,1,14.51,5Z" transform="translate(61.249 6.689)"/>
              <path id="Path_290" data-name="Path 290" class="cls-3" d="M4.881.287A7.3,7.3,0,0,1,4.068,0a10.309,10.309,0,0,1,.1,1.815c-.2,1.528,1.017,2.77,1.322,4.3.305,1.242-.305,2.77-.407,4.011a3.688,3.688,0,0,0,.1,1.051c.305,1.337,1.424,2.483,1.83,3.82a2.552,2.552,0,0,1-.712,2.2c-1.525,1.528-3.457,2.2-4.169,4.393C1.627,23.4.2,25.6,0,27.7a7.618,7.618,0,0,1,1.017-1.719c2.237-3.056,5.491-3.247,8.644-1.528a30.987,30.987,0,0,0,5.695,2.77c1.627.478,2.542,2.292,3.152,3.82a1.748,1.748,0,0,0,.407-1.433c-.1-.86-.407-2.1.814-2.388,1.83-.478,3.966.382,5.8.669s2.847.478,4.169,1.815a18.781,18.781,0,0,1,3.356,4.775c.508-.669.305-2.388.407-2.865a24.186,24.186,0,0,0-.305-3.82h0a5.951,5.951,0,0,0-2.237-1.051.554.554,0,0,1-.305-.86v-.191c.407-.86.61-1.91,1.729-1.91-.814-6.208-5.593-12.7-10.474-16.809l-.2-.191C18.609,4.2,14.745,3.152,10.881,2.2a24.952,24.952,0,0,1-2.542-.669c-.2-.1-.407-.1-.61-.191A12.336,12.336,0,0,0,4.881.287Z" transform="translate(71.793 0.989)"/>
              <path id="Path_291" data-name="Path 291" class="cls-3" d="M3.976,5.956c2.339-.764,4.881-.191,7.118.287a9.156,9.156,0,0,1,5.084,3.629,7.167,7.167,0,0,0-.61-4.775c-.1-.191-.2-.478-.305-.669h0C14.247,3,13.84,1.849,11.908,1.18,10.688.8,9.467.607,8.247.225,6.01-.443,4.078.607,1.841.416-1.312.13.519,7.1.62,8.63c0,1.146-.1,2.2-.2,3.247A2.894,2.894,0,0,0,.62,13.5a8.062,8.062,0,0,0,2.746,3.056,9.587,9.587,0,0,0,.508-1.815c.1-.382.1-.86.2-1.242.2-2.292-.305-4.775-.407-6.972C3.671,6.338,3.671,6.051,3.976,5.956Z" transform="translate(59.478 0)"/>
              <path id="Path_292" data-name="Path 292" class="cls-3" d="M3.457,7.927A19.232,19.232,0,0,1,5.695,8.5c0-1.146-.2-2.2-.1-3.343A18.554,18.554,0,0,1,6.61,0,16.226,16.226,0,0,1,2.847.573C2.135.669.508.573,0,1.051.305.86.407,3.056.508,3.247A13.722,13.722,0,0,0,.814,6.112C1.017,7.736,2.135,7.64,3.457,7.927Z" transform="translate(54.404 22.192)"/>
              <path id="Path_293" data-name="Path 293" class="cls-3" d="M24,23.829a21.218,21.218,0,0,0,1.424-5.539c.1-.669.1-1.433.2-2.1a22.877,22.877,0,0,0-.2-3.725h0c-.508-2.388-.61-4.871-1.322-7.258a9.193,9.193,0,0,0-1.932-3.82c-2.237-2.77-6.915-1.051-6.915,2.2,0,.764-.407,1.91-1.322,2.1h-.1c-1.932.191-2.746-.764-4.169-1.91-1.22-.955-3.254-.287-4.474,0A7.658,7.658,0,0,0,0,6.925c3.763,4.2,7.017,9.264,7.627,14.517a9.737,9.737,0,0,1,3.457,2.1c1.83,1.528,3.356,3.343,5.288,4.68,1.322.86,2.441,1.624,3.559,2.388.2-.191.407-.478.61-.669a37.791,37.791,0,0,0,2.746-4.2A8.809,8.809,0,0,1,24,23.829Z" transform="translate(98.029 3.329)"/>
              <path id="Path_294" data-name="Path 294" class="cls-3" d="M6.3,7.648c1.424,3.247,2.644,7.545,2.339,11.079-.2,2.77-.407,4.871,1.017,7.449a14.336,14.336,0,0,1,1.322,5.444c.305,2.1,1.322,4.107,1.932,6.208a11.44,11.44,0,0,1,0,3.725c2.644-3.343,2.949-8.022,4.068-11.938.712-2.483,1.627-4.584,1.22-7.163-.305-2.2-.508-4.393-.915-6.59A11.462,11.462,0,0,0,13.118,8.6c-1.729-1.337-3.864-2.1-5.39-3.629C6.406,3.636,1.627-1.9,0,.676,3.152,1.822,5.084,4.687,6.3,7.648Z" transform="translate(103.825 26.1)"/>
              <path id="Path_295" data-name="Path 295" class="cls-3" d="M5.8,0A26.282,26.282,0,0,1,3.661,7.927c-.305.573-.508,1.051-.814,1.624A26.125,26.125,0,0,1,.2,13.371c-.1.1-.2.191-.2.287a10.671,10.671,0,0,1,2.237,2.77A18.44,18.44,0,0,1,3.254,18.91c.2-.478.305-1.051.508-1.528l1.22-3.725a12.1,12.1,0,0,0,.508-1.815A26.641,26.641,0,0,0,6.61,3.725C6.3,2.483,6.1,1.242,5.8,0Z" transform="translate(118.977 21.046)"/>
              <path id="Path_296" data-name="Path 296" class="cls-3" d="M20.948,26.932c7.728-6.781,12.813-16.9,12.2-26.932-.1.1-.2.287-.305.382a.663.663,0,0,1-.814.191c-1.525-.86-2.339-.478-3.763.1A8.869,8.869,0,0,1,24.711.86C20.846.573,17.9,4.393,15.457,6.781c-3.254,3.247-5.695,7.067-8.44,10.7a50.357,50.357,0,0,1-5.695,6.494.389.389,0,0,1-.305.1,7.886,7.886,0,0,1-.2,3.438C.508,28.461.305,29.32,0,30.275c5.186-1.051,10.271-.669,15.355-2.006.915-.191,1.83-.478,2.746-.669a27.53,27.53,0,0,1,2.746-.478A.328.328,0,0,1,20.948,26.932Z" transform="translate(122.435 24.675)"/>
              <path id="Path_297" data-name="Path 297" class="cls-3" d="M9.509,14.88a.65.65,0,0,1-.915.764c-1.017-.669-3.966-3.725-4.474-1.528a33.555,33.555,0,0,1-1.627,5.157,19.209,19.209,0,0,0-.915,6.781c0,2.006-1.017,3.725-1.424,5.73-1.017,4.775,3.254,7.163,6.3,9.933C7.881,43.054,8.39,44.3,7.78,45.824c2.034-.478,3.661-1.146,2.847-2.77-.508-1.051-.1-2.483-.2-3.534-.1-1.719-.712-3.343-.61-5.157.1-2.1,1.729-3.916,3.457-5.253,3.763-2.865,9.864-3.534,13.83-.573a.487.487,0,0,1,.2.382,1.191,1.191,0,0,1,.814,0s2.746.86,2.339.191c-.814-1.433-1.729-2.77-2.644-4.2a20.831,20.831,0,0,0-7.423-6.59c-.407-.191-.305-.669,0-.955a4.761,4.761,0,0,1,2.034-1.242c1.83-.669,1.627-2.1,1.729-3.534a1.566,1.566,0,0,1,1.22-1.528C26.9,8.195,22.627,1.318,19.678.841,18.559.65,17.542.65,16.423.363c-1.83-.382-3.457-.955-3.254,1.242a2.977,2.977,0,0,1-.814,2.006c-.915,1.337.305,2.292-.2,3.629-.407,1.051-2.034.86-2.542,1.815A14,14,0,0,0,9.509,14.88Z" transform="translate(79.063 30.042)"/>
            </g>
          </g>
          <g id="Group_187" data-name="Group 187" class="cls-4">
            <g id="Group_186" data-name="Group 186">
              <path id="Path_298" data-name="Path 298" class="cls-3" d="M35.388,0a5.134,5.134,0,0,1-.712.287c-2.339.955-4.068,1.91-6.712,2.1a36.25,36.25,0,0,0-7.83,1.337c-2.746.955-5.39,2.1-8.034,3.247a51.509,51.509,0,0,0-8.034,4.775A41.193,41.193,0,0,1,0,13.848a31.214,31.214,0,0,1,4.169.191,30.994,30.994,0,0,0,11.8-1.337c3.763-1.146,6.2-3.534,9.559-5.348,2.339-1.242,4.678-2.1,6.712-3.629A12.62,12.62,0,0,0,35.388,0Z" transform="translate(48.303 104.326)"/>
              <path id="Path_299" data-name="Path 299" class="cls-3" d="M9.355,20.056a7.717,7.717,0,0,1,1.22-.669c4.576-2.388,10.067-4.871,15.152-5.73,2.644-.478,5.084-.1,7.627-1.051A34.208,34.208,0,0,0,41.286,8.5c3.051-2.2,3.457-5.635,4.779-8.5a8.276,8.276,0,0,1-2.847.573,25.9,25.9,0,0,0-6.712,1.146c-2.949.86-5.288,1.051-7.627,3.247-2.034,1.815-3.457,4.107-5.695,5.826-1.932,1.624-4.474,2.483-6.406,4.107-1.424,1.337-2.746,1.528-4.678,1.624-2.135.191-1.83,1.433-3.966.478C5.8,15.949,2.542,17.286,0,17.955c2.441,1.719,6.406,2.961,9.355,2.1Z" transform="translate(46.472 92.197)"/>
              <path id="Path_300" data-name="Path 300" class="cls-3" d="M24.344,38.063a9.155,9.155,0,0,1,3.763-1.91c1.932-.478,3.966-1.051,5.9-1.528,2.644-.669,5.491.478,7.728-1.433a.642.642,0,0,1,.407-.1c.1-.1.2-.191.2-.287v-.1a6.325,6.325,0,0,1,1.525-2.1c1.322-1.433,1.017-3.056.712-4.775a18.146,18.146,0,0,1,.1-6.208c.814-4.966,3.661-8.786,5.8-13.18.508-1.146,1.627-3.725,3.051-4.871-2.949-2.1-6.712-1.91-9.966-.573C39.5,2.63,37.869,5.782,38.683,9.7a10.734,10.734,0,0,1,.305,4.011c-.2,1.528.814,1.91.2,3.438-.915,2.006-4.373,2.1-6.3,2.292-9.152.955-10.779,12.034-18.3,15.663-1.424.669-2.339,1.815-3.763,2.674A21.367,21.367,0,0,1,6.65,39.209c-2.542.669-4.779.382-6.508-1.337C-.57,39.113,1.566,41.023,2.684,41.5a6.423,6.423,0,0,0,1.932.573c.305,0,.508-.1.814-.1a.5.5,0,0,1,.61.287,36.687,36.687,0,0,0,4.678-.191c4.678-.573,9.254-2.388,13.626-4.011Z" transform="translate(51.618 57.095)"/>
              <path id="Path_301" data-name="Path 301" class="cls-3" d="M19.423,22.448c-.2-1.815-1.322-3.534-1.83-5.348-.508-2.1-.407-4.011-1.424-6.017a11.768,11.768,0,0,1-1.424-4.393h0A10.225,10.225,0,0,0,12.3,1.532C11.9,1.054,7.83-1.142,8.033.768a2.59,2.59,0,0,1,.1,1.242C7.932,4.4,6.1,4.4,4.474,5.448,9.355,8.122,12,12.515,14.745,17.1a.569.569,0,0,1-.2.669c-2.135,1.624-3.864-1.146-5.8,1.242a22.525,22.525,0,0,0-2.237,4.011c-.915,1.815-2.237,3.438-3.051,5.348A22.659,22.659,0,0,0,.915,40.4a26.819,26.819,0,0,1,.407,4.011A5.589,5.589,0,0,1,0,47.088c1.83-.573,3.763-.955,5.39-2.2a65.058,65.058,0,0,0,5.593-4.775,26.357,26.357,0,0,0,5.39-7.449c.814-1.528,2.339-3.056,3.051-4.584a.707.707,0,0,1-.2-.478A43.742,43.742,0,0,0,19.423,22.448Z" transform="translate(96.199 41.575)"/>
              <path id="Path_302" data-name="Path 302" class="cls-3" d="M3.254,13.848a8.187,8.187,0,0,1-1.525-.1c-.61-.1-1.119-.1-1.729-.191.61.573,1.22,1.242,1.83,1.91.508.573,1.017,1.051,1.525,1.624a9.54,9.54,0,0,0,1.932,1.528,17.754,17.754,0,0,0,4.983,2.2h.508a.54.54,0,0,1,.407.191,1.834,1.834,0,0,0,.712.1,14.1,14.1,0,0,0,4.474.191h0a47.414,47.414,0,0,1,4.474-2.292,30.715,30.715,0,0,0,3.763-2.388,14.809,14.809,0,0,1-9.254-3.534.288.288,0,0,1-.1-.191c0-.191,0-.382.1-.478a1.4,1.4,0,0,1,.407-.287c2.135-.382,4.169-1.051,6.3-1.433,1.424-.287,4.678.955,5.593.191a2.86,2.86,0,0,1,1.525-.478c1.627-.191,2.847-.287,4.169-1.433a71.392,71.392,0,0,1,6.406-4.107A25.861,25.861,0,0,0,44.744,0,46.184,46.184,0,0,1,30.1,3.152q0,.143-.305.287c-1.322.573-2.339,2.77-3.152,3.82a11.487,11.487,0,0,1-3.966,2.865,16.951,16.951,0,0,1-5.8,1.242,4.577,4.577,0,0,0-1.119.191q-3.356.573-6.712,1.433A14.807,14.807,0,0,1,3.254,13.848Z" transform="translate(29.388 96.877)"/>
              <path id="Path_303" data-name="Path 303" class="cls-3" d="M2.847,24.871c1.22,1.146,2.949,1.337,4.474,2.1,2.034.955,2.949,3.247,5.186,3.916,4.068-.191,7.525-2.1,11.389-3.247.1,0,.305-.1.407-.1.508-.191,1.017-.382,1.424-.573,2.441-1.051,4.169-2.483,7.22-1.719,1.729.382,3.356,1.051,4.983,1.528a14.5,14.5,0,0,0,6.712.478,2.1,2.1,0,0,0,.712-.1c2.746-.191,5.288.478,7.932.573-2.339-1.337-4.373-3.82-1.932-5.635a.683.683,0,0,1,.915.1c2.542,3.343,8.44,1.337,11.084-.955a41.425,41.425,0,0,1,4.373-2.77c1.932-1.242,3.051-3.725,4.373-5.539A13.745,13.745,0,0,1,73.217,11.5c-2.949,1.242-6.2,1.433-9.05,3.152-3.051,1.815-5.288,3.534-9.05,3.247a20.911,20.911,0,0,1-4.068-.955,13.32,13.32,0,0,0-6.712-.1,5.517,5.517,0,0,1-2.135.1c-1.932-.191-3.254-1.146-5.186-2.483a42.842,42.842,0,0,0-3.864-2.388,54.674,54.674,0,0,1-7.423-4.966c-2.034-.955-4.271-1.719-6.406-2.674-1.932-.86-3.559-2.2-5.593-2.961a20.979,20.979,0,0,0-6-1.337A31.893,31.893,0,0,0,3.457.04a9.305,9.305,0,0,0-1.627.1H1.424c-.508,0-.915.1-1.424.1C0,.517,0,.8,0,1.186q0,.143,0,.287C0,3.1,1.017,4.146,1.83,5.483A18.71,18.71,0,0,1,3.559,9.972c.407,2.006,0,3.82-2.034,4.489a3.385,3.385,0,0,1-.1,2.006.708.708,0,0,1-.2.382C0,18.95-.1,20.191,1.932,21.815h0C3.254,22.865,3.763,23.916,2.847,24.871Z" transform="translate(0 71.433)"/>
              <path id="Path_304" data-name="Path 304" class="cls-3" d="M23.8,13.753A29.29,29.29,0,0,0,18.508,6.4,18.829,18.829,0,0,0,8.034,1.051,43.962,43.962,0,0,0,3.051.573C2.034.478,1.017.191,0,0,1.017,2.006.61,4.2,1.525,6.4h0A5.489,5.489,0,0,1,3.051,8.5c.915,2.579,3.356,4.393,5.39,6.3,4.068,3.82,7.932,8.118,14.135,8.213,1.017,0,2.034,0,3.051-.1C25.117,19.674,25.219,16.809,23.8,13.753Z" transform="translate(21.863 47.023)"/>
              <path id="Path_305" data-name="Path 305" class="cls-3" d="M16.536,1.709C14.3-1.443,10.13.276,8.4,2.759a1.229,1.229,0,0,0-.305.669c-.305,1.051.2,2.006-.712,2.961A1.584,1.584,0,0,1,4.638,6.2c-1.119.955-1.525,3.247-1.83,4.393S1.486,14.506,2.3,15.652a1.27,1.27,0,0,1-.2,1.815,1.941,1.941,0,0,1-1.22.478c-2.135.191.2,2.2,1.017,2.674,3.356.478,6.813.86,10.067,1.528h.1a8.767,8.767,0,0,1,.2-3.247,1.671,1.671,0,0,1,1.119-1.433,1.243,1.243,0,0,1,1.017.191,36.56,36.56,0,0,1-.915-4.584,2.646,2.646,0,0,1-.2-.86c0-.1-.1-.191-.1-.287,0-2.292-.305-4.584.2-6.781.1-.191.1-.382.2-.573A7.507,7.507,0,0,1,16.536,1.709Z" transform="translate(19.157 24.972)"/>
              <path id="Path_306" data-name="Path 306" class="cls-3" d="M7.728,2.674A14.735,14.735,0,0,0,1.22,7.736,6.224,6.224,0,0,0,0,11.461a8.647,8.647,0,0,0,1.424,4.107,8.728,8.728,0,0,1,1.322,5.444,26.871,26.871,0,0,1,5.39,1.051c2.135.573,3.763,1.815,5.695,2.865,1.424.764,2.949,1.337,4.474,2.006a12.352,12.352,0,0,1-2.339-4.2,24.9,24.9,0,0,0-1.83-5.253,11.219,11.219,0,0,1-1.729-5.062c-.407-3.629.915-7.258,2.441-10.6.2-.382.814-.573,1.017-.191.1.191.305.382.407.573-.1-.764-.2-1.433-.305-2.2A68.22,68.22,0,0,0,7.728,2.674Z" transform="translate(5.288 49.602)"/>
              <path id="Path_307" data-name="Path 307" class="cls-3" d="M4.787,13.476C5.193,8.7,9.057,5.835,12.413,2.684q-.153,0-.305-.287c-.407-.669-3.152-.669-3.864-.764A1.794,1.794,0,0,1,6.922.773C5.905.582,4.888.2,3.871.009,2.244-.182,1.837,2.588,1.532,3.543.922,5.74-.095,8.223.007,10.419v.287h0c.305,3.534,4.068,6.4,6.508,9.264C6.108,18.06,4.685,15.672,4.787,13.476Z" transform="translate(47.584 29.441)"/>
              <path id="Path_308" data-name="Path 308" class="cls-3" d="M2.746,11.556c.814-.478,1.119-1.91,1.322-2.674a6.976,6.976,0,0,0,.1-3.247A14.911,14.911,0,0,0,1.017,0c.1,1.051.1,2.2.1,3.247,0,.955-.1,2.77-1.119,3.438A5.231,5.231,0,0,1,.1,10.6,7.839,7.839,0,0,1,2.746,11.556Z" transform="translate(105.452 29.832)"/>
              <path id="Path_309" data-name="Path 309" class="cls-3" d="M26.752,50.731c.712-.382,2.644-.478,4.576-.764,1.83-2.865-2.644-4.966-4.576-6.685a9.475,9.475,0,0,1-2.847-7.64,11.144,11.144,0,0,1,1.017-3.247c.712-1.91.305-4.011.508-6.017.305-3.438,2.237-6.685,2.644-10.124a.666.666,0,0,1,.712-.573,9.31,9.31,0,0,1,4.271,2.1c0-.86.1-1.719.1-2.674,0-1.719.1-3.438,2.135-4.011,1.322-.382.407-2.006.407-2.77V7.849a6.975,6.975,0,0,0-4.779-4.584,17.874,17.874,0,0,1-3.457-2.006c-2.237-1.337-4.271-1.91-6.508-.191-2.339,1.815-2.034,3.82-1.322,6.4.407,1.433-.508,3.247-2.034,2.2C16.278,8.8,15.77,6.7,14.041,6.416A8.643,8.643,0,0,0,5.906,8.709C2.449,12.433-1.416,14.916.516,20.456c1.525,4.3,1.525,8.977,4.576,12.7C6.414,34.781,6.72,36.883,8.042,38.6c1.22,1.624,3.763,2.674,5.491,3.82,4.474,2.961,4.068,9.169,9.152,11.461A15.018,15.018,0,0,1,26.752,50.731Z" transform="translate(53.786 25.421)"/>
              <path id="Path_310" data-name="Path 310" class="cls-3" d="M11.42,4.571c.61-.573,1.22-1.146,1.729-1.719.814-.764,2.542-2.388.407-2.388-1.729,0-3.559,0-5.288-.1A1.2,1.2,0,0,1,7.454.083C6.743-.49,5.827,2.088,5.624,2.47A5.623,5.623,0,0,1,3.082,4.953,7.763,7.763,0,0,0,.845,7.15c-1.017,1.91-.915,4.2-.712,6.59,0,.1.1.1.1.191,0,.478.1.955.1,1.433.712,2.006,3.356,3.247,5.084,4.3a5.559,5.559,0,0,1,.915.669,9.153,9.153,0,0,1,0-4.966c.61-2.2,3.152-3.534,3.254-5.921a.539.539,0,0,1,.712-.478,11.75,11.75,0,0,1,0-2.674A3.632,3.632,0,0,1,11.42,4.571Z" transform="translate(33.425 22.395)"/>
              <path id="Path_311" data-name="Path 311" class="cls-3" d="M22.985,34.477c.1,0,.2.1.407.1a10.423,10.423,0,0,0,3.457-.478,15.452,15.452,0,0,1,7.525.86,10.567,10.567,0,0,0,6.2.1c1.932-.669,3.356-2.2,5.186-3.152,3.457-1.719,7.525-1.528,10.576-4.107a.389.389,0,0,1,.305-.1l.305-.287a10.055,10.055,0,0,1-4.169-4.2.389.389,0,0,1-.305-.1C47.7,19.865,42.408,19.865,36.815,19.1a50.59,50.59,0,0,0-8.44-.86,22.735,22.735,0,0,1-5.695-.1C17.9,17.1,14.748,13.657,11.392,10.6,9.46,8.882,7.02,6.972,5.494,4.871c-.712-.955-.407-1.719-1.322-2.865-.2-.191-.305-.382-.508-.573q-.153,0-.305-.287C2.952.764,2.444.382,2.037,0A21.342,21.342,0,0,0,0,8.309c-.1,3.534,2.441,6.208,3.254,9.551a13.772,13.772,0,0,0,4.881,7.354h.1l.2.191a70.109,70.109,0,0,0,7.932,5.253c.814.478,1.729,1.051,2.542,1.624C20.341,33.045,21.46,34.1,22.985,34.477Z" transform="translate(18.708 52.849)"/>
              <path id="Path_312" data-name="Path 312" class="cls-3" d="M25.728,2.378A46.011,46.011,0,0,1,20.541.85c-2.949-.86-4.779-1.528-7.627.382A11.372,11.372,0,0,1,11.389,2a8.315,8.315,0,0,1-1.424.478l-1.83.573C5.288,4,2.847,5.148,0,5.626c2.339.955,4.373,2.388,6.712,3.438.1.1.2.1.407.191.407.191.915.382,1.322.573l2.441.86a1.834,1.834,0,0,1,.712.1.875.875,0,0,1,.508.287c.1,0,.1.1.2.1a.389.389,0,0,1,.305.1h0a24.974,24.974,0,0,0,3.864.669,8.187,8.187,0,0,0,1.525.1,23.261,23.261,0,0,0,4.373-.382c2.339-.478,4.576-1.146,6.813-1.528a6.309,6.309,0,0,1,1.322-.191,27.416,27.416,0,0,0,6.2-1.242,10.463,10.463,0,0,0,4.779-4.2,8.137,8.137,0,0,1,1.424-1.815,2.105,2.105,0,0,1-.712-.1c-3.864.669-7.423-.478-11.186-.382h-.61A19.211,19.211,0,0,1,25.728,2.378Z" transform="translate(14.542 97.65)"/>
              <path id="Path_313" data-name="Path 313" class="cls-3" d="M2.671,12.8c1.525-.669,3.966,1.91,4.881,2.674,2.237,1.624,4.576,2.579,6.712,4.2-.1-.382-.1-.764-.2-1.146-.1-.1-.2-.1-.305-.191-2.441-4.2-7.118-6.972-7.932-11.461C3.586,5.062,3.79,2.388,3.078,0A17.971,17.971,0,0,1,1.146,2.865C-.685,5.348.129,7.64.536,10.41h0A10.386,10.386,0,0,1,2.671,12.8Z" transform="translate(40.751 33.748)"/>
              <path id="Path_314" data-name="Path 314" class="cls-3" d="M17.853,16.3a20.072,20.072,0,0,1-1.525-3.343c-.61-1.337-1.83-2.2-2.542-3.438a14.22,14.22,0,0,1-.814-1.815C10.328,4.937,6.769,3.7,3.82,1.5,3.311,1.116,2.9.734,2.4.352.667-.985.566,1.88.566,2.358c-.1,1.624-1.22,2.865,0,4.489a.547.547,0,0,1,.1.382,29.569,29.569,0,0,1,3.152,4.68c1.932,3.343,1.83,6.685,2.237,10.315H8.091c2.644.1,5.39.955,8.135,1.242,4.271.478,8.034.86,11.593,2.865-1.119-2.1-2.237-4.2-4.474-5.635C21.514,19.167,19.378,18.212,17.853,16.3Z" transform="translate(42.449 47.817)"/>
              <path id="Path_315" data-name="Path 315" class="cls-3" d="M2.746,9.169a19.566,19.566,0,0,1,3.661,2.674l.407.382a2.727,2.727,0,0,1,.508-1.433c.814-1.146.2-2.674.915-3.725C6.3,4.2,3.763,2.77,1.017.86A9,9,0,0,1,0,0,14.065,14.065,0,0,0,.508,2.2C1.017,4.2,1.525,6.876,2.644,8.5A.574.574,0,0,1,2.746,9.169Z" transform="translate(34.168 40.242)"/>
              <path id="Path_316" data-name="Path 316" class="cls-3" d="M17.287,35.294c6.915-2.292,12-5.444,15.66-11.556h0c.2-.382.508-.86.712-1.242v-.191h0c0-.1,0-.1.1-.1v-.1a4.1,4.1,0,0,1,.407-.669c.305-.573.508-1.146.814-1.719l.61-1.433c1.119-2.865,2.034-5.73,3.152-8.6.814-2.292,1.627-5.253-.2-7.258A13.689,13.689,0,0,0,36.3.53c-.915-.764-2.441-.478-3.661-.478-.1.1-.1.287-.2.382a26.794,26.794,0,0,1-4.576,6.4c-1.932,2.006-4.169,3.725-6.3,5.539s-4.779,1.815-7.22,2.961c-1.525,1.624-1.932,3.629-2.542,5.635A11.865,11.865,0,0,1,8.44,25.935a12.957,12.957,0,0,1-3.254,2.292c0,.1-.1.1-.1.191-1.322,1.528-2.237,3.247-3.559,4.775A9.9,9.9,0,0,1,0,34.53v.1C.915,37.2,4.881,38.35,7.423,38.255,10.677,37.873,14.237,36.249,17.287,35.294Z" transform="translate(80.945 75.049)"/>
              <path id="Path_317" data-name="Path 317" class="cls-3" d="M1.185,20.343c-.1.382-.2.669-.305,1.051A30.768,30.768,0,0,0,.168,24.64a13.208,13.208,0,0,0-.1,3.438,3.248,3.248,0,0,0,.2,1.051C1.185,33.14,4.338,36.2,7.49,39.444c.305.382.712.764,1.017,1.146V39.348a19.821,19.821,0,0,1,.61-3.534c.1-.287.2-.669.305-.955a16.381,16.381,0,0,1,1.729-3.534,5.808,5.808,0,0,1,.712-.955,2.631,2.631,0,0,1,.712-.764l.61-.573a8.6,8.6,0,0,1,1.424-1.242,51.787,51.787,0,0,1,7.525-4.775c.1-.1.305-.191.407-.287a5.743,5.743,0,0,0,.814-.478l1.22-.573c.61-.287,1.119-.478,1.729-.764,2.135-.86,4.373-1.624,6.508-2.483l.508-.478a.658.658,0,0,1,.712-.1,25.758,25.758,0,0,0,3.559-2.006c.407-.287.712-.573,1.119-.86A22.891,22.891,0,0,0,45.624,4.011a9.659,9.659,0,0,1-4.373,0C39.116,3.438,36.472,2.1,35.557,0a9.409,9.409,0,0,1-1.322.764C32.1,2.006,29.862,2.77,27.828,4.3a25.923,25.923,0,0,1-4.474,2.674A36.142,36.142,0,0,1,12.371,9.646a23.447,23.447,0,0,1-3.661-.1c-.1,0-.305.1-.407,0-1.119-.287-2.746,2.292-3.763,3.916l-.305.573c-.2.287-.305.573-.407.669a3.81,3.81,0,0,0-.508.86A19.721,19.721,0,0,0,1.185,20.343Z" transform="translate(44.27 110.152)"/>
              <path id="Path_318" data-name="Path 318" class="cls-3" d="M6.094,2.006A48.552,48.552,0,0,1,.7,1.146a3.567,3.567,0,0,0,2.644,5.73H4.67A10.877,10.877,0,0,0,6.4,6.59a34.666,34.666,0,0,0,3.763-1.051c.407-.1.712-.287,1.119-.382a53.086,53.086,0,0,0,5.39-2.292c.814-.382,1.627-.764,2.339-1.146C20.127,1.146,21.144.573,22.262,0a34.109,34.109,0,0,1-8.745,2.006,40.588,40.588,0,0,1-5.9.191A8.329,8.329,0,0,0,6.094,2.006Z" transform="translate(23.295 123.427)"/>
              <path id="Path_319" data-name="Path 319" class="cls-3" d="M16.881.04H15.457A50.249,50.249,0,0,0,7.932.8,24.708,24.708,0,0,1,0,1.09,33.324,33.324,0,0,0,14.44,5.483c.508,0,1.017.1,1.525.1a37.136,37.136,0,0,0,6.508-.287A34.863,34.863,0,0,0,34.066,1.568a.389.389,0,0,1,.305-.1c.305-.287.508-.669.814-.955A10.849,10.849,0,0,0,30,1.186a.554.554,0,0,1-.814-.478A17.681,17.681,0,0,1,25.321.326,3.818,3.818,0,0,0,24.3.135C21.762.04,19.321-.056,16.881.04Z" transform="translate(15.355 118.803)"/>
              <path id="Path_320" data-name="Path 320" class="cls-3" d="M9.559,42.169c1.119.1,2.135.287,3.254.382a30.4,30.4,0,0,0,4.169.1h.2a21.22,21.22,0,0,1,3.457.1,7.954,7.954,0,0,1,2.542.86,9.014,9.014,0,0,0,1.729.478c.2,0,.407.1.61.1A37.322,37.322,0,0,0,30.2,42.838c2.847-.955,4.271-2.865,5.39-5.444A14.825,14.825,0,0,1,38.134,33c1.627-1.815,2.034-3.438,2.644-5.635q.763-2.722,1.525-6.017c.1-.382.2-.86.305-1.337a14.028,14.028,0,0,1,.407-2.006,11.015,11.015,0,0,0,.2-1.815A19.736,19.736,0,0,0,42.4,7.31a11.445,11.445,0,0,0-4.678-5.635c-.1,0-.1-.1-.2-.1C34.575-.235,31.219-.235,27.965.338c-2.136.382-4.271.955-6.3,1.528a19.644,19.644,0,0,1-5.8.669,29.184,29.184,0,0,0-7.627.86H7.932c-.61,2.1-1.22,4.2-1.729,6.4a14.1,14.1,0,0,1-3.254,6.59v.191a3.006,3.006,0,0,1-1.017,1.815A11.133,11.133,0,0,0,0,21.254c2.034.1,3.051,0,4.881,1.528,1.83,1.624,2.847,2.961,2.847,5.348,0,2.579-1.322,5.157-2.237,7.545l-1.83,4.871a13.4,13.4,0,0,1-.712,1.815C4.678,41.6,7.627,41.978,9.559,42.169Z" transform="translate(114.401 52.702)"/>
              <path id="Path_321" data-name="Path 321" class="cls-3" d="M0,2.448c1.83,0,3.763,0,5.593.1a.654.654,0,0,1,.61.669,7.157,7.157,0,0,1-2.237,3.82A9.372,9.372,0,0,0,1.83,9.42a2.768,2.768,0,0,0-.305,1.624,15.887,15.887,0,0,1,.1,2.2.487.487,0,0,1-.2.382c.61,1.91.508,4.2,1.729,5.921a7.877,7.877,0,0,1,.2-1.528c.61-2.483,1.119-5.444,2.441-7.64C6.813,8.656,8.847,9.325,10.576,9.8c-.508-1.91-.305-4.011-.814-6.017a.675.675,0,0,1,.2-.573c1.22-.955,3.051-.955,4.881-1.051C13.525,1.589,12.3.92,11.084.538A9.343,9.343,0,0,0,7.017.061C5.695.156.2.634,0,2.448Z" transform="translate(43.422 19.17)"/>
              <path id="Path_322" data-name="Path 322" class="cls-3" d="M14.51,5C12.171,2.323,10.544.795,6.781.222,4.951-.065,3.121-.447,3.222,1.75c.1,1.433.2,2.961.2,4.393v.764a16.967,16.967,0,0,1-.915,3.916.984.984,0,0,1-.2.573,25.555,25.555,0,0,0-.915,2.961c-.508,2.1-.915,4.3-1.322,6.494a23.982,23.982,0,0,0,.1,3.82c2.339-1.051,6.3-1.146,8.034,0A5.264,5.264,0,0,1,9.629,26.2c1.322,1.433,1.424.86,1.119-.287-.1,0-.2-.1-.305-.191a4.009,4.009,0,0,1-.915-4.966c.508-1.242,1.119-2.388,1.525-3.629a9.981,9.981,0,0,1,2.034-4.3c1.525-1.624,4.169-2.2,2.441-4.966,0-.1-.1-.1-.1-.191A5.616,5.616,0,0,1,14.51,5Z" transform="translate(61.249 6.689)"/>
              <path id="Path_323" data-name="Path 323" class="cls-3" d="M4.881.287A7.3,7.3,0,0,1,4.068,0a10.309,10.309,0,0,1,.1,1.815c-.2,1.528,1.017,2.77,1.322,4.3.305,1.242-.305,2.77-.407,4.011a3.688,3.688,0,0,0,.1,1.051c.305,1.337,1.424,2.483,1.83,3.82a2.552,2.552,0,0,1-.712,2.2c-1.525,1.528-3.457,2.2-4.169,4.393C1.627,23.4.2,25.6,0,27.7a7.618,7.618,0,0,1,1.017-1.719c2.237-3.056,5.491-3.247,8.644-1.528a30.987,30.987,0,0,0,5.695,2.77c1.627.478,2.542,2.292,3.152,3.82a1.748,1.748,0,0,0,.407-1.433c-.1-.86-.407-2.1.814-2.388,1.83-.478,3.966.382,5.8.669s2.847.478,4.169,1.815a18.781,18.781,0,0,1,3.356,4.775c.508-.669.305-2.388.407-2.865a24.186,24.186,0,0,0-.305-3.82h0a5.951,5.951,0,0,0-2.237-1.051.554.554,0,0,1-.305-.86v-.191c.407-.86.61-1.91,1.729-1.91-.814-6.208-5.593-12.7-10.474-16.809l-.2-.191C18.609,4.2,14.745,3.152,10.881,2.2a24.952,24.952,0,0,1-2.542-.669c-.2-.1-.407-.1-.61-.191A12.336,12.336,0,0,0,4.881.287Z" transform="translate(71.793 0.989)"/>
              <path id="Path_324" data-name="Path 324" class="cls-3" d="M3.976,5.956c2.339-.764,4.881-.191,7.118.287a9.156,9.156,0,0,1,5.084,3.629,7.167,7.167,0,0,0-.61-4.775c-.1-.191-.2-.478-.305-.669h0C14.247,3,13.84,1.849,11.908,1.18,10.688.8,9.467.607,8.247.225,6.01-.443,4.078.607,1.841.416-1.312.13.519,7.1.62,8.63c0,1.146-.1,2.2-.2,3.247A2.894,2.894,0,0,0,.62,13.5a8.062,8.062,0,0,0,2.746,3.056,9.587,9.587,0,0,0,.508-1.815c.1-.382.1-.86.2-1.242.2-2.292-.305-4.775-.407-6.972C3.671,6.338,3.671,6.051,3.976,5.956Z" transform="translate(59.478 0)"/>
              <path id="Path_325" data-name="Path 325" class="cls-3" d="M3.457,7.927A19.232,19.232,0,0,1,5.695,8.5c0-1.146-.2-2.2-.1-3.343A18.554,18.554,0,0,1,6.61,0,16.226,16.226,0,0,1,2.847.573C2.135.669.508.573,0,1.051.305.86.407,3.056.508,3.247A13.722,13.722,0,0,0,.814,6.112C1.017,7.736,2.135,7.64,3.457,7.927Z" transform="translate(54.404 22.192)"/>
              <path id="Path_326" data-name="Path 326" class="cls-3" d="M24,23.829a21.218,21.218,0,0,0,1.424-5.539c.1-.669.1-1.433.2-2.1a22.877,22.877,0,0,0-.2-3.725h0c-.508-2.388-.61-4.871-1.322-7.258a9.193,9.193,0,0,0-1.932-3.82c-2.237-2.77-6.915-1.051-6.915,2.2,0,.764-.407,1.91-1.322,2.1h-.1c-1.932.191-2.746-.764-4.169-1.91-1.22-.955-3.254-.287-4.474,0A7.658,7.658,0,0,0,0,6.925c3.763,4.2,7.017,9.264,7.627,14.517a9.737,9.737,0,0,1,3.457,2.1c1.83,1.528,3.356,3.343,5.288,4.68,1.322.86,2.441,1.624,3.559,2.388.2-.191.407-.478.61-.669a37.791,37.791,0,0,0,2.746-4.2A8.809,8.809,0,0,1,24,23.829Z" transform="translate(98.029 3.329)"/>
              <path id="Path_327" data-name="Path 327" class="cls-3" d="M6.3,7.648c1.424,3.247,2.644,7.545,2.339,11.079-.2,2.77-.407,4.871,1.017,7.449a14.336,14.336,0,0,1,1.322,5.444c.305,2.1,1.322,4.107,1.932,6.208a11.44,11.44,0,0,1,0,3.725c2.644-3.343,2.949-8.022,4.068-11.938.712-2.483,1.627-4.584,1.22-7.163-.305-2.2-.508-4.393-.915-6.59A11.462,11.462,0,0,0,13.118,8.6c-1.729-1.337-3.864-2.1-5.39-3.629C6.406,3.636,1.627-1.9,0,.676,3.152,1.822,5.084,4.687,6.3,7.648Z" transform="translate(103.825 26.1)"/>
              <path id="Path_328" data-name="Path 328" class="cls-3" d="M5.8,0A26.282,26.282,0,0,1,3.661,7.927c-.305.573-.508,1.051-.814,1.624A26.125,26.125,0,0,1,.2,13.371c-.1.1-.2.191-.2.287a10.671,10.671,0,0,1,2.237,2.77A18.44,18.44,0,0,1,3.254,18.91c.2-.478.305-1.051.508-1.528l1.22-3.725a12.1,12.1,0,0,0,.508-1.815A26.641,26.641,0,0,0,6.61,3.725C6.3,2.483,6.1,1.242,5.8,0Z" transform="translate(118.977 21.046)"/>
              <path id="Path_329" data-name="Path 329" class="cls-3" d="M20.948,26.932c7.728-6.781,12.813-16.9,12.2-26.932-.1.1-.2.287-.305.382a.663.663,0,0,1-.814.191c-1.525-.86-2.339-.478-3.763.1A8.869,8.869,0,0,1,24.711.86C20.846.573,17.9,4.393,15.457,6.781c-3.254,3.247-5.695,7.067-8.44,10.7a50.357,50.357,0,0,1-5.695,6.494.389.389,0,0,1-.305.1,7.886,7.886,0,0,1-.2,3.438C.508,28.461.305,29.32,0,30.275c5.186-1.051,10.271-.669,15.355-2.006.915-.191,1.83-.478,2.746-.669a27.53,27.53,0,0,1,2.746-.478A.328.328,0,0,1,20.948,26.932Z" transform="translate(122.435 24.675)"/>
              <path id="Path_330" data-name="Path 330" class="cls-3" d="M9.509,14.88a.65.65,0,0,1-.915.764c-1.017-.669-3.966-3.725-4.474-1.528a33.555,33.555,0,0,1-1.627,5.157,19.209,19.209,0,0,0-.915,6.781c0,2.006-1.017,3.725-1.424,5.73-1.017,4.775,3.254,7.163,6.3,9.933C7.881,43.054,8.39,44.3,7.78,45.824c2.034-.478,3.661-1.146,2.847-2.77-.508-1.051-.1-2.483-.2-3.534-.1-1.719-.712-3.343-.61-5.157.1-2.1,1.729-3.916,3.457-5.253,3.763-2.865,9.864-3.534,13.83-.573a.487.487,0,0,1,.2.382,1.191,1.191,0,0,1,.814,0s2.746.86,2.339.191c-.814-1.433-1.729-2.77-2.644-4.2a20.831,20.831,0,0,0-7.423-6.59c-.407-.191-.305-.669,0-.955a4.761,4.761,0,0,1,2.034-1.242c1.83-.669,1.627-2.1,1.729-3.534a1.566,1.566,0,0,1,1.22-1.528C26.9,8.195,22.627,1.318,19.678.841,18.559.65,17.542.65,16.423.363c-1.83-.382-3.457-.955-3.254,1.242a2.977,2.977,0,0,1-.814,2.006c-.915,1.337.305,2.292-.2,3.629-.407,1.051-2.034.86-2.542,1.815A14,14,0,0,0,9.509,14.88Z" transform="translate(79.063 30.042)"/>
            </g>
          </g>
        </g>
      </g>
      <path id="Path_331" data-name="Path 331" class="cls-6" d="M0,0S8.644,12.989,12.1,21.011s6.915,22.635,6.915,22.635" transform="translate(109.927 106.523)"/>
      <path id="Path_332" data-name="Path 332" class="cls-3" d="M0,0S8.644,12.989,12.1,21.011a100.238,100.238,0,0,1,5.186,16.236" transform="translate(106.571 108.146)"/>
    </g>
  </g>
</svg>
