<svg xmlns="http://www.w3.org/2000/svg" xmlns:xlink="http://www.w3.org/1999/xlink" viewBox="9145.638 1482 357.85 186.531">
  <defs>
    <style>
      .cls-1, .cls-4, .cls-6 {
        fill: none;
      }

      .cls-1 {
        opacity: 0.75;
      }

      .cls-2 {
        clip-path: url(#clip-path);
      }

      .cls-3 {
        opacity: 0.38;
      }

      .cls-4 {
        stroke: #e2dcdc;
      }

      .cls-4, .cls-6 {
        stroke-miterlimit: 10;
      }

      .cls-5 {
        opacity: 0.34;
      }

      .cls-6 {
        stroke: #fff;
      }
    </style>
    <clipPath id="clip-path">
      <path id="mask1" class="cls-1" d="M0,0H357.849V186.531H0Z"/>
    </clipPath>
  </defs>
  <g id="Mask_Group_99" data-name="Mask Group 99" class="cls-2" transform="translate(9145.638 1482)">
    <g id="Group_176" data-name="Group 176" class="cls-3" transform="translate(266.466 79.33) rotate(7)">
      <g id="Group_173" data-name="Group 173" transform="translate(16.742 17.25)">
        <g id="Group_172" data-name="Group 172">
          <path id="Path_136" data-name="Path 136" class="cls-4" d="M18.559,2.993h0c-1.95,1.069-4.152,1.51-6.165,2.328a16.251,16.251,0,0,0-7.361,5.788.337.337,0,0,1-.252.189A6.229,6.229,0,0,1,3.46,13.688c-.566.629-1.069,1.2-1.573,1.761-.377.44-.755.944-1.132,1.384L0,17.966a6.636,6.636,0,0,1,1.2-.315,7.809,7.809,0,0,1,1.7-.189h.377a11.967,11.967,0,0,1,1.95-5.6C6.794,9.725,10,8.844,12.393,8.278c1.824-.5,3.649-.755,5.473-1.2a11.74,11.74,0,0,0,1.384-.44c.063-.063.189-.063.252-.126.063,0,.063,0,.126-.063A34.586,34.586,0,0,1,25.164,4.88c3.146-.566,5.662.629,6.48,3.775.377,1.447.818,4.278,0,5.977a13.811,13.811,0,0,1,2.831-.126c2.768.063,5.284-.818,8.053-1.007,2.2-.126,3.838,1.384,5.725,2.076.063,0,.189-.063.252,0,4.467.566-.5-5.725-1.069-6.417-1.7-2.2-4.467-4.53-7.3-4.718-3.523-.252-5.977-1.573-9.122-3.208A8.966,8.966,0,0,0,24.85.162a15.521,15.521,0,0,0-4.781,1.824C19.565,2.364,19.062,2.679,18.559,2.993Z" transform="translate(21.292 16.006)"/>
          <path id="Path_137" data-name="Path 137" class="cls-4" d="M5.788,3.311a3.372,3.372,0,0,0-.692.315A5.532,5.532,0,0,0,4.467,4a15.05,15.05,0,0,0-1.321.818c-.44,1.132-.377,2.454-.818,3.586A11.349,11.349,0,0,1,0,11.552a14.63,14.63,0,0,1,1.761-.315c1.2-.189,2.454-.252,3.712-.44.5-.063.944-.126,1.447-.189a14,14,0,0,0,6.669-2.391,8.829,8.829,0,0,1,1.132-.755,15.05,15.05,0,0,1,4.97-1.95,4.132,4.132,0,0,1,2.139.126c1.95,1.007,4.278.377,6.417.063a13.182,13.182,0,0,0-3.523-3.46.662.662,0,0,1,.252-1.2,15.68,15.68,0,0,0-4.4-1.007,8.658,8.658,0,0,0-3.334.377c-1.321.377-2.579.944-3.9,1.321C10.632,2.367,8.241,2.241,5.788,3.311Z" transform="translate(34.754 2.729)"/>
          <path id="Path_138" data-name="Path 138" class="cls-4" d="M12.9.881c-2.2.377-4.53-.063-6.731.189C3.586,1.321,1.573,3.335,0,5.411A24.236,24.236,0,0,1,4.089,4.4c.5-.063,1.132.5.692,1.007C3.208,7.361,2.957,9.877,1.7,11.89a1.938,1.938,0,0,0,.755-.315.567.567,0,0,1,.315-.063c1.51-1.2,3.083-2.265,4.592-3.46a18.786,18.786,0,0,1,7.423-3.271c2.831-.692,5.41-2.076,8.115-2.957C22.082,1.447,21.327.944,20.383.5,17.992-.629,15.35.441,12.9.881Z" transform="translate(45.764 31.015)"/>
          <path id="Path_139" data-name="Path 139" class="cls-4" d="M14.784,4.718a6.968,6.968,0,0,1-1.2.126c-.44.063-.944.063-1.447.126C9.311,5.222,5.851,5.536,4.53,7.3a.346.346,0,0,1-.315.189c-.5.755-.944,1.51-1.384,2.328A26.3,26.3,0,0,1,0,13.4a14.837,14.837,0,0,1,2.894-2.076C5.788,9.688,9,9.059,11.953,7.549c.315-.189.692-.377,1.007-.566.189-.126.377-.189.566-.315a11.332,11.332,0,0,1,5.662-1.636,16.021,16.021,0,0,1,7.675,2.328,13.959,13.959,0,0,0,5.788,2.076,9.48,9.48,0,0,1,3.712.692c2.831,1.2,5.033,3.963,6.794,6.354,1.069,1.447,2.328,2.391,1.887,4.278a4.3,4.3,0,0,1-1.069,1.761,12.533,12.533,0,0,1,2.642.252c-.252-1.51.818-3.208,0-4.655a.476.476,0,0,1-.063-.252c-.818-1.069-1.573-2.2-2.391-3.146-2.454-2.894-3.838-6.039-5.536-9.311C37.683,3.586,36.8,1.7,35.733,0,33.972.252,30.7,1.258,29.191.5,26.8-.629,24.221.818,21.956,1.761a6.165,6.165,0,0,0-1.384.818,15.965,15.965,0,0,1-2.139,1.447A14.932,14.932,0,0,1,14.784,4.718Z" transform="translate(27.96 9.688)"/>
          <path id="Path_140" data-name="Path 140" class="cls-4" d="M25.019,51.942c-1.7-1.7-3.146-3.712-4.592-5.41-3.712-4.215-8.556-9.122-5.41-14.91,1.2-2.2,2.516-6.354,4.97-7.549a11.116,11.116,0,0,1,3.586-.881c2.013-.315,3.712-1.887,5.662-2.391,2.139-.566,4.215-.566,6.165-1.636A11.31,11.31,0,0,1,39.74,18.1c-.189-.881-.377-1.761-.5-2.642a15.491,15.491,0,0,0-3.208-4.844c-1.384-1.447-3.271-2.076-4.718-3.46-2.076-1.95-3.46-2.2-5.977-3.02a9.854,9.854,0,0,1-2.768-1.761c-.126-.126-.315-.252-.44-.377a10.012,10.012,0,0,0-1.384-.818c-.126-.063-.315-.126-.44-.189a25.857,25.857,0,0,0-5.41-.5c-2.2-.189-3.838-.944-6.039-.063C5.139,1.865,2.748,5.954,1.8,9.477.672,13.755-.649,17.215.358,21.43c.126.44.252.881.44,1.384,0,.063,0,.063.063.126.629,1.7,1.069,3.523,1.573,5.284A18.177,18.177,0,0,0,5.265,34.7c2.957,3.9,5.977,7.8,9.122,11.576a18.423,18.423,0,0,0,9.688,5.977h.063A2.48,2.48,0,0,1,25.019,51.942Z" transform="translate(2.123 36.762)"/>
          <path id="Path_141" data-name="Path 141" class="cls-4" d="M2.957.629C1.887.755,1.132-.063,0,.566H0A4.817,4.817,0,0,1,2.013,3.02,2.939,2.939,0,0,1,2.2,4.089c0,.944-.126,2.013.566,2.454a1.316,1.316,0,0,1,.252.377A11.508,11.508,0,0,1,6.669,8.43c.755.566,1.258,1.258,1.95,1.887.063,0,.126-.063.252,0a9.771,9.771,0,0,1,2.265.5c1.573.44,3.146-1.069,4.592-1.447a11.616,11.616,0,0,1,3.9.126C21.2,7.864,21.515,5.473,22.522,3.46c-1.447.377-2.894.881-4.4,1.2a.65.65,0,0,1-.755-.566,24.767,24.767,0,0,1-3.46-2.2A10.117,10.117,0,0,0,9.059.44S7.3.315,7.172,0c-.063,0-.189.063-.252.063H6.606C5.347-.189,4.215.44,2.957.629Z" transform="translate(26.073 33.594)"/>
          <path id="Path_142" data-name="Path 142" class="cls-4" d="M.316,0C.316.189.253.377.253.629.064,1.636-.313,2.768.5,3.523a.062.062,0,0,0,.063.063c.566.189,1.132.315,1.636.5a17.439,17.439,0,0,1,7.738,4.53c-.189-.629-.315-1.2-.44-1.824a14.836,14.836,0,0,1-.252-1.761.6.6,0,0,1-.44-.692c.063-.944-5.6-2.579-6.417-2.957A6.666,6.666,0,0,1,.316,0Z" transform="translate(77.281 28.436)"/>
          <path id="Path_143" data-name="Path 143" class="cls-4" d="M3.775,4.894C1.258,6.09.44,8.04,0,10.368a2.124,2.124,0,0,1,1.258-.126c2.013.44,3.586-.5,5.41-.315a.537.537,0,0,1,.44,0c.189.063.44.189.692.252,1.573.44,3.4.44,4.97.944,2.013.629,3.334,2.328,5.222,3.083A13.231,13.231,0,0,1,23.969,9.3a.585.585,0,0,1,.692-.629c2.894.189.5-7.361-.692-8.115C21.83-.893,17.8.868,15.6,1.623a27.8,27.8,0,0,1-3.02.944A17.068,17.068,0,0,1,10,3.133,18.5,18.5,0,0,0,3.775,4.894Z" transform="translate(26.01 22.283)"/>
          <path id="Path_144" data-name="Path 144" class="cls-4" d="M.859,21.072A23.6,23.6,0,0,0,.1,29.188c.189,2.076.126,4.152.189,6.165,0-.063,0-.063.063-.063a27.562,27.562,0,0,1,6.48-9.374c2.454-2.2,4.655-4.718,7.046-7.046.315-.315.692-.629,1.007-.944.944-.881,1.95-1.761,3.02-2.579,1.321-1.007,3.208-2.894,5.1-2.265,2.2.692,2.516,3.586,2.516,5.536a5.757,5.757,0,0,1-.063,1.007,1.1,1.1,0,0,1,.252-.315,30.415,30.415,0,0,0,3.963-5.788C30.742,11.762,32.5,10.441,33.7,8.8a5.835,5.835,0,0,0,.944-2.831,36.622,36.622,0,0,1-4.4,2.768c-.692.377-1.258-.566-.755-1.132A50.512,50.512,0,0,1,34.831,2.7a4.924,4.924,0,0,1-1.573-.44C30.112.689,27.6-.254,24.01.06c-6.165.5-10.632,3.334-15.1,7.361a28.526,28.526,0,0,0-3.146,3.586,13.818,13.818,0,0,0-.881,1.132,6.265,6.265,0,0,1-.629.692C1.8,15.473,1.614,17.864.859,21.072Z" transform="translate(1.559 2.519)"/>
          <path id="Path_145" data-name="Path 145" class="cls-4" d="M45.4,5.1A14.2,14.2,0,0,0,34.142.008c-2.894-.063-5.851.252-8.807.315C22,.386,19.421,2.147,16.15,2.588c-2.831.377-5.033,2.076-7.8,2.768-2.076.5-3.46.629-4.781,2.579-.944,1.384-1.51,2.957-2.328,4.4-2.076,3.523-1.384,5.788.881,9.059A91.822,91.822,0,0,0,8.412,29.01a22.437,22.437,0,0,0,8.556,6.543c3.146,1.384,5.851,3.586,9.059,4.97a12.071,12.071,0,0,0,7.3.566A13.857,13.857,0,0,0,35.4,36.874c.5-2.013,5.159-.063,6.606.755A7.024,7.024,0,0,1,43.013,37a5.841,5.841,0,0,1,.629-.315,14.656,14.656,0,0,0-6.165-2.076,5.718,5.718,0,0,1,2.642-2.894,1.015,1.015,0,0,0,.566-.189,5.525,5.525,0,0,1,3.271.252c1.007.315,1.95.566,2.957.818a9.866,9.866,0,0,0,2.705.252c.44-.44.818-.944,1.258-1.321a3.151,3.151,0,0,0,.5-.44h0a9.849,9.849,0,0,1-3.334-.252c1.007-1.447,6.48-2.705,7.423-4.467.881-1.636,1.824-2.894,3.208-3.334-.755-4.089-4.4-7.927-6.857-10.946C49.744,9.7,47.416,7.495,45.4,5.1Zm9.248,19.062c-1.573,3.523-4.655,3.271-7.423,5.1a2,2,0,0,0-.944,1.258,22.426,22.426,0,0,0-5.725-1.069c.566-2.013,5.033-4.089,6.291-4.655,2.768-1.321,5.788-2.454,8.87-2.265A6.693,6.693,0,0,0,54.651,24.166Z" transform="translate(17.535 56.234)"/>
          <path id="Path_146" data-name="Path 146" class="cls-4" d="M11.2,1.384C7.423.881,3.775.252,0,0A23.754,23.754,0,0,1,4.467,6.48C6.857,11.072,9,15.665,12.393,19.628c1.384,1.573,2.642,3.963,4.467,5.033a24.6,24.6,0,0,0,4.215,1.7,10.083,10.083,0,0,1,2.516,1.2c.063-1.321.252-2.705.377-4.026.315-2.957-.377-5.725-.566-8.682a17.674,17.674,0,0,1,.5-4.781c-1.321-2.2-2.2-4.215-4.341-5.914C17.175,2.265,14.155,1.761,11.2,1.384Z" transform="translate(62.875 3.712)"/>
          <path id="Path_147" data-name="Path 147" class="cls-4" d="M40.764,30.064a23.63,23.63,0,0,1,3.712-8.556c1.132-1.447,2.265-2.831,3.46-4.278-.252-.315-.44-.692-.692-1.007-.818,1.007-1.636,2.076-2.454,3.02A22.268,22.268,0,0,0,40.2,27.925v.063c-.252-1.762-.377-3.523-.755-5.285a20.41,20.41,0,0,1-.189-7.046c.315-2.894.252-4.907,2.013-7.361.566-.818,1.069-1.7,1.636-2.516C40.889,3.2,37.681,1.817,34.41.811A12.769,12.769,0,0,0,27.552.245c-2.705.566-5.222,2.2-7.927,2.957a32.054,32.054,0,0,0-6.291,2.076C10.692,6.662,8.05,9.052,5.722,11c-1.51,1.258-2.328,2.642-4.152,3.4-1.51.566-1.7,2.391-1.51,4.215.063.126.126.189.126.315a.873.873,0,0,1,0,.566c.126.755.315,1.51.44,2.076a89.785,89.785,0,0,1,10.884-.189,13.691,13.691,0,0,1,8.43,3.775,75.544,75.544,0,0,1,8.745,9.688c2.454,3.083,5.6,6.669,6.354,10.695a3.8,3.8,0,0,1,1.384.252c.252.063.5.126.692.189l3.963-3.775a11.237,11.237,0,0,1-1.069-4.152A23.026,23.026,0,0,1,40.764,30.064Z" transform="translate(42.432 33.538)"/>
          <path id="Path_148" data-name="Path 148" class="cls-4" d="M10,.315A38.312,38.312,0,0,0,2.579,4.278l-1.321.944C.818,5.536.44,5.851,0,6.165H.063c.44-.252.818-.5,1.258-.755l1.321-.755a.062.062,0,0,0,.063-.063C5.788,3.083,9.5,3.4,12.771,2.265a12.484,12.484,0,0,1,1.95-.5c3.334-.629,7.864-.5,9.751,2.076A89.035,89.035,0,0,1,35.293,5.1c-2.2-1.447-4.278-3.02-6.606-4.341L27.177,0a12.164,12.164,0,0,1-3.208.566C19.88,1.007,14.344,1.7,10,.315Z" transform="translate(37.46 0)"/>
          <path id="Path_149" data-name="Path 149" class="cls-4" d="M5.036,20.006a3.728,3.728,0,0,1,.692-1.7,5.633,5.633,0,0,0,.5-2.516c.189-2.768,3.334-4.467,5.41-5.914a.062.062,0,0,0,.063-.063c-.44-.692-.818-1.384-1.2-2.076C8.622,4.341,4.155,2.076.758,0L.569,1.51a.567.567,0,0,1-.063.315A29.262,29.262,0,0,0,0,6.543C-.06,9.437.821,12.2.569,15.224a29.145,29.145,0,0,0,.189,9.059,1.373,1.373,0,0,1,.252-.315A34.19,34.19,0,0,1,5.036,20.006Z" transform="translate(87.722 11.953)"/>
          <path id="Path_150" data-name="Path 150" class="cls-4" d="M22.487,13.652a10.275,10.275,0,0,0,2.265-2.894,24.376,24.376,0,0,0,.818-3.838,9.3,9.3,0,0,0-.126-5.851c-1.007-2.391-3.46-.126-4.341.566a45.244,45.244,0,0,0-3.712,3.208c-.377.315-.692.692-1.069,1.007A24.116,24.116,0,0,0,14.56,7.675C12.358,10,9.968,12.142,7.7,14.407a26.235,26.235,0,0,0-5.536,9.5A33.947,33.947,0,0,0,.028,33.217a13.706,13.706,0,0,0,.692,5.1C.908,35.293,1.978,32.4,2.8,29.191a14.781,14.781,0,0,1,6.165-8.367c2.831-1.7,5.662-1.384,8.619-.944,2.076-1.132,2.328-3.271,3.712-4.97.063-.063.126-.189.252-.252C21.858,14.281,22.172,13.966,22.487,13.652Z" transform="translate(0 16.734)"/>
        </g>
      </g>
      <g id="Group_175" data-name="Group 175" class="cls-5" transform="matrix(-0.891, -0.454, 0.454, -0.891, 88.59, 132.128)">
        <g id="Group_174" data-name="Group 174">
          <path id="Path_151" data-name="Path 151" class="cls-6" d="M18.559,2.993h0c-1.95,1.069-4.152,1.51-6.165,2.328a16.251,16.251,0,0,0-7.361,5.788.337.337,0,0,1-.252.189A6.229,6.229,0,0,1,3.46,13.688c-.566.629-1.069,1.2-1.573,1.761-.377.44-.755.944-1.132,1.384L0,17.966a6.636,6.636,0,0,1,1.2-.315,7.809,7.809,0,0,1,1.7-.189h.377a11.967,11.967,0,0,1,1.95-5.6C6.794,9.725,10,8.844,12.393,8.278c1.824-.5,3.649-.755,5.473-1.2a11.74,11.74,0,0,0,1.384-.44c.063-.063.189-.063.252-.126.063,0,.063,0,.126-.063a34.586,34.586,0,0,1,5.536-1.573c3.146-.566,5.662.629,6.48,3.775.377,1.447.818,4.278,0,5.977a13.811,13.811,0,0,1,2.831-.126c2.768.063,5.284-.818,8.053-1.007,2.2-.126,3.838,1.384,5.725,2.076.063,0,.189-.063.252,0,4.467.566-.5-5.725-1.069-6.417-1.7-2.2-4.467-4.53-7.3-4.718-3.523-.252-5.977-1.573-9.122-3.208A8.966,8.966,0,0,0,24.85.162a15.521,15.521,0,0,0-4.781,1.824C19.565,2.364,19.062,2.679,18.559,2.993Z" transform="translate(21.292 16.006)"/>
          <path id="Path_152" data-name="Path 152" class="cls-6" d="M5.788,3.311a3.372,3.372,0,0,0-.692.315A5.532,5.532,0,0,0,4.467,4a15.05,15.05,0,0,0-1.321.818c-.44,1.132-.377,2.454-.818,3.586A11.35,11.35,0,0,1,0,11.552a14.629,14.629,0,0,1,1.761-.315c1.2-.189,2.454-.252,3.712-.44.5-.063.944-.126,1.447-.189a14,14,0,0,0,6.669-2.391,8.829,8.829,0,0,1,1.132-.755,15.05,15.05,0,0,1,4.97-1.95,4.132,4.132,0,0,1,2.139.126c1.95,1.007,4.278.377,6.417.063a13.182,13.182,0,0,0-3.523-3.46.662.662,0,0,1,.252-1.2,15.68,15.68,0,0,0-4.4-1.007,8.658,8.658,0,0,0-3.334.377c-1.321.377-2.579.944-3.9,1.321C10.632,2.367,8.241,2.241,5.788,3.311Z" transform="translate(34.754 2.729)"/>
          <path id="Path_153" data-name="Path 153" class="cls-6" d="M12.9.881c-2.2.377-4.53-.063-6.731.189C3.586,1.321,1.573,3.335,0,5.411A24.235,24.235,0,0,1,4.089,4.4c.5-.063,1.132.5.692,1.007C3.208,7.361,2.957,9.877,1.7,11.89a1.938,1.938,0,0,0,.755-.315.567.567,0,0,1,.315-.063c1.51-1.2,3.083-2.265,4.592-3.46a18.786,18.786,0,0,1,7.423-3.271c2.831-.692,5.41-2.076,8.115-2.957C22.082,1.447,21.327.944,20.383.5,17.992-.629,15.35.441,12.9.881Z" transform="translate(45.764 31.015)"/>
          <path id="Path_154" data-name="Path 154" class="cls-6" d="M14.784,4.718a6.968,6.968,0,0,1-1.2.126c-.44.063-.944.063-1.447.126C9.311,5.222,5.851,5.536,4.53,7.3a.346.346,0,0,1-.315.189c-.5.755-.944,1.51-1.384,2.328A26.3,26.3,0,0,1,0,13.4a14.837,14.837,0,0,1,2.894-2.076C5.788,9.688,9,9.059,11.953,7.549c.315-.189.692-.377,1.007-.566.189-.126.377-.189.566-.315a11.332,11.332,0,0,1,5.662-1.636,16.021,16.021,0,0,1,7.675,2.328,13.959,13.959,0,0,0,5.788,2.076,9.48,9.48,0,0,1,3.712.692c2.831,1.2,5.033,3.963,6.794,6.354,1.069,1.447,2.328,2.391,1.887,4.278a4.3,4.3,0,0,1-1.069,1.761,12.533,12.533,0,0,1,2.642.252c-.252-1.51.818-3.208,0-4.655a.476.476,0,0,1-.063-.252c-.818-1.069-1.573-2.2-2.391-3.146-2.454-2.894-3.838-6.039-5.536-9.311C37.683,3.586,36.8,1.7,35.733,0,33.972.252,30.7,1.258,29.191.5,26.8-.629,24.221.818,21.956,1.761a6.165,6.165,0,0,0-1.384.818,15.965,15.965,0,0,1-2.139,1.447A14.932,14.932,0,0,1,14.784,4.718Z" transform="translate(27.96 9.688)"/>
          <path id="Path_155" data-name="Path 155" class="cls-6" d="M25.019,51.942c-1.7-1.7-3.146-3.712-4.592-5.41-3.712-4.215-8.556-9.122-5.41-14.91,1.2-2.2,2.516-6.354,4.97-7.549a11.116,11.116,0,0,1,3.586-.881c2.013-.315,3.712-1.887,5.662-2.391,2.139-.566,4.215-.566,6.165-1.636A11.31,11.31,0,0,1,39.74,18.1c-.189-.881-.377-1.761-.5-2.642a15.491,15.491,0,0,0-3.208-4.844c-1.384-1.447-3.271-2.076-4.718-3.46-2.076-1.95-3.46-2.2-5.977-3.02a9.854,9.854,0,0,1-2.768-1.761c-.126-.126-.315-.252-.44-.377a10.013,10.013,0,0,0-1.384-.818c-.126-.063-.315-.126-.44-.189a25.857,25.857,0,0,0-5.41-.5c-2.2-.189-3.838-.944-6.039-.063C5.139,1.865,2.748,5.954,1.8,9.477.672,13.755-.649,17.215.358,21.43c.126.44.252.881.44,1.384,0,.063,0,.063.063.126.629,1.7,1.069,3.523,1.573,5.284A18.177,18.177,0,0,0,5.265,34.7c2.957,3.9,5.977,7.8,9.122,11.576a18.423,18.423,0,0,0,9.688,5.977h.063A2.48,2.48,0,0,1,25.019,51.942Z" transform="translate(2.123 36.762)"/>
          <path id="Path_156" data-name="Path 156" class="cls-6" d="M2.957.629C1.887.755,1.132-.063,0,.566H0A4.817,4.817,0,0,1,2.013,3.02,2.939,2.939,0,0,1,2.2,4.089c0,.944-.126,2.013.566,2.454a1.316,1.316,0,0,1,.252.377A11.508,11.508,0,0,1,6.669,8.43c.755.566,1.258,1.258,1.95,1.887.063,0,.126-.063.252,0a9.771,9.771,0,0,1,2.265.5c1.573.44,3.146-1.069,4.592-1.447a11.616,11.616,0,0,1,3.9.126C21.2,7.864,21.515,5.473,22.522,3.46c-1.447.377-2.894.881-4.4,1.2a.65.65,0,0,1-.755-.566,24.767,24.767,0,0,1-3.46-2.2A10.117,10.117,0,0,0,9.059.44S7.3.315,7.172,0c-.063,0-.189.063-.252.063H6.606C5.347-.189,4.215.44,2.957.629Z" transform="translate(26.073 33.594)"/>
          <path id="Path_157" data-name="Path 157" class="cls-6" d="M.316,0C.316.189.253.377.253.629.064,1.636-.313,2.768.5,3.523a.062.062,0,0,0,.063.063c.566.189,1.132.315,1.636.5a17.439,17.439,0,0,1,7.738,4.53c-.189-.629-.315-1.2-.44-1.824a14.836,14.836,0,0,1-.252-1.761.6.6,0,0,1-.44-.692c.063-.944-5.6-2.579-6.417-2.957A6.666,6.666,0,0,1,.316,0Z" transform="translate(77.281 28.436)"/>
          <path id="Path_158" data-name="Path 158" class="cls-6" d="M3.775,4.894C1.258,6.09.44,8.04,0,10.368a2.124,2.124,0,0,1,1.258-.126c2.013.44,3.586-.5,5.41-.315a.537.537,0,0,1,.44,0c.189.063.44.189.692.252,1.573.44,3.4.44,4.97.944,2.013.629,3.334,2.328,5.222,3.083A13.231,13.231,0,0,1,23.969,9.3a.585.585,0,0,1,.692-.629c2.894.189.5-7.361-.692-8.115C21.83-.893,17.8.868,15.6,1.623a27.8,27.8,0,0,1-3.02.944A17.068,17.068,0,0,1,10,3.133,18.5,18.5,0,0,0,3.775,4.894Z" transform="translate(26.01 22.283)"/>
          <path id="Path_159" data-name="Path 159" class="cls-6" d="M.859,21.072A23.6,23.6,0,0,0,.1,29.188c.189,2.076.126,4.152.189,6.165,0-.063,0-.063.063-.063a27.562,27.562,0,0,1,6.48-9.374c2.454-2.2,4.655-4.718,7.046-7.046.315-.315.692-.629,1.007-.944.944-.881,1.95-1.761,3.02-2.579,1.321-1.007,3.208-2.894,5.1-2.265,2.2.692,2.516,3.586,2.516,5.536a5.757,5.757,0,0,1-.063,1.007,1.1,1.1,0,0,1,.252-.315,30.416,30.416,0,0,0,3.963-5.788C30.742,11.762,32.5,10.441,33.7,8.8a5.835,5.835,0,0,0,.944-2.831,36.622,36.622,0,0,1-4.4,2.768c-.692.377-1.258-.566-.755-1.132A50.511,50.511,0,0,1,34.831,2.7a4.924,4.924,0,0,1-1.573-.44C30.112.689,27.6-.254,24.01.06c-6.165.5-10.632,3.334-15.1,7.361a28.526,28.526,0,0,0-3.146,3.586,13.818,13.818,0,0,0-.881,1.132,6.264,6.264,0,0,1-.629.692C1.8,15.473,1.614,17.864.859,21.072Z" transform="translate(1.559 2.519)"/>
          <path id="Path_160" data-name="Path 160" class="cls-6" d="M45.4,5.1A14.2,14.2,0,0,0,34.142.008c-2.894-.063-5.851.252-8.807.315C22,.386,19.421,2.147,16.15,2.588c-2.831.377-5.033,2.076-7.8,2.768-2.076.5-3.46.629-4.781,2.579-.944,1.384-1.51,2.957-2.328,4.4-2.076,3.523-1.384,5.788.881,9.059A91.821,91.821,0,0,0,8.412,29.01a22.437,22.437,0,0,0,8.556,6.543c3.146,1.384,5.851,3.586,9.059,4.97a12.071,12.071,0,0,0,7.3.566A13.857,13.857,0,0,0,35.4,36.874c.5-2.013,5.159-.063,6.606.755A7.025,7.025,0,0,1,43.013,37a5.841,5.841,0,0,1,.629-.315,14.656,14.656,0,0,0-6.165-2.076,5.718,5.718,0,0,1,2.642-2.894,1.015,1.015,0,0,0,.566-.189,5.525,5.525,0,0,1,3.271.252c1.007.315,1.95.566,2.957.818a9.866,9.866,0,0,0,2.705.252c.44-.44.818-.944,1.258-1.321a3.151,3.151,0,0,0,.5-.44h0a9.849,9.849,0,0,1-3.334-.252c1.007-1.447,6.48-2.705,7.423-4.467.881-1.636,1.824-2.894,3.208-3.334-.755-4.089-4.4-7.927-6.857-10.946C49.744,9.7,47.416,7.495,45.4,5.1Zm9.248,19.062c-1.573,3.523-4.655,3.271-7.423,5.1a2,2,0,0,0-.944,1.258,22.426,22.426,0,0,0-5.725-1.069c.566-2.013,5.033-4.089,6.291-4.655,2.768-1.321,5.788-2.454,8.87-2.265A6.692,6.692,0,0,0,54.651,24.166Z" transform="translate(17.535 56.234)"/>
          <path id="Path_161" data-name="Path 161" class="cls-6" d="M11.2,1.384C7.423.881,3.775.252,0,0A23.754,23.754,0,0,1,4.467,6.48C6.857,11.072,9,15.665,12.393,19.628c1.384,1.573,2.642,3.963,4.467,5.033a24.6,24.6,0,0,0,4.215,1.7,10.083,10.083,0,0,1,2.516,1.2c.063-1.321.252-2.705.377-4.026.315-2.957-.377-5.725-.566-8.682a17.674,17.674,0,0,1,.5-4.781c-1.321-2.2-2.2-4.215-4.341-5.914C17.175,2.265,14.155,1.761,11.2,1.384Z" transform="translate(62.875 3.712)"/>
          <path id="Path_162" data-name="Path 162" class="cls-6" d="M40.764,30.064a23.63,23.63,0,0,1,3.712-8.556c1.132-1.447,2.265-2.831,3.46-4.278-.252-.315-.44-.692-.692-1.007-.818,1.007-1.636,2.076-2.454,3.02A22.267,22.267,0,0,0,40.2,27.925v.063c-.252-1.762-.377-3.523-.755-5.285a20.41,20.41,0,0,1-.189-7.046c.315-2.894.252-4.907,2.013-7.361.566-.818,1.069-1.7,1.636-2.516C40.889,3.2,37.681,1.817,34.41.811A12.769,12.769,0,0,0,27.552.245c-2.705.566-5.222,2.2-7.927,2.957a32.054,32.054,0,0,0-6.291,2.076C10.692,6.662,8.05,9.052,5.722,11c-1.51,1.258-2.328,2.642-4.152,3.4-1.51.566-1.7,2.391-1.51,4.215.063.126.126.189.126.315a.873.873,0,0,1,0,.566c.126.755.315,1.51.44,2.076a89.785,89.785,0,0,1,10.884-.189,13.691,13.691,0,0,1,8.43,3.775,75.544,75.544,0,0,1,8.745,9.688c2.454,3.083,5.6,6.669,6.354,10.695a3.8,3.8,0,0,1,1.384.252c.252.063.5.126.692.189l3.963-3.775a11.237,11.237,0,0,1-1.069-4.152A23.026,23.026,0,0,1,40.764,30.064Z" transform="translate(42.432 33.538)"/>
          <path id="Path_163" data-name="Path 163" class="cls-6" d="M10,.315A38.313,38.313,0,0,0,2.579,4.278l-1.321.944C.818,5.536.44,5.851,0,6.165H.063c.44-.252.818-.5,1.258-.755l1.321-.755a.062.062,0,0,0,.063-.063C5.788,3.083,9.5,3.4,12.771,2.265a12.484,12.484,0,0,1,1.95-.5c3.334-.629,7.864-.5,9.751,2.076A89.035,89.035,0,0,1,35.293,5.1c-2.2-1.447-4.278-3.02-6.606-4.341L27.177,0a12.164,12.164,0,0,1-3.208.566C19.88,1.007,14.344,1.7,10,.315Z" transform="translate(37.46 0)"/>
          <path id="Path_164" data-name="Path 164" class="cls-6" d="M5.036,20.006a3.728,3.728,0,0,1,.692-1.7,5.633,5.633,0,0,0,.5-2.516c.189-2.768,3.334-4.467,5.41-5.914a.062.062,0,0,0,.063-.063c-.44-.692-.818-1.384-1.2-2.076C8.622,4.341,4.155,2.076.758,0L.569,1.51a.567.567,0,0,1-.063.315A29.262,29.262,0,0,0,0,6.543C-.06,9.437.821,12.2.569,15.224a29.144,29.144,0,0,0,.189,9.059,1.372,1.372,0,0,1,.252-.315A34.189,34.189,0,0,1,5.036,20.006Z" transform="translate(87.722 11.953)"/>
          <path id="Path_165" data-name="Path 165" class="cls-6" d="M22.487,13.652a10.275,10.275,0,0,0,2.265-2.894,24.376,24.376,0,0,0,.818-3.838,9.3,9.3,0,0,0-.126-5.851c-1.007-2.391-3.46-.126-4.341.566a45.244,45.244,0,0,0-3.712,3.208c-.377.315-.692.692-1.069,1.007A24.116,24.116,0,0,0,14.56,7.675C12.358,10,9.968,12.142,7.7,14.407a26.235,26.235,0,0,0-5.536,9.5A33.947,33.947,0,0,0,.028,33.217a13.706,13.706,0,0,0,.692,5.1C.908,35.293,1.978,32.4,2.8,29.191a14.781,14.781,0,0,1,6.165-8.367c2.831-1.7,5.662-1.384,8.619-.944,2.076-1.132,2.328-3.271,3.712-4.97.063-.063.126-.189.252-.252C21.858,14.281,22.172,13.966,22.487,13.652Z" transform="translate(0 16.734)"/>
        </g>
      </g>
    </g>
  </g>
</svg>
