<svg xmlns="http://www.w3.org/2000/svg" xmlns:xlink="http://www.w3.org/1999/xlink" viewBox="8770.639 1482 357.85 186.531">
  <defs>
    <style>
      .cls-1, .cls-3, .cls-6 {
        fill: none;
      }

      .cls-1 {
        stroke: #95989a;
        opacity: 0.75;
      }

      .cls-2 {
        clip-path: url(#clip-path);
      }

      .cls-3, .cls-6 {
        stroke: #fff;
        stroke-miterlimit: 10;
      }

      .cls-4 {
        opacity: 0.34;
      }

      .cls-5 {
        opacity: 0.37;
      }

      .cls-6 {
        stroke-width: 3px;
      }
    </style>
    <clipPath id="clip-path">
      <path id="mask1" class="cls-1" d="M0,0H357.849V186.531H0Z" transform="translate(78.639 1482)"/>
    </clipPath>
  </defs>
  <g id="Mask_Group_102" data-name="Mask Group 102" class="cls-2" transform="translate(8692)">
    <g id="Group_203" data-name="Group 203">
      <g id="Group_189" data-name="Group 189" transform="translate(47 1513.71)">
        <g id="Group_183" data-name="Group 183">
          <g id="Group_180" data-name="Group 180">
            <g id="Group_179" data-name="Group 179">
              <path id="Path_199" data-name="Path 199" class="cls-3" d="M88.271,109.7a5.644,5.644,0,0,1-.81.347c-2.662,1.157-4.629,2.314-7.638,2.546a38.978,38.978,0,0,0-8.91,1.62c-3.124,1.157-6.133,2.546-9.142,3.934-3.356,1.5-6.133,3.7-9.142,5.786A45.9,45.9,0,0,1,48,126.479a33.378,33.378,0,0,1,4.745.231,33.249,33.249,0,0,0,13.424-1.62c4.282-1.389,7.059-4.282,10.878-6.48,2.662-1.5,5.323-2.546,7.638-4.4C86.3,113.056,87.229,111.32,88.271,109.7Z" transform="translate(6.967 16.708)"/>
              <path id="Path_200" data-name="Path 200" class="cls-3" d="M56.846,121.3a8.63,8.63,0,0,1,1.389-.81c5.207-2.893,11.456-5.9,17.242-6.943,3.009-.579,5.786-.116,8.679-1.273a38.134,38.134,0,0,0,9.026-4.976c3.472-2.662,3.934-6.827,5.439-10.3a8.925,8.925,0,0,1-3.24.694,27.857,27.857,0,0,0-7.638,1.389c-3.356,1.041-6.017,1.273-8.679,3.934-2.314,2.2-3.934,4.976-6.48,7.059-2.2,1.967-5.092,3.009-7.29,4.976-1.62,1.62-3.124,1.852-5.323,1.967-2.43.231-2.083,1.736-4.513.579-2.662-1.273-6.365.347-9.258,1.157,2.777,2.083,7.29,3.587,10.646,2.546Z" transform="translate(6.684 14.711)"/>
              <path id="Path_201" data-name="Path 201" class="cls-3" d="M78.963,106.365a10.2,10.2,0,0,1,4.282-2.314c2.2-.579,4.513-1.273,6.712-1.852,3.009-.81,6.249.579,8.795-1.736a.7.7,0,0,1,.463-.116c.116-.116.231-.231.231-.347v-.116a7.664,7.664,0,0,1,1.736-2.546c1.5-1.736,1.157-3.7.81-5.786a23.389,23.389,0,0,1,.116-7.522c.926-6.017,4.166-10.646,6.6-15.969.579-1.389,1.852-4.513,3.472-5.9-3.356-2.546-7.638-2.314-11.341-.694C96.206,63.433,94.354,67.252,95.28,72a13.821,13.821,0,0,1,.347,4.86c-.231,1.852.926,2.314.231,4.166-1.041,2.43-4.976,2.546-7.175,2.777-10.415,1.157-12.266,14.581-20.83,18.978-1.62.81-2.662,2.2-4.282,3.24a23.328,23.328,0,0,1-4.745,1.736c-2.893.81-5.439.463-7.406-1.62-.81,1.5,1.62,3.819,2.893,4.4a6.981,6.981,0,0,0,2.2.694c.347,0,.579-.116.926-.116a.562.562,0,0,1,.694.347,39.228,39.228,0,0,0,5.323-.231c5.323-.694,10.531-2.893,15.507-4.86Z" transform="translate(7.479 8.934)"/>
              <path id="Path_202" data-name="Path 202" class="cls-3" d="M117.2,71.195c-.231-2.2-1.5-4.282-2.083-6.48-.579-2.546-.463-4.86-1.62-7.29a14.915,14.915,0,0,1-1.62-5.323h0a12.749,12.749,0,0,0-2.777-6.249c-.463-.579-5.092-3.24-4.86-.926a3.331,3.331,0,0,1,.116,1.5c-.231,2.893-2.314,2.893-4.166,4.166,5.555,3.24,8.563,8.563,11.688,14.118a.716.716,0,0,1-.231.81c-2.43,1.967-4.4-1.389-6.6,1.5a27.846,27.846,0,0,0-2.546,4.86c-1.041,2.2-2.546,4.166-3.472,6.48A28.954,28.954,0,0,0,96.141,92.95a34.528,34.528,0,0,1,.463,4.86,6.952,6.952,0,0,1-1.5,3.24c2.083-.694,4.282-1.157,6.133-2.662A75.493,75.493,0,0,0,107.6,92.6a31.949,31.949,0,0,0,6.133-9.026c.926-1.852,2.662-3.7,3.472-5.555a.884.884,0,0,1-.231-.579C116.971,75.361,117.434,73.278,117.2,71.195Z" transform="translate(14.371 6.379)"/>
              <path id="Path_203" data-name="Path 203" class="cls-3" d="M33.1,118.679a8.759,8.759,0,0,1-1.736-.116c-.694-.116-1.273-.116-1.967-.231.694.694,1.389,1.5,2.083,2.314.579.694,1.157,1.273,1.736,1.967a10.992,10.992,0,0,0,2.2,1.852,19.608,19.608,0,0,0,5.67,2.662h.579a.6.6,0,0,1,.463.231,1.97,1.97,0,0,0,.81.116,15.09,15.09,0,0,0,5.092.231h0a52.809,52.809,0,0,1,5.092-2.777,34.739,34.739,0,0,0,4.282-2.893,16.282,16.282,0,0,1-10.531-4.282.358.358,0,0,1-.116-.231.867.867,0,0,1,.116-.579,1.6,1.6,0,0,1,.463-.347c2.43-.463,4.745-1.273,7.175-1.736,1.62-.347,5.323,1.157,6.365.231a3.118,3.118,0,0,1,1.736-.579c1.852-.231,3.24-.347,4.745-1.736a80.808,80.808,0,0,1,7.29-4.976c2.314-1.62,3.934-3.819,5.67-5.9-5.439,2.083-10.993,3.7-16.664,3.819q0,.174-.347.347c-1.5.694-2.662,3.356-3.587,4.629a13.135,13.135,0,0,1-4.513,3.472,18.294,18.294,0,0,1-6.6,1.5,4.921,4.921,0,0,0-1.273.231q-3.819.694-7.638,1.736A15.909,15.909,0,0,1,33.1,118.679Z" transform="translate(4.043 15.482)"/>
              <path id="Path_204" data-name="Path 204" class="cls-3" d="M3.74,105.394c1.389,1.389,3.356,1.62,5.092,2.546,2.314,1.157,3.356,3.934,5.9,4.745,4.629-.231,8.563-2.546,12.961-3.934.116,0,.347-.116.463-.116.579-.231,1.157-.463,1.62-.694,2.777-1.273,4.745-3.009,8.216-2.083,1.967.463,3.819,1.273,5.67,1.852a15.541,15.541,0,0,0,7.638.579,2.259,2.259,0,0,0,.81-.116c3.124-.231,6.017.579,9.026.694-2.662-1.62-4.976-4.629-2.2-6.827a.743.743,0,0,1,1.041.116c2.893,4.05,9.6,1.62,12.613-1.157,1.5-1.389,3.356-2.2,4.976-3.356,2.2-1.5,3.472-4.513,4.976-6.712a16.558,16.558,0,0,1,1.273-1.736c-3.356,1.5-7.059,1.736-10.3,3.819-3.472,2.2-6.017,4.282-10.3,3.934a22.59,22.59,0,0,1-4.629-1.157,14.267,14.267,0,0,0-7.638-.116,5.906,5.906,0,0,1-2.43.116c-2.2-.231-3.7-1.389-5.9-3.009a48.354,48.354,0,0,0-4.4-2.893,62.1,62.1,0,0,1-8.448-6.017c-2.314-1.157-4.86-2.083-7.29-3.24-2.2-1.041-4.05-2.662-6.365-3.587a22.65,22.65,0,0,0-6.827-1.62,34.1,34.1,0,0,0-4.86-.116,9.955,9.955,0,0,0-1.852.116H2.12c-.579,0-1.041.116-1.62.116v1.5c0,1.967,1.157,3.24,2.083,4.86A23.58,23.58,0,0,1,4.55,87.341c.463,2.43,0,4.629-2.314,5.439a4.354,4.354,0,0,1-.116,2.43.877.877,0,0,1-.231.463c-1.389,2.546-1.5,4.05.81,6.017h0C4.2,102.964,4.782,104.237,3.74,105.394Z" transform="translate(-0.5 11.294)"/>
              <path id="Path_205" data-name="Path 205" class="cls-3" d="M49.078,66.364a35.525,35.525,0,0,0-6.017-8.91,21,21,0,0,0-11.919-6.48,47.074,47.074,0,0,0-5.67-.579c-1.157-.116-2.314-.463-3.472-.694,1.157,2.43.694,5.092,1.736,7.753h0A6.648,6.648,0,0,1,25.472,60c1.041,3.124,3.819,5.323,6.133,7.638,4.629,4.629,9.026,9.836,16.085,9.952,1.157,0,2.314,0,3.472-.116C50.583,73.538,50.7,70.067,49.078,66.364Z" transform="translate(2.88 7.276)"/>
              <path id="Path_206" data-name="Path 206" class="cls-3" d="M38.156,28.681c-2.546-3.819-7.29-1.736-9.258,1.273a1.538,1.538,0,0,0-.347.81c-.347,1.273.231,2.43-.81,3.587a1.752,1.752,0,0,1-3.124-.231c-1.273,1.157-1.736,3.934-2.083,5.323s-1.5,4.745-.579,6.133a1.605,1.605,0,0,1-.231,2.2,2.135,2.135,0,0,1-1.389.579c-2.43.231.231,2.662,1.157,3.24,3.819.579,7.753,1.041,11.456,1.852h.116a11.292,11.292,0,0,1,.231-3.934,2.009,2.009,0,0,1,1.273-1.736,1.346,1.346,0,0,1,1.157.231,46.843,46.843,0,0,1-1.041-5.555,3.379,3.379,0,0,1-.231-1.041c0-.116-.116-.231-.116-.347,0-2.777-.347-5.555.231-8.216.116-.231.116-.463.231-.694A8.815,8.815,0,0,1,38.156,28.681Z" transform="translate(2.461 3.646)"/>
              <path id="Path_207" data-name="Path 207" class="cls-3" d="M14.495,55.64a16.953,16.953,0,0,0-7.406,6.133A7.878,7.878,0,0,0,5.7,66.286a10.934,10.934,0,0,0,1.62,4.976,11.119,11.119,0,0,1,1.5,6.6,28.938,28.938,0,0,1,6.133,1.273c2.43.694,4.282,2.2,6.48,3.472,1.62.926,3.356,1.62,5.092,2.43a15.262,15.262,0,0,1-2.662-5.092,31.5,31.5,0,0,0-2.083-6.365,14.188,14.188,0,0,1-1.967-6.133c-.463-4.4,1.041-8.795,2.777-12.845.231-.463.926-.694,1.157-.231.116.231.347.463.463.694-.116-.926-.231-1.736-.347-2.662A74.32,74.32,0,0,0,14.495,55.64Z" transform="translate(0.317 7.7)"/>
              <path id="Path_208" data-name="Path 208" class="cls-3" d="M52.74,47.618c.463-5.786,4.86-9.258,8.679-13.076q-.174,0-.347-.347c-.463-.81-3.587-.81-4.4-.926a2.038,2.038,0,0,1-1.5-1.041C54.013,32,52.856,31.533,51.7,31.3c-1.852-.231-2.314,3.124-2.662,4.282-.694,2.662-1.852,5.67-1.736,8.332v.347h0c.347,4.282,4.629,7.753,7.406,11.225C54.244,53.173,52.624,50.28,52.74,47.618Z" transform="translate(6.856 4.382)"/>
              <path id="Path_209" data-name="Path 209" class="cls-3" d="M107.324,45.7c.926-.579,1.273-2.314,1.5-3.24a8.983,8.983,0,0,0,.116-3.934,18.416,18.416,0,0,0-3.587-6.827c.116,1.273.116,2.662.116,3.934,0,1.157-.116,3.356-1.273,4.166a6.719,6.719,0,0,1,.116,4.745A8.581,8.581,0,0,1,107.324,45.7Z" transform="translate(15.802 4.446)"/>
              <path id="Path_210" data-name="Path 210" class="cls-3" d="M83.836,88.55c.81-.463,3.009-.579,5.207-.926,2.083-3.472-3.009-6.017-5.207-8.1-2.546-2.546-3.356-5.786-3.24-9.258a14.141,14.141,0,0,1,1.157-3.934c.81-2.314.347-4.86.579-7.29.347-4.166,2.546-8.1,3.009-12.266a.774.774,0,0,1,.81-.694,10.358,10.358,0,0,1,4.86,2.546c0-1.041.116-2.083.116-3.24,0-2.083.116-4.166,2.43-4.86,1.5-.463.463-2.43.463-3.356v-.579c-1.157-2.893-2.43-4.513-5.439-5.555a20.077,20.077,0,0,1-3.934-2.43c-2.546-1.62-4.86-2.314-7.406-.231-2.662,2.2-2.314,4.629-1.5,7.753.463,1.736-.579,3.934-2.314,2.662-1.5-1.041-2.083-3.587-4.05-3.934a9.443,9.443,0,0,0-9.258,2.777c-3.934,4.513-8.332,7.522-6.133,14.234,1.736,5.207,1.736,10.878,5.207,15.391,1.5,1.967,1.852,4.513,3.356,6.6,1.389,1.967,4.282,3.24,6.249,4.629,5.092,3.587,4.629,11.109,10.415,13.886A17.268,17.268,0,0,1,83.836,88.55Z" transform="translate(7.815 3.72)"/>
              <path id="Path_211" data-name="Path 211" class="cls-3" d="M46.365,29.452c.694-.694,1.389-1.389,1.967-2.083.926-.926,2.893-2.893.463-2.893-1.967,0-4.05,0-6.017-.116a1.314,1.314,0,0,1-.926-.347c-.81-.694-1.852,2.43-2.083,2.893a6.61,6.61,0,0,1-2.893,3.009,9.134,9.134,0,0,0-2.546,2.662c-1.157,2.314-1.041,5.092-.81,7.985,0,.116.116.116.116.231,0,.579.116,1.157.116,1.736.81,2.43,3.819,3.934,5.786,5.207a6.36,6.36,0,0,1,1.041.81,11.782,11.782,0,0,1,0-6.017c.694-2.662,3.587-4.282,3.7-7.175a.617.617,0,0,1,.81-.579,15.153,15.153,0,0,1,0-3.24A4.44,4.44,0,0,1,46.365,29.452Z" transform="translate(4.667 3.222)"/>
              <path id="Path_212" data-name="Path 212" class="cls-3" d="M45.053,97.575c.116,0,.231.116.463.116,1.273.231,2.777-.347,3.934-.579,3.009-.579,5.786.116,8.563,1.041a11.327,11.327,0,0,0,7.059.116c2.2-.81,3.819-2.662,5.9-3.819,3.934-2.083,8.563-1.852,12.035-4.976a.425.425,0,0,1,.347-.116l.347-.347a11.851,11.851,0,0,1-4.745-5.092.425.425,0,0,1-.347-.116c-5.439-3.934-11.456-3.934-17.821-4.86-3.356-.463-6.249-1.157-9.6-1.041a24.313,24.313,0,0,1-6.48-.116c-5.439-1.273-9.026-5.439-12.845-9.142-2.2-2.083-4.976-4.4-6.712-6.943-.81-1.157-.463-2.083-1.5-3.472-.231-.231-.347-.463-.579-.694q-.174,0-.347-.347c-.463-.463-1.041-.926-1.5-1.389A27.229,27.229,0,0,0,18.9,65.868c-.116,4.282,2.777,7.522,3.7,11.572a16.792,16.792,0,0,0,5.555,8.91h.116l.231.231a79.559,79.559,0,0,0,9.026,6.365c.926.579,1.967,1.273,2.893,1.967C42.044,95.839,43.317,97.112,45.053,97.575Z" transform="translate(2.392 8.235)"/>
              <path id="Path_213" data-name="Path 213" class="cls-3" d="M44.077,105.591a49.968,49.968,0,0,1-5.9-1.852c-3.356-1.041-5.439-1.852-8.679.463a12.649,12.649,0,0,1-1.736.926,9.069,9.069,0,0,1-1.62.579l-2.083.694c-3.24,1.157-6.017,2.546-9.258,3.124,2.662,1.157,4.976,2.893,7.638,4.166.116.116.231.116.463.231.463.231,1.041.463,1.5.694l2.777,1.041a1.969,1.969,0,0,1,.81.116.984.984,0,0,1,.579.347c.116,0,.116.116.231.116a.425.425,0,0,1,.347.116h0a26.852,26.852,0,0,0,4.4.81,8.759,8.759,0,0,0,1.736.116,24.9,24.9,0,0,0,4.976-.463c2.662-.579,5.207-1.389,7.753-1.852a6.773,6.773,0,0,1,1.5-.231,29.541,29.541,0,0,0,7.059-1.5,12.178,12.178,0,0,0,5.439-5.092,9.8,9.8,0,0,1,1.62-2.2,2.259,2.259,0,0,1-.81-.116c-4.4.81-8.448-.579-12.729-.463H49.4C47.549,105.476,45.929,105.939,44.077,105.591Z" transform="translate(1.748 15.609)"/>
              <path id="Path_214" data-name="Path 214" class="cls-3" d="M43.613,51.306c1.736-.81,4.513,2.314,5.555,3.24,2.546,1.967,5.207,3.124,7.638,5.092-.116-.463-.116-.926-.231-1.389-.116-.116-.231-.116-.347-.231-2.777-5.092-8.1-8.448-9.026-13.886-2.546-2.2-2.314-5.439-3.124-8.332a21.912,21.912,0,0,1-2.2,3.472c-2.083,3.009-1.157,5.786-.694,9.142h0a12.352,12.352,0,0,1,2.43,2.893Z" transform="translate(5.8 5.091)"/>
              <path id="Path_215" data-name="Path 215" class="cls-3" d="M62.56,70.283a25.1,25.1,0,0,1-1.736-4.05c-.694-1.62-2.083-2.662-2.893-4.166a17.8,17.8,0,0,1-.926-2.2C54,56.513,49.946,55.008,46.59,52.347c-.579-.463-1.041-.926-1.62-1.389-1.967-1.62-2.083,1.852-2.083,2.43-.116,1.967-1.389,3.472,0,5.439A.7.7,0,0,1,43,59.29a36.055,36.055,0,0,1,3.587,5.67c2.2,4.05,2.083,8.1,2.546,12.5h2.314c3.009.116,6.133,1.157,9.258,1.5,4.86.579,9.142,1.041,13.192,3.472-1.273-2.546-2.546-5.092-5.092-6.827C66.726,73.755,64.3,72.6,62.56,70.283Z" transform="translate(6.062 7.407)"/>
              <path id="Path_216" data-name="Path 216" class="cls-3" d="M37.224,53.709a22.39,22.39,0,0,1,4.166,3.24l.463.463a3.443,3.443,0,0,1,.579-1.736c.926-1.389.231-3.24,1.041-4.513-2.2-3.472-5.092-5.207-8.216-7.522A10.433,10.433,0,0,1,34.1,42.6a17.979,17.979,0,0,0,.579,2.662c.579,2.43,1.157,5.67,2.43,7.638A.73.73,0,0,1,37.224,53.709Z" transform="translate(4.782 6.16)"/>
              <path id="Path_217" data-name="Path 217" class="cls-3" d="M99.772,121.809c7.869-2.777,13.655-6.6,17.821-14h0c.231-.463.579-1.041.81-1.5v-.231h0c0-.116,0-.116.116-.116v-.116a5.031,5.031,0,0,1,.463-.81c.347-.694.579-1.389.926-2.083l.694-1.736c1.273-3.472,2.314-6.943,3.587-10.415.926-2.777,1.852-6.365-.231-8.795a15.883,15.883,0,0,0-2.546-2.314c-1.041-.926-2.777-.579-4.166-.579-.116.116-.116.347-.231.463a32.511,32.511,0,0,1-5.207,7.753c-2.2,2.43-4.745,4.513-7.175,6.712s-5.439,2.2-8.216,3.587c-1.736,1.967-2.2,4.4-2.893,6.827a14.457,14.457,0,0,1-3.819,6.017,14.784,14.784,0,0,1-3.7,2.777c0,.116-.116.116-.116.231-1.5,1.852-2.546,3.934-4.05,5.786a11.52,11.52,0,0,1-1.736,1.62V121c1.041,3.124,5.555,4.513,8.448,4.4C92.251,124.934,96.3,122.967,99.772,121.809Z" transform="translate(12.013 11.889)"/>
              <path id="Path_218" data-name="Path 218" class="cls-3" d="M45.383,140.448c-.116.463-.231.81-.347,1.273a39.368,39.368,0,0,0-.81,3.934,17.03,17.03,0,0,0-.116,4.166,4.16,4.16,0,0,0,.231,1.273c1.041,4.86,4.629,8.563,8.216,12.5.347.463.81.926,1.157,1.389v-1.5a25.435,25.435,0,0,1,.694-4.282c.116-.347.231-.81.347-1.157a20.412,20.412,0,0,1,1.967-4.282,7.025,7.025,0,0,1,.81-1.157,3.119,3.119,0,0,1,.81-.926l.694-.694a9.994,9.994,0,0,1,1.62-1.5c2.546-2.314,5.786-4.05,8.563-5.786.116-.116.347-.231.463-.347a6.459,6.459,0,0,0,.926-.579L72,142.068c.694-.347,1.273-.579,1.967-.926,2.43-1.041,4.976-1.967,7.406-3.009l.579-.579a.713.713,0,0,1,.81-.116,28.873,28.873,0,0,0,4.05-2.43c.463-.347.81-.694,1.273-1.041a28.033,28.033,0,0,0,7.869-13.308,10.341,10.341,0,0,1-4.976,0c-2.43-.694-5.439-2.314-6.48-4.86a10.565,10.565,0,0,1-1.5.926c-2.43,1.5-4.976,2.43-7.29,4.282a29.185,29.185,0,0,1-5.092,3.24,39.089,39.089,0,0,1-12.5,3.24,25.067,25.067,0,0,1-4.166-.116c-.116,0-.347.116-.463,0-1.273-.347-3.124,2.777-4.282,4.745l-.347.694c-.231.347-.347.694-.463.81a4.691,4.691,0,0,0-.579,1.041A24.691,24.691,0,0,0,45.383,140.448Z" transform="translate(6.344 17.667)"/>
              <path id="Path_219" data-name="Path 219" class="cls-3" d="M30.342,132.13a52.156,52.156,0,0,1-6.133-1.041c-1.852,2.777-.347,6.827,3.009,6.943h1.5a11.694,11.694,0,0,0,1.967-.347,37.6,37.6,0,0,0,4.282-1.273c.463-.116.81-.347,1.273-.463a58.483,58.483,0,0,0,6.133-2.777c.926-.463,1.852-.926,2.662-1.389,1.273-.694,2.43-1.389,3.7-2.083a36.839,36.839,0,0,1-9.952,2.43,43.4,43.4,0,0,1-6.712.231A8.931,8.931,0,0,0,30.342,132.13Z" transform="translate(3.101 19.852)"/>
              <path id="Path_220" data-name="Path 220" class="cls-3" d="M34.81,124.907h-1.62a53.82,53.82,0,0,0-8.563.926,26.436,26.436,0,0,1-9.026.347A36.274,36.274,0,0,0,32.032,131.5c.579,0,1.157.116,1.736.116a39.716,39.716,0,0,0,7.406-.347,37.993,37.993,0,0,0,13.192-4.513.425.425,0,0,1,.347-.116c.347-.347.579-.81.926-1.157a11.654,11.654,0,0,0-5.9.81.633.633,0,0,1-.926-.579,18.94,18.94,0,0,1-4.4-.463,4.111,4.111,0,0,0-1.157-.231C40.364,124.907,37.587,124.791,34.81,124.907Z" transform="translate(1.874 19.091)"/>
              <path id="Path_221" data-name="Path 221" class="cls-3" d="M123.878,106.741c1.273.116,2.43.347,3.7.463a32.492,32.492,0,0,0,4.745.116h.231a22.687,22.687,0,0,1,3.934.116,8.683,8.683,0,0,1,2.893,1.041,9.775,9.775,0,0,0,1.967.579c.231,0,.463.116.694.116a40.5,40.5,0,0,0,5.323-1.62c3.24-1.157,4.86-3.472,6.133-6.6a18.275,18.275,0,0,1,2.893-5.323c1.852-2.2,2.314-4.166,3.009-6.827q.868-3.3,1.736-7.29c.116-.463.231-1.041.347-1.62a17.97,17.97,0,0,1,.463-2.43,14.178,14.178,0,0,0,.231-2.2,25.384,25.384,0,0,0-.926-10.762,13.714,13.714,0,0,0-5.323-6.827c-.116,0-.116-.116-.231-.116-3.356-2.2-7.175-2.2-10.878-1.5a72.377,72.377,0,0,0-7.175,1.852,21.065,21.065,0,0,1-6.6.81,31.288,31.288,0,0,0-8.679,1.041h-.347c-.694,2.546-1.389,5.092-1.967,7.753a17.542,17.542,0,0,1-3.7,7.985v.231a3.706,3.706,0,0,1-1.157,2.2A13.572,13.572,0,0,0,113,81.4c2.314.116,3.472,0,5.555,1.852,2.083,1.967,3.24,3.587,3.24,6.48,0,3.124-1.5,6.249-2.546,9.142l-2.083,5.9a16.873,16.873,0,0,1-.81,2.2C118.323,106.047,121.679,106.51,123.878,106.741Z" transform="translate(17.185 8.211)"/>
              <path id="Path_222" data-name="Path 222" class="cls-3" d="M43.2,23.5c2.083,0,4.282,0,6.365.116a.774.774,0,0,1,.694.81,8.81,8.81,0,0,1-2.546,4.629,11.157,11.157,0,0,0-2.43,2.893,3.54,3.54,0,0,0-.347,1.967,20.485,20.485,0,0,1,.116,2.662.6.6,0,0,1-.231.463c.694,2.314.579,5.092,1.967,7.175a10.128,10.128,0,0,1,.231-1.852c.694-3.009,1.273-6.6,2.777-9.258,1.157-2.083,3.472-1.273,5.439-.694-.579-2.314-.347-4.86-.926-7.29a.85.85,0,0,1,.231-.694c1.389-1.157,3.472-1.157,5.555-1.273a45.67,45.67,0,0,0-4.282-1.967,10.03,10.03,0,0,0-4.629-.579C49.68,20.726,43.431,21.3,43.2,23.5Z" transform="translate(6.212 2.691)"/>
              <path id="Path_223" data-name="Path 223" class="cls-3" d="M77.243,13.523c-2.662-3.24-4.513-5.092-8.795-5.786-2.083-.347-4.166-.81-4.05,1.852.116,1.736.231,3.587.231,5.323v.926a21.681,21.681,0,0,1-1.041,4.745,1.241,1.241,0,0,1-.231.694,32.456,32.456,0,0,0-1.041,3.587c-.579,2.546-1.041,5.207-1.5,7.869a30.93,30.93,0,0,0,.116,4.629c2.662-1.273,7.175-1.389,9.142,0a6.239,6.239,0,0,1,1.62,1.852c1.5,1.736,1.62,1.041,1.273-.347-.116,0-.231-.116-.347-.231-1.736-1.852-1.967-3.587-1.041-6.017.579-1.5,1.273-2.893,1.736-4.4.579-1.967.926-3.587,2.314-5.207,1.736-1.967,4.745-2.662,2.777-6.017,0-.116-.116-.116-.116-.231A7.1,7.1,0,0,1,77.243,13.523Z" transform="translate(8.968 0.637)"/>
              <path id="Path_224" data-name="Path 224" class="cls-3" d="M76.655,1.847a7.975,7.975,0,0,1-.926-.347,13.288,13.288,0,0,1,.116,2.2C75.613,5.55,77,7.055,77.349,8.906c.347,1.5-.347,3.356-.463,4.86A4.747,4.747,0,0,0,77,15.039c.347,1.62,1.62,3.009,2.083,4.629a3.221,3.221,0,0,1-.81,2.662c-1.736,1.852-3.934,2.662-4.745,5.323-.579,2.2-2.2,4.86-2.43,7.406a9.381,9.381,0,0,1,1.157-2.083c2.546-3.7,6.249-3.934,9.836-1.852a34.4,34.4,0,0,0,6.48,3.356c1.852.579,2.893,2.777,3.587,4.629a2.214,2.214,0,0,0,.463-1.736c-.116-1.041-.463-2.546.926-2.893,2.083-.579,4.513.463,6.6.81s3.24.579,4.745,2.2a22.807,22.807,0,0,1,3.819,5.786c.579-.81.347-2.893.463-3.472a31.162,31.162,0,0,0-.347-4.629h0a6.6,6.6,0,0,0-2.546-1.273.686.686,0,0,1-.347-1.041v-.231c.463-1.041.694-2.314,1.967-2.314-.926-7.522-6.365-15.391-11.919-20.367l-.231-.231c-3.472-3.124-7.869-4.4-12.266-5.555a27.017,27.017,0,0,1-2.893-.81c-.231-.116-.463-.116-.694-.231A13.51,13.51,0,0,0,76.655,1.847Z" transform="translate(10.598 -0.301)"/>
              <path id="Path_225" data-name="Path 225" class="cls-3" d="M63.515,7.68c2.662-.926,5.555-.231,8.1.347s4.282,2.43,5.786,4.4a9.19,9.19,0,0,0-.694-5.786c-.116-.231-.231-.579-.347-.81h0C75.2,4.093,74.739,2.7,72.541,1.894,71.152,1.431,69.764,1.2,68.375.737c-2.546-.81-4.745.463-7.29.231C57.5.621,59.58,9.069,59.7,10.92c0,1.389-.116,2.662-.231,3.934a3.715,3.715,0,0,0,.231,1.967,9.591,9.591,0,0,0,3.124,3.7,12.207,12.207,0,0,0,.579-2.2c.116-.463.116-1.041.231-1.5.231-2.777-.347-5.786-.463-8.448C63.167,8.143,63.167,7.8,63.515,7.68Z" transform="translate(8.695 -0.464)"/>
              <path id="Path_226" data-name="Path 226" class="cls-3" d="M57.934,33.3A20.811,20.811,0,0,1,60.48,34c0-1.389-.231-2.662-.116-4.05A23.766,23.766,0,0,1,61.522,23.7a17.429,17.429,0,0,1-4.282.694c-.81.116-2.662,0-3.24.579.347-.231.463,2.43.579,2.662a17.662,17.662,0,0,0,.347,3.472C55.157,33.073,56.43,32.958,57.934,33.3Z" transform="translate(7.91 3.189)"/>
              <path id="Path_227" data-name="Path 227" class="cls-3" d="M124.21,32.822a27.062,27.062,0,0,0,1.62-6.712c.116-.81.116-1.736.231-2.546a29.5,29.5,0,0,0-.231-4.513h0c-.579-2.893-.694-5.9-1.5-8.795a11.424,11.424,0,0,0-2.2-4.629c-2.546-3.356-7.869-1.273-7.869,2.662,0,.926-.463,2.314-1.5,2.546h-.116c-2.2.231-3.124-.926-4.745-2.314-1.389-1.157-3.7-.347-5.092,0a8.654,8.654,0,0,0-5.9,3.819c4.282,5.092,7.985,11.225,8.679,17.589a10.981,10.981,0,0,1,3.934,2.546c2.083,1.852,3.819,4.05,6.017,5.67,1.5,1.041,2.777,1.967,4.05,2.893.231-.231.463-.579.694-.81a46.194,46.194,0,0,0,3.124-5.092A11.121,11.121,0,0,1,124.21,32.822Z" transform="translate(14.654 0.084)"/>
              <path id="Path_228" data-name="Path 228" class="cls-3" d="M109.775,37.059c1.62,3.934,3.009,9.142,2.662,13.424-.231,3.356-.463,5.9,1.157,9.026a18.294,18.294,0,0,1,1.5,6.6c.347,2.546,1.5,4.976,2.2,7.522a14.749,14.749,0,0,1,0,4.513c3.009-4.05,3.356-9.72,4.629-14.465.81-3.009,1.852-5.555,1.389-8.679-.347-2.662-.579-5.323-1.041-7.985a14.111,14.111,0,0,0-4.745-8.795c-1.967-1.62-4.4-2.546-6.133-4.4-1.5-1.62-6.943-8.332-8.795-5.207C106.187,30,108.386,33.471,109.775,37.059Z" transform="translate(15.55 3.832)"/>
              <path id="Path_229" data-name="Path 229" class="cls-3" d="M124.1,22.5a33.48,33.48,0,0,1-2.43,9.6c-.347.694-.579,1.273-.926,1.967a31.786,31.786,0,0,1-3.009,4.629c-.116.116-.231.231-.231.347a12.809,12.809,0,0,1,2.546,3.356,23.184,23.184,0,0,1,1.157,3.009c.231-.579.347-1.273.579-1.852l1.389-4.513a15.416,15.416,0,0,0,.579-2.2,34.233,34.233,0,0,0,1.273-9.836C124.675,25.509,124.443,24,124.1,22.5Z" transform="translate(17.892 3)"/>
              <path id="Path_230" data-name="Path 230" class="cls-3" d="M144.738,58.933c8.795-8.216,14.581-20.482,13.886-32.633-.116.116-.231.347-.347.463a.726.726,0,0,1-.926.231c-1.736-1.041-2.662-.579-4.282.116a9.5,9.5,0,0,1-4.05.231c-4.4-.347-7.753,4.282-10.531,7.175-3.7,3.934-6.48,8.563-9.6,12.961a60.036,60.036,0,0,1-6.48,7.869.425.425,0,0,1-.347.116,10.153,10.153,0,0,1-.231,4.166c-.347,1.157-.579,2.2-.926,3.356,5.9-1.273,11.688-.81,17.474-2.43,1.041-.231,2.083-.579,3.124-.81a29.6,29.6,0,0,1,3.124-.579A.4.4,0,0,1,144.738,58.933Z" transform="translate(18.427 3.597)"/>
              <path id="Path_231" data-name="Path 231" class="cls-3" d="M89.07,49.949a.757.757,0,0,1-1.041.926c-1.157-.81-4.513-4.513-5.092-1.852a42.594,42.594,0,0,1-1.852,6.249,24.681,24.681,0,0,0-1.041,8.216c0,2.43-1.157,4.513-1.62,6.943-1.157,5.786,3.7,8.679,7.175,12.035,1.62,1.62,2.2,3.124,1.5,4.976,2.314-.579,4.166-1.389,3.24-3.356-.579-1.273-.116-3.009-.231-4.282-.116-2.083-.81-4.05-.694-6.249.116-2.546,1.967-4.745,3.934-6.365,4.282-3.472,11.225-4.282,15.738-.694a.6.6,0,0,1,.231.463,1.278,1.278,0,0,1,.926,0s3.124,1.041,2.662.231c-.926-1.736-1.967-3.356-3.009-5.092a24.265,24.265,0,0,0-8.448-7.985c-.463-.231-.347-.81,0-1.157a5.375,5.375,0,0,1,2.314-1.5c2.083-.81,1.852-2.546,1.967-4.282a1.876,1.876,0,0,1,1.389-1.852c1.736-3.472-3.124-11.8-6.48-12.382-1.273-.231-2.43-.231-3.7-.579-2.083-.463-3.934-1.157-3.7,1.5a3.734,3.734,0,0,1-.926,2.43c-1.041,1.62.347,2.777-.231,4.4-.463,1.273-2.314,1.041-2.893,2.2A18.04,18.04,0,0,0,89.07,49.949Z" transform="translate(11.722 4.481)"/>
            </g>
          </g>
          <g id="Group_182" data-name="Group 182" class="cls-4">
            <g id="Group_181" data-name="Group 181">
              <path id="Path_232" data-name="Path 232" class="cls-3" d="M88.271,109.7a5.644,5.644,0,0,1-.81.347c-2.662,1.157-4.629,2.314-7.638,2.546a38.978,38.978,0,0,0-8.91,1.62c-3.124,1.157-6.133,2.546-9.142,3.934-3.356,1.5-6.133,3.7-9.142,5.786A45.9,45.9,0,0,1,48,126.479a33.378,33.378,0,0,1,4.745.231,33.249,33.249,0,0,0,13.424-1.62c4.282-1.389,7.059-4.282,10.878-6.48,2.662-1.5,5.323-2.546,7.638-4.4C86.3,113.056,87.229,111.32,88.271,109.7Z" transform="translate(6.967 16.708)"/>
              <path id="Path_233" data-name="Path 233" class="cls-3" d="M56.846,121.3a8.63,8.63,0,0,1,1.389-.81c5.207-2.893,11.456-5.9,17.242-6.943,3.009-.579,5.786-.116,8.679-1.273a38.134,38.134,0,0,0,9.026-4.976c3.472-2.662,3.934-6.827,5.439-10.3a8.925,8.925,0,0,1-3.24.694,27.857,27.857,0,0,0-7.638,1.389c-3.356,1.041-6.017,1.273-8.679,3.934-2.314,2.2-3.934,4.976-6.48,7.059-2.2,1.967-5.092,3.009-7.29,4.976-1.62,1.62-3.124,1.852-5.323,1.967-2.43.231-2.083,1.736-4.513.579-2.662-1.273-6.365.347-9.258,1.157,2.777,2.083,7.29,3.587,10.646,2.546Z" transform="translate(6.684 14.711)"/>
              <path id="Path_234" data-name="Path 234" class="cls-3" d="M78.963,106.365a10.2,10.2,0,0,1,4.282-2.314c2.2-.579,4.513-1.273,6.712-1.852,3.009-.81,6.249.579,8.795-1.736a.7.7,0,0,1,.463-.116c.116-.116.231-.231.231-.347v-.116a7.664,7.664,0,0,1,1.736-2.546c1.5-1.736,1.157-3.7.81-5.786a23.389,23.389,0,0,1,.116-7.522c.926-6.017,4.166-10.646,6.6-15.969.579-1.389,1.852-4.513,3.472-5.9-3.356-2.546-7.638-2.314-11.341-.694C96.206,63.433,94.354,67.252,95.28,72a13.821,13.821,0,0,1,.347,4.86c-.231,1.852.926,2.314.231,4.166-1.041,2.43-4.976,2.546-7.175,2.777-10.415,1.157-12.266,14.581-20.83,18.978-1.62.81-2.662,2.2-4.282,3.24a23.328,23.328,0,0,1-4.745,1.736c-2.893.81-5.439.463-7.406-1.62-.81,1.5,1.62,3.819,2.893,4.4a6.981,6.981,0,0,0,2.2.694c.347,0,.579-.116.926-.116a.562.562,0,0,1,.694.347,39.228,39.228,0,0,0,5.323-.231c5.323-.694,10.531-2.893,15.507-4.86Z" transform="translate(7.479 8.934)"/>
              <path id="Path_235" data-name="Path 235" class="cls-3" d="M117.2,71.195c-.231-2.2-1.5-4.282-2.083-6.48-.579-2.546-.463-4.86-1.62-7.29a14.915,14.915,0,0,1-1.62-5.323h0a12.749,12.749,0,0,0-2.777-6.249c-.463-.579-5.092-3.24-4.86-.926a3.331,3.331,0,0,1,.116,1.5c-.231,2.893-2.314,2.893-4.166,4.166,5.555,3.24,8.563,8.563,11.688,14.118a.716.716,0,0,1-.231.81c-2.43,1.967-4.4-1.389-6.6,1.5a27.846,27.846,0,0,0-2.546,4.86c-1.041,2.2-2.546,4.166-3.472,6.48A28.954,28.954,0,0,0,96.141,92.95a34.528,34.528,0,0,1,.463,4.86,6.952,6.952,0,0,1-1.5,3.24c2.083-.694,4.282-1.157,6.133-2.662A75.493,75.493,0,0,0,107.6,92.6a31.949,31.949,0,0,0,6.133-9.026c.926-1.852,2.662-3.7,3.472-5.555a.884.884,0,0,1-.231-.579C116.971,75.361,117.434,73.278,117.2,71.195Z" transform="translate(14.371 6.379)"/>
              <path id="Path_236" data-name="Path 236" class="cls-3" d="M33.1,118.679a8.759,8.759,0,0,1-1.736-.116c-.694-.116-1.273-.116-1.967-.231.694.694,1.389,1.5,2.083,2.314.579.694,1.157,1.273,1.736,1.967a10.992,10.992,0,0,0,2.2,1.852,19.608,19.608,0,0,0,5.67,2.662h.579a.6.6,0,0,1,.463.231,1.97,1.97,0,0,0,.81.116,15.09,15.09,0,0,0,5.092.231h0a52.809,52.809,0,0,1,5.092-2.777,34.739,34.739,0,0,0,4.282-2.893,16.282,16.282,0,0,1-10.531-4.282.358.358,0,0,1-.116-.231.867.867,0,0,1,.116-.579,1.6,1.6,0,0,1,.463-.347c2.43-.463,4.745-1.273,7.175-1.736,1.62-.347,5.323,1.157,6.365.231a3.118,3.118,0,0,1,1.736-.579c1.852-.231,3.24-.347,4.745-1.736a80.808,80.808,0,0,1,7.29-4.976c2.314-1.62,3.934-3.819,5.67-5.9-5.439,2.083-10.993,3.7-16.664,3.819q0,.174-.347.347c-1.5.694-2.662,3.356-3.587,4.629a13.135,13.135,0,0,1-4.513,3.472,18.294,18.294,0,0,1-6.6,1.5,4.921,4.921,0,0,0-1.273.231q-3.819.694-7.638,1.736A15.909,15.909,0,0,1,33.1,118.679Z" transform="translate(4.043 15.482)"/>
              <path id="Path_237" data-name="Path 237" class="cls-3" d="M3.74,105.394c1.389,1.389,3.356,1.62,5.092,2.546,2.314,1.157,3.356,3.934,5.9,4.745,4.629-.231,8.563-2.546,12.961-3.934.116,0,.347-.116.463-.116.579-.231,1.157-.463,1.62-.694,2.777-1.273,4.745-3.009,8.216-2.083,1.967.463,3.819,1.273,5.67,1.852a15.541,15.541,0,0,0,7.638.579,2.259,2.259,0,0,0,.81-.116c3.124-.231,6.017.579,9.026.694-2.662-1.62-4.976-4.629-2.2-6.827a.743.743,0,0,1,1.041.116c2.893,4.05,9.6,1.62,12.613-1.157,1.5-1.389,3.356-2.2,4.976-3.356,2.2-1.5,3.472-4.513,4.976-6.712a16.558,16.558,0,0,1,1.273-1.736c-3.356,1.5-7.059,1.736-10.3,3.819-3.472,2.2-6.017,4.282-10.3,3.934a22.59,22.59,0,0,1-4.629-1.157,14.267,14.267,0,0,0-7.638-.116,5.906,5.906,0,0,1-2.43.116c-2.2-.231-3.7-1.389-5.9-3.009a48.354,48.354,0,0,0-4.4-2.893,62.1,62.1,0,0,1-8.448-6.017c-2.314-1.157-4.86-2.083-7.29-3.24-2.2-1.041-4.05-2.662-6.365-3.587a22.65,22.65,0,0,0-6.827-1.62,34.1,34.1,0,0,0-4.86-.116,9.955,9.955,0,0,0-1.852.116H2.12c-.579,0-1.041.116-1.62.116v1.5c0,1.967,1.157,3.24,2.083,4.86A23.58,23.58,0,0,1,4.55,87.341c.463,2.43,0,4.629-2.314,5.439a4.354,4.354,0,0,1-.116,2.43.877.877,0,0,1-.231.463c-1.389,2.546-1.5,4.05.81,6.017h0C4.2,102.964,4.782,104.237,3.74,105.394Z" transform="translate(-0.5 11.294)"/>
              <path id="Path_238" data-name="Path 238" class="cls-3" d="M49.078,66.364a35.525,35.525,0,0,0-6.017-8.91,21,21,0,0,0-11.919-6.48,47.074,47.074,0,0,0-5.67-.579c-1.157-.116-2.314-.463-3.472-.694,1.157,2.43.694,5.092,1.736,7.753h0A6.648,6.648,0,0,1,25.472,60c1.041,3.124,3.819,5.323,6.133,7.638,4.629,4.629,9.026,9.836,16.085,9.952,1.157,0,2.314,0,3.472-.116C50.583,73.538,50.7,70.067,49.078,66.364Z" transform="translate(2.88 7.276)"/>
              <path id="Path_239" data-name="Path 239" class="cls-3" d="M38.156,28.681c-2.546-3.819-7.29-1.736-9.258,1.273a1.538,1.538,0,0,0-.347.81c-.347,1.273.231,2.43-.81,3.587a1.752,1.752,0,0,1-3.124-.231c-1.273,1.157-1.736,3.934-2.083,5.323s-1.5,4.745-.579,6.133a1.605,1.605,0,0,1-.231,2.2,2.135,2.135,0,0,1-1.389.579c-2.43.231.231,2.662,1.157,3.24,3.819.579,7.753,1.041,11.456,1.852h.116a11.292,11.292,0,0,1,.231-3.934,2.009,2.009,0,0,1,1.273-1.736,1.346,1.346,0,0,1,1.157.231,46.843,46.843,0,0,1-1.041-5.555,3.379,3.379,0,0,1-.231-1.041c0-.116-.116-.231-.116-.347,0-2.777-.347-5.555.231-8.216.116-.231.116-.463.231-.694A8.815,8.815,0,0,1,38.156,28.681Z" transform="translate(2.461 3.646)"/>
              <path id="Path_240" data-name="Path 240" class="cls-3" d="M14.495,55.64a16.953,16.953,0,0,0-7.406,6.133A7.878,7.878,0,0,0,5.7,66.286a10.934,10.934,0,0,0,1.62,4.976,11.119,11.119,0,0,1,1.5,6.6,28.938,28.938,0,0,1,6.133,1.273c2.43.694,4.282,2.2,6.48,3.472,1.62.926,3.356,1.62,5.092,2.43a15.262,15.262,0,0,1-2.662-5.092,31.5,31.5,0,0,0-2.083-6.365,14.188,14.188,0,0,1-1.967-6.133c-.463-4.4,1.041-8.795,2.777-12.845.231-.463.926-.694,1.157-.231.116.231.347.463.463.694-.116-.926-.231-1.736-.347-2.662A74.32,74.32,0,0,0,14.495,55.64Z" transform="translate(0.317 7.7)"/>
              <path id="Path_241" data-name="Path 241" class="cls-3" d="M52.74,47.618c.463-5.786,4.86-9.258,8.679-13.076q-.174,0-.347-.347c-.463-.81-3.587-.81-4.4-.926a2.038,2.038,0,0,1-1.5-1.041C54.013,32,52.856,31.533,51.7,31.3c-1.852-.231-2.314,3.124-2.662,4.282-.694,2.662-1.852,5.67-1.736,8.332v.347h0c.347,4.282,4.629,7.753,7.406,11.225C54.244,53.173,52.624,50.28,52.74,47.618Z" transform="translate(6.856 4.382)"/>
              <path id="Path_242" data-name="Path 242" class="cls-3" d="M107.324,45.7c.926-.579,1.273-2.314,1.5-3.24a8.983,8.983,0,0,0,.116-3.934,18.416,18.416,0,0,0-3.587-6.827c.116,1.273.116,2.662.116,3.934,0,1.157-.116,3.356-1.273,4.166a6.719,6.719,0,0,1,.116,4.745A8.581,8.581,0,0,1,107.324,45.7Z" transform="translate(15.802 4.446)"/>
              <path id="Path_243" data-name="Path 243" class="cls-3" d="M83.836,88.55c.81-.463,3.009-.579,5.207-.926,2.083-3.472-3.009-6.017-5.207-8.1-2.546-2.546-3.356-5.786-3.24-9.258a14.141,14.141,0,0,1,1.157-3.934c.81-2.314.347-4.86.579-7.29.347-4.166,2.546-8.1,3.009-12.266a.774.774,0,0,1,.81-.694,10.358,10.358,0,0,1,4.86,2.546c0-1.041.116-2.083.116-3.24,0-2.083.116-4.166,2.43-4.86,1.5-.463.463-2.43.463-3.356v-.579c-1.157-2.893-2.43-4.513-5.439-5.555a20.077,20.077,0,0,1-3.934-2.43c-2.546-1.62-4.86-2.314-7.406-.231-2.662,2.2-2.314,4.629-1.5,7.753.463,1.736-.579,3.934-2.314,2.662-1.5-1.041-2.083-3.587-4.05-3.934a9.443,9.443,0,0,0-9.258,2.777c-3.934,4.513-8.332,7.522-6.133,14.234,1.736,5.207,1.736,10.878,5.207,15.391,1.5,1.967,1.852,4.513,3.356,6.6,1.389,1.967,4.282,3.24,6.249,4.629,5.092,3.587,4.629,11.109,10.415,13.886A17.268,17.268,0,0,1,83.836,88.55Z" transform="translate(7.815 3.72)"/>
              <path id="Path_244" data-name="Path 244" class="cls-3" d="M46.365,29.452c.694-.694,1.389-1.389,1.967-2.083.926-.926,2.893-2.893.463-2.893-1.967,0-4.05,0-6.017-.116a1.314,1.314,0,0,1-.926-.347c-.81-.694-1.852,2.43-2.083,2.893a6.61,6.61,0,0,1-2.893,3.009,9.134,9.134,0,0,0-2.546,2.662c-1.157,2.314-1.041,5.092-.81,7.985,0,.116.116.116.116.231,0,.579.116,1.157.116,1.736.81,2.43,3.819,3.934,5.786,5.207a6.36,6.36,0,0,1,1.041.81,11.782,11.782,0,0,1,0-6.017c.694-2.662,3.587-4.282,3.7-7.175a.617.617,0,0,1,.81-.579,15.153,15.153,0,0,1,0-3.24A4.44,4.44,0,0,1,46.365,29.452Z" transform="translate(4.667 3.222)"/>
              <path id="Path_245" data-name="Path 245" class="cls-3" d="M45.053,97.575c.116,0,.231.116.463.116,1.273.231,2.777-.347,3.934-.579,3.009-.579,5.786.116,8.563,1.041a11.327,11.327,0,0,0,7.059.116c2.2-.81,3.819-2.662,5.9-3.819,3.934-2.083,8.563-1.852,12.035-4.976a.425.425,0,0,1,.347-.116l.347-.347a11.851,11.851,0,0,1-4.745-5.092.425.425,0,0,1-.347-.116c-5.439-3.934-11.456-3.934-17.821-4.86-3.356-.463-6.249-1.157-9.6-1.041a24.313,24.313,0,0,1-6.48-.116c-5.439-1.273-9.026-5.439-12.845-9.142-2.2-2.083-4.976-4.4-6.712-6.943-.81-1.157-.463-2.083-1.5-3.472-.231-.231-.347-.463-.579-.694q-.174,0-.347-.347c-.463-.463-1.041-.926-1.5-1.389A27.229,27.229,0,0,0,18.9,65.868c-.116,4.282,2.777,7.522,3.7,11.572a16.792,16.792,0,0,0,5.555,8.91h.116l.231.231a79.559,79.559,0,0,0,9.026,6.365c.926.579,1.967,1.273,2.893,1.967C42.044,95.839,43.317,97.112,45.053,97.575Z" transform="translate(2.392 8.235)"/>
              <path id="Path_246" data-name="Path 246" class="cls-3" d="M44.077,105.591a49.968,49.968,0,0,1-5.9-1.852c-3.356-1.041-5.439-1.852-8.679.463a12.649,12.649,0,0,1-1.736.926,9.069,9.069,0,0,1-1.62.579l-2.083.694c-3.24,1.157-6.017,2.546-9.258,3.124,2.662,1.157,4.976,2.893,7.638,4.166.116.116.231.116.463.231.463.231,1.041.463,1.5.694l2.777,1.041a1.969,1.969,0,0,1,.81.116.984.984,0,0,1,.579.347c.116,0,.116.116.231.116a.425.425,0,0,1,.347.116h0a26.852,26.852,0,0,0,4.4.81,8.759,8.759,0,0,0,1.736.116,24.9,24.9,0,0,0,4.976-.463c2.662-.579,5.207-1.389,7.753-1.852a6.773,6.773,0,0,1,1.5-.231,29.541,29.541,0,0,0,7.059-1.5,12.178,12.178,0,0,0,5.439-5.092,9.8,9.8,0,0,1,1.62-2.2,2.259,2.259,0,0,1-.81-.116c-4.4.81-8.448-.579-12.729-.463H49.4C47.549,105.476,45.929,105.939,44.077,105.591Z" transform="translate(1.748 15.609)"/>
              <path id="Path_247" data-name="Path 247" class="cls-3" d="M43.613,51.306c1.736-.81,4.513,2.314,5.555,3.24,2.546,1.967,5.207,3.124,7.638,5.092-.116-.463-.116-.926-.231-1.389-.116-.116-.231-.116-.347-.231-2.777-5.092-8.1-8.448-9.026-13.886-2.546-2.2-2.314-5.439-3.124-8.332a21.912,21.912,0,0,1-2.2,3.472c-2.083,3.009-1.157,5.786-.694,9.142h0a12.352,12.352,0,0,1,2.43,2.893Z" transform="translate(5.8 5.091)"/>
              <path id="Path_248" data-name="Path 248" class="cls-3" d="M62.56,70.283a25.1,25.1,0,0,1-1.736-4.05c-.694-1.62-2.083-2.662-2.893-4.166a17.8,17.8,0,0,1-.926-2.2C54,56.513,49.946,55.008,46.59,52.347c-.579-.463-1.041-.926-1.62-1.389-1.967-1.62-2.083,1.852-2.083,2.43-.116,1.967-1.389,3.472,0,5.439A.7.7,0,0,1,43,59.29a36.055,36.055,0,0,1,3.587,5.67c2.2,4.05,2.083,8.1,2.546,12.5h2.314c3.009.116,6.133,1.157,9.258,1.5,4.86.579,9.142,1.041,13.192,3.472-1.273-2.546-2.546-5.092-5.092-6.827C66.726,73.755,64.3,72.6,62.56,70.283Z" transform="translate(6.062 7.407)"/>
              <path id="Path_249" data-name="Path 249" class="cls-3" d="M37.224,53.709a22.39,22.39,0,0,1,4.166,3.24l.463.463a3.443,3.443,0,0,1,.579-1.736c.926-1.389.231-3.24,1.041-4.513-2.2-3.472-5.092-5.207-8.216-7.522A10.433,10.433,0,0,1,34.1,42.6a17.979,17.979,0,0,0,.579,2.662c.579,2.43,1.157,5.67,2.43,7.638A.73.73,0,0,1,37.224,53.709Z" transform="translate(4.782 6.16)"/>
              <path id="Path_250" data-name="Path 250" class="cls-3" d="M99.772,121.809c7.869-2.777,13.655-6.6,17.821-14h0c.231-.463.579-1.041.81-1.5v-.231h0c0-.116,0-.116.116-.116v-.116a5.031,5.031,0,0,1,.463-.81c.347-.694.579-1.389.926-2.083l.694-1.736c1.273-3.472,2.314-6.943,3.587-10.415.926-2.777,1.852-6.365-.231-8.795a15.883,15.883,0,0,0-2.546-2.314c-1.041-.926-2.777-.579-4.166-.579-.116.116-.116.347-.231.463a32.511,32.511,0,0,1-5.207,7.753c-2.2,2.43-4.745,4.513-7.175,6.712s-5.439,2.2-8.216,3.587c-1.736,1.967-2.2,4.4-2.893,6.827a14.457,14.457,0,0,1-3.819,6.017,14.784,14.784,0,0,1-3.7,2.777c0,.116-.116.116-.116.231-1.5,1.852-2.546,3.934-4.05,5.786a11.52,11.52,0,0,1-1.736,1.62V121c1.041,3.124,5.555,4.513,8.448,4.4C92.251,124.934,96.3,122.967,99.772,121.809Z" transform="translate(12.013 11.889)"/>
              <path id="Path_251" data-name="Path 251" class="cls-3" d="M45.383,140.448c-.116.463-.231.81-.347,1.273a39.368,39.368,0,0,0-.81,3.934,17.03,17.03,0,0,0-.116,4.166,4.16,4.16,0,0,0,.231,1.273c1.041,4.86,4.629,8.563,8.216,12.5.347.463.81.926,1.157,1.389v-1.5a25.435,25.435,0,0,1,.694-4.282c.116-.347.231-.81.347-1.157a20.412,20.412,0,0,1,1.967-4.282,7.025,7.025,0,0,1,.81-1.157,3.119,3.119,0,0,1,.81-.926l.694-.694a9.994,9.994,0,0,1,1.62-1.5c2.546-2.314,5.786-4.05,8.563-5.786.116-.116.347-.231.463-.347a6.459,6.459,0,0,0,.926-.579L72,142.068c.694-.347,1.273-.579,1.967-.926,2.43-1.041,4.976-1.967,7.406-3.009l.579-.579a.713.713,0,0,1,.81-.116,28.873,28.873,0,0,0,4.05-2.43c.463-.347.81-.694,1.273-1.041a28.033,28.033,0,0,0,7.869-13.308,10.341,10.341,0,0,1-4.976,0c-2.43-.694-5.439-2.314-6.48-4.86a10.565,10.565,0,0,1-1.5.926c-2.43,1.5-4.976,2.43-7.29,4.282a29.185,29.185,0,0,1-5.092,3.24,39.089,39.089,0,0,1-12.5,3.24,25.067,25.067,0,0,1-4.166-.116c-.116,0-.347.116-.463,0-1.273-.347-3.124,2.777-4.282,4.745l-.347.694c-.231.347-.347.694-.463.81a4.691,4.691,0,0,0-.579,1.041A24.691,24.691,0,0,0,45.383,140.448Z" transform="translate(6.344 17.667)"/>
              <path id="Path_252" data-name="Path 252" class="cls-3" d="M30.342,132.13a52.156,52.156,0,0,1-6.133-1.041c-1.852,2.777-.347,6.827,3.009,6.943h1.5a11.694,11.694,0,0,0,1.967-.347,37.6,37.6,0,0,0,4.282-1.273c.463-.116.81-.347,1.273-.463a58.483,58.483,0,0,0,6.133-2.777c.926-.463,1.852-.926,2.662-1.389,1.273-.694,2.43-1.389,3.7-2.083a36.839,36.839,0,0,1-9.952,2.43,43.4,43.4,0,0,1-6.712.231A8.931,8.931,0,0,0,30.342,132.13Z" transform="translate(3.101 19.852)"/>
              <path id="Path_253" data-name="Path 253" class="cls-3" d="M34.81,124.907h-1.62a53.82,53.82,0,0,0-8.563.926,26.436,26.436,0,0,1-9.026.347A36.274,36.274,0,0,0,32.032,131.5c.579,0,1.157.116,1.736.116a39.716,39.716,0,0,0,7.406-.347,37.993,37.993,0,0,0,13.192-4.513.425.425,0,0,1,.347-.116c.347-.347.579-.81.926-1.157a11.654,11.654,0,0,0-5.9.81.633.633,0,0,1-.926-.579,18.94,18.94,0,0,1-4.4-.463,4.111,4.111,0,0,0-1.157-.231C40.364,124.907,37.587,124.791,34.81,124.907Z" transform="translate(1.874 19.091)"/>
              <path id="Path_254" data-name="Path 254" class="cls-3" d="M123.878,106.741c1.273.116,2.43.347,3.7.463a32.492,32.492,0,0,0,4.745.116h.231a22.687,22.687,0,0,1,3.934.116,8.683,8.683,0,0,1,2.893,1.041,9.775,9.775,0,0,0,1.967.579c.231,0,.463.116.694.116a40.5,40.5,0,0,0,5.323-1.62c3.24-1.157,4.86-3.472,6.133-6.6a18.275,18.275,0,0,1,2.893-5.323c1.852-2.2,2.314-4.166,3.009-6.827q.868-3.3,1.736-7.29c.116-.463.231-1.041.347-1.62a17.97,17.97,0,0,1,.463-2.43,14.178,14.178,0,0,0,.231-2.2,25.384,25.384,0,0,0-.926-10.762,13.714,13.714,0,0,0-5.323-6.827c-.116,0-.116-.116-.231-.116-3.356-2.2-7.175-2.2-10.878-1.5a72.377,72.377,0,0,0-7.175,1.852,21.065,21.065,0,0,1-6.6.81,31.288,31.288,0,0,0-8.679,1.041h-.347c-.694,2.546-1.389,5.092-1.967,7.753a17.542,17.542,0,0,1-3.7,7.985v.231a3.706,3.706,0,0,1-1.157,2.2A13.572,13.572,0,0,0,113,81.4c2.314.116,3.472,0,5.555,1.852,2.083,1.967,3.24,3.587,3.24,6.48,0,3.124-1.5,6.249-2.546,9.142l-2.083,5.9a16.873,16.873,0,0,1-.81,2.2C118.323,106.047,121.679,106.51,123.878,106.741Z" transform="translate(17.185 8.211)"/>
              <path id="Path_255" data-name="Path 255" class="cls-3" d="M43.2,23.5c2.083,0,4.282,0,6.365.116a.774.774,0,0,1,.694.81,8.81,8.81,0,0,1-2.546,4.629,11.157,11.157,0,0,0-2.43,2.893,3.54,3.54,0,0,0-.347,1.967,20.485,20.485,0,0,1,.116,2.662.6.6,0,0,1-.231.463c.694,2.314.579,5.092,1.967,7.175a10.128,10.128,0,0,1,.231-1.852c.694-3.009,1.273-6.6,2.777-9.258,1.157-2.083,3.472-1.273,5.439-.694-.579-2.314-.347-4.86-.926-7.29a.85.85,0,0,1,.231-.694c1.389-1.157,3.472-1.157,5.555-1.273a45.67,45.67,0,0,0-4.282-1.967,10.03,10.03,0,0,0-4.629-.579C49.68,20.726,43.431,21.3,43.2,23.5Z" transform="translate(6.212 2.691)"/>
              <path id="Path_256" data-name="Path 256" class="cls-3" d="M77.243,13.523c-2.662-3.24-4.513-5.092-8.795-5.786-2.083-.347-4.166-.81-4.05,1.852.116,1.736.231,3.587.231,5.323v.926a21.681,21.681,0,0,1-1.041,4.745,1.241,1.241,0,0,1-.231.694,32.456,32.456,0,0,0-1.041,3.587c-.579,2.546-1.041,5.207-1.5,7.869a30.93,30.93,0,0,0,.116,4.629c2.662-1.273,7.175-1.389,9.142,0a6.239,6.239,0,0,1,1.62,1.852c1.5,1.736,1.62,1.041,1.273-.347-.116,0-.231-.116-.347-.231-1.736-1.852-1.967-3.587-1.041-6.017.579-1.5,1.273-2.893,1.736-4.4.579-1.967.926-3.587,2.314-5.207,1.736-1.967,4.745-2.662,2.777-6.017,0-.116-.116-.116-.116-.231A7.1,7.1,0,0,1,77.243,13.523Z" transform="translate(8.968 0.637)"/>
              <path id="Path_257" data-name="Path 257" class="cls-3" d="M76.655,1.847a7.975,7.975,0,0,1-.926-.347,13.288,13.288,0,0,1,.116,2.2C75.613,5.55,77,7.055,77.349,8.906c.347,1.5-.347,3.356-.463,4.86A4.747,4.747,0,0,0,77,15.039c.347,1.62,1.62,3.009,2.083,4.629a3.221,3.221,0,0,1-.81,2.662c-1.736,1.852-3.934,2.662-4.745,5.323-.579,2.2-2.2,4.86-2.43,7.406a9.381,9.381,0,0,1,1.157-2.083c2.546-3.7,6.249-3.934,9.836-1.852a34.4,34.4,0,0,0,6.48,3.356c1.852.579,2.893,2.777,3.587,4.629a2.214,2.214,0,0,0,.463-1.736c-.116-1.041-.463-2.546.926-2.893,2.083-.579,4.513.463,6.6.81s3.24.579,4.745,2.2a22.807,22.807,0,0,1,3.819,5.786c.579-.81.347-2.893.463-3.472a31.162,31.162,0,0,0-.347-4.629h0a6.6,6.6,0,0,0-2.546-1.273.686.686,0,0,1-.347-1.041v-.231c.463-1.041.694-2.314,1.967-2.314-.926-7.522-6.365-15.391-11.919-20.367l-.231-.231c-3.472-3.124-7.869-4.4-12.266-5.555a27.017,27.017,0,0,1-2.893-.81c-.231-.116-.463-.116-.694-.231A13.51,13.51,0,0,0,76.655,1.847Z" transform="translate(10.598 -0.301)"/>
              <path id="Path_258" data-name="Path 258" class="cls-3" d="M63.515,7.68c2.662-.926,5.555-.231,8.1.347s4.282,2.43,5.786,4.4a9.19,9.19,0,0,0-.694-5.786c-.116-.231-.231-.579-.347-.81h0C75.2,4.093,74.739,2.7,72.541,1.894,71.152,1.431,69.764,1.2,68.375.737c-2.546-.81-4.745.463-7.29.231C57.5.621,59.58,9.069,59.7,10.92c0,1.389-.116,2.662-.231,3.934a3.715,3.715,0,0,0,.231,1.967,9.591,9.591,0,0,0,3.124,3.7,12.207,12.207,0,0,0,.579-2.2c.116-.463.116-1.041.231-1.5.231-2.777-.347-5.786-.463-8.448C63.167,8.143,63.167,7.8,63.515,7.68Z" transform="translate(8.695 -0.464)"/>
              <path id="Path_259" data-name="Path 259" class="cls-3" d="M57.934,33.3A20.811,20.811,0,0,1,60.48,34c0-1.389-.231-2.662-.116-4.05A23.766,23.766,0,0,1,61.522,23.7a17.429,17.429,0,0,1-4.282.694c-.81.116-2.662,0-3.24.579.347-.231.463,2.43.579,2.662a17.662,17.662,0,0,0,.347,3.472C55.157,33.073,56.43,32.958,57.934,33.3Z" transform="translate(7.91 3.189)"/>
              <path id="Path_260" data-name="Path 260" class="cls-3" d="M124.21,32.822a27.062,27.062,0,0,0,1.62-6.712c.116-.81.116-1.736.231-2.546a29.5,29.5,0,0,0-.231-4.513h0c-.579-2.893-.694-5.9-1.5-8.795a11.424,11.424,0,0,0-2.2-4.629c-2.546-3.356-7.869-1.273-7.869,2.662,0,.926-.463,2.314-1.5,2.546h-.116c-2.2.231-3.124-.926-4.745-2.314-1.389-1.157-3.7-.347-5.092,0a8.654,8.654,0,0,0-5.9,3.819c4.282,5.092,7.985,11.225,8.679,17.589a10.981,10.981,0,0,1,3.934,2.546c2.083,1.852,3.819,4.05,6.017,5.67,1.5,1.041,2.777,1.967,4.05,2.893.231-.231.463-.579.694-.81a46.194,46.194,0,0,0,3.124-5.092A11.121,11.121,0,0,1,124.21,32.822Z" transform="translate(14.654 0.084)"/>
              <path id="Path_261" data-name="Path 261" class="cls-3" d="M109.775,37.059c1.62,3.934,3.009,9.142,2.662,13.424-.231,3.356-.463,5.9,1.157,9.026a18.294,18.294,0,0,1,1.5,6.6c.347,2.546,1.5,4.976,2.2,7.522a14.749,14.749,0,0,1,0,4.513c3.009-4.05,3.356-9.72,4.629-14.465.81-3.009,1.852-5.555,1.389-8.679-.347-2.662-.579-5.323-1.041-7.985a14.111,14.111,0,0,0-4.745-8.795c-1.967-1.62-4.4-2.546-6.133-4.4-1.5-1.62-6.943-8.332-8.795-5.207C106.187,30,108.386,33.471,109.775,37.059Z" transform="translate(15.55 3.832)"/>
              <path id="Path_262" data-name="Path 262" class="cls-3" d="M124.1,22.5a33.48,33.48,0,0,1-2.43,9.6c-.347.694-.579,1.273-.926,1.967a31.786,31.786,0,0,1-3.009,4.629c-.116.116-.231.231-.231.347a12.809,12.809,0,0,1,2.546,3.356,23.184,23.184,0,0,1,1.157,3.009c.231-.579.347-1.273.579-1.852l1.389-4.513a15.416,15.416,0,0,0,.579-2.2,34.233,34.233,0,0,0,1.273-9.836C124.675,25.509,124.443,24,124.1,22.5Z" transform="translate(17.892 3)"/>
              <path id="Path_263" data-name="Path 263" class="cls-3" d="M144.738,58.933c8.795-8.216,14.581-20.482,13.886-32.633-.116.116-.231.347-.347.463a.726.726,0,0,1-.926.231c-1.736-1.041-2.662-.579-4.282.116a9.5,9.5,0,0,1-4.05.231c-4.4-.347-7.753,4.282-10.531,7.175-3.7,3.934-6.48,8.563-9.6,12.961a60.036,60.036,0,0,1-6.48,7.869.425.425,0,0,1-.347.116,10.153,10.153,0,0,1-.231,4.166c-.347,1.157-.579,2.2-.926,3.356,5.9-1.273,11.688-.81,17.474-2.43,1.041-.231,2.083-.579,3.124-.81a29.6,29.6,0,0,1,3.124-.579A.4.4,0,0,1,144.738,58.933Z" transform="translate(18.427 3.597)"/>
              <path id="Path_264" data-name="Path 264" class="cls-3" d="M89.07,49.949a.757.757,0,0,1-1.041.926c-1.157-.81-4.513-4.513-5.092-1.852a42.594,42.594,0,0,1-1.852,6.249,24.681,24.681,0,0,0-1.041,8.216c0,2.43-1.157,4.513-1.62,6.943-1.157,5.786,3.7,8.679,7.175,12.035,1.62,1.62,2.2,3.124,1.5,4.976,2.314-.579,4.166-1.389,3.24-3.356-.579-1.273-.116-3.009-.231-4.282-.116-2.083-.81-4.05-.694-6.249.116-2.546,1.967-4.745,3.934-6.365,4.282-3.472,11.225-4.282,15.738-.694a.6.6,0,0,1,.231.463,1.278,1.278,0,0,1,.926,0s3.124,1.041,2.662.231c-.926-1.736-1.967-3.356-3.009-5.092a24.265,24.265,0,0,0-8.448-7.985c-.463-.231-.347-.81,0-1.157a5.375,5.375,0,0,1,2.314-1.5c2.083-.81,1.852-2.546,1.967-4.282a1.876,1.876,0,0,1,1.389-1.852c1.736-3.472-3.124-11.8-6.48-12.382-1.273-.231-2.43-.231-3.7-.579-2.083-.463-3.934-1.157-3.7,1.5a3.734,3.734,0,0,1-.926,2.43c-1.041,1.62.347,2.777-.231,4.4-.463,1.273-2.314,1.041-2.893,2.2A18.04,18.04,0,0,0,89.07,49.949Z" transform="translate(11.722 4.481)"/>
            </g>
          </g>
        </g>
        <g id="Group_188" data-name="Group 188" class="cls-5">
          <g id="Group_185" data-name="Group 185">
            <g id="Group_184" data-name="Group 184">
              <path id="Path_265" data-name="Path 265" class="cls-3" d="M88.271,109.7a5.644,5.644,0,0,1-.81.347c-2.662,1.157-4.629,2.314-7.638,2.546a38.978,38.978,0,0,0-8.91,1.62c-3.124,1.157-6.133,2.546-9.142,3.934-3.356,1.5-6.133,3.7-9.142,5.786A45.9,45.9,0,0,1,48,126.479a33.378,33.378,0,0,1,4.745.231,33.249,33.249,0,0,0,13.424-1.62c4.282-1.389,7.059-4.282,10.878-6.48,2.662-1.5,5.323-2.546,7.638-4.4C86.3,113.056,87.229,111.32,88.271,109.7Z" transform="translate(6.967 16.708)"/>
              <path id="Path_266" data-name="Path 266" class="cls-3" d="M56.846,121.3a8.63,8.63,0,0,1,1.389-.81c5.207-2.893,11.456-5.9,17.242-6.943,3.009-.579,5.786-.116,8.679-1.273a38.134,38.134,0,0,0,9.026-4.976c3.472-2.662,3.934-6.827,5.439-10.3a8.925,8.925,0,0,1-3.24.694,27.857,27.857,0,0,0-7.638,1.389c-3.356,1.041-6.017,1.273-8.679,3.934-2.314,2.2-3.934,4.976-6.48,7.059-2.2,1.967-5.092,3.009-7.29,4.976-1.62,1.62-3.124,1.852-5.323,1.967-2.43.231-2.083,1.736-4.513.579-2.662-1.273-6.365.347-9.258,1.157,2.777,2.083,7.29,3.587,10.646,2.546Z" transform="translate(6.684 14.711)"/>
              <path id="Path_267" data-name="Path 267" class="cls-3" d="M78.963,106.365a10.2,10.2,0,0,1,4.282-2.314c2.2-.579,4.513-1.273,6.712-1.852,3.009-.81,6.249.579,8.795-1.736a.7.7,0,0,1,.463-.116c.116-.116.231-.231.231-.347v-.116a7.664,7.664,0,0,1,1.736-2.546c1.5-1.736,1.157-3.7.81-5.786a23.389,23.389,0,0,1,.116-7.522c.926-6.017,4.166-10.646,6.6-15.969.579-1.389,1.852-4.513,3.472-5.9-3.356-2.546-7.638-2.314-11.341-.694C96.206,63.433,94.354,67.252,95.28,72a13.821,13.821,0,0,1,.347,4.86c-.231,1.852.926,2.314.231,4.166-1.041,2.43-4.976,2.546-7.175,2.777-10.415,1.157-12.266,14.581-20.83,18.978-1.62.81-2.662,2.2-4.282,3.24a23.328,23.328,0,0,1-4.745,1.736c-2.893.81-5.439.463-7.406-1.62-.81,1.5,1.62,3.819,2.893,4.4a6.981,6.981,0,0,0,2.2.694c.347,0,.579-.116.926-.116a.562.562,0,0,1,.694.347,39.228,39.228,0,0,0,5.323-.231c5.323-.694,10.531-2.893,15.507-4.86Z" transform="translate(7.479 8.934)"/>
              <path id="Path_268" data-name="Path 268" class="cls-3" d="M117.2,71.195c-.231-2.2-1.5-4.282-2.083-6.48-.579-2.546-.463-4.86-1.62-7.29a14.915,14.915,0,0,1-1.62-5.323h0a12.749,12.749,0,0,0-2.777-6.249c-.463-.579-5.092-3.24-4.86-.926a3.331,3.331,0,0,1,.116,1.5c-.231,2.893-2.314,2.893-4.166,4.166,5.555,3.24,8.563,8.563,11.688,14.118a.716.716,0,0,1-.231.81c-2.43,1.967-4.4-1.389-6.6,1.5a27.846,27.846,0,0,0-2.546,4.86c-1.041,2.2-2.546,4.166-3.472,6.48A28.954,28.954,0,0,0,96.141,92.95a34.528,34.528,0,0,1,.463,4.86,6.952,6.952,0,0,1-1.5,3.24c2.083-.694,4.282-1.157,6.133-2.662A75.493,75.493,0,0,0,107.6,92.6a31.949,31.949,0,0,0,6.133-9.026c.926-1.852,2.662-3.7,3.472-5.555a.884.884,0,0,1-.231-.579C116.971,75.361,117.434,73.278,117.2,71.195Z" transform="translate(14.371 6.379)"/>
              <path id="Path_269" data-name="Path 269" class="cls-3" d="M33.1,118.679a8.759,8.759,0,0,1-1.736-.116c-.694-.116-1.273-.116-1.967-.231.694.694,1.389,1.5,2.083,2.314.579.694,1.157,1.273,1.736,1.967a10.992,10.992,0,0,0,2.2,1.852,19.608,19.608,0,0,0,5.67,2.662h.579a.6.6,0,0,1,.463.231,1.97,1.97,0,0,0,.81.116,15.09,15.09,0,0,0,5.092.231h0a52.809,52.809,0,0,1,5.092-2.777,34.739,34.739,0,0,0,4.282-2.893,16.282,16.282,0,0,1-10.531-4.282.358.358,0,0,1-.116-.231.867.867,0,0,1,.116-.579,1.6,1.6,0,0,1,.463-.347c2.43-.463,4.745-1.273,7.175-1.736,1.62-.347,5.323,1.157,6.365.231a3.118,3.118,0,0,1,1.736-.579c1.852-.231,3.24-.347,4.745-1.736a80.808,80.808,0,0,1,7.29-4.976c2.314-1.62,3.934-3.819,5.67-5.9-5.439,2.083-10.993,3.7-16.664,3.819q0,.174-.347.347c-1.5.694-2.662,3.356-3.587,4.629a13.135,13.135,0,0,1-4.513,3.472,18.294,18.294,0,0,1-6.6,1.5,4.921,4.921,0,0,0-1.273.231q-3.819.694-7.638,1.736A15.909,15.909,0,0,1,33.1,118.679Z" transform="translate(4.043 15.482)"/>
              <path id="Path_270" data-name="Path 270" class="cls-3" d="M3.74,105.394c1.389,1.389,3.356,1.62,5.092,2.546,2.314,1.157,3.356,3.934,5.9,4.745,4.629-.231,8.563-2.546,12.961-3.934.116,0,.347-.116.463-.116.579-.231,1.157-.463,1.62-.694,2.777-1.273,4.745-3.009,8.216-2.083,1.967.463,3.819,1.273,5.67,1.852a15.541,15.541,0,0,0,7.638.579,2.259,2.259,0,0,0,.81-.116c3.124-.231,6.017.579,9.026.694-2.662-1.62-4.976-4.629-2.2-6.827a.743.743,0,0,1,1.041.116c2.893,4.05,9.6,1.62,12.613-1.157,1.5-1.389,3.356-2.2,4.976-3.356,2.2-1.5,3.472-4.513,4.976-6.712a16.558,16.558,0,0,1,1.273-1.736c-3.356,1.5-7.059,1.736-10.3,3.819-3.472,2.2-6.017,4.282-10.3,3.934a22.59,22.59,0,0,1-4.629-1.157,14.267,14.267,0,0,0-7.638-.116,5.906,5.906,0,0,1-2.43.116c-2.2-.231-3.7-1.389-5.9-3.009a48.354,48.354,0,0,0-4.4-2.893,62.1,62.1,0,0,1-8.448-6.017c-2.314-1.157-4.86-2.083-7.29-3.24-2.2-1.041-4.05-2.662-6.365-3.587a22.65,22.65,0,0,0-6.827-1.62,34.1,34.1,0,0,0-4.86-.116,9.955,9.955,0,0,0-1.852.116H2.12c-.579,0-1.041.116-1.62.116v1.5c0,1.967,1.157,3.24,2.083,4.86A23.58,23.58,0,0,1,4.55,87.341c.463,2.43,0,4.629-2.314,5.439a4.354,4.354,0,0,1-.116,2.43.877.877,0,0,1-.231.463c-1.389,2.546-1.5,4.05.81,6.017h0C4.2,102.964,4.782,104.237,3.74,105.394Z" transform="translate(-0.5 11.294)"/>
              <path id="Path_271" data-name="Path 271" class="cls-3" d="M49.078,66.364a35.525,35.525,0,0,0-6.017-8.91,21,21,0,0,0-11.919-6.48,47.074,47.074,0,0,0-5.67-.579c-1.157-.116-2.314-.463-3.472-.694,1.157,2.43.694,5.092,1.736,7.753h0A6.648,6.648,0,0,1,25.472,60c1.041,3.124,3.819,5.323,6.133,7.638,4.629,4.629,9.026,9.836,16.085,9.952,1.157,0,2.314,0,3.472-.116C50.583,73.538,50.7,70.067,49.078,66.364Z" transform="translate(2.88 7.276)"/>
              <path id="Path_272" data-name="Path 272" class="cls-3" d="M38.156,28.681c-2.546-3.819-7.29-1.736-9.258,1.273a1.538,1.538,0,0,0-.347.81c-.347,1.273.231,2.43-.81,3.587a1.752,1.752,0,0,1-3.124-.231c-1.273,1.157-1.736,3.934-2.083,5.323s-1.5,4.745-.579,6.133a1.605,1.605,0,0,1-.231,2.2,2.135,2.135,0,0,1-1.389.579c-2.43.231.231,2.662,1.157,3.24,3.819.579,7.753,1.041,11.456,1.852h.116a11.292,11.292,0,0,1,.231-3.934,2.009,2.009,0,0,1,1.273-1.736,1.346,1.346,0,0,1,1.157.231,46.843,46.843,0,0,1-1.041-5.555,3.379,3.379,0,0,1-.231-1.041c0-.116-.116-.231-.116-.347,0-2.777-.347-5.555.231-8.216.116-.231.116-.463.231-.694A8.815,8.815,0,0,1,38.156,28.681Z" transform="translate(2.461 3.646)"/>
              <path id="Path_273" data-name="Path 273" class="cls-3" d="M14.495,55.64a16.953,16.953,0,0,0-7.406,6.133A7.878,7.878,0,0,0,5.7,66.286a10.934,10.934,0,0,0,1.62,4.976,11.119,11.119,0,0,1,1.5,6.6,28.938,28.938,0,0,1,6.133,1.273c2.43.694,4.282,2.2,6.48,3.472,1.62.926,3.356,1.62,5.092,2.43a15.262,15.262,0,0,1-2.662-5.092,31.5,31.5,0,0,0-2.083-6.365,14.188,14.188,0,0,1-1.967-6.133c-.463-4.4,1.041-8.795,2.777-12.845.231-.463.926-.694,1.157-.231.116.231.347.463.463.694-.116-.926-.231-1.736-.347-2.662A74.32,74.32,0,0,0,14.495,55.64Z" transform="translate(0.317 7.7)"/>
              <path id="Path_274" data-name="Path 274" class="cls-3" d="M52.74,47.618c.463-5.786,4.86-9.258,8.679-13.076q-.174,0-.347-.347c-.463-.81-3.587-.81-4.4-.926a2.038,2.038,0,0,1-1.5-1.041C54.013,32,52.856,31.533,51.7,31.3c-1.852-.231-2.314,3.124-2.662,4.282-.694,2.662-1.852,5.67-1.736,8.332v.347h0c.347,4.282,4.629,7.753,7.406,11.225C54.244,53.173,52.624,50.28,52.74,47.618Z" transform="translate(6.856 4.382)"/>
              <path id="Path_275" data-name="Path 275" class="cls-3" d="M107.324,45.7c.926-.579,1.273-2.314,1.5-3.24a8.983,8.983,0,0,0,.116-3.934,18.416,18.416,0,0,0-3.587-6.827c.116,1.273.116,2.662.116,3.934,0,1.157-.116,3.356-1.273,4.166a6.719,6.719,0,0,1,.116,4.745A8.581,8.581,0,0,1,107.324,45.7Z" transform="translate(15.802 4.446)"/>
              <path id="Path_276" data-name="Path 276" class="cls-3" d="M83.836,88.55c.81-.463,3.009-.579,5.207-.926,2.083-3.472-3.009-6.017-5.207-8.1-2.546-2.546-3.356-5.786-3.24-9.258a14.141,14.141,0,0,1,1.157-3.934c.81-2.314.347-4.86.579-7.29.347-4.166,2.546-8.1,3.009-12.266a.774.774,0,0,1,.81-.694,10.358,10.358,0,0,1,4.86,2.546c0-1.041.116-2.083.116-3.24,0-2.083.116-4.166,2.43-4.86,1.5-.463.463-2.43.463-3.356v-.579c-1.157-2.893-2.43-4.513-5.439-5.555a20.077,20.077,0,0,1-3.934-2.43c-2.546-1.62-4.86-2.314-7.406-.231-2.662,2.2-2.314,4.629-1.5,7.753.463,1.736-.579,3.934-2.314,2.662-1.5-1.041-2.083-3.587-4.05-3.934a9.443,9.443,0,0,0-9.258,2.777c-3.934,4.513-8.332,7.522-6.133,14.234,1.736,5.207,1.736,10.878,5.207,15.391,1.5,1.967,1.852,4.513,3.356,6.6,1.389,1.967,4.282,3.24,6.249,4.629,5.092,3.587,4.629,11.109,10.415,13.886A17.268,17.268,0,0,1,83.836,88.55Z" transform="translate(7.815 3.72)"/>
              <path id="Path_277" data-name="Path 277" class="cls-3" d="M46.365,29.452c.694-.694,1.389-1.389,1.967-2.083.926-.926,2.893-2.893.463-2.893-1.967,0-4.05,0-6.017-.116a1.314,1.314,0,0,1-.926-.347c-.81-.694-1.852,2.43-2.083,2.893a6.61,6.61,0,0,1-2.893,3.009,9.134,9.134,0,0,0-2.546,2.662c-1.157,2.314-1.041,5.092-.81,7.985,0,.116.116.116.116.231,0,.579.116,1.157.116,1.736.81,2.43,3.819,3.934,5.786,5.207a6.36,6.36,0,0,1,1.041.81,11.782,11.782,0,0,1,0-6.017c.694-2.662,3.587-4.282,3.7-7.175a.617.617,0,0,1,.81-.579,15.153,15.153,0,0,1,0-3.24A4.44,4.44,0,0,1,46.365,29.452Z" transform="translate(4.667 3.222)"/>
              <path id="Path_278" data-name="Path 278" class="cls-3" d="M45.053,97.575c.116,0,.231.116.463.116,1.273.231,2.777-.347,3.934-.579,3.009-.579,5.786.116,8.563,1.041a11.327,11.327,0,0,0,7.059.116c2.2-.81,3.819-2.662,5.9-3.819,3.934-2.083,8.563-1.852,12.035-4.976a.425.425,0,0,1,.347-.116l.347-.347a11.851,11.851,0,0,1-4.745-5.092.425.425,0,0,1-.347-.116c-5.439-3.934-11.456-3.934-17.821-4.86-3.356-.463-6.249-1.157-9.6-1.041a24.313,24.313,0,0,1-6.48-.116c-5.439-1.273-9.026-5.439-12.845-9.142-2.2-2.083-4.976-4.4-6.712-6.943-.81-1.157-.463-2.083-1.5-3.472-.231-.231-.347-.463-.579-.694q-.174,0-.347-.347c-.463-.463-1.041-.926-1.5-1.389A27.229,27.229,0,0,0,18.9,65.868c-.116,4.282,2.777,7.522,3.7,11.572a16.792,16.792,0,0,0,5.555,8.91h.116l.231.231a79.559,79.559,0,0,0,9.026,6.365c.926.579,1.967,1.273,2.893,1.967C42.044,95.839,43.317,97.112,45.053,97.575Z" transform="translate(2.392 8.235)"/>
              <path id="Path_279" data-name="Path 279" class="cls-3" d="M44.077,105.591a49.968,49.968,0,0,1-5.9-1.852c-3.356-1.041-5.439-1.852-8.679.463a12.649,12.649,0,0,1-1.736.926,9.069,9.069,0,0,1-1.62.579l-2.083.694c-3.24,1.157-6.017,2.546-9.258,3.124,2.662,1.157,4.976,2.893,7.638,4.166.116.116.231.116.463.231.463.231,1.041.463,1.5.694l2.777,1.041a1.969,1.969,0,0,1,.81.116.984.984,0,0,1,.579.347c.116,0,.116.116.231.116a.425.425,0,0,1,.347.116h0a26.852,26.852,0,0,0,4.4.81,8.759,8.759,0,0,0,1.736.116,24.9,24.9,0,0,0,4.976-.463c2.662-.579,5.207-1.389,7.753-1.852a6.773,6.773,0,0,1,1.5-.231,29.541,29.541,0,0,0,7.059-1.5,12.178,12.178,0,0,0,5.439-5.092,9.8,9.8,0,0,1,1.62-2.2,2.259,2.259,0,0,1-.81-.116c-4.4.81-8.448-.579-12.729-.463H49.4C47.549,105.476,45.929,105.939,44.077,105.591Z" transform="translate(1.748 15.609)"/>
              <path id="Path_280" data-name="Path 280" class="cls-3" d="M43.613,51.306c1.736-.81,4.513,2.314,5.555,3.24,2.546,1.967,5.207,3.124,7.638,5.092-.116-.463-.116-.926-.231-1.389-.116-.116-.231-.116-.347-.231-2.777-5.092-8.1-8.448-9.026-13.886-2.546-2.2-2.314-5.439-3.124-8.332a21.912,21.912,0,0,1-2.2,3.472c-2.083,3.009-1.157,5.786-.694,9.142h0a12.352,12.352,0,0,1,2.43,2.893Z" transform="translate(5.8 5.091)"/>
              <path id="Path_281" data-name="Path 281" class="cls-3" d="M62.56,70.283a25.1,25.1,0,0,1-1.736-4.05c-.694-1.62-2.083-2.662-2.893-4.166a17.8,17.8,0,0,1-.926-2.2C54,56.513,49.946,55.008,46.59,52.347c-.579-.463-1.041-.926-1.62-1.389-1.967-1.62-2.083,1.852-2.083,2.43-.116,1.967-1.389,3.472,0,5.439A.7.7,0,0,1,43,59.29a36.055,36.055,0,0,1,3.587,5.67c2.2,4.05,2.083,8.1,2.546,12.5h2.314c3.009.116,6.133,1.157,9.258,1.5,4.86.579,9.142,1.041,13.192,3.472-1.273-2.546-2.546-5.092-5.092-6.827C66.726,73.755,64.3,72.6,62.56,70.283Z" transform="translate(6.062 7.407)"/>
              <path id="Path_282" data-name="Path 282" class="cls-3" d="M37.224,53.709a22.39,22.39,0,0,1,4.166,3.24l.463.463a3.443,3.443,0,0,1,.579-1.736c.926-1.389.231-3.24,1.041-4.513-2.2-3.472-5.092-5.207-8.216-7.522A10.433,10.433,0,0,1,34.1,42.6a17.979,17.979,0,0,0,.579,2.662c.579,2.43,1.157,5.67,2.43,7.638A.73.73,0,0,1,37.224,53.709Z" transform="translate(4.782 6.16)"/>
              <path id="Path_283" data-name="Path 283" class="cls-3" d="M99.772,121.809c7.869-2.777,13.655-6.6,17.821-14h0c.231-.463.579-1.041.81-1.5v-.231h0c0-.116,0-.116.116-.116v-.116a5.031,5.031,0,0,1,.463-.81c.347-.694.579-1.389.926-2.083l.694-1.736c1.273-3.472,2.314-6.943,3.587-10.415.926-2.777,1.852-6.365-.231-8.795a15.883,15.883,0,0,0-2.546-2.314c-1.041-.926-2.777-.579-4.166-.579-.116.116-.116.347-.231.463a32.511,32.511,0,0,1-5.207,7.753c-2.2,2.43-4.745,4.513-7.175,6.712s-5.439,2.2-8.216,3.587c-1.736,1.967-2.2,4.4-2.893,6.827a14.457,14.457,0,0,1-3.819,6.017,14.784,14.784,0,0,1-3.7,2.777c0,.116-.116.116-.116.231-1.5,1.852-2.546,3.934-4.05,5.786a11.52,11.52,0,0,1-1.736,1.62V121c1.041,3.124,5.555,4.513,8.448,4.4C92.251,124.934,96.3,122.967,99.772,121.809Z" transform="translate(12.013 11.889)"/>
              <path id="Path_284" data-name="Path 284" class="cls-3" d="M45.383,140.448c-.116.463-.231.81-.347,1.273a39.368,39.368,0,0,0-.81,3.934,17.03,17.03,0,0,0-.116,4.166,4.16,4.16,0,0,0,.231,1.273c1.041,4.86,4.629,8.563,8.216,12.5.347.463.81.926,1.157,1.389v-1.5a25.435,25.435,0,0,1,.694-4.282c.116-.347.231-.81.347-1.157a20.412,20.412,0,0,1,1.967-4.282,7.025,7.025,0,0,1,.81-1.157,3.119,3.119,0,0,1,.81-.926l.694-.694a9.994,9.994,0,0,1,1.62-1.5c2.546-2.314,5.786-4.05,8.563-5.786.116-.116.347-.231.463-.347a6.459,6.459,0,0,0,.926-.579L72,142.068c.694-.347,1.273-.579,1.967-.926,2.43-1.041,4.976-1.967,7.406-3.009l.579-.579a.713.713,0,0,1,.81-.116,28.873,28.873,0,0,0,4.05-2.43c.463-.347.81-.694,1.273-1.041a28.033,28.033,0,0,0,7.869-13.308,10.341,10.341,0,0,1-4.976,0c-2.43-.694-5.439-2.314-6.48-4.86a10.565,10.565,0,0,1-1.5.926c-2.43,1.5-4.976,2.43-7.29,4.282a29.185,29.185,0,0,1-5.092,3.24,39.089,39.089,0,0,1-12.5,3.24,25.067,25.067,0,0,1-4.166-.116c-.116,0-.347.116-.463,0-1.273-.347-3.124,2.777-4.282,4.745l-.347.694c-.231.347-.347.694-.463.81a4.691,4.691,0,0,0-.579,1.041A24.691,24.691,0,0,0,45.383,140.448Z" transform="translate(6.344 17.667)"/>
              <path id="Path_285" data-name="Path 285" class="cls-3" d="M30.342,132.13a52.156,52.156,0,0,1-6.133-1.041c-1.852,2.777-.347,6.827,3.009,6.943h1.5a11.694,11.694,0,0,0,1.967-.347,37.6,37.6,0,0,0,4.282-1.273c.463-.116.81-.347,1.273-.463a58.483,58.483,0,0,0,6.133-2.777c.926-.463,1.852-.926,2.662-1.389,1.273-.694,2.43-1.389,3.7-2.083a36.839,36.839,0,0,1-9.952,2.43,43.4,43.4,0,0,1-6.712.231A8.931,8.931,0,0,0,30.342,132.13Z" transform="translate(3.101 19.852)"/>
              <path id="Path_286" data-name="Path 286" class="cls-3" d="M34.81,124.907h-1.62a53.82,53.82,0,0,0-8.563.926,26.436,26.436,0,0,1-9.026.347A36.274,36.274,0,0,0,32.032,131.5c.579,0,1.157.116,1.736.116a39.716,39.716,0,0,0,7.406-.347,37.993,37.993,0,0,0,13.192-4.513.425.425,0,0,1,.347-.116c.347-.347.579-.81.926-1.157a11.654,11.654,0,0,0-5.9.81.633.633,0,0,1-.926-.579,18.94,18.94,0,0,1-4.4-.463,4.111,4.111,0,0,0-1.157-.231C40.364,124.907,37.587,124.791,34.81,124.907Z" transform="translate(1.874 19.091)"/>
              <path id="Path_287" data-name="Path 287" class="cls-3" d="M123.878,106.741c1.273.116,2.43.347,3.7.463a32.492,32.492,0,0,0,4.745.116h.231a22.687,22.687,0,0,1,3.934.116,8.683,8.683,0,0,1,2.893,1.041,9.775,9.775,0,0,0,1.967.579c.231,0,.463.116.694.116a40.5,40.5,0,0,0,5.323-1.62c3.24-1.157,4.86-3.472,6.133-6.6a18.275,18.275,0,0,1,2.893-5.323c1.852-2.2,2.314-4.166,3.009-6.827q.868-3.3,1.736-7.29c.116-.463.231-1.041.347-1.62a17.97,17.97,0,0,1,.463-2.43,14.178,14.178,0,0,0,.231-2.2,25.384,25.384,0,0,0-.926-10.762,13.714,13.714,0,0,0-5.323-6.827c-.116,0-.116-.116-.231-.116-3.356-2.2-7.175-2.2-10.878-1.5a72.377,72.377,0,0,0-7.175,1.852,21.065,21.065,0,0,1-6.6.81,31.288,31.288,0,0,0-8.679,1.041h-.347c-.694,2.546-1.389,5.092-1.967,7.753a17.542,17.542,0,0,1-3.7,7.985v.231a3.706,3.706,0,0,1-1.157,2.2A13.572,13.572,0,0,0,113,81.4c2.314.116,3.472,0,5.555,1.852,2.083,1.967,3.24,3.587,3.24,6.48,0,3.124-1.5,6.249-2.546,9.142l-2.083,5.9a16.873,16.873,0,0,1-.81,2.2C118.323,106.047,121.679,106.51,123.878,106.741Z" transform="translate(17.185 8.211)"/>
              <path id="Path_288" data-name="Path 288" class="cls-3" d="M43.2,23.5c2.083,0,4.282,0,6.365.116a.774.774,0,0,1,.694.81,8.81,8.81,0,0,1-2.546,4.629,11.157,11.157,0,0,0-2.43,2.893,3.54,3.54,0,0,0-.347,1.967,20.485,20.485,0,0,1,.116,2.662.6.6,0,0,1-.231.463c.694,2.314.579,5.092,1.967,7.175a10.128,10.128,0,0,1,.231-1.852c.694-3.009,1.273-6.6,2.777-9.258,1.157-2.083,3.472-1.273,5.439-.694-.579-2.314-.347-4.86-.926-7.29a.85.85,0,0,1,.231-.694c1.389-1.157,3.472-1.157,5.555-1.273a45.67,45.67,0,0,0-4.282-1.967,10.03,10.03,0,0,0-4.629-.579C49.68,20.726,43.431,21.3,43.2,23.5Z" transform="translate(6.212 2.691)"/>
              <path id="Path_289" data-name="Path 289" class="cls-3" d="M77.243,13.523c-2.662-3.24-4.513-5.092-8.795-5.786-2.083-.347-4.166-.81-4.05,1.852.116,1.736.231,3.587.231,5.323v.926a21.681,21.681,0,0,1-1.041,4.745,1.241,1.241,0,0,1-.231.694,32.456,32.456,0,0,0-1.041,3.587c-.579,2.546-1.041,5.207-1.5,7.869a30.93,30.93,0,0,0,.116,4.629c2.662-1.273,7.175-1.389,9.142,0a6.239,6.239,0,0,1,1.62,1.852c1.5,1.736,1.62,1.041,1.273-.347-.116,0-.231-.116-.347-.231-1.736-1.852-1.967-3.587-1.041-6.017.579-1.5,1.273-2.893,1.736-4.4.579-1.967.926-3.587,2.314-5.207,1.736-1.967,4.745-2.662,2.777-6.017,0-.116-.116-.116-.116-.231A7.1,7.1,0,0,1,77.243,13.523Z" transform="translate(8.968 0.637)"/>
              <path id="Path_290" data-name="Path 290" class="cls-3" d="M76.655,1.847a7.975,7.975,0,0,1-.926-.347,13.288,13.288,0,0,1,.116,2.2C75.613,5.55,77,7.055,77.349,8.906c.347,1.5-.347,3.356-.463,4.86A4.747,4.747,0,0,0,77,15.039c.347,1.62,1.62,3.009,2.083,4.629a3.221,3.221,0,0,1-.81,2.662c-1.736,1.852-3.934,2.662-4.745,5.323-.579,2.2-2.2,4.86-2.43,7.406a9.381,9.381,0,0,1,1.157-2.083c2.546-3.7,6.249-3.934,9.836-1.852a34.4,34.4,0,0,0,6.48,3.356c1.852.579,2.893,2.777,3.587,4.629a2.214,2.214,0,0,0,.463-1.736c-.116-1.041-.463-2.546.926-2.893,2.083-.579,4.513.463,6.6.81s3.24.579,4.745,2.2a22.807,22.807,0,0,1,3.819,5.786c.579-.81.347-2.893.463-3.472a31.162,31.162,0,0,0-.347-4.629h0a6.6,6.6,0,0,0-2.546-1.273.686.686,0,0,1-.347-1.041v-.231c.463-1.041.694-2.314,1.967-2.314-.926-7.522-6.365-15.391-11.919-20.367l-.231-.231c-3.472-3.124-7.869-4.4-12.266-5.555a27.017,27.017,0,0,1-2.893-.81c-.231-.116-.463-.116-.694-.231A13.51,13.51,0,0,0,76.655,1.847Z" transform="translate(10.598 -0.301)"/>
              <path id="Path_291" data-name="Path 291" class="cls-3" d="M63.515,7.68c2.662-.926,5.555-.231,8.1.347s4.282,2.43,5.786,4.4a9.19,9.19,0,0,0-.694-5.786c-.116-.231-.231-.579-.347-.81h0C75.2,4.093,74.739,2.7,72.541,1.894,71.152,1.431,69.764,1.2,68.375.737c-2.546-.81-4.745.463-7.29.231C57.5.621,59.58,9.069,59.7,10.92c0,1.389-.116,2.662-.231,3.934a3.715,3.715,0,0,0,.231,1.967,9.591,9.591,0,0,0,3.124,3.7,12.207,12.207,0,0,0,.579-2.2c.116-.463.116-1.041.231-1.5.231-2.777-.347-5.786-.463-8.448C63.167,8.143,63.167,7.8,63.515,7.68Z" transform="translate(8.695 -0.464)"/>
              <path id="Path_292" data-name="Path 292" class="cls-3" d="M57.934,33.3A20.811,20.811,0,0,1,60.48,34c0-1.389-.231-2.662-.116-4.05A23.766,23.766,0,0,1,61.522,23.7a17.429,17.429,0,0,1-4.282.694c-.81.116-2.662,0-3.24.579.347-.231.463,2.43.579,2.662a17.662,17.662,0,0,0,.347,3.472C55.157,33.073,56.43,32.958,57.934,33.3Z" transform="translate(7.91 3.189)"/>
              <path id="Path_293" data-name="Path 293" class="cls-3" d="M124.21,32.822a27.062,27.062,0,0,0,1.62-6.712c.116-.81.116-1.736.231-2.546a29.5,29.5,0,0,0-.231-4.513h0c-.579-2.893-.694-5.9-1.5-8.795a11.424,11.424,0,0,0-2.2-4.629c-2.546-3.356-7.869-1.273-7.869,2.662,0,.926-.463,2.314-1.5,2.546h-.116c-2.2.231-3.124-.926-4.745-2.314-1.389-1.157-3.7-.347-5.092,0a8.654,8.654,0,0,0-5.9,3.819c4.282,5.092,7.985,11.225,8.679,17.589a10.981,10.981,0,0,1,3.934,2.546c2.083,1.852,3.819,4.05,6.017,5.67,1.5,1.041,2.777,1.967,4.05,2.893.231-.231.463-.579.694-.81a46.194,46.194,0,0,0,3.124-5.092A11.121,11.121,0,0,1,124.21,32.822Z" transform="translate(14.654 0.084)"/>
              <path id="Path_294" data-name="Path 294" class="cls-3" d="M109.775,37.059c1.62,3.934,3.009,9.142,2.662,13.424-.231,3.356-.463,5.9,1.157,9.026a18.294,18.294,0,0,1,1.5,6.6c.347,2.546,1.5,4.976,2.2,7.522a14.749,14.749,0,0,1,0,4.513c3.009-4.05,3.356-9.72,4.629-14.465.81-3.009,1.852-5.555,1.389-8.679-.347-2.662-.579-5.323-1.041-7.985a14.111,14.111,0,0,0-4.745-8.795c-1.967-1.62-4.4-2.546-6.133-4.4-1.5-1.62-6.943-8.332-8.795-5.207C106.187,30,108.386,33.471,109.775,37.059Z" transform="translate(15.55 3.832)"/>
              <path id="Path_295" data-name="Path 295" class="cls-3" d="M124.1,22.5a33.48,33.48,0,0,1-2.43,9.6c-.347.694-.579,1.273-.926,1.967a31.786,31.786,0,0,1-3.009,4.629c-.116.116-.231.231-.231.347a12.809,12.809,0,0,1,2.546,3.356,23.184,23.184,0,0,1,1.157,3.009c.231-.579.347-1.273.579-1.852l1.389-4.513a15.416,15.416,0,0,0,.579-2.2,34.233,34.233,0,0,0,1.273-9.836C124.675,25.509,124.443,24,124.1,22.5Z" transform="translate(17.892 3)"/>
              <path id="Path_296" data-name="Path 296" class="cls-3" d="M144.738,58.933c8.795-8.216,14.581-20.482,13.886-32.633-.116.116-.231.347-.347.463a.726.726,0,0,1-.926.231c-1.736-1.041-2.662-.579-4.282.116a9.5,9.5,0,0,1-4.05.231c-4.4-.347-7.753,4.282-10.531,7.175-3.7,3.934-6.48,8.563-9.6,12.961a60.036,60.036,0,0,1-6.48,7.869.425.425,0,0,1-.347.116,10.153,10.153,0,0,1-.231,4.166c-.347,1.157-.579,2.2-.926,3.356,5.9-1.273,11.688-.81,17.474-2.43,1.041-.231,2.083-.579,3.124-.81a29.6,29.6,0,0,1,3.124-.579A.4.4,0,0,1,144.738,58.933Z" transform="translate(18.427 3.597)"/>
              <path id="Path_297" data-name="Path 297" class="cls-3" d="M89.07,49.949a.757.757,0,0,1-1.041.926c-1.157-.81-4.513-4.513-5.092-1.852a42.594,42.594,0,0,1-1.852,6.249,24.681,24.681,0,0,0-1.041,8.216c0,2.43-1.157,4.513-1.62,6.943-1.157,5.786,3.7,8.679,7.175,12.035,1.62,1.62,2.2,3.124,1.5,4.976,2.314-.579,4.166-1.389,3.24-3.356-.579-1.273-.116-3.009-.231-4.282-.116-2.083-.81-4.05-.694-6.249.116-2.546,1.967-4.745,3.934-6.365,4.282-3.472,11.225-4.282,15.738-.694a.6.6,0,0,1,.231.463,1.278,1.278,0,0,1,.926,0s3.124,1.041,2.662.231c-.926-1.736-1.967-3.356-3.009-5.092a24.265,24.265,0,0,0-8.448-7.985c-.463-.231-.347-.81,0-1.157a5.375,5.375,0,0,1,2.314-1.5c2.083-.81,1.852-2.546,1.967-4.282a1.876,1.876,0,0,1,1.389-1.852c1.736-3.472-3.124-11.8-6.48-12.382-1.273-.231-2.43-.231-3.7-.579-2.083-.463-3.934-1.157-3.7,1.5a3.734,3.734,0,0,1-.926,2.43c-1.041,1.62.347,2.777-.231,4.4-.463,1.273-2.314,1.041-2.893,2.2A18.04,18.04,0,0,0,89.07,49.949Z" transform="translate(11.722 4.481)"/>
            </g>
          </g>
          <g id="Group_187" data-name="Group 187" class="cls-4">
            <g id="Group_186" data-name="Group 186">
              <path id="Path_298" data-name="Path 298" class="cls-3" d="M88.271,109.7a5.644,5.644,0,0,1-.81.347c-2.662,1.157-4.629,2.314-7.638,2.546a38.978,38.978,0,0,0-8.91,1.62c-3.124,1.157-6.133,2.546-9.142,3.934-3.356,1.5-6.133,3.7-9.142,5.786A45.9,45.9,0,0,1,48,126.479a33.378,33.378,0,0,1,4.745.231,33.249,33.249,0,0,0,13.424-1.62c4.282-1.389,7.059-4.282,10.878-6.48,2.662-1.5,5.323-2.546,7.638-4.4C86.3,113.056,87.229,111.32,88.271,109.7Z" transform="translate(6.967 16.708)"/>
              <path id="Path_299" data-name="Path 299" class="cls-3" d="M56.846,121.3a8.63,8.63,0,0,1,1.389-.81c5.207-2.893,11.456-5.9,17.242-6.943,3.009-.579,5.786-.116,8.679-1.273a38.134,38.134,0,0,0,9.026-4.976c3.472-2.662,3.934-6.827,5.439-10.3a8.925,8.925,0,0,1-3.24.694,27.857,27.857,0,0,0-7.638,1.389c-3.356,1.041-6.017,1.273-8.679,3.934-2.314,2.2-3.934,4.976-6.48,7.059-2.2,1.967-5.092,3.009-7.29,4.976-1.62,1.62-3.124,1.852-5.323,1.967-2.43.231-2.083,1.736-4.513.579-2.662-1.273-6.365.347-9.258,1.157,2.777,2.083,7.29,3.587,10.646,2.546Z" transform="translate(6.684 14.711)"/>
              <path id="Path_300" data-name="Path 300" class="cls-3" d="M78.963,106.365a10.2,10.2,0,0,1,4.282-2.314c2.2-.579,4.513-1.273,6.712-1.852,3.009-.81,6.249.579,8.795-1.736a.7.7,0,0,1,.463-.116c.116-.116.231-.231.231-.347v-.116a7.664,7.664,0,0,1,1.736-2.546c1.5-1.736,1.157-3.7.81-5.786a23.389,23.389,0,0,1,.116-7.522c.926-6.017,4.166-10.646,6.6-15.969.579-1.389,1.852-4.513,3.472-5.9-3.356-2.546-7.638-2.314-11.341-.694C96.206,63.433,94.354,67.252,95.28,72a13.821,13.821,0,0,1,.347,4.86c-.231,1.852.926,2.314.231,4.166-1.041,2.43-4.976,2.546-7.175,2.777-10.415,1.157-12.266,14.581-20.83,18.978-1.62.81-2.662,2.2-4.282,3.24a23.328,23.328,0,0,1-4.745,1.736c-2.893.81-5.439.463-7.406-1.62-.81,1.5,1.62,3.819,2.893,4.4a6.981,6.981,0,0,0,2.2.694c.347,0,.579-.116.926-.116a.562.562,0,0,1,.694.347,39.228,39.228,0,0,0,5.323-.231c5.323-.694,10.531-2.893,15.507-4.86Z" transform="translate(7.479 8.934)"/>
              <path id="Path_301" data-name="Path 301" class="cls-3" d="M117.2,71.195c-.231-2.2-1.5-4.282-2.083-6.48-.579-2.546-.463-4.86-1.62-7.29a14.915,14.915,0,0,1-1.62-5.323h0a12.749,12.749,0,0,0-2.777-6.249c-.463-.579-5.092-3.24-4.86-.926a3.331,3.331,0,0,1,.116,1.5c-.231,2.893-2.314,2.893-4.166,4.166,5.555,3.24,8.563,8.563,11.688,14.118a.716.716,0,0,1-.231.81c-2.43,1.967-4.4-1.389-6.6,1.5a27.846,27.846,0,0,0-2.546,4.86c-1.041,2.2-2.546,4.166-3.472,6.48A28.954,28.954,0,0,0,96.141,92.95a34.528,34.528,0,0,1,.463,4.86,6.952,6.952,0,0,1-1.5,3.24c2.083-.694,4.282-1.157,6.133-2.662A75.493,75.493,0,0,0,107.6,92.6a31.949,31.949,0,0,0,6.133-9.026c.926-1.852,2.662-3.7,3.472-5.555a.884.884,0,0,1-.231-.579C116.971,75.361,117.434,73.278,117.2,71.195Z" transform="translate(14.371 6.379)"/>
              <path id="Path_302" data-name="Path 302" class="cls-3" d="M33.1,118.679a8.759,8.759,0,0,1-1.736-.116c-.694-.116-1.273-.116-1.967-.231.694.694,1.389,1.5,2.083,2.314.579.694,1.157,1.273,1.736,1.967a10.992,10.992,0,0,0,2.2,1.852,19.608,19.608,0,0,0,5.67,2.662h.579a.6.6,0,0,1,.463.231,1.97,1.97,0,0,0,.81.116,15.09,15.09,0,0,0,5.092.231h0a52.809,52.809,0,0,1,5.092-2.777,34.739,34.739,0,0,0,4.282-2.893,16.282,16.282,0,0,1-10.531-4.282.358.358,0,0,1-.116-.231.867.867,0,0,1,.116-.579,1.6,1.6,0,0,1,.463-.347c2.43-.463,4.745-1.273,7.175-1.736,1.62-.347,5.323,1.157,6.365.231a3.118,3.118,0,0,1,1.736-.579c1.852-.231,3.24-.347,4.745-1.736a80.808,80.808,0,0,1,7.29-4.976c2.314-1.62,3.934-3.819,5.67-5.9-5.439,2.083-10.993,3.7-16.664,3.819q0,.174-.347.347c-1.5.694-2.662,3.356-3.587,4.629a13.135,13.135,0,0,1-4.513,3.472,18.294,18.294,0,0,1-6.6,1.5,4.921,4.921,0,0,0-1.273.231q-3.819.694-7.638,1.736A15.909,15.909,0,0,1,33.1,118.679Z" transform="translate(4.043 15.482)"/>
              <path id="Path_303" data-name="Path 303" class="cls-3" d="M3.74,105.394c1.389,1.389,3.356,1.62,5.092,2.546,2.314,1.157,3.356,3.934,5.9,4.745,4.629-.231,8.563-2.546,12.961-3.934.116,0,.347-.116.463-.116.579-.231,1.157-.463,1.62-.694,2.777-1.273,4.745-3.009,8.216-2.083,1.967.463,3.819,1.273,5.67,1.852a15.541,15.541,0,0,0,7.638.579,2.259,2.259,0,0,0,.81-.116c3.124-.231,6.017.579,9.026.694-2.662-1.62-4.976-4.629-2.2-6.827a.743.743,0,0,1,1.041.116c2.893,4.05,9.6,1.62,12.613-1.157,1.5-1.389,3.356-2.2,4.976-3.356,2.2-1.5,3.472-4.513,4.976-6.712a16.558,16.558,0,0,1,1.273-1.736c-3.356,1.5-7.059,1.736-10.3,3.819-3.472,2.2-6.017,4.282-10.3,3.934a22.59,22.59,0,0,1-4.629-1.157,14.267,14.267,0,0,0-7.638-.116,5.906,5.906,0,0,1-2.43.116c-2.2-.231-3.7-1.389-5.9-3.009a48.354,48.354,0,0,0-4.4-2.893,62.1,62.1,0,0,1-8.448-6.017c-2.314-1.157-4.86-2.083-7.29-3.24-2.2-1.041-4.05-2.662-6.365-3.587a22.65,22.65,0,0,0-6.827-1.62,34.1,34.1,0,0,0-4.86-.116,9.955,9.955,0,0,0-1.852.116H2.12c-.579,0-1.041.116-1.62.116v1.5c0,1.967,1.157,3.24,2.083,4.86A23.58,23.58,0,0,1,4.55,87.341c.463,2.43,0,4.629-2.314,5.439a4.354,4.354,0,0,1-.116,2.43.877.877,0,0,1-.231.463c-1.389,2.546-1.5,4.05.81,6.017h0C4.2,102.964,4.782,104.237,3.74,105.394Z" transform="translate(-0.5 11.294)"/>
              <path id="Path_304" data-name="Path 304" class="cls-3" d="M49.078,66.364a35.525,35.525,0,0,0-6.017-8.91,21,21,0,0,0-11.919-6.48,47.074,47.074,0,0,0-5.67-.579c-1.157-.116-2.314-.463-3.472-.694,1.157,2.43.694,5.092,1.736,7.753h0A6.648,6.648,0,0,1,25.472,60c1.041,3.124,3.819,5.323,6.133,7.638,4.629,4.629,9.026,9.836,16.085,9.952,1.157,0,2.314,0,3.472-.116C50.583,73.538,50.7,70.067,49.078,66.364Z" transform="translate(2.88 7.276)"/>
              <path id="Path_305" data-name="Path 305" class="cls-3" d="M38.156,28.681c-2.546-3.819-7.29-1.736-9.258,1.273a1.538,1.538,0,0,0-.347.81c-.347,1.273.231,2.43-.81,3.587a1.752,1.752,0,0,1-3.124-.231c-1.273,1.157-1.736,3.934-2.083,5.323s-1.5,4.745-.579,6.133a1.605,1.605,0,0,1-.231,2.2,2.135,2.135,0,0,1-1.389.579c-2.43.231.231,2.662,1.157,3.24,3.819.579,7.753,1.041,11.456,1.852h.116a11.292,11.292,0,0,1,.231-3.934,2.009,2.009,0,0,1,1.273-1.736,1.346,1.346,0,0,1,1.157.231,46.843,46.843,0,0,1-1.041-5.555,3.379,3.379,0,0,1-.231-1.041c0-.116-.116-.231-.116-.347,0-2.777-.347-5.555.231-8.216.116-.231.116-.463.231-.694A8.815,8.815,0,0,1,38.156,28.681Z" transform="translate(2.461 3.646)"/>
              <path id="Path_306" data-name="Path 306" class="cls-3" d="M14.495,55.64a16.953,16.953,0,0,0-7.406,6.133A7.878,7.878,0,0,0,5.7,66.286a10.934,10.934,0,0,0,1.62,4.976,11.119,11.119,0,0,1,1.5,6.6,28.938,28.938,0,0,1,6.133,1.273c2.43.694,4.282,2.2,6.48,3.472,1.62.926,3.356,1.62,5.092,2.43a15.262,15.262,0,0,1-2.662-5.092,31.5,31.5,0,0,0-2.083-6.365,14.188,14.188,0,0,1-1.967-6.133c-.463-4.4,1.041-8.795,2.777-12.845.231-.463.926-.694,1.157-.231.116.231.347.463.463.694-.116-.926-.231-1.736-.347-2.662A74.32,74.32,0,0,0,14.495,55.64Z" transform="translate(0.317 7.7)"/>
              <path id="Path_307" data-name="Path 307" class="cls-3" d="M52.74,47.618c.463-5.786,4.86-9.258,8.679-13.076q-.174,0-.347-.347c-.463-.81-3.587-.81-4.4-.926a2.038,2.038,0,0,1-1.5-1.041C54.013,32,52.856,31.533,51.7,31.3c-1.852-.231-2.314,3.124-2.662,4.282-.694,2.662-1.852,5.67-1.736,8.332v.347h0c.347,4.282,4.629,7.753,7.406,11.225C54.244,53.173,52.624,50.28,52.74,47.618Z" transform="translate(6.856 4.382)"/>
              <path id="Path_308" data-name="Path 308" class="cls-3" d="M107.324,45.7c.926-.579,1.273-2.314,1.5-3.24a8.983,8.983,0,0,0,.116-3.934,18.416,18.416,0,0,0-3.587-6.827c.116,1.273.116,2.662.116,3.934,0,1.157-.116,3.356-1.273,4.166a6.719,6.719,0,0,1,.116,4.745A8.581,8.581,0,0,1,107.324,45.7Z" transform="translate(15.802 4.446)"/>
              <path id="Path_309" data-name="Path 309" class="cls-3" d="M83.836,88.55c.81-.463,3.009-.579,5.207-.926,2.083-3.472-3.009-6.017-5.207-8.1-2.546-2.546-3.356-5.786-3.24-9.258a14.141,14.141,0,0,1,1.157-3.934c.81-2.314.347-4.86.579-7.29.347-4.166,2.546-8.1,3.009-12.266a.774.774,0,0,1,.81-.694,10.358,10.358,0,0,1,4.86,2.546c0-1.041.116-2.083.116-3.24,0-2.083.116-4.166,2.43-4.86,1.5-.463.463-2.43.463-3.356v-.579c-1.157-2.893-2.43-4.513-5.439-5.555a20.077,20.077,0,0,1-3.934-2.43c-2.546-1.62-4.86-2.314-7.406-.231-2.662,2.2-2.314,4.629-1.5,7.753.463,1.736-.579,3.934-2.314,2.662-1.5-1.041-2.083-3.587-4.05-3.934a9.443,9.443,0,0,0-9.258,2.777c-3.934,4.513-8.332,7.522-6.133,14.234,1.736,5.207,1.736,10.878,5.207,15.391,1.5,1.967,1.852,4.513,3.356,6.6,1.389,1.967,4.282,3.24,6.249,4.629,5.092,3.587,4.629,11.109,10.415,13.886A17.268,17.268,0,0,1,83.836,88.55Z" transform="translate(7.815 3.72)"/>
              <path id="Path_310" data-name="Path 310" class="cls-3" d="M46.365,29.452c.694-.694,1.389-1.389,1.967-2.083.926-.926,2.893-2.893.463-2.893-1.967,0-4.05,0-6.017-.116a1.314,1.314,0,0,1-.926-.347c-.81-.694-1.852,2.43-2.083,2.893a6.61,6.61,0,0,1-2.893,3.009,9.134,9.134,0,0,0-2.546,2.662c-1.157,2.314-1.041,5.092-.81,7.985,0,.116.116.116.116.231,0,.579.116,1.157.116,1.736.81,2.43,3.819,3.934,5.786,5.207a6.36,6.36,0,0,1,1.041.81,11.782,11.782,0,0,1,0-6.017c.694-2.662,3.587-4.282,3.7-7.175a.617.617,0,0,1,.81-.579,15.153,15.153,0,0,1,0-3.24A4.44,4.44,0,0,1,46.365,29.452Z" transform="translate(4.667 3.222)"/>
              <path id="Path_311" data-name="Path 311" class="cls-3" d="M45.053,97.575c.116,0,.231.116.463.116,1.273.231,2.777-.347,3.934-.579,3.009-.579,5.786.116,8.563,1.041a11.327,11.327,0,0,0,7.059.116c2.2-.81,3.819-2.662,5.9-3.819,3.934-2.083,8.563-1.852,12.035-4.976a.425.425,0,0,1,.347-.116l.347-.347a11.851,11.851,0,0,1-4.745-5.092.425.425,0,0,1-.347-.116c-5.439-3.934-11.456-3.934-17.821-4.86-3.356-.463-6.249-1.157-9.6-1.041a24.313,24.313,0,0,1-6.48-.116c-5.439-1.273-9.026-5.439-12.845-9.142-2.2-2.083-4.976-4.4-6.712-6.943-.81-1.157-.463-2.083-1.5-3.472-.231-.231-.347-.463-.579-.694q-.174,0-.347-.347c-.463-.463-1.041-.926-1.5-1.389A27.229,27.229,0,0,0,18.9,65.868c-.116,4.282,2.777,7.522,3.7,11.572a16.792,16.792,0,0,0,5.555,8.91h.116l.231.231a79.559,79.559,0,0,0,9.026,6.365c.926.579,1.967,1.273,2.893,1.967C42.044,95.839,43.317,97.112,45.053,97.575Z" transform="translate(2.392 8.235)"/>
              <path id="Path_312" data-name="Path 312" class="cls-3" d="M44.077,105.591a49.968,49.968,0,0,1-5.9-1.852c-3.356-1.041-5.439-1.852-8.679.463a12.649,12.649,0,0,1-1.736.926,9.069,9.069,0,0,1-1.62.579l-2.083.694c-3.24,1.157-6.017,2.546-9.258,3.124,2.662,1.157,4.976,2.893,7.638,4.166.116.116.231.116.463.231.463.231,1.041.463,1.5.694l2.777,1.041a1.969,1.969,0,0,1,.81.116.984.984,0,0,1,.579.347c.116,0,.116.116.231.116a.425.425,0,0,1,.347.116h0a26.852,26.852,0,0,0,4.4.81,8.759,8.759,0,0,0,1.736.116,24.9,24.9,0,0,0,4.976-.463c2.662-.579,5.207-1.389,7.753-1.852a6.773,6.773,0,0,1,1.5-.231,29.541,29.541,0,0,0,7.059-1.5,12.178,12.178,0,0,0,5.439-5.092,9.8,9.8,0,0,1,1.62-2.2,2.259,2.259,0,0,1-.81-.116c-4.4.81-8.448-.579-12.729-.463H49.4C47.549,105.476,45.929,105.939,44.077,105.591Z" transform="translate(1.748 15.609)"/>
              <path id="Path_313" data-name="Path 313" class="cls-3" d="M43.613,51.306c1.736-.81,4.513,2.314,5.555,3.24,2.546,1.967,5.207,3.124,7.638,5.092-.116-.463-.116-.926-.231-1.389-.116-.116-.231-.116-.347-.231-2.777-5.092-8.1-8.448-9.026-13.886-2.546-2.2-2.314-5.439-3.124-8.332a21.912,21.912,0,0,1-2.2,3.472c-2.083,3.009-1.157,5.786-.694,9.142h0a12.352,12.352,0,0,1,2.43,2.893Z" transform="translate(5.8 5.091)"/>
              <path id="Path_314" data-name="Path 314" class="cls-3" d="M62.56,70.283a25.1,25.1,0,0,1-1.736-4.05c-.694-1.62-2.083-2.662-2.893-4.166a17.8,17.8,0,0,1-.926-2.2C54,56.513,49.946,55.008,46.59,52.347c-.579-.463-1.041-.926-1.62-1.389-1.967-1.62-2.083,1.852-2.083,2.43-.116,1.967-1.389,3.472,0,5.439A.7.7,0,0,1,43,59.29a36.055,36.055,0,0,1,3.587,5.67c2.2,4.05,2.083,8.1,2.546,12.5h2.314c3.009.116,6.133,1.157,9.258,1.5,4.86.579,9.142,1.041,13.192,3.472-1.273-2.546-2.546-5.092-5.092-6.827C66.726,73.755,64.3,72.6,62.56,70.283Z" transform="translate(6.062 7.407)"/>
              <path id="Path_315" data-name="Path 315" class="cls-3" d="M37.224,53.709a22.39,22.39,0,0,1,4.166,3.24l.463.463a3.443,3.443,0,0,1,.579-1.736c.926-1.389.231-3.24,1.041-4.513-2.2-3.472-5.092-5.207-8.216-7.522A10.433,10.433,0,0,1,34.1,42.6a17.979,17.979,0,0,0,.579,2.662c.579,2.43,1.157,5.67,2.43,7.638A.73.73,0,0,1,37.224,53.709Z" transform="translate(4.782 6.16)"/>
              <path id="Path_316" data-name="Path 316" class="cls-3" d="M99.772,121.809c7.869-2.777,13.655-6.6,17.821-14h0c.231-.463.579-1.041.81-1.5v-.231h0c0-.116,0-.116.116-.116v-.116a5.031,5.031,0,0,1,.463-.81c.347-.694.579-1.389.926-2.083l.694-1.736c1.273-3.472,2.314-6.943,3.587-10.415.926-2.777,1.852-6.365-.231-8.795a15.883,15.883,0,0,0-2.546-2.314c-1.041-.926-2.777-.579-4.166-.579-.116.116-.116.347-.231.463a32.511,32.511,0,0,1-5.207,7.753c-2.2,2.43-4.745,4.513-7.175,6.712s-5.439,2.2-8.216,3.587c-1.736,1.967-2.2,4.4-2.893,6.827a14.457,14.457,0,0,1-3.819,6.017,14.784,14.784,0,0,1-3.7,2.777c0,.116-.116.116-.116.231-1.5,1.852-2.546,3.934-4.05,5.786a11.52,11.52,0,0,1-1.736,1.62V121c1.041,3.124,5.555,4.513,8.448,4.4C92.251,124.934,96.3,122.967,99.772,121.809Z" transform="translate(12.013 11.889)"/>
              <path id="Path_317" data-name="Path 317" class="cls-3" d="M45.383,140.448c-.116.463-.231.81-.347,1.273a39.368,39.368,0,0,0-.81,3.934,17.03,17.03,0,0,0-.116,4.166,4.16,4.16,0,0,0,.231,1.273c1.041,4.86,4.629,8.563,8.216,12.5.347.463.81.926,1.157,1.389v-1.5a25.435,25.435,0,0,1,.694-4.282c.116-.347.231-.81.347-1.157a20.412,20.412,0,0,1,1.967-4.282,7.025,7.025,0,0,1,.81-1.157,3.119,3.119,0,0,1,.81-.926l.694-.694a9.994,9.994,0,0,1,1.62-1.5c2.546-2.314,5.786-4.05,8.563-5.786.116-.116.347-.231.463-.347a6.459,6.459,0,0,0,.926-.579L72,142.068c.694-.347,1.273-.579,1.967-.926,2.43-1.041,4.976-1.967,7.406-3.009l.579-.579a.713.713,0,0,1,.81-.116,28.873,28.873,0,0,0,4.05-2.43c.463-.347.81-.694,1.273-1.041a28.033,28.033,0,0,0,7.869-13.308,10.341,10.341,0,0,1-4.976,0c-2.43-.694-5.439-2.314-6.48-4.86a10.565,10.565,0,0,1-1.5.926c-2.43,1.5-4.976,2.43-7.29,4.282a29.185,29.185,0,0,1-5.092,3.24,39.089,39.089,0,0,1-12.5,3.24,25.067,25.067,0,0,1-4.166-.116c-.116,0-.347.116-.463,0-1.273-.347-3.124,2.777-4.282,4.745l-.347.694c-.231.347-.347.694-.463.81a4.691,4.691,0,0,0-.579,1.041A24.691,24.691,0,0,0,45.383,140.448Z" transform="translate(6.344 17.667)"/>
              <path id="Path_318" data-name="Path 318" class="cls-3" d="M30.342,132.13a52.156,52.156,0,0,1-6.133-1.041c-1.852,2.777-.347,6.827,3.009,6.943h1.5a11.694,11.694,0,0,0,1.967-.347,37.6,37.6,0,0,0,4.282-1.273c.463-.116.81-.347,1.273-.463a58.483,58.483,0,0,0,6.133-2.777c.926-.463,1.852-.926,2.662-1.389,1.273-.694,2.43-1.389,3.7-2.083a36.839,36.839,0,0,1-9.952,2.43,43.4,43.4,0,0,1-6.712.231A8.931,8.931,0,0,0,30.342,132.13Z" transform="translate(3.101 19.852)"/>
              <path id="Path_319" data-name="Path 319" class="cls-3" d="M34.81,124.907h-1.62a53.82,53.82,0,0,0-8.563.926,26.436,26.436,0,0,1-9.026.347A36.274,36.274,0,0,0,32.032,131.5c.579,0,1.157.116,1.736.116a39.716,39.716,0,0,0,7.406-.347,37.993,37.993,0,0,0,13.192-4.513.425.425,0,0,1,.347-.116c.347-.347.579-.81.926-1.157a11.654,11.654,0,0,0-5.9.81.633.633,0,0,1-.926-.579,18.94,18.94,0,0,1-4.4-.463,4.111,4.111,0,0,0-1.157-.231C40.364,124.907,37.587,124.791,34.81,124.907Z" transform="translate(1.874 19.091)"/>
              <path id="Path_320" data-name="Path 320" class="cls-3" d="M123.878,106.741c1.273.116,2.43.347,3.7.463a32.492,32.492,0,0,0,4.745.116h.231a22.687,22.687,0,0,1,3.934.116,8.683,8.683,0,0,1,2.893,1.041,9.775,9.775,0,0,0,1.967.579c.231,0,.463.116.694.116a40.5,40.5,0,0,0,5.323-1.62c3.24-1.157,4.86-3.472,6.133-6.6a18.275,18.275,0,0,1,2.893-5.323c1.852-2.2,2.314-4.166,3.009-6.827q.868-3.3,1.736-7.29c.116-.463.231-1.041.347-1.62a17.97,17.97,0,0,1,.463-2.43,14.178,14.178,0,0,0,.231-2.2,25.384,25.384,0,0,0-.926-10.762,13.714,13.714,0,0,0-5.323-6.827c-.116,0-.116-.116-.231-.116-3.356-2.2-7.175-2.2-10.878-1.5a72.377,72.377,0,0,0-7.175,1.852,21.065,21.065,0,0,1-6.6.81,31.288,31.288,0,0,0-8.679,1.041h-.347c-.694,2.546-1.389,5.092-1.967,7.753a17.542,17.542,0,0,1-3.7,7.985v.231a3.706,3.706,0,0,1-1.157,2.2A13.572,13.572,0,0,0,113,81.4c2.314.116,3.472,0,5.555,1.852,2.083,1.967,3.24,3.587,3.24,6.48,0,3.124-1.5,6.249-2.546,9.142l-2.083,5.9a16.873,16.873,0,0,1-.81,2.2C118.323,106.047,121.679,106.51,123.878,106.741Z" transform="translate(17.185 8.211)"/>
              <path id="Path_321" data-name="Path 321" class="cls-3" d="M43.2,23.5c2.083,0,4.282,0,6.365.116a.774.774,0,0,1,.694.81,8.81,8.81,0,0,1-2.546,4.629,11.157,11.157,0,0,0-2.43,2.893,3.54,3.54,0,0,0-.347,1.967,20.485,20.485,0,0,1,.116,2.662.6.6,0,0,1-.231.463c.694,2.314.579,5.092,1.967,7.175a10.128,10.128,0,0,1,.231-1.852c.694-3.009,1.273-6.6,2.777-9.258,1.157-2.083,3.472-1.273,5.439-.694-.579-2.314-.347-4.86-.926-7.29a.85.85,0,0,1,.231-.694c1.389-1.157,3.472-1.157,5.555-1.273a45.67,45.67,0,0,0-4.282-1.967,10.03,10.03,0,0,0-4.629-.579C49.68,20.726,43.431,21.3,43.2,23.5Z" transform="translate(6.212 2.691)"/>
              <path id="Path_322" data-name="Path 322" class="cls-3" d="M77.243,13.523c-2.662-3.24-4.513-5.092-8.795-5.786-2.083-.347-4.166-.81-4.05,1.852.116,1.736.231,3.587.231,5.323v.926a21.681,21.681,0,0,1-1.041,4.745,1.241,1.241,0,0,1-.231.694,32.456,32.456,0,0,0-1.041,3.587c-.579,2.546-1.041,5.207-1.5,7.869a30.93,30.93,0,0,0,.116,4.629c2.662-1.273,7.175-1.389,9.142,0a6.239,6.239,0,0,1,1.62,1.852c1.5,1.736,1.62,1.041,1.273-.347-.116,0-.231-.116-.347-.231-1.736-1.852-1.967-3.587-1.041-6.017.579-1.5,1.273-2.893,1.736-4.4.579-1.967.926-3.587,2.314-5.207,1.736-1.967,4.745-2.662,2.777-6.017,0-.116-.116-.116-.116-.231A7.1,7.1,0,0,1,77.243,13.523Z" transform="translate(8.968 0.637)"/>
              <path id="Path_323" data-name="Path 323" class="cls-3" d="M76.655,1.847a7.975,7.975,0,0,1-.926-.347,13.288,13.288,0,0,1,.116,2.2C75.613,5.55,77,7.055,77.349,8.906c.347,1.5-.347,3.356-.463,4.86A4.747,4.747,0,0,0,77,15.039c.347,1.62,1.62,3.009,2.083,4.629a3.221,3.221,0,0,1-.81,2.662c-1.736,1.852-3.934,2.662-4.745,5.323-.579,2.2-2.2,4.86-2.43,7.406a9.381,9.381,0,0,1,1.157-2.083c2.546-3.7,6.249-3.934,9.836-1.852a34.4,34.4,0,0,0,6.48,3.356c1.852.579,2.893,2.777,3.587,4.629a2.214,2.214,0,0,0,.463-1.736c-.116-1.041-.463-2.546.926-2.893,2.083-.579,4.513.463,6.6.81s3.24.579,4.745,2.2a22.807,22.807,0,0,1,3.819,5.786c.579-.81.347-2.893.463-3.472a31.162,31.162,0,0,0-.347-4.629h0a6.6,6.6,0,0,0-2.546-1.273.686.686,0,0,1-.347-1.041v-.231c.463-1.041.694-2.314,1.967-2.314-.926-7.522-6.365-15.391-11.919-20.367l-.231-.231c-3.472-3.124-7.869-4.4-12.266-5.555a27.017,27.017,0,0,1-2.893-.81c-.231-.116-.463-.116-.694-.231A13.51,13.51,0,0,0,76.655,1.847Z" transform="translate(10.598 -0.301)"/>
              <path id="Path_324" data-name="Path 324" class="cls-3" d="M63.515,7.68c2.662-.926,5.555-.231,8.1.347s4.282,2.43,5.786,4.4a9.19,9.19,0,0,0-.694-5.786c-.116-.231-.231-.579-.347-.81h0C75.2,4.093,74.739,2.7,72.541,1.894,71.152,1.431,69.764,1.2,68.375.737c-2.546-.81-4.745.463-7.29.231C57.5.621,59.58,9.069,59.7,10.92c0,1.389-.116,2.662-.231,3.934a3.715,3.715,0,0,0,.231,1.967,9.591,9.591,0,0,0,3.124,3.7,12.207,12.207,0,0,0,.579-2.2c.116-.463.116-1.041.231-1.5.231-2.777-.347-5.786-.463-8.448C63.167,8.143,63.167,7.8,63.515,7.68Z" transform="translate(8.695 -0.464)"/>
              <path id="Path_325" data-name="Path 325" class="cls-3" d="M57.934,33.3A20.811,20.811,0,0,1,60.48,34c0-1.389-.231-2.662-.116-4.05A23.766,23.766,0,0,1,61.522,23.7a17.429,17.429,0,0,1-4.282.694c-.81.116-2.662,0-3.24.579.347-.231.463,2.43.579,2.662a17.662,17.662,0,0,0,.347,3.472C55.157,33.073,56.43,32.958,57.934,33.3Z" transform="translate(7.91 3.189)"/>
              <path id="Path_326" data-name="Path 326" class="cls-3" d="M124.21,32.822a27.062,27.062,0,0,0,1.62-6.712c.116-.81.116-1.736.231-2.546a29.5,29.5,0,0,0-.231-4.513h0c-.579-2.893-.694-5.9-1.5-8.795a11.424,11.424,0,0,0-2.2-4.629c-2.546-3.356-7.869-1.273-7.869,2.662,0,.926-.463,2.314-1.5,2.546h-.116c-2.2.231-3.124-.926-4.745-2.314-1.389-1.157-3.7-.347-5.092,0a8.654,8.654,0,0,0-5.9,3.819c4.282,5.092,7.985,11.225,8.679,17.589a10.981,10.981,0,0,1,3.934,2.546c2.083,1.852,3.819,4.05,6.017,5.67,1.5,1.041,2.777,1.967,4.05,2.893.231-.231.463-.579.694-.81a46.194,46.194,0,0,0,3.124-5.092A11.121,11.121,0,0,1,124.21,32.822Z" transform="translate(14.654 0.084)"/>
              <path id="Path_327" data-name="Path 327" class="cls-3" d="M109.775,37.059c1.62,3.934,3.009,9.142,2.662,13.424-.231,3.356-.463,5.9,1.157,9.026a18.294,18.294,0,0,1,1.5,6.6c.347,2.546,1.5,4.976,2.2,7.522a14.749,14.749,0,0,1,0,4.513c3.009-4.05,3.356-9.72,4.629-14.465.81-3.009,1.852-5.555,1.389-8.679-.347-2.662-.579-5.323-1.041-7.985a14.111,14.111,0,0,0-4.745-8.795c-1.967-1.62-4.4-2.546-6.133-4.4-1.5-1.62-6.943-8.332-8.795-5.207C106.187,30,108.386,33.471,109.775,37.059Z" transform="translate(15.55 3.832)"/>
              <path id="Path_328" data-name="Path 328" class="cls-3" d="M124.1,22.5a33.48,33.48,0,0,1-2.43,9.6c-.347.694-.579,1.273-.926,1.967a31.786,31.786,0,0,1-3.009,4.629c-.116.116-.231.231-.231.347a12.809,12.809,0,0,1,2.546,3.356,23.184,23.184,0,0,1,1.157,3.009c.231-.579.347-1.273.579-1.852l1.389-4.513a15.416,15.416,0,0,0,.579-2.2,34.233,34.233,0,0,0,1.273-9.836C124.675,25.509,124.443,24,124.1,22.5Z" transform="translate(17.892 3)"/>
              <path id="Path_329" data-name="Path 329" class="cls-3" d="M144.738,58.933c8.795-8.216,14.581-20.482,13.886-32.633-.116.116-.231.347-.347.463a.726.726,0,0,1-.926.231c-1.736-1.041-2.662-.579-4.282.116a9.5,9.5,0,0,1-4.05.231c-4.4-.347-7.753,4.282-10.531,7.175-3.7,3.934-6.48,8.563-9.6,12.961a60.036,60.036,0,0,1-6.48,7.869.425.425,0,0,1-.347.116,10.153,10.153,0,0,1-.231,4.166c-.347,1.157-.579,2.2-.926,3.356,5.9-1.273,11.688-.81,17.474-2.43,1.041-.231,2.083-.579,3.124-.81a29.6,29.6,0,0,1,3.124-.579A.4.4,0,0,1,144.738,58.933Z" transform="translate(18.427 3.597)"/>
              <path id="Path_330" data-name="Path 330" class="cls-3" d="M89.07,49.949a.757.757,0,0,1-1.041.926c-1.157-.81-4.513-4.513-5.092-1.852a42.594,42.594,0,0,1-1.852,6.249,24.681,24.681,0,0,0-1.041,8.216c0,2.43-1.157,4.513-1.62,6.943-1.157,5.786,3.7,8.679,7.175,12.035,1.62,1.62,2.2,3.124,1.5,4.976,2.314-.579,4.166-1.389,3.24-3.356-.579-1.273-.116-3.009-.231-4.282-.116-2.083-.81-4.05-.694-6.249.116-2.546,1.967-4.745,3.934-6.365,4.282-3.472,11.225-4.282,15.738-.694a.6.6,0,0,1,.231.463,1.278,1.278,0,0,1,.926,0s3.124,1.041,2.662.231c-.926-1.736-1.967-3.356-3.009-5.092a24.265,24.265,0,0,0-8.448-7.985c-.463-.231-.347-.81,0-1.157a5.375,5.375,0,0,1,2.314-1.5c2.083-.81,1.852-2.546,1.967-4.282a1.876,1.876,0,0,1,1.389-1.852c1.736-3.472-3.124-11.8-6.48-12.382-1.273-.231-2.43-.231-3.7-.579-2.083-.463-3.934-1.157-3.7,1.5a3.734,3.734,0,0,1-.926,2.43c-1.041,1.62.347,2.777-.231,4.4-.463,1.273-2.314,1.041-2.893,2.2A18.04,18.04,0,0,0,89.07,49.949Z" transform="translate(11.722 4.481)"/>
            </g>
          </g>
        </g>
      </g>
      <path id="Path_331" data-name="Path 331" class="cls-6" d="M108.6,112s9.836,15.738,13.771,25.458,7.869,27.426,7.869,27.426" transform="translate(63.493 1530.78)"/>
      <path id="Path_332" data-name="Path 332" class="cls-3" d="M105.3,113.7s9.836,15.738,13.771,25.458a127.327,127.327,0,0,1,5.9,19.672" transform="translate(62.975 1531.047)"/>
    </g>
  </g>
</svg>
