<svg xmlns="http://www.w3.org/2000/svg" viewBox="2504 3310 20 25.71">
  <defs>
    <style>
      .cls-1 {
        fill: #f4c3c3;
      }
    </style>
  </defs>
  <path id="pinterest" class="cls-1" d="M11.775,17c-.676,3.54-1.5,6.934-3.944,8.707-.754-5.35,1.107-9.367,1.972-13.633C8.328,9.6,9.98,4.606,13.087,5.836c3.824,1.512-3.312,9.219,1.478,10.183,5,1,7.043-8.677,3.942-11.825C14.027-.354,5.464,4.088,6.518,10.6c.255,1.592,1.9,2.074.657,4.27-2.868-.635-3.724-2.9-3.614-5.913C3.739,4.019,8,.565,12.266.086c5.4-.606,10.469,1.984,11.169,7.062.788,5.735-2.438,11.946-8.213,11.5-1.566-.122-2.221-.9-3.447-1.644Z" transform="translate(2500.447 3310.001)"/>
</svg>
