<svg xmlns="http://www.w3.org/2000/svg" viewBox="1251 2641 47 47">
  <defs>
    <style>
      .cls-1 {
        fill: none;
      }

      .cls-2 {
        fill: #f4c3c3;
      }
    </style>
  </defs>
  <g id="Group_41" data-name="Group 41" transform="translate(11 -73)">
    <circle id="Ellipse_3" data-name="Ellipse 3" class="cls-1" cx="23.5" cy="23.5" r="23.5" transform="translate(1240 2714)"/>
    <path id="tumblr" class="cls-2" d="M20.431,22.08a12.888,12.888,0,0,1-2.521.934,10.66,10.66,0,0,1-2.443.267,8.39,8.39,0,0,1-2.636-.38,5.694,5.694,0,0,1-1.955-1.086,3.954,3.954,0,0,1-1.122-1.5,6.6,6.6,0,0,1-.312-2.3V10.295H7.04V7.181A6.313,6.313,0,0,0,9.234,5.974,6.023,6.023,0,0,0,10.7,4.085a8.655,8.655,0,0,0,.761-2.8h3.091V6.843H19.71v3.452H14.552v5.642a9.069,9.069,0,0,0,.2,2.457,1.66,1.66,0,0,0,.744.867,3.128,3.128,0,0,0,1.651.439,5.891,5.891,0,0,0,3.284-1.086v3.466Z" transform="translate(1249.96 2725.719)"/>
  </g>
</svg>
