<svg xmlns="http://www.w3.org/2000/svg" viewBox="1188 2641 47 47">
  <defs>
    <style>
      .cls-1 {
        fill: none;
      }

      .cls-2 {
        fill: #f4c3c3;
      }
    </style>
  </defs>
  <g id="Group_40" data-name="Group 40" transform="translate(15 -73)">
    <circle id="Ellipse_3" data-name="Ellipse 3" class="cls-1" cx="23.5" cy="23.5" r="23.5" transform="translate(1173 2714)"/>
    <path id="twitter" class="cls-2" d="M24.3,5.247A10.285,10.285,0,0,1,21.436,6a4.854,4.854,0,0,0,2.192-2.654,10.228,10.228,0,0,1-3.166,1.164A5.072,5.072,0,0,0,16.823,3a4.893,4.893,0,0,0-4.985,4.8,4.633,4.633,0,0,0,.129,1.093A14.346,14.346,0,0,1,1.692,3.875a4.638,4.638,0,0,0-.675,2.412A4.75,4.75,0,0,0,3.235,10.28a5.115,5.115,0,0,1-2.258-.6c0,.02,0,.04,0,.061a4.85,4.85,0,0,0,4,4.7,5.187,5.187,0,0,1-2.251.082A4.97,4.97,0,0,0,7.38,17.857,10.255,10.255,0,0,1,1.188,19.91,10.474,10.474,0,0,1,0,19.843,14.513,14.513,0,0,0,7.641,22,13.81,13.81,0,0,0,21.825,8.35q0-.312-.014-.62A9.932,9.932,0,0,0,24.3,5.247Z" transform="translate(1184.001 2725.002)"/>
  </g>
</svg>
