<svg xmlns="http://www.w3.org/2000/svg" xmlns:xlink="http://www.w3.org/1999/xlink" viewBox="133 240 63 63">
  <defs>
    <style>
      .cls-1 {
        clip-path: url(#clip-webdesign);
      }

      .cls-2, .cls-4 {
        fill: none;
      }

      .cls-2 {
        opacity: 0.32;
      }

      .cls-3 {
        fill: #c6a1a1;
        opacity: 0.55;
      }

      .cls-4, .cls-5 {
        stroke: #000;
        stroke-miterlimit: 10;
      }

      .cls-4 {
        stroke-width: 0.75px;
      }

      .cls-4, .cls-6 {
        opacity: 0.5;
      }

      .cls-7 {
        fill: #f4bbb5;
      }

      .cls-8 {
        fill: #f9cdc7;
      }

      .cls-9 {
        fill: #74843d;
      }
    </style>
    <clipPath id="clip-webdesign">
      <rect x="133" y="240" width="63" height="63"/>
    </clipPath>
  </defs>
  <g id="webdesign" class="cls-1">
    <g id="Group_26" data-name="Group 26" transform="translate(89 197)">
      <g id="Group_18" data-name="Group 18" transform="translate(-1139 -1431)">
        <circle id="Ellipse_4" data-name="Ellipse 4" class="cls-2" cx="31.5" cy="31.5" r="31.5" transform="translate(1183 1474)"/>
        <g id="Group_2" data-name="Group 2" transform="translate(1197.823 1493.271)">
          <path id="Path_6" data-name="Path 6" class="cls-3" d="M34.571,24.609H4.256A1.566,1.566,0,0,1,2.7,23.053V3.856A1.566,1.566,0,0,1,4.256,2.3H34.571a1.566,1.566,0,0,1,1.556,1.556v19.2A1.566,1.566,0,0,1,34.571,24.609Z" transform="translate(0.079 0.182)"/>
          <path id="Path_7" data-name="Path 7" class="cls-4" d="M32.171,22.609H1.856A1.566,1.566,0,0,1,.3,21.053V1.856A1.566,1.566,0,0,1,1.856.3H32.171a1.566,1.566,0,0,1,1.556,1.556v19.2A1.52,1.52,0,0,1,32.171,22.609Z" transform="translate(-0.3 -0.3)"/>
          <path id="Path_8" data-name="Path 8" class="cls-5" d="M19.6,30.4" transform="translate(-5.295 -8.091)"/>
          <path id="Path_9" data-name="Path 9" class="cls-5" d="M23.4,30.4" transform="translate(-6.279 -8.091)"/>
          <path id="Path_10" data-name="Path 10" class="cls-5" d="M21.3,38.9" transform="translate(-5.735 -10.291)"/>
          <path id="Path_11" data-name="Path 11" class="cls-6" d="M26.658,34.718H24.582V29.9H19.394v4.818H17.319a.507.507,0,0,0-.519.519V36.5a.507.507,0,0,0,.519.519h9.413a.507.507,0,0,0,.519-.519V35.162A.646.646,0,0,0,26.658,34.718Z" transform="translate(-4.571 -6.961)"/>
        </g>
      </g>
      <g id="New_Symbol_42_copy" transform="translate(83.908 73.557) rotate(-6)">
        <g id="Group_21" data-name="Group 21" transform="translate(-0.025 0.043)">
          <g id="Group_19" data-name="Group 19" transform="translate(5.2 9.401)">
            <path id="Path_77" data-name="Path 77" class="cls-7" d="M109.916,201.752a1.422,1.422,0,0,0,2.368-1.574,2.342,2.342,0,0,0-1.905-1.14c-.263-.073-.526-.136-.78-.185a.158.158,0,0,0-.18.122A3.663,3.663,0,0,0,109.916,201.752Z" transform="translate(-109.234 -198.564)"/>
            <path id="Path_78" data-name="Path 78" class="cls-7" d="M116.255,201.243a1.409,1.409,0,0,0,1.788.146,1.369,1.369,0,0,0-.161-1.837,2.485,2.485,0,0,0-1.969-.789c-.249-.034-.5-.054-.731-.068a.113.113,0,0,0-.122.132A3.936,3.936,0,0,0,116.255,201.243Z" transform="translate(-114.651 -198.415)"/>
            <path id="Path_79" data-name="Path 79" class="cls-8" d="M115.136,196.2a1.5,1.5,0,0,0,1.817.56,1.453,1.453,0,0,0,.214-1.944,2.67,2.67,0,0,0-1.871-1.267c-.248-.093-.5-.171-.741-.239a.119.119,0,0,0-.156.107A4.25,4.25,0,0,0,115.136,196.2Z" transform="translate(-114.024 -193.29)"/>
            <path id="Path_80" data-name="Path 80" class="cls-9" d="M107.531,212.8c.01,0,0-.02-.01-.015S107.521,212.8,107.531,212.8Z" transform="translate(-107.477 -211.815)"/>
            <path id="Path_81" data-name="Path 81" class="cls-9" d="M111.934,193.29a1.358,1.358,0,0,0,.283-.029,1.249,1.249,0,0,1,.3.01,2.951,2.951,0,0,1,.58.175c.039.015.063-.034.044-.068a1.128,1.128,0,0,0-.58-.346,1.038,1.038,0,0,0-.687,0A.139.139,0,0,0,111.934,193.29Z" transform="translate(-111.558 -192.972)"/>
            <path id="Path_82" data-name="Path 82" class="cls-9" d="M106.873,195.644a.067.067,0,0,0,.117-.063,1.018,1.018,0,0,1-.058-.614,4.855,4.855,0,0,1,.224-.482c.034-.1-.093-.229-.19-.161C106.571,194.6,106.649,195.288,106.873,195.644Z" transform="translate(-106.687 -194.239)"/>
            <path id="Path_83" data-name="Path 83" class="cls-9" d="M109.8,195.482a.736.736,0,0,1,.711.492.067.067,0,0,0,.132-.029.846.846,0,0,0-.828-.745C109.633,195.2,109.618,195.482,109.8,195.482Z" transform="translate(-109.525 -195.09)"/>
          </g>
          <path id="Path_84" data-name="Path 84" class="cls-9" d="M27.78,184.148a3.094,3.094,0,0,0-4.415,1.2.1.1,0,0,0,.18.1,3.166,3.166,0,0,1,4.166-1.2C27.79,184.285,27.848,184.192,27.78,184.148Z" transform="translate(-22.215 -174.712)"/>
          <path id="Path_85" data-name="Path 85" class="cls-9" d="M6.51,62.833C1.648,66.941-1.276,73.636.5,80A.056.056,0,0,0,.6,79.97c-1.1-6.13.862-13.1,6.149-16.825A.2.2,0,1,0,6.51,62.833Z" transform="translate(0.025 -59.722)"/>
          <g id="Group_20" data-name="Group 20" transform="translate(4.659 0)">
            <path id="Path_86" data-name="Path 86" class="cls-7" d="M109.03,8.595a2.169,2.169,0,0,0,.283-2.792,2.167,2.167,0,0,0-2.9-.292,3.331,3.331,0,0,0-1.3,2.88c-.063.385-.1.77-.132,1.135a.221.221,0,0,0,.2.234C106.541,9.735,108.041,9.633,109.03,8.595Z" transform="translate(-104.528 -4.845)"/>
            <path id="Path_87" data-name="Path 87" class="cls-8" d="M100.445,3.237a2.136,2.136,0,0,0,.492-2.665A2.075,2.075,0,0,0,98.15.586a3.818,3.818,0,0,0-1.486,2.855c-.088.37-.161.736-.219,1.087a.167.167,0,0,0,.175.2A6.085,6.085,0,0,0,100.445,3.237Z" transform="translate(-96.4 -0.043)"/>
            <path id="Path_88" data-name="Path 88" class="cls-9" d="M125.668,102.582c-.01-.015-.029,0-.019.015A.012.012,0,1,0,125.668,102.582Z" transform="translate(-124.181 -97.58)"/>
            <path id="Path_89" data-name="Path 89" class="cls-9" d="M96.081,61.488a2.251,2.251,0,0,0-.088-.4,2.143,2.143,0,0,1-.039-.434,3.922,3.922,0,0,1,.156-.853c.015-.058-.063-.088-.1-.049a1.57,1.57,0,0,0-.39.877,1.439,1.439,0,0,0,.117.97A.188.188,0,0,0,96.081,61.488Z" transform="translate(-95.588 -56.827)"/>
            <path id="Path_90" data-name="Path 90" class="cls-9" d="M100.536,93.241a.1.1,0,0,0-.107-.156,1.4,1.4,0,0,1-.862.18,6.5,6.5,0,0,1-.716-.239c-.151-.034-.307.171-.195.3C99.108,93.835,100.073,93.616,100.536,93.241Z" transform="translate(-98.469 -88.492)"/>
            <path id="Path_91" data-name="Path 91" class="cls-9" d="M100.291,73.522a1.043,1.043,0,0,1,.58-1.087.1.1,0,0,0-.063-.185,1.2,1.2,0,0,0-.911,1.3C99.93,73.8,100.32,73.78,100.291,73.522Z" transform="translate(-99.676 -68.729)"/>
          </g>
        </g>
      </g>
    </g>
  </g>
</svg>
